<svg width="46" height="46" viewBox="0 0 46 46" fill="none" xmlns="http://www.w3.org/2000/svg">
<rect x="0.5" y="0.5" width="45" height="45" rx="11.5" stroke="#6C5ECF"/>
<path d="M13.6296 17.6296C13.6296 15.4205 15.4205 13.6296 17.6296 13.6296H29.2222C31.4314 13.6296 33.2222 15.4205 33.2222 17.6296V24.2058C33.2222 26.4149 31.4314 28.2058 29.2222 28.2058H22.1403C22.0217 28.2058 21.9068 28.248 21.8164 28.3248L17.8822 31.6699C17.5575 31.946 17.0583 31.7152 17.0583 31.289V28.5867C17.0583 28.3763 16.8878 28.2058 16.6774 28.2058C14.9942 28.2058 13.6296 26.8413 13.6296 25.158V17.6296Z" fill="#6C5ECF"/>
<ellipse cx="19.5074" cy="20.9176" rx="0.97963" ry="1.04115" fill="white"/>
<ellipse cx="23.4259" cy="20.9176" rx="0.97963" ry="1.04115" fill="white"/>
<ellipse cx="27.3444" cy="20.9176" rx="0.97963" ry="1.04115" fill="white"/>
</svg>
