<svg width="14" height="14" viewBox="0 0 14 14" fill="none" xmlns="http://www.w3.org/2000/svg">
<path d="M6.9987 13.6673C5.68016 13.6673 4.39122 13.2763 3.2949 12.5438C2.19857 11.8112 1.34409 10.7701 0.839505 9.55185C0.334918 8.33372 0.202899 6.99325 0.460132 5.70005C0.717365 4.40684 1.3523 3.21896 2.28466 2.28661C3.217 1.35426 4.40489 0.719318 5.6981 0.462085C6.9913 0.204852 8.33177 0.336872 9.5499 0.841458C10.7681 1.34604 11.8093 2.20053 12.5418 3.29685C13.2744 4.39318 13.6654 5.68212 13.6654 7.00065C13.6634 8.76818 12.9604 10.4627 11.7106 11.7126C10.4608 12.9624 8.76623 13.6654 6.9987 13.6673ZM6.9987 9.00065C6.86683 9.00065 6.73796 9.03978 6.6283 9.11298C6.5187 9.18625 6.43323 9.29038 6.38277 9.41218C6.3323 9.53398 6.3191 9.66805 6.34483 9.79739C6.37056 9.92672 6.43403 10.0455 6.5273 10.1387C6.62056 10.232 6.7393 10.2955 6.86863 10.3212C6.99796 10.3469 7.13203 10.3337 7.25383 10.2833C7.37563 10.2328 7.47976 10.1473 7.55303 10.0377C7.6263 9.92805 7.66536 9.79918 7.66536 9.66732C7.66536 9.49052 7.5951 9.32092 7.4701 9.19592C7.3451 9.07092 7.1755 9.00065 6.9987 9.00065ZM6.9987 3.66732C6.8219 3.66732 6.6523 3.73756 6.5273 3.86258C6.4023 3.9876 6.33203 4.15718 6.33203 4.33398V7.66732C6.33203 7.84412 6.4023 8.01372 6.5273 8.13872C6.6523 8.26372 6.8219 8.33398 6.9987 8.33398C7.1755 8.33398 7.3451 8.26372 7.4701 8.13872C7.5951 8.01372 7.66536 7.84412 7.66536 7.66732V4.33398C7.66536 4.15718 7.5951 3.9876 7.4701 3.86258C7.3451 3.73756 7.1755 3.66732 6.9987 3.66732Z" fill="#EE5253"/>
</svg>
