<svg width="19" height="18" viewBox="0 0 19 18" fill="none" xmlns="http://www.w3.org/2000/svg">
<path d="M0 4C0 1.79086 1.79086 0 4 0H15C17.2091 0 19 1.79086 19 4V10C19 12.2091 17.2091 14 15 14H8.25748C8.13963 14 8.02556 14.0416 7.93542 14.1175L4.14707 17.3077C3.82188 17.5816 3.325 17.3504 3.325 16.9253V14.3694C3.325 14.1654 3.15959 14 2.95556 14C1.32325 14 0 12.6768 0 11.0444V4Z" fill="#9698A9" fill-opacity="0.5"/>
<ellipse cx="5.69997" cy="6.99988" rx="0.95" ry="1" fill="white"/>
<ellipse cx="9.49999" cy="6.99988" rx="0.95" ry="1" fill="white"/>
<ellipse cx="13.3" cy="6.99988" rx="0.95" ry="1" fill="white"/>
</svg>
