<svg width="36" height="36" viewBox="0 0 36 36" fill="none" xmlns="http://www.w3.org/2000/svg">
<path d="M32.3571 7.85718V32.3572H7.85714V35.8572H32.3571C34.2821 35.8572 35.8571 34.2822 35.8571 32.3572V7.85718H32.3571Z" fill="white"/>
<path d="M25.3571 0.857178H4.35714C2.43214 0.857178 0.857143 2.43218 0.857143 4.35718V25.3572C0.857143 27.2822 2.43214 28.8572 4.35714 28.8572H25.3571C27.2821 28.8572 28.8571 27.2822 28.8571 25.3572V4.35718C28.8571 2.43218 27.2821 0.857178 25.3571 0.857178ZM13.1071 25.3572H4.35714V16.6072H13.1071V25.3572ZM25.3571 25.3572H16.6071V16.6072H25.3571V25.3572ZM25.3571 13.1072H4.35714V4.35718H25.3571V13.1072Z" fill="white"/>
</svg>
