<svg width="21" height="24" viewBox="0 0 21 24" fill="none" xmlns="http://www.w3.org/2000/svg">
<path d="M7 10.5H4.66667V12.8333H7V10.5ZM11.6667 10.5H9.33333V12.8333H11.6667V10.5ZM16.3333 10.5H14V12.8333H16.3333V10.5ZM18.6667 2.33333H17.5V0H15.1667V2.33333H5.83333V0H3.5V2.33333H2.33333C1.03833 2.33333 0.0116667 3.38333 0.0116667 4.66667L0 21C0 22.2833 1.03833 23.3333 2.33333 23.3333H18.6667C19.95 23.3333 21 22.2833 21 21V4.66667C21 3.38333 19.95 2.33333 18.6667 2.33333ZM18.6667 21H2.33333V8.16667H18.6667V21Z" fill="#9698A9"/>
</svg>
