<svg width="20" height="22" viewBox="0 0 20 22" fill="none" xmlns="http://www.w3.org/2000/svg">
<path d="M13.3333 10V3.33333L10 0L6.66667 3.33333V5.55556H0V21.1111H20V10H13.3333ZM4.44444 18.8889H2.22222V16.6667H4.44444V18.8889ZM4.44444 14.4444H2.22222V12.2222H4.44444V14.4444ZM4.44444 10H2.22222V7.77778H4.44444V10ZM11.1111 18.8889H8.88889V16.6667H11.1111V18.8889ZM11.1111 14.4444H8.88889V12.2222H11.1111V14.4444ZM11.1111 10H8.88889V7.77778H11.1111V10ZM11.1111 5.55556H8.88889V3.33333H11.1111V5.55556ZM17.7778 18.8889H15.5556V16.6667H17.7778V18.8889ZM17.7778 14.4444H15.5556V12.2222H17.7778V14.4444Z" fill="#5C40CC"/>
</svg>
