<svg width="18" height="4" viewBox="0 0 18 4" fill="none" xmlns="http://www.w3.org/2000/svg">
<path d="M16.5 3.09375C17.3284 3.09375 18 2.42218 18 1.59375V1.5C18 0.671573 17.3284 0 16.5 0C15.6716 0 15 0.671573 15 1.5V1.59375C15 2.42218 15.6716 3.09375 16.5 3.09375ZM9 3.09375C9.82843 3.09375 10.5 2.42218 10.5 1.59375V1.5C10.5 0.671573 9.82843 0 9 0C8.17157 0 7.5 0.671573 7.5 1.5V1.59375C7.5 2.42218 8.17157 3.09375 9 3.09375ZM0 1.59375C0 2.42218 0.671573 3.09375 1.5 3.09375C2.32843 3.09375 3 2.42218 3 1.59375V1.5C3 0.671573 2.32843 0 1.5 0C0.671573 0 0 0.671573 0 1.5L0 1.59375Z" fill="#9698A9"/>
</svg>
