<svg width="16" height="19" viewBox="0 0 16 19" fill="none" xmlns="http://www.w3.org/2000/svg">
<path d="M10.6667 0H5.33333V1.77778H10.6667V0ZM7.11111 11.5556H8.88889V6.22222H7.11111V11.5556ZM14.2489 5.68L15.5111 4.41778C15.1289 3.96444 14.7111 3.53778 14.2578 3.16444L12.9956 4.42667C11.6178 3.32444 9.88444 2.66667 8 2.66667C3.58222 2.66667 0 6.24889 0 10.6667C0 15.0844 3.57333 18.6667 8 18.6667C12.4267 18.6667 16 15.0844 16 10.6667C16 8.78222 15.3422 7.04889 14.2489 5.68ZM8 16.8889C4.56 16.8889 1.77778 14.1067 1.77778 10.6667C1.77778 7.22667 4.56 4.44444 8 4.44444C11.44 4.44444 14.2222 7.22667 14.2222 10.6667C14.2222 14.1067 11.44 16.8889 8 16.8889Z" fill="#9698A9"/>
</svg>
