<svg width="200" height="200" viewBox="0 0 200 200" fill="none" xmlns="http://www.w3.org/2000/svg">
<path d="M200 152.96H0V153.06H200V152.96Z" fill="#EBEBEB"/>
<path d="M179.96 159.396H166.712V159.496H179.96V159.396Z" fill="#EBEBEB"/>
<path d="M132.488 160.484H129.012V160.584H132.488V160.484Z" fill="#EBEBEB"/>
<path d="M166.312 155.684H158.636V155.784H166.312V155.684Z" fill="#EBEBEB"/>
<path d="M38.26 156.356H20.984V156.456H38.26V156.356Z" fill="#EBEBEB"/>
<path d="M44.356 156.356H41.824V156.456H44.356V156.356Z" fill="#EBEBEB"/>
<path d="M90.06 158.044H52.588V158.144H90.06V158.044Z" fill="#EBEBEB"/>
<path d="M94.8001 135.12H17.5641C16.959 135.119 16.3791 134.878 15.9516 134.45C15.5241 134.021 15.2841 133.441 15.2841 132.836V24.264C15.2893 23.6624 15.5317 23.0872 15.9586 22.6633C16.3855 22.2394 16.9624 22.001 17.5641 22H94.8001C95.4058 22 95.9868 22.2406 96.4151 22.669C96.8434 23.0973 97.0841 23.6782 97.0841 24.284V132.836C97.0841 133.442 96.8434 134.023 96.4151 134.451C95.9868 134.879 95.4058 135.12 94.8001 135.12ZM17.5641 22.08C16.9855 22.0811 16.431 22.3116 16.0223 22.7211C15.6136 23.1306 15.3841 23.6855 15.3841 24.264V132.836C15.3841 133.415 15.6136 133.969 16.0223 134.379C16.431 134.788 16.9855 135.019 17.5641 135.02H94.8001C95.379 135.019 95.9339 134.789 96.3432 134.379C96.7526 133.97 96.983 133.415 96.9841 132.836V24.264C96.983 23.6851 96.7526 23.1302 96.3432 22.7208C95.9339 22.3115 95.379 22.0811 94.8001 22.08H17.5641Z" fill="#EBEBEB"/>
<path d="M181.324 135.12H104.084C103.479 135.119 102.898 134.878 102.47 134.45C102.042 134.022 101.801 133.441 101.8 132.836V24.264C101.806 23.662 102.05 23.0868 102.477 22.663C102.905 22.2392 103.482 22.001 104.084 22H181.324C181.925 22.0021 182.501 22.2409 182.927 22.6647C183.353 23.0885 183.595 23.6631 183.6 24.264V132.836C183.6 133.44 183.361 134.02 182.934 134.448C182.507 134.876 181.928 135.118 181.324 135.12ZM104.084 22.08C103.505 22.0811 102.95 22.3115 102.541 22.7208C102.132 23.1302 101.901 23.6851 101.9 24.264V132.836C101.901 133.415 102.132 133.97 102.541 134.379C102.95 134.789 103.505 135.019 104.084 135.02H181.324C181.903 135.019 182.458 134.789 182.867 134.379C183.277 133.97 183.507 133.415 183.508 132.836V24.264C183.507 23.6851 183.277 23.1302 182.867 22.7208C182.458 22.3115 181.903 22.0811 181.324 22.08H104.084Z" fill="#EBEBEB"/>
<path d="M148.032 118.444V126.264L151.332 128.664H135.912L140.84 126.84V118.988L148.032 118.444Z" fill="#E0E0E0"/>
<path d="M104.088 128.44V153.076H179.956V128.44H104.088ZM105.328 130.04H166.24V138.092H105.328V130.04Z" fill="#E0E0E0"/>
<path d="M104.088 128.44V153.076H167.896V128.44H104.088ZM105.328 130.04H166.24V138.092H105.328V130.04Z" fill="#EBEBEB"/>
<path d="M105.332 138.088H116.436V130.036H105.332V138.088Z" fill="#E0E0E0"/>
<path d="M150.16 138.088H166.24V134.064H150.16V138.088Z" fill="#E0E0E0"/>
<path d="M138.8 138.088H149.144V135.696H138.8V138.088Z" fill="#E0E0E0"/>
<path d="M124.216 138.092H136.412V133.2H124.216V138.092Z" fill="#E0E0E0"/>
<path d="M154.128 139.84L154.424 140.804H158.38L158.676 139.84H166.24V150.528H146.568V139.84H154.128Z" fill="#E0E0E0"/>
<path d="M133.536 139.84L133.832 140.804H137.788L138.08 139.84H145.644V150.528H125.972V139.84H133.536Z" fill="#E0E0E0"/>
<path d="M112.944 139.84L113.24 140.804H117.192L117.488 139.84H125.052V150.528H105.38V139.84H112.944Z" fill="#E0E0E0"/>
<path d="M115.496 123.116H167.776C168.556 123.116 169.188 122.484 169.188 121.704V91.232C169.188 90.4521 168.556 89.82 167.776 89.82H115.496C114.716 89.82 114.084 90.4521 114.084 91.232V121.704C114.084 122.484 114.716 123.116 115.496 123.116Z" fill="#E0E0E0"/>
<path d="M114.2 123.116H166.48C167.26 123.116 167.892 122.484 167.892 121.704V91.232C167.892 90.4521 167.26 89.82 166.48 89.82H114.2C113.42 89.82 112.788 90.4521 112.788 91.232V121.704C112.788 122.484 113.42 123.116 114.2 123.116Z" fill="#E6E6E6"/>
<path d="M166.276 121.496V91.4399H114.412V121.496H166.276Z" fill="#F0F0F0"/>
<path d="M174.636 33.4121H129.588V83.2601H174.636V33.4121Z" fill="#E9E9E9"/>
<path d="M172.768 35.3879H131.568V81.3879H172.768V35.3879Z" fill="#F4F4F4"/>
<path d="M143.212 35.3879L131.568 78.9959V55.3879L136.896 35.3879H143.212Z" fill="white"/>
<path d="M148.416 35.3879L136.136 81.3879H133.82L146.1 35.3879H148.416Z" fill="white"/>
<path d="M172.768 47.9319V71.5439L170.16 81.3879H163.844L172.768 47.9319Z" fill="white"/>
<path d="M152.908 33.4121H151.308V83.2601H152.908V33.4121Z" fill="#E9E9E9"/>
<path d="M173.768 43.5281H130.368V45.1281H173.768V43.5281Z" fill="#E9E9E9"/>
<path d="M28.548 76.292V88.696H46.096V76.292H28.548Z" fill="#E0E0E0"/>
<path d="M29.3719 77.1039V87.8879H45.2719V77.1039H29.3719Z" fill="#EBEBEB"/>
<path d="M34.636 60.7161V73.1201H52.184V60.7161H34.636Z" fill="#E0E0E0"/>
<path d="M35.46 61.528V72.312H51.36V61.528H35.46Z" fill="#EBEBEB"/>
<path d="M60.596 76.2959H49.428V92.0959H60.596V76.2959Z" fill="#E0E0E0"/>
<path d="M59.868 77.04H50.156V91.356H59.868V77.04Z" fill="#EBEBEB"/>
<path d="M66.9479 55.5681H54.5439V73.1161H66.9479V55.5681Z" fill="#E0E0E0"/>
<path d="M66.136 56.396H55.3521V72.296H66.136V56.396Z" fill="#EBEBEB"/>
<path d="M78.1279 86.0079V76.2959H64.3879V86.0079H78.1279Z" fill="#E0E0E0"/>
<path d="M77.48 85.372V76.928H65.032V85.372H77.48Z" fill="#EBEBEB"/>
<path d="M25.6 104.204H68.968C69.9051 104.205 70.8035 104.578 71.4658 105.241C72.128 105.904 72.5 106.803 72.5 107.74L77.3 138.324H26.852L22.052 107.74C22.0515 107.274 22.143 106.813 22.3212 106.383C22.4995 105.953 22.761 105.563 23.0907 105.234C23.4205 104.906 23.8119 104.645 24.2425 104.469C24.6732 104.292 25.1345 104.202 25.6 104.204Z" fill="#EBEBEB"/>
<path d="M77.1721 116.032L77.1201 115.876H93.9201V153.076H73.1201V120.336C73.1043 119.233 73.5184 118.167 74.2747 117.364C75.0309 116.56 76.07 116.083 77.1721 116.032Z" fill="#E0E0E0"/>
<path d="M94.0959 116.024C95.2382 116.026 96.3329 116.481 97.1398 117.29C97.9467 118.098 98.3999 119.194 98.3999 120.336V153.076H89.7839V120.336C89.7839 119.192 90.2382 118.096 91.0469 117.287C91.8555 116.478 92.9523 116.024 94.0959 116.024Z" fill="#F0F0F0"/>
<path d="M28.772 116.032L28.72 115.876H45.52V153.076H24.72V120.336C24.7043 119.233 25.1184 118.167 25.8746 117.364C26.6309 116.56 27.67 116.083 28.772 116.032Z" fill="#E0E0E0"/>
<path d="M50.0079 153.076H86.9719V126.876H50.0079V153.076Z" fill="#E0E0E0"/>
<path d="M84.5639 133.272H42.9639V124.188H84.5639C85.7691 124.188 86.9248 124.667 87.777 125.519C88.6292 126.371 89.1079 127.527 89.1079 128.732C89.1068 129.936 88.6276 131.091 87.7756 131.942C86.9235 132.794 85.7684 133.272 84.5639 133.272Z" fill="#F5F5F5"/>
<path d="M45.696 116.024C46.8383 116.026 47.933 116.481 48.7399 117.29C49.5468 118.098 50 119.194 50 120.336V153.076H41.384V120.336C41.384 119.192 41.8383 118.096 42.647 117.287C43.4556 116.478 44.5524 116.024 45.696 116.024Z" fill="#F0F0F0"/>
<path d="M33.916 138.776H26.852L22.052 107.74C22.0515 107.274 22.143 106.813 22.3212 106.383C22.4995 105.953 22.761 105.563 23.0907 105.234C23.4205 104.906 23.8119 104.645 24.2425 104.469C24.6732 104.292 25.1345 104.202 25.6 104.204C26.0644 104.204 26.5242 104.295 26.9532 104.473C27.3822 104.651 27.772 104.911 28.1003 105.24C28.4287 105.568 28.6891 105.958 28.8668 106.387C29.0445 106.816 29.136 107.276 29.136 107.74L33.916 138.776Z" fill="#E0E0E0"/>
<path d="M23.732 30.1919V41.9999C23.7339 42.1528 23.7669 42.3037 23.829 42.4433C23.8911 42.583 23.9811 42.7086 24.0935 42.8123C24.2058 42.916 24.3381 42.9957 24.4823 43.0465C24.6265 43.0974 24.7795 43.1182 24.932 43.1079H64.86C64.86 43.1079 69.476 40.9559 69.148 37.9479C68.888 35.5479 68.616 33.5919 68.392 32.1039C68.2603 31.2302 67.8183 30.4331 67.1469 29.8586C66.4755 29.2842 65.6196 28.9708 64.736 28.9759H24.932C24.7731 28.9759 24.6157 29.0074 24.4691 29.0687C24.3224 29.13 24.1894 29.2199 24.0778 29.333C23.9662 29.4461 23.8781 29.5803 23.8187 29.7278C23.7594 29.8752 23.7299 30.033 23.732 30.1919Z" fill="#F5F5F5"/>
<path d="M23.7319 30.1921V42.0001C23.7338 42.153 23.7668 42.3039 23.8289 42.4436C23.891 42.5832 23.981 42.7088 24.0934 42.8125C24.2057 42.9162 24.338 42.9959 24.4822 43.0467C24.6264 43.0976 24.7794 43.1184 24.9319 43.1081H28.4559C28.4559 43.1081 33.0719 40.9561 32.7439 37.9481C32.4799 35.5601 32.2119 33.6001 31.9999 32.1161C31.8682 31.2424 31.4262 30.4453 30.7548 29.8709C30.0834 29.2964 29.2275 28.983 28.3439 28.9881H24.9439C24.785 28.9865 24.6273 29.0165 24.4801 29.0763C24.3329 29.1362 24.199 29.2247 24.0862 29.3367C23.9735 29.4487 23.8841 29.582 23.8233 29.7289C23.7624 29.8757 23.7314 30.0332 23.7319 30.1921Z" fill="#E6E6E6"/>
<path d="M68.232 38.9121H33.352C33.352 38.9121 32.2 41.4641 30.244 42.5121H64.324C64.324 42.5121 67.932 40.8641 68.232 38.9121Z" fill="#E0E0E0"/>
<path d="M65.824 41.3159H32.152L32.652 42.5199H65.824V41.3159Z" fill="#EBEBEB"/>
<path d="M67.0281 39.812H33.3521L33.8561 41.016H67.0281V39.812Z" fill="#EBEBEB"/>
<path d="M34.556 38.3601H35.408V38.0081H34.556V38.3601Z" fill="#E0E0E0"/>
<path d="M35.756 38.3601H36.608V38.0081H35.756V38.3601Z" fill="#E0E0E0"/>
<path d="M100 171.024C142.833 171.024 177.556 168.997 177.556 166.496C177.556 163.995 142.833 161.968 100 161.968C57.167 161.968 22.444 163.995 22.444 166.496C22.444 168.997 57.167 171.024 100 171.024Z" fill="#F5F5F5"/>
<path d="M36.28 137.64C36.364 138.228 34.768 138.616 33.48 138.84C33.588 139.908 34.28 140.988 35.276 141.996C36.512 141.3 38.272 140.396 38.6 140.608C38.928 140.82 37.136 142 36 142.696C36.8071 143.399 37.6611 144.045 38.556 144.632C39.108 144.116 39.756 143.66 40.156 143.908C40.556 144.156 40.448 144.96 40.248 145.676C41.592 146.456 42.596 146.932 42.596 146.932C42.9868 145.685 43.2876 144.411 43.496 143.12C43.428 142.988 43.36 142.852 43.296 142.72C43.08 142.22 43.296 142.008 43.648 141.94C43.7498 141.027 43.7578 140.107 43.672 139.192C42.152 138.872 40.304 138.284 40.996 137.372C41.396 136.824 42.196 136.76 42.972 136.896C42.864 136.715 42.738 136.544 42.596 136.388C39.832 133.34 37.904 136.388 37.904 136.388C36.304 135.048 34.036 135.408 33.548 137.504C34.448 137.26 36.176 136.916 36.28 137.64Z" fill="#5C40CC"/>
<path opacity="0.3" d="M36.28 137.64C36.364 138.228 34.768 138.616 33.48 138.84C33.588 139.908 34.28 140.988 35.276 141.996C36.512 141.3 38.272 140.396 38.6 140.608C38.928 140.82 37.136 142 36 142.696C36.8071 143.399 37.6611 144.045 38.556 144.632C39.108 144.116 39.756 143.66 40.156 143.908C40.556 144.156 40.448 144.96 40.248 145.676C41.592 146.456 42.596 146.932 42.596 146.932C42.9868 145.685 43.2876 144.411 43.496 143.12C43.428 142.988 43.36 142.852 43.296 142.72C43.08 142.22 43.296 142.008 43.648 141.94C43.7498 141.027 43.7578 140.107 43.672 139.192C42.152 138.872 40.304 138.284 40.996 137.372C41.396 136.824 42.196 136.76 42.972 136.896C42.864 136.715 42.738 136.544 42.596 136.388C39.832 133.34 37.904 136.388 37.904 136.388C36.304 135.048 34.036 135.408 33.548 137.504C34.448 137.26 36.176 136.916 36.28 137.64Z" fill="white"/>
<path d="M39.7321 160.036L39.3321 160.004C39.3321 159.796 40.9681 139.392 36.3881 137.468C36.1696 137.367 35.9306 137.317 35.6899 137.324C35.4491 137.33 35.213 137.392 35.0001 137.504C33.3481 138.364 32.5561 141.936 32.5481 141.972L32.1481 141.888C32.1801 141.736 32.9881 138.096 34.8081 137.148C35.0732 137.008 35.3669 136.931 35.6665 136.923C35.9661 136.915 36.2636 136.975 36.5361 137.1C41.3881 139.136 39.8001 159.2 39.7321 160.036Z" fill="#5C40CC"/>
<path d="M40.3081 159.6C40.2281 158.684 38.3561 137.096 41.8521 134.8C42.6921 134.248 43.4521 134.132 44.0721 134.452C45.7241 135.288 45.9401 138.816 45.9481 138.968L45.5481 138.992C45.5481 138.956 45.3361 135.54 43.8921 134.812C43.3921 134.56 42.7801 134.668 42.0721 135.132C38.7761 137.296 40.6881 159.34 40.7041 159.564L40.3081 159.6Z" fill="#5C40CC"/>
<path d="M40.8321 161.34C40.8081 160.636 40.2321 144.112 43.4121 142.664C43.7089 142.526 44.0325 142.454 44.3601 142.454C44.6876 142.454 45.0112 142.526 45.3081 142.664C47.4921 143.624 48.8401 147.696 48.9081 147.864L48.5281 147.988C48.5281 147.948 47.1761 143.916 45.1561 143.028C44.9118 142.911 44.6447 142.851 44.3741 142.851C44.1035 142.851 43.8363 142.911 43.5921 143.028C41.1521 144.136 41.0681 156.628 41.2441 161.324L40.8321 161.34Z" fill="#5C40CC"/>
<path d="M40.0241 160.584L39.6241 160.54C40.1881 155.62 41.2601 142.512 39.5081 140.94C39.4232 140.837 39.3104 140.762 39.1833 140.722C39.0562 140.682 38.9203 140.68 38.7921 140.716C37.6001 141.2 36.9001 145.44 36.7241 147.048L36.3241 147.004C36.3921 146.388 37.0321 140.972 38.6441 140.356C38.8398 140.289 39.0509 140.281 39.2509 140.334C39.4509 140.387 39.6309 140.497 39.7681 140.652C42.0361 142.672 40.1081 159.852 40.0241 160.584Z" fill="#5C40CC"/>
<path d="M33.348 151.26H47.72L46.52 167.356H34.548L33.348 151.26Z" fill="#263238"/>
<path opacity="0.2" d="M37.712 151.26L38.112 167.356H46.52L47.72 151.26H37.712Z" fill="white"/>
<path d="M35.3041 145.352C35.1561 145.752 34.0401 145.436 33.1641 145.124C32.8641 145.82 32.9321 146.724 33.1921 147.684C34.1881 147.684 35.5921 147.716 35.7161 147.968C35.8401 148.22 34.3361 148.34 33.4041 148.368C33.661 149.079 33.967 149.771 34.3201 150.44C34.8361 150.308 35.3921 150.252 35.5441 150.536C35.6961 150.82 35.3641 151.284 34.9961 151.656C35.5561 152.6 36.0121 153.256 36.0121 153.256C36.6819 152.617 37.3036 151.93 37.8721 151.2C37.8721 151.096 37.8721 150.988 37.8721 150.88C37.9121 150.48 38.1161 150.436 38.3601 150.516C38.7349 149.987 39.0552 149.421 39.3161 148.828C38.4881 148.112 37.5481 147.116 38.2881 146.788C38.7361 146.596 39.2281 146.816 39.6681 147.188C39.6657 147.038 39.6469 146.889 39.6121 146.744C38.9521 143.916 36.7201 145.144 36.7201 145.144C36.1881 143.768 34.6681 143.22 33.6521 144.344C34.3081 144.488 35.4921 144.868 35.3041 145.352Z" fill="#5C40CC"/>
<path opacity="0.3" d="M35.3041 145.352C35.1561 145.752 34.0401 145.436 33.1641 145.124C32.8641 145.82 32.9321 146.724 33.1921 147.684C34.1881 147.684 35.5921 147.716 35.7161 147.968C35.8401 148.22 34.3361 148.34 33.4041 148.368C33.661 149.079 33.967 149.771 34.3201 150.44C34.8361 150.308 35.3921 150.252 35.5441 150.536C35.6961 150.82 35.3641 151.284 34.9961 151.656C35.5561 152.6 36.0121 153.256 36.0121 153.256C36.6819 152.617 37.3036 151.93 37.8721 151.2C37.8721 151.096 37.8721 150.988 37.8721 150.88C37.9121 150.48 38.1161 150.436 38.3601 150.516C38.7349 149.987 39.0552 149.421 39.3161 148.828C38.4881 148.112 37.5481 147.116 38.2881 146.788C38.7361 146.596 39.2281 146.816 39.6681 147.188C39.6657 147.038 39.6469 146.889 39.6121 146.744C38.9521 143.916 36.7201 145.144 36.7201 145.144C36.1881 143.768 34.6681 143.22 33.6521 144.344C34.3081 144.488 35.4921 144.868 35.3041 145.352Z" fill="white"/>
<path d="M45.976 147.264C45.5289 147.301 45.0882 147.394 44.664 147.54C44.5484 147.235 44.4822 146.914 44.468 146.588C44.376 143.692 46.468 144.912 47.548 144.06C47.7978 143.843 48.0898 143.679 48.4058 143.58C48.7217 143.481 49.0548 143.448 49.384 143.484C49.2895 143.645 49.2066 143.812 49.136 143.984C49.1097 144.047 49.0981 144.115 49.1021 144.183C49.1062 144.251 49.1257 144.318 49.1593 144.377C49.1929 144.437 49.2396 144.488 49.2959 144.526C49.3521 144.565 49.4165 144.59 49.484 144.6C49.7541 144.653 50.0342 144.62 50.284 144.504C50.3582 144.464 50.428 144.415 50.492 144.36C50.6672 144.664 50.8017 144.989 50.892 145.328C51.0004 145.733 51.0634 146.149 51.08 146.568C50.9142 146.603 50.7512 146.65 50.592 146.708C50.5292 146.735 50.4734 146.777 50.4288 146.829C50.3842 146.881 50.352 146.942 50.3347 147.008C50.3174 147.075 50.3153 147.144 50.3287 147.211C50.3421 147.278 50.3706 147.342 50.412 147.396C50.5864 147.57 50.7894 147.712 51.012 147.816C50.9367 148.28 50.8134 148.734 50.644 149.172L50.496 149.196C50.392 149.216 50.288 149.244 50.184 149.272L50.012 149.336C49.9408 149.367 49.8786 149.416 49.8311 149.477C49.7836 149.539 49.7523 149.611 49.74 149.688C49.7334 149.764 49.7457 149.84 49.7757 149.91C49.8057 149.98 49.8526 150.041 49.912 150.088C49.9801 150.138 50.0524 150.182 50.128 150.22C49.8515 150.698 49.456 151.096 48.98 151.376C48.5597 151.186 48.151 150.971 47.756 150.732C47.844 150.616 47.932 150.5 48.012 150.38C48.1062 150.248 48.1502 150.086 48.136 149.924C48.1102 149.766 48.026 149.623 47.9 149.524C47.8359 149.474 47.7626 149.438 47.6844 149.417C47.6061 149.395 47.5245 149.39 47.444 149.4C47.2858 149.426 47.1431 149.51 47.044 149.636C46.948 149.78 46.84 149.916 46.736 150.036C46.1824 149.628 45.6872 149.146 45.264 148.604H45.308C45.5703 148.536 45.8379 148.49 46.108 148.468C46.2441 148.423 46.3604 148.332 46.4367 148.211C46.513 148.09 46.5447 147.946 46.5262 147.804C46.5077 147.661 46.4403 147.53 46.3355 147.433C46.2307 147.335 46.0951 147.277 45.952 147.268L45.976 147.264Z" fill="#5C40CC"/>
<path opacity="0.5" d="M45.976 147.264C45.5289 147.301 45.0882 147.394 44.664 147.54C44.5484 147.235 44.4822 146.914 44.468 146.588C44.376 143.692 46.468 144.912 47.548 144.06C47.7978 143.843 48.0898 143.679 48.4058 143.58C48.7217 143.481 49.0548 143.448 49.384 143.484C49.2895 143.645 49.2066 143.812 49.136 143.984C49.1097 144.047 49.0981 144.115 49.1021 144.183C49.1062 144.251 49.1257 144.318 49.1593 144.377C49.1929 144.437 49.2396 144.488 49.2959 144.526C49.3521 144.565 49.4165 144.59 49.484 144.6C49.7541 144.653 50.0342 144.62 50.284 144.504C50.3582 144.464 50.428 144.415 50.492 144.36C50.6672 144.664 50.8017 144.989 50.892 145.328C51.0004 145.733 51.0634 146.149 51.08 146.568C50.9142 146.603 50.7512 146.65 50.592 146.708C50.5292 146.735 50.4734 146.777 50.4288 146.829C50.3842 146.881 50.352 146.942 50.3347 147.008C50.3174 147.075 50.3153 147.144 50.3287 147.211C50.3421 147.278 50.3706 147.342 50.412 147.396C50.5864 147.57 50.7894 147.712 51.012 147.816C50.9367 148.28 50.8134 148.734 50.644 149.172L50.496 149.196C50.392 149.216 50.288 149.244 50.184 149.272L50.012 149.336C49.9408 149.367 49.8786 149.416 49.8311 149.477C49.7836 149.539 49.7523 149.611 49.74 149.688C49.7334 149.764 49.7457 149.84 49.7757 149.91C49.8057 149.98 49.8526 150.041 49.912 150.088C49.9801 150.138 50.0524 150.182 50.128 150.22C49.8515 150.698 49.456 151.096 48.98 151.376C48.5597 151.186 48.151 150.971 47.756 150.732C47.844 150.616 47.932 150.5 48.012 150.38C48.1062 150.248 48.1502 150.086 48.136 149.924C48.1102 149.766 48.026 149.623 47.9 149.524C47.8359 149.474 47.7626 149.438 47.6844 149.417C47.6061 149.395 47.5245 149.39 47.444 149.4C47.2858 149.426 47.1431 149.51 47.044 149.636C46.948 149.78 46.84 149.916 46.736 150.036C46.1824 149.628 45.6872 149.146 45.264 148.604H45.308C45.5703 148.536 45.8379 148.49 46.108 148.468C46.2441 148.423 46.3604 148.332 46.4367 148.211C46.513 148.09 46.5447 147.946 46.5262 147.804C46.5077 147.661 46.4403 147.53 46.3355 147.433C46.2307 147.335 46.0951 147.277 45.952 147.268L45.976 147.264Z" fill="white"/>
<path d="M46.8001 137.272C47.0474 137.095 47.3162 136.95 47.6001 136.84C47.5269 136.63 47.4202 136.432 47.2841 136.256C46.0601 134.692 45.5081 136.256 44.5561 136.28C44.3325 136.277 44.1106 136.319 43.9041 136.405C43.6977 136.491 43.5112 136.619 43.3561 136.78C43.4748 136.824 43.591 136.875 43.7041 136.932C43.746 136.954 43.7824 136.984 43.8105 137.022C43.8386 137.06 43.8576 137.104 43.8661 137.15C43.8746 137.197 43.8724 137.244 43.8595 137.29C43.8467 137.335 43.8236 137.377 43.7921 137.412C43.6734 137.562 43.5092 137.671 43.3241 137.72C43.2655 137.724 43.2067 137.724 43.1481 137.72C43.1926 137.956 43.2651 138.185 43.3641 138.404C43.4854 138.664 43.6357 138.91 43.8121 139.136C43.9141 139.082 44.0197 139.035 44.1281 138.996C44.1731 138.982 44.2207 138.978 44.2674 138.985C44.314 138.993 44.3584 139.01 44.397 139.037C44.4357 139.065 44.4676 139.1 44.4903 139.141C44.513 139.183 44.5259 139.229 44.5281 139.276C44.5136 139.444 44.4689 139.608 44.3961 139.76C44.6428 139.973 44.9109 140.159 45.1961 140.316L45.2841 140.26L45.4841 140.164C45.5226 140.146 45.5628 140.133 45.6041 140.124C45.6547 140.108 45.7086 140.106 45.7605 140.117C45.8123 140.128 45.8604 140.153 45.9001 140.188C45.9399 140.225 45.9693 140.272 45.9854 140.324C46.0016 140.376 46.0039 140.431 45.9921 140.484C45.9784 140.54 45.961 140.595 45.9401 140.648C46.2942 140.778 46.676 140.814 47.0481 140.752C47.1867 140.468 47.3069 140.175 47.4081 139.876L47.1201 139.804C47.0134 139.775 46.92 139.71 46.8561 139.62C46.7961 139.525 46.776 139.41 46.8001 139.3C46.8108 139.246 46.8327 139.194 46.8644 139.149C46.896 139.103 46.9368 139.065 46.9841 139.036C47.0792 138.976 47.1942 138.956 47.3041 138.98C47.4161 139.012 47.5321 139.036 47.6441 139.064C47.7577 138.608 47.8075 138.138 47.7921 137.668H47.7641C47.5931 137.748 47.4298 137.843 47.2761 137.952C47.2296 137.982 47.1777 138.002 47.1232 138.012C47.0688 138.022 47.013 138.021 46.959 138.01C46.9049 137.998 46.8537 137.976 46.8083 137.944C46.7628 137.913 46.724 137.872 46.6941 137.826C46.6641 137.78 46.6436 137.728 46.6338 137.673C46.6239 137.619 46.6248 137.563 46.6365 137.509C46.6482 137.455 46.6705 137.404 46.702 137.358C46.7334 137.313 46.7736 137.274 46.8201 137.244L46.8001 137.272Z" fill="#5C40CC"/>
<path opacity="0.3" d="M46.8001 137.272C47.0474 137.095 47.3162 136.95 47.6001 136.84C47.5269 136.63 47.4202 136.432 47.2841 136.256C46.0601 134.692 45.5081 136.256 44.5561 136.28C44.3325 136.277 44.1106 136.319 43.9041 136.405C43.6977 136.491 43.5112 136.619 43.3561 136.78C43.4748 136.824 43.591 136.875 43.7041 136.932C43.746 136.954 43.7824 136.984 43.8105 137.022C43.8386 137.06 43.8576 137.104 43.8661 137.15C43.8746 137.197 43.8724 137.244 43.8595 137.29C43.8467 137.335 43.8236 137.377 43.7921 137.412C43.6734 137.562 43.5092 137.671 43.3241 137.72C43.2655 137.724 43.2067 137.724 43.1481 137.72C43.1926 137.956 43.2651 138.185 43.3641 138.404C43.4854 138.664 43.6357 138.91 43.8121 139.136C43.9141 139.082 44.0197 139.035 44.1281 138.996C44.1731 138.982 44.2207 138.978 44.2674 138.985C44.314 138.993 44.3584 139.01 44.397 139.037C44.4357 139.065 44.4676 139.1 44.4903 139.141C44.513 139.183 44.5259 139.229 44.5281 139.276C44.5136 139.444 44.4689 139.608 44.3961 139.76C44.6428 139.973 44.9109 140.159 45.1961 140.316L45.2841 140.26L45.4841 140.164C45.5226 140.146 45.5628 140.133 45.6041 140.124C45.6547 140.108 45.7086 140.106 45.7605 140.117C45.8123 140.128 45.8604 140.153 45.9001 140.188C45.9399 140.225 45.9693 140.272 45.9854 140.324C46.0016 140.376 46.0039 140.431 45.9921 140.484C45.9784 140.54 45.961 140.595 45.9401 140.648C46.2942 140.778 46.676 140.814 47.0481 140.752C47.1867 140.468 47.3069 140.175 47.4081 139.876L47.1201 139.804C47.0134 139.775 46.92 139.71 46.8561 139.62C46.7961 139.525 46.776 139.41 46.8001 139.3C46.8108 139.246 46.8327 139.194 46.8644 139.149C46.896 139.103 46.9368 139.065 46.9841 139.036C47.0792 138.976 47.1942 138.956 47.3041 138.98C47.4161 139.012 47.5321 139.036 47.6441 139.064C47.7577 138.608 47.8075 138.138 47.7921 137.668H47.7641C47.5931 137.748 47.4298 137.843 47.2761 137.952C47.2296 137.982 47.1777 138.002 47.1232 138.012C47.0688 138.022 47.013 138.021 46.959 138.01C46.9049 137.998 46.8537 137.976 46.8083 137.944C46.7628 137.913 46.724 137.872 46.6941 137.826C46.6641 137.78 46.6436 137.728 46.6338 137.673C46.6239 137.619 46.6248 137.563 46.6365 137.509C46.6482 137.455 46.6705 137.404 46.702 137.358C46.7334 137.313 46.7736 137.274 46.8201 137.244L46.8001 137.272Z" fill="white"/>
<path d="M35.096 140.172C35.012 140.76 36.608 141.148 37.896 141.372C37.788 142.44 37.096 143.52 36.096 144.524C34.864 143.832 33.1 142.924 32.776 143.136C32.452 143.348 34.228 144.548 35.356 145.232C34.5497 145.933 33.6957 146.577 32.8 147.16C32.248 146.644 31.6 146.192 31.2 146.436C30.8 146.68 30.908 147.492 31.108 148.204C29.764 149.004 28.76 149.464 28.76 149.464C28.3692 148.217 28.0684 146.943 27.86 145.652C27.928 145.516 27.996 145.384 28.056 145.252C28.276 144.752 28.056 144.54 27.708 144.452C27.6042 143.539 27.5962 142.618 27.684 141.704C29.204 141.388 31.052 140.796 30.36 139.884C29.96 139.336 29.18 139.272 28.384 139.412C28.4921 139.229 28.618 139.058 28.76 138.9C31.524 135.852 33.452 138.9 33.452 138.9C35.052 137.56 37.316 137.924 37.804 140.016C36.928 139.788 35.2 139.444 35.096 140.172Z" fill="#5C40CC"/>
<path opacity="0.5" d="M35.096 140.172C35.012 140.76 36.608 141.148 37.896 141.372C37.788 142.44 37.096 143.52 36.096 144.524C34.864 143.832 33.1 142.924 32.776 143.136C32.452 143.348 34.228 144.548 35.356 145.232C34.5497 145.933 33.6957 146.577 32.8 147.16C32.248 146.644 31.6 146.192 31.2 146.436C30.8 146.68 30.908 147.492 31.108 148.204C29.764 149.004 28.76 149.464 28.76 149.464C28.3692 148.217 28.0684 146.943 27.86 145.652C27.928 145.516 27.996 145.384 28.056 145.252C28.276 144.752 28.056 144.54 27.708 144.452C27.6042 143.539 27.5962 142.618 27.684 141.704C29.204 141.388 31.052 140.796 30.36 139.884C29.96 139.336 29.18 139.272 28.384 139.412C28.4921 139.229 28.618 139.058 28.76 138.9C31.524 135.852 33.452 138.9 33.452 138.9C35.052 137.56 37.316 137.924 37.804 140.016C36.928 139.788 35.2 139.444 35.096 140.172Z" fill="white"/>
<path d="M154.18 167.356L161.84 116.456V167.356H163.896V116.14L171.564 167.356H173.768L164.168 103.244L163.896 103.284V101.2H161.84V103.276L161.556 103.244L151.932 167.356H154.18Z" fill="#5C40CC"/>
<path opacity="0.3" d="M154.18 167.356L161.84 116.456V167.356H163.896V116.14L171.564 167.356H173.768L164.168 103.244L163.896 103.284V101.2H161.84V103.276L161.556 103.244L151.932 167.356H154.18Z" fill="white"/>
<path d="M173.408 110.356H152.216L153.932 92.6479H171.692L173.408 110.356Z" fill="#5C40CC"/>
<g opacity="0.5">
<path d="M173.408 110.356H152.216L153.932 92.6479H171.692L173.408 110.356Z" fill="white"/>
</g>
<path d="M120 87.3639H113.032C112.883 87.3639 112.741 87.3049 112.636 87.1999C112.531 87.0949 112.472 86.9525 112.472 86.8039V70.3039C112.549 70.2676 112.614 70.2112 112.661 70.1407C112.708 70.0702 112.735 69.9883 112.739 69.9037C112.743 69.8191 112.724 69.7349 112.684 69.6602C112.644 69.5855 112.585 69.5231 112.512 69.4796C112.439 69.436 112.356 69.4131 112.271 69.4131C112.187 69.4131 112.103 69.4361 112.031 69.4797C111.958 69.5233 111.899 69.5857 111.859 69.6604C111.819 69.7352 111.8 69.8193 111.804 69.9039C111.808 69.9887 111.835 70.0709 111.882 70.1414C111.929 70.2119 111.995 70.2682 112.072 70.3039V86.7999C112.071 86.9261 112.096 87.0512 112.144 87.1679C112.192 87.2846 112.263 87.3907 112.352 87.4799C112.441 87.5692 112.547 87.6399 112.664 87.6879C112.781 87.736 112.906 87.7605 113.032 87.7599H120C120.149 87.7599 120.291 87.8189 120.396 87.924C120.501 88.029 120.56 88.1714 120.56 88.3199V97.7639H120.96V88.3239C120.96 88.1979 120.935 88.073 120.887 87.9566C120.839 87.8401 120.768 87.7343 120.679 87.6451C120.59 87.556 120.484 87.4853 120.367 87.437C120.251 87.3888 120.126 87.3639 120 87.3639Z" fill="#5C40CC"/>
<path opacity="0.4" d="M120 87.3639H113.032C112.883 87.3639 112.741 87.3049 112.636 87.1999C112.531 87.0949 112.472 86.9525 112.472 86.8039V70.3039C112.549 70.2676 112.614 70.2112 112.661 70.1407C112.708 70.0702 112.735 69.9883 112.739 69.9037C112.743 69.8191 112.724 69.7349 112.684 69.6602C112.644 69.5855 112.585 69.5231 112.512 69.4796C112.439 69.436 112.356 69.4131 112.271 69.4131C112.187 69.4131 112.103 69.4361 112.031 69.4797C111.958 69.5233 111.899 69.5857 111.859 69.6604C111.819 69.7352 111.8 69.8193 111.804 69.9039C111.808 69.9887 111.835 70.0709 111.882 70.1414C111.929 70.2119 111.995 70.2682 112.072 70.3039V86.7999C112.071 86.9261 112.096 87.0512 112.144 87.1679C112.192 87.2846 112.263 87.3907 112.352 87.4799C112.441 87.5692 112.547 87.6399 112.664 87.6879C112.781 87.736 112.906 87.7605 113.032 87.7599H120C120.149 87.7599 120.291 87.8189 120.396 87.924C120.501 88.029 120.56 88.1714 120.56 88.3199V97.7639H120.96V88.3239C120.96 88.1979 120.935 88.073 120.887 87.9566C120.839 87.8401 120.768 87.7343 120.679 87.6451C120.59 87.556 120.484 87.4853 120.367 87.437C120.251 87.3888 120.126 87.3639 120 87.3639Z" fill="white"/>
<path d="M128.336 97.3679H113.148C112.554 97.3679 112.072 97.8497 112.072 98.4439V114.48C112.072 115.074 112.554 115.556 113.148 115.556H128.336C128.93 115.556 129.412 115.074 129.412 114.48V98.4439C129.412 97.8497 128.93 97.3679 128.336 97.3679Z" fill="#5C40CC"/>
<path opacity="0.4" d="M128.336 97.3679H113.148C112.554 97.3679 112.072 97.8497 112.072 98.4439V114.48C112.072 115.074 112.554 115.556 113.148 115.556H128.336C128.93 115.556 129.412 115.074 129.412 114.48V98.4439C129.412 97.8497 128.93 97.3679 128.336 97.3679Z" fill="white"/>
<path opacity="0.2" d="M121.908 107.828H119.576V110.16H121.908V107.828Z" fill="white"/>
<path opacity="0.2" d="M124.44 100.232H122.108V102.564H124.44V100.232Z" fill="white"/>
<path opacity="0.2" d="M119.376 110.36H117.044V112.692H119.376V110.36Z" fill="white"/>
<path opacity="0.2" d="M124.44 102.764H122.108V105.096H124.44V102.764Z" fill="white"/>
<path opacity="0.2" d="M124.44 105.296H122.108V107.628H124.44V105.296Z" fill="white"/>
<path opacity="0.2" d="M121.908 102.764H119.576V105.096H121.908V102.764Z" fill="white"/>
<path opacity="0.2" d="M121.908 97.5679H119.576V100.032H121.908V97.5679Z" fill="white"/>
<path opacity="0.2" d="M119.376 107.828H117.044V110.16H119.376V107.828Z" fill="white"/>
<path opacity="0.2" d="M121.908 100.232H119.576V102.564H121.908V100.232Z" fill="white"/>
<path opacity="0.2" d="M121.908 110.36H119.576V112.692H121.908V110.36Z" fill="white"/>
<path opacity="0.2" d="M124.44 110.36H122.108V112.692H124.44V110.36Z" fill="white"/>
<path opacity="0.2" d="M121.908 105.296H119.576V107.628H121.908V105.296Z" fill="white"/>
<path opacity="0.2" d="M124.44 97.5679H122.108V100.032H124.44V97.5679Z" fill="white"/>
<path opacity="0.2" d="M114.312 107.828H112.272V110.16H114.312V107.828Z" fill="white"/>
<path opacity="0.2" d="M114.312 100.232H112.272V102.564H114.312V100.232Z" fill="white"/>
<path opacity="0.2" d="M114.312 105.296H112.272V107.628H114.312V105.296Z" fill="white"/>
<path opacity="0.2" d="M114.312 102.764H112.272V105.096H114.312V102.764Z" fill="white"/>
<path opacity="0.2" d="M124.44 107.828H122.108V110.16H124.44V107.828Z" fill="white"/>
<path opacity="0.2" d="M127.172 100.032H129.2V98.4319C129.2 98.1996 129.108 97.9768 128.943 97.8125C128.779 97.6482 128.556 97.5559 128.324 97.5559H127.16L127.172 100.032Z" fill="white"/>
<path opacity="0.2" d="M126.972 100.232H124.64V102.564H126.972V100.232Z" fill="white"/>
<path opacity="0.2" d="M114.312 110.36H112.272V112.692H114.312V110.36Z" fill="white"/>
<path opacity="0.2" d="M126.972 102.764H124.64V105.096H126.972V102.764Z" fill="white"/>
<path opacity="0.2" d="M126.972 105.296H124.64V107.628H126.972V105.296Z" fill="white"/>
<path opacity="0.2" d="M126.972 107.828H124.64V110.16H126.972V107.828Z" fill="white"/>
<path opacity="0.2" d="M126.972 110.36H124.64V112.692H126.972V110.36Z" fill="white"/>
<path opacity="0.2" d="M129.212 110.36H127.172V112.692H129.212V110.36Z" fill="white"/>
<path opacity="0.2" d="M126.972 97.5679H124.64V100.032H126.972V97.5679Z" fill="white"/>
<path opacity="0.2" d="M121.908 112.896H119.576V115.36H121.908V112.896Z" fill="white"/>
<path opacity="0.2" d="M124.44 112.896H122.108V115.36H124.44V112.896Z" fill="white"/>
<path opacity="0.2" d="M129.212 105.296H127.172V107.628H129.212V105.296Z" fill="white"/>
<path opacity="0.2" d="M126.972 112.896H124.64V115.36H126.972V112.896Z" fill="white"/>
<path opacity="0.2" d="M129.212 107.828H127.172V110.16H129.212V107.828Z" fill="white"/>
<path opacity="0.2" d="M114.308 112.896H112.272V114.496C112.273 114.728 112.366 114.949 112.53 115.113C112.694 115.276 112.916 115.368 113.148 115.368H114.308V112.896Z" fill="white"/>
<path opacity="0.2" d="M127.172 112.896V115.356H128.336C128.568 115.356 128.79 115.264 128.954 115.101C129.118 114.937 129.211 114.716 129.212 114.484V112.884L127.172 112.896Z" fill="white"/>
<path opacity="0.2" d="M114.308 100.032V97.5679H113.148C112.916 97.5679 112.693 97.6602 112.529 97.8244C112.364 97.9887 112.272 98.2115 112.272 98.4439V100.044L114.308 100.032Z" fill="white"/>
<path opacity="0.2" d="M129.212 102.764H127.172V105.096H129.212V102.764Z" fill="white"/>
<path opacity="0.2" d="M129.212 100.232H127.172V102.564H129.212V100.232Z" fill="white"/>
<path opacity="0.2" d="M116.84 105.296H114.508V107.628H116.84V105.296Z" fill="white"/>
<path opacity="0.2" d="M116.84 110.36H114.508V112.692H116.84V110.36Z" fill="white"/>
<path opacity="0.2" d="M119.376 97.5679H117.044V100.032H119.376V97.5679Z" fill="white"/>
<path opacity="0.2" d="M116.84 107.828H114.508V110.16H116.84V107.828Z" fill="white"/>
<path opacity="0.2" d="M119.376 102.764H117.044V105.096H119.376V102.764Z" fill="white"/>
<path opacity="0.2" d="M119.376 100.232H117.044V102.564H119.376V100.232Z" fill="white"/>
<path opacity="0.2" d="M119.376 112.896H117.044V115.36H119.376V112.896Z" fill="white"/>
<path opacity="0.2" d="M116.84 112.896H114.508V115.36H116.84V112.896Z" fill="white"/>
<path opacity="0.2" d="M116.84 97.5679H114.508V100.032H116.84V97.5679Z" fill="white"/>
<path opacity="0.2" d="M119.376 105.296H117.044V107.628H119.376V105.296Z" fill="white"/>
<path opacity="0.2" d="M116.84 102.764H114.508V105.096H116.84V102.764Z" fill="white"/>
<path opacity="0.2" d="M116.84 100.232H114.508V102.564H116.84V100.232Z" fill="white"/>
<path d="M124.884 103.78C124.849 103.598 124.8 103.418 124.736 103.244C124.486 102.531 124.05 101.899 123.473 101.412C122.896 100.925 122.199 100.601 121.454 100.474C120.71 100.347 119.945 100.422 119.239 100.69C118.533 100.958 117.912 101.411 117.44 102C117.216 102.277 117.029 102.583 116.884 102.908C116.636 103.455 116.508 104.048 116.508 104.648V108.28C116.507 108.627 116.55 108.972 116.636 109.308C116.698 109.565 116.788 109.814 116.904 110.052C117.005 110.274 117.126 110.487 117.264 110.688C117.372 110.832 117.48 110.968 117.596 111.088C117.738 111.246 117.892 111.393 118.056 111.528C118.19 111.637 118.33 111.739 118.476 111.832C118.728 111.992 118.996 112.126 119.276 112.232C119.412 112.28 119.548 112.324 119.676 112.36C119.851 112.403 120.029 112.437 120.208 112.46C120.341 112.477 120.474 112.486 120.608 112.488H120.716C120.934 112.488 121.152 112.472 121.368 112.44C121.504 112.416 121.64 112.388 121.768 112.356C122.26 112.227 122.724 112.012 123.14 111.72C123.291 111.615 123.434 111.5 123.568 111.376C123.936 111.04 124.242 110.642 124.472 110.2C124.592 109.973 124.69 109.734 124.764 109.488C124.875 109.129 124.936 108.756 124.944 108.38C124.944 108.38 124.944 108.296 124.944 108.256V104.624C124.953 104.341 124.933 104.059 124.884 103.78ZM123.936 110.4C123.709 110.743 123.428 111.047 123.104 111.3C122.986 111.394 122.862 111.479 122.732 111.556C122.389 111.767 122.015 111.922 121.624 112.016C121.496 112.044 121.364 112.068 121.224 112.084C121.064 112.105 120.902 112.115 120.74 112.116H120.56C120.42 112.116 120.288 112.116 120.16 112.076C119.993 112.049 119.827 112.012 119.664 111.964C119.524 111.924 119.388 111.872 119.264 111.82C118.981 111.699 118.713 111.546 118.464 111.364C118.33 111.263 118.203 111.154 118.084 111.036C117.938 110.898 117.804 110.748 117.684 110.588C117.568 110.435 117.464 110.273 117.372 110.104C117.234 109.851 117.127 109.582 117.052 109.304C116.959 108.969 116.911 108.623 116.912 108.276V104.644C116.913 103.801 117.194 102.982 117.712 102.316C118.057 101.866 118.497 101.497 119 101.236C119.542 100.953 120.145 100.806 120.756 100.808C121.627 100.808 122.472 101.105 123.152 101.648C123.832 102.192 124.308 102.951 124.5 103.8C124.561 104.074 124.592 104.355 124.592 104.636V108.3C124.589 108.536 124.564 108.772 124.52 109.004C124.458 109.315 124.357 109.618 124.22 109.904C124.139 110.077 124.044 110.243 123.936 110.4Z" fill="white"/>
<path d="M121.224 106.896C120.796 108.252 120.24 110.036 120.56 112.096C120.58 112.228 120.604 112.36 120.632 112.496C120.498 112.494 120.365 112.485 120.232 112.468C120.204 112.328 120.18 112.192 120.164 112.068C119.86 109.948 120.424 108.144 120.852 106.772C121.308 105.316 121.496 104.604 120.808 104.312C120.7 104.267 120.582 104.251 120.466 104.267C120.35 104.282 120.24 104.328 120.148 104.4C119.056 105.124 118.08 108.248 117.692 110.58C117.66 110.764 117.632 110.94 117.608 111.108C117.492 110.976 117.384 110.84 117.276 110.708C117.304 110.516 117.34 110.308 117.38 110.112C117.82 107.8 118.76 104.86 119.928 104.088C120.075 103.98 120.248 103.911 120.43 103.89C120.611 103.868 120.795 103.893 120.964 103.964C122 104.4 121.66 105.5 121.224 106.896Z" fill="white"/>
<path d="M120.528 106.8C120.128 108.084 119.54 109.964 119.656 111.964C119.656 112.104 119.656 112.244 119.688 112.388C119.548 112.352 119.412 112.308 119.288 112.26C119.288 112.112 119.268 111.968 119.264 111.82C119.184 109.82 119.764 107.956 120.164 106.68C120.319 106.259 120.432 105.823 120.5 105.38C120.016 105.812 118.5 109.332 118.472 111.38C118.464 111.545 118.471 111.711 118.492 111.876C118.346 111.783 118.206 111.681 118.072 111.572C118.072 111.408 118.072 111.232 118.092 111.052C118.26 108.932 119.536 105.736 120.232 105.104C120.283 105.043 120.351 104.999 120.427 104.977C120.503 104.955 120.584 104.956 120.66 104.98C121.056 105.12 120.868 105.716 120.528 106.8Z" fill="white"/>
<path d="M121.624 112C121.673 112.126 121.729 112.249 121.792 112.368C121.664 112.4 121.528 112.428 121.392 112.452C121.328 112.322 121.272 112.189 121.224 112.052C120.896 111.196 120.724 109.896 121.32 108.12C122.484 104.656 122.28 103.832 121.416 103.376C121.195 103.247 120.946 103.175 120.69 103.166C120.434 103.158 120.181 103.213 119.952 103.328C118.752 103.92 117.716 106.06 117.048 109.276C116.996 109.52 116.948 109.768 116.904 110.024C116.788 109.786 116.698 109.537 116.636 109.28C116.72 108.88 116.812 108.48 116.908 108.08C117.604 105.328 118.6 103.54 119.776 102.96C120.06 102.814 120.377 102.742 120.696 102.75C121.016 102.759 121.328 102.847 121.604 103.008C122.804 103.648 122.832 104.868 121.7 108.232C121.12 109.96 121.3 111.192 121.62 111.972L121.624 112Z" fill="white"/>
<path d="M123.6 111.404C123.465 111.529 123.322 111.644 123.172 111.748L123.008 111.696C122.912 111.662 122.82 111.614 122.736 111.556C122.284 111.257 121.967 110.794 121.852 110.264C121.644 109.516 121.984 108.436 122.348 107.296C122.712 106.156 123.088 104.964 122.908 104.096C122.859 103.784 122.739 103.488 122.557 103.23C122.374 102.973 122.134 102.761 121.856 102.612C121.156 102.264 120.224 102.324 119.236 102.784C118.248 103.244 117.4 104.716 116.912 105.856C116.74 106.256 116.604 106.624 116.512 106.892V105.768C116.628 105.496 116.76 105.2 116.912 104.904C117.428 103.892 118.152 102.848 119.064 102.424C120.168 101.908 121.224 101.848 122.036 102.256C122.369 102.431 122.656 102.681 122.876 102.987C123.095 103.292 123.24 103.645 123.3 104.016C123.5 104.976 123.108 106.212 122.728 107.408C122.384 108.492 122.06 109.512 122.236 110.148C122.284 110.393 122.388 110.623 122.539 110.821C122.69 111.02 122.885 111.181 123.108 111.292L123.152 111.312C123.294 111.371 123.446 111.402 123.6 111.404Z" fill="white"/>
<path d="M124.8 109.516C124.726 109.762 124.628 110 124.508 110.228C124.332 110.32 124.141 110.378 123.944 110.4H123.832H123.732C123.512 110.382 123.303 110.295 123.136 110.151C122.968 110.008 122.851 109.815 122.8 109.6C122.624 109.004 122.912 107.884 123.2 106.7C123.428 105.951 123.578 105.18 123.648 104.4C123.648 103.168 123.328 101.848 120.964 101.428C119.764 101.212 118.036 101.98 117.024 103.62C116.824 103.94 117.084 102.712 116.864 102.892C117.008 102.564 117.232 102.58 117.452 102.304C117.896 102.016 119.132 100.796 121.032 101.032C123.756 101.368 124.048 103.184 124.048 104.4C123.981 105.214 123.826 106.019 123.584 106.8C123.32 107.828 123.024 108.996 123.184 109.488C123.213 109.623 123.285 109.746 123.388 109.838C123.492 109.93 123.622 109.987 123.76 110C123.912 110.009 124.065 109.982 124.204 109.92C124.428 109.828 124.631 109.69 124.8 109.516Z" fill="white"/>
<path d="M124.976 107.34V108.28C124.976 108.32 124.976 108.364 124.976 108.404C124.976 108.444 124.976 108.404 124.976 108.404C124.869 108.64 124.709 108.848 124.508 109.012C124.37 109.112 124.203 109.165 124.032 109.164H123.916C123.855 109.157 123.798 109.134 123.748 109.098C123.698 109.063 123.659 109.015 123.632 108.96C123.452 108.628 123.676 107.956 123.824 107.584C124.344 106.396 124.572 105.102 124.488 103.808C124.488 103.58 124.512 103.44 124.512 103.432C124.517 103.38 124.542 103.331 124.581 103.296C124.62 103.261 124.672 103.243 124.724 103.244C124.788 103.418 124.837 103.598 124.872 103.78C124.872 104.076 124.824 104.372 124.796 104.668C124.74 105.236 124.672 105.804 124.564 106.368C124.536 106.52 124.664 106.46 124.632 106.612C124.534 106.913 124.417 107.207 124.28 107.492C124.184 107.712 124.076 107.928 124 108.156C123.952 108.292 123.776 108.932 124.136 108.792C124.271 108.722 124.384 108.615 124.46 108.484C124.496 108.428 124.532 108.372 124.564 108.312C124.681 108.095 124.78 107.869 124.86 107.636C124.908 107.54 124.944 107.44 124.976 107.34Z" fill="white"/>
<path d="M95.484 39.4919V49.6919C95.484 49.8405 95.425 49.9829 95.32 50.0879C95.2149 50.1929 95.0725 50.2519 94.924 50.2519H84.552C84.5166 50.1747 84.4605 50.1087 84.3898 50.0614C84.3192 50.0141 84.2369 49.9873 84.152 49.9839C84.0674 49.9798 83.9832 49.9987 83.9085 50.0387C83.8338 50.0786 83.7713 50.1381 83.7277 50.2107C83.6842 50.2834 83.6612 50.3665 83.6611 50.4513C83.6611 50.536 83.6841 50.6191 83.7276 50.6918C83.7711 50.7645 83.8336 50.824 83.9083 50.864C83.983 50.904 84.0671 50.9229 84.1517 50.9188C84.2364 50.9147 84.3183 50.8878 84.3888 50.8408C84.4593 50.7937 84.5157 50.7285 84.552 50.6519H94.924C95.1783 50.6509 95.4218 50.5494 95.6016 50.3696C95.7814 50.1898 95.8829 49.9462 95.884 49.6919V39.4919H95.484Z" fill="#5C40CC"/>
<path opacity="0.4" d="M95.484 39.4919V49.6919C95.484 49.8405 95.425 49.9829 95.32 50.0879C95.2149 50.1929 95.0725 50.2519 94.924 50.2519H84.552C84.5166 50.1747 84.4605 50.1087 84.3898 50.0614C84.3192 50.0141 84.2369 49.9873 84.152 49.9839C84.0674 49.9798 83.9832 49.9987 83.9085 50.0387C83.8338 50.0786 83.7713 50.1381 83.7277 50.2107C83.6842 50.2834 83.6612 50.3665 83.6611 50.4513C83.6611 50.536 83.6841 50.6191 83.7276 50.6918C83.7711 50.7645 83.8336 50.824 83.9083 50.864C83.983 50.904 84.0671 50.9229 84.1517 50.9188C84.2364 50.9147 84.3183 50.8878 84.3888 50.8408C84.4593 50.7937 84.5157 50.7285 84.552 50.6519H94.924C95.1783 50.6509 95.4218 50.5494 95.6016 50.3696C95.7814 50.1898 95.8829 49.9462 95.884 49.6919V39.4919H95.484Z" fill="white"/>
<path d="M104.776 41.5919V26.4039C104.776 25.8096 104.294 25.3279 103.7 25.3279H87.6639C87.0696 25.3279 86.5879 25.8096 86.5879 26.4039V41.5919C86.5879 42.1861 87.0696 42.6679 87.6639 42.6679H103.7C104.294 42.6679 104.776 42.1861 104.776 41.5919Z" fill="#5C40CC"/>
<path opacity="0.4" d="M104.776 41.5919V26.4039C104.776 25.8096 104.294 25.3279 103.7 25.3279H87.6639C87.0696 25.3279 86.5879 25.8096 86.5879 26.4039V41.5919C86.5879 42.1861 87.0696 42.6679 87.6639 42.6679H103.7C104.294 42.6679 104.776 42.1861 104.776 41.5919Z" fill="white"/>
<path opacity="0.2" d="M94.3159 32.8318H91.9839V35.1638H94.3159V32.8318Z" fill="white"/>
<path opacity="0.2" d="M101.912 35.3638H99.5801V37.6958H101.912V35.3638Z" fill="white"/>
<path opacity="0.2" d="M91.7839 30.2959H89.4519V32.6279H91.7839V30.2959Z" fill="white"/>
<path opacity="0.2" d="M99.3801 35.3638H97.0481V37.6958H99.3801V35.3638Z" fill="white"/>
<path opacity="0.2" d="M96.8479 35.3638H94.5159V37.6958H96.8479V35.3638Z" fill="white"/>
<path opacity="0.2" d="M99.3801 32.8318H97.0481V35.1638H99.3801V32.8318Z" fill="white"/>
<path opacity="0.2" d="M104.58 32.8318H102.116V35.1638H104.58V32.8318Z" fill="white"/>
<path opacity="0.2" d="M94.3159 30.2959H91.9839V32.6279H94.3159V30.2959Z" fill="white"/>
<path opacity="0.2" d="M101.912 32.8318H99.5801V35.1638H101.912V32.8318Z" fill="white"/>
<path opacity="0.2" d="M91.7839 32.8318H89.4519V35.1638H91.7839V32.8318Z" fill="white"/>
<path opacity="0.2" d="M91.7839 35.3638H89.4519V37.6958H91.7839V35.3638Z" fill="white"/>
<path opacity="0.2" d="M96.8479 32.8318H94.5159V35.1638H96.8479V32.8318Z" fill="white"/>
<path opacity="0.2" d="M104.58 35.3638H102.116V37.6958H104.58V35.3638Z" fill="white"/>
<path opacity="0.2" d="M94.3159 25.5278H91.9839V27.5678H94.3159V25.5278Z" fill="white"/>
<path opacity="0.2" d="M101.912 25.5278H99.5801V27.5678H101.912V25.5278Z" fill="white"/>
<path opacity="0.2" d="M96.8479 25.5278H94.5159V27.5678H96.8479V25.5278Z" fill="white"/>
<path opacity="0.2" d="M99.3801 25.5278H97.0481V27.5678H99.3801V25.5278Z" fill="white"/>
<path opacity="0.2" d="M94.3159 35.3638H91.9839V37.6958H94.3159V35.3638Z" fill="white"/>
<path opacity="0.2" d="M102.116 40.428V42.468H103.716C103.948 42.4669 104.169 42.3742 104.333 42.21C104.496 42.0458 104.588 41.8236 104.588 41.592V40.428H102.116Z" fill="white"/>
<path opacity="0.2" d="M101.912 37.896H99.5801V40.228H101.912V37.896Z" fill="white"/>
<path opacity="0.2" d="M91.7839 25.5278H89.4519V27.5678H91.7839V25.5278Z" fill="white"/>
<path opacity="0.2" d="M99.3801 37.896H97.0481V40.228H99.3801V37.896Z" fill="white"/>
<path opacity="0.2" d="M96.8479 37.896H94.5159V40.228H96.8479V37.896Z" fill="white"/>
<path opacity="0.2" d="M94.3159 37.896H91.9839V40.228H94.3159V37.896Z" fill="white"/>
<path opacity="0.2" d="M91.7839 37.896H89.4519V40.228H91.7839V37.896Z" fill="white"/>
<path opacity="0.2" d="M91.7839 40.428H89.4519V42.468H91.7839V40.428Z" fill="white"/>
<path opacity="0.2" d="M104.58 37.896H102.116V40.228H104.58V37.896Z" fill="white"/>
<path opacity="0.2" d="M89.2521 32.8318H86.7881V35.1638H89.2521V32.8318Z" fill="white"/>
<path opacity="0.2" d="M89.2521 35.3638H86.7881V37.6958H89.2521V35.3638Z" fill="white"/>
<path opacity="0.2" d="M96.8479 40.428H94.5159V42.468H96.8479V40.428Z" fill="white"/>
<path opacity="0.2" d="M89.2521 37.896H86.7881V40.228H89.2521V37.896Z" fill="white"/>
<path opacity="0.2" d="M94.3159 40.428H91.9839V42.468H94.3159V40.428Z" fill="white"/>
<path opacity="0.2" d="M89.2521 27.5638V25.5278H87.6521C87.4246 25.5341 87.2085 25.6286 87.0495 25.7913C86.8905 25.9541 86.801 26.1723 86.8 26.3998V27.5638H89.2521Z" fill="white"/>
<path opacity="0.2" d="M89.2521 40.428H86.8V41.6C86.8 41.8323 86.8923 42.0551 87.0566 42.2194C87.2209 42.3837 87.4437 42.476 87.676 42.476H89.276L89.2521 40.428Z" fill="white"/>
<path opacity="0.2" d="M102.116 27.5638H104.576V26.3998C104.575 26.1689 104.483 25.9477 104.319 25.7844C104.156 25.6211 103.935 25.5289 103.704 25.5278H102.104L102.116 27.5638Z" fill="white"/>
<path opacity="0.2" d="M99.3801 40.428H97.0481V42.468H99.3801V40.428Z" fill="white"/>
<path opacity="0.2" d="M101.912 40.428H99.5801V42.468H101.912V40.428Z" fill="white"/>
<path opacity="0.2" d="M96.8479 27.7639H94.5159V30.0959H96.8479V27.7639Z" fill="white"/>
<path opacity="0.2" d="M91.7839 27.7639H89.4519V30.0959H91.7839V27.7639Z" fill="white"/>
<path opacity="0.2" d="M104.58 30.2959H102.116V32.6279H104.58V30.2959Z" fill="white"/>
<path opacity="0.2" d="M94.3159 27.7639H91.9839V30.0959H94.3159V27.7639Z" fill="white"/>
<path opacity="0.2" d="M99.3801 30.2959H97.0481V32.6279H99.3801V30.2959Z" fill="white"/>
<path opacity="0.2" d="M101.912 30.2959H99.5801V32.6279H101.912V30.2959Z" fill="white"/>
<path opacity="0.2" d="M89.2521 30.2959H86.7881V32.6279H89.2521V30.2959Z" fill="white"/>
<path opacity="0.2" d="M89.2521 27.7639H86.7881V30.0959H89.2521V27.7639Z" fill="white"/>
<path opacity="0.2" d="M104.58 27.7639H102.116V30.0959H104.58V27.7639Z" fill="white"/>
<path opacity="0.2" d="M96.8479 30.2959H94.5159V32.6279H96.8479V30.2959Z" fill="white"/>
<path opacity="0.2" d="M99.3801 27.7639H97.0481V30.0959H99.3801V27.7639Z" fill="white"/>
<path opacity="0.2" d="M101.912 27.7639H99.5801V30.0959H101.912V27.7639Z" fill="white"/>
<path d="M90.3999 33.9238C90.3999 33.9238 92.7599 36.7238 95.6759 36.7238C98.5919 36.7238 100.948 33.9238 100.948 33.9238C100.948 33.9238 98.5879 31.1238 95.6759 31.1238C92.7639 31.1238 90.3999 33.9238 90.3999 33.9238Z" stroke="white" stroke-linecap="round" stroke-linejoin="round"/>
<path d="M97.5201 33.524C97.5209 33.8882 97.4135 34.2445 97.2117 34.5477C97.0098 34.8509 96.7225 35.0874 96.3861 35.2272C96.0497 35.3669 95.6794 35.4037 95.3221 35.3328C94.9648 35.262 94.6366 35.0866 94.379 34.8291C94.1214 34.5715 93.9461 34.2433 93.8752 33.886C93.8044 33.5287 93.8412 33.1584 93.9809 32.822C94.1207 32.4856 94.3571 32.1983 94.6603 31.9964C94.9635 31.7945 95.3198 31.6872 95.6841 31.688C96.171 31.688 96.638 31.8814 96.9823 32.2257C97.3267 32.5701 97.5201 33.0371 97.5201 33.524V33.524Z" stroke="white" stroke-miterlimit="10"/>
<path d="M95.888 32.716C95.8872 32.5979 95.9214 32.4823 95.9864 32.3838C96.0515 32.2852 96.1443 32.2082 96.2531 32.1625C96.3619 32.1168 96.4819 32.1044 96.5978 32.1269C96.7136 32.1495 96.8202 32.2059 96.904 32.2891C96.9877 32.3723 97.0449 32.4785 97.0682 32.5942C97.0915 32.7099 97.0799 32.83 97.035 32.9391C96.99 33.0482 96.9136 33.1416 96.8155 33.2072C96.7174 33.2729 96.602 33.308 96.484 33.308C96.3266 33.308 96.1756 33.2457 96.0639 33.1348C95.9523 33.0239 95.889 32.8733 95.888 32.716Z" stroke="white" stroke-miterlimit="10"/>
<path d="M95.6841 31.12V29.24" stroke="white" stroke-linecap="round" stroke-linejoin="round"/>
<path d="M97.3201 31.2558L97.9921 29.7278" stroke="white" stroke-linecap="round" stroke-linejoin="round"/>
<path d="M98.8921 31.9519L99.8321 30.8359" stroke="white" stroke-linecap="round" stroke-linejoin="round"/>
<path d="M100.152 32.8118L101.06 32.2078" stroke="white" stroke-linecap="round" stroke-linejoin="round"/>
<path d="M94.0441 31.2558L93.3721 29.7278" stroke="white" stroke-linecap="round" stroke-linejoin="round"/>
<path d="M92.472 31.9519L91.532 30.8359" stroke="white" stroke-linecap="round" stroke-linejoin="round"/>
<path d="M91.212 32.8118L90.304 32.2078" stroke="white" stroke-linecap="round" stroke-linejoin="round"/>
<path d="M68.496 50.884C68.4119 50.8867 68.3302 50.9123 68.2596 50.9581C68.1891 51.004 68.1325 51.0683 68.096 51.144H57.46C57.2057 51.1451 56.9621 51.2466 56.7823 51.4264C56.6025 51.6062 56.501 51.8498 56.5 52.104V63.02C56.5 63.1686 56.441 63.311 56.3359 63.416C56.2309 63.521 56.0885 63.58 55.94 63.58H51.668V63.98H55.94C56.1943 63.979 56.4378 63.8775 56.6176 63.6977C56.7974 63.5179 56.8989 63.2743 56.9 63.02V52.104C56.9 51.9555 56.959 51.8131 57.064 51.7081C57.169 51.603 57.3114 51.544 57.46 51.544H68.072C68.1065 51.6209 68.1612 51.687 68.2302 51.7353C68.2993 51.7837 68.3801 51.8125 68.4641 51.8187C68.5481 51.825 68.6323 51.8084 68.7077 51.7708C68.7831 51.7332 68.847 51.6759 68.8925 51.605C68.9381 51.5341 68.9636 51.4522 68.9665 51.368C68.9694 51.2838 68.9494 51.2003 68.9088 51.1265C68.8682 51.0526 68.8084 50.9911 68.7357 50.9485C68.6631 50.9058 68.5802 50.8835 68.496 50.884Z" fill="#5C40CC"/>
<path opacity="0.4" d="M68.496 50.884C68.4119 50.8867 68.3302 50.9123 68.2596 50.9581C68.1891 51.004 68.1325 51.0683 68.096 51.144H57.46C57.2057 51.1451 56.9621 51.2466 56.7823 51.4264C56.6025 51.6062 56.501 51.8498 56.5 52.104V63.02C56.5 63.1686 56.441 63.311 56.3359 63.416C56.2309 63.521 56.0885 63.58 55.94 63.58H51.668V63.98H55.94C56.1943 63.979 56.4378 63.8775 56.6176 63.6977C56.7974 63.5179 56.8989 63.2743 56.9 63.02V52.104C56.9 51.9555 56.959 51.8131 57.064 51.7081C57.169 51.603 57.3114 51.544 57.46 51.544H68.072C68.1065 51.6209 68.1612 51.687 68.2302 51.7353C68.2993 51.7837 68.3801 51.8125 68.4641 51.8187C68.5481 51.825 68.6323 51.8084 68.7077 51.7708C68.7831 51.7332 68.847 51.6759 68.8925 51.605C68.9381 51.5341 68.9636 51.4522 68.9665 51.368C68.9694 51.2838 68.9494 51.2003 68.9088 51.1265C68.8682 51.0526 68.8084 50.9911 68.7357 50.9485C68.6631 50.9058 68.5802 50.8835 68.496 50.884Z" fill="white"/>
<path d="M50.592 54.6841H35.404C34.8097 54.6841 34.328 55.1658 34.328 55.7601V71.7961C34.328 72.3903 34.8097 72.8721 35.404 72.8721H50.592C51.1863 72.8721 51.668 72.3903 51.668 71.7961V55.7601C51.668 55.1658 51.1863 54.6841 50.592 54.6841Z" fill="#5C40CC"/>
<path opacity="0.4" d="M50.592 54.6841H35.404C34.8097 54.6841 34.328 55.1658 34.328 55.7601V71.7961C34.328 72.3903 34.8097 72.8721 35.404 72.8721H50.592C51.1863 72.8721 51.668 72.3903 51.668 71.7961V55.7601C51.668 55.1658 51.1863 54.6841 50.592 54.6841Z" fill="white"/>
<path opacity="0.2" d="M44.164 65.144H41.832V67.476H44.164V65.144Z" fill="white"/>
<path opacity="0.2" d="M46.696 57.5481H44.364V59.8801H46.696V57.5481Z" fill="white"/>
<path opacity="0.2" d="M41.628 67.6799H39.296V70.0119H41.628V67.6799Z" fill="white"/>
<path opacity="0.2" d="M46.696 60.0801H44.364V62.4121H46.696V60.0801Z" fill="white"/>
<path opacity="0.2" d="M46.696 62.6121H44.364V64.9441H46.696V62.6121Z" fill="white"/>
<path opacity="0.2" d="M44.164 60.0801H41.832V62.4121H44.164V60.0801Z" fill="white"/>
<path opacity="0.2" d="M44.164 54.884H41.832V57.348H44.164V54.884Z" fill="white"/>
<path opacity="0.2" d="M41.628 65.144H39.296V67.476H41.628V65.144Z" fill="white"/>
<path opacity="0.2" d="M44.164 57.5481H41.832V59.8801H44.164V57.5481Z" fill="white"/>
<path opacity="0.2" d="M44.164 67.6799H41.832V70.0119H44.164V67.6799Z" fill="white"/>
<path opacity="0.2" d="M46.696 67.6799H44.364V70.0119H46.696V67.6799Z" fill="white"/>
<path opacity="0.2" d="M44.164 62.6121H41.832V64.9441H44.164V62.6121Z" fill="white"/>
<path opacity="0.2" d="M46.696 54.884H44.364V57.348H46.696V54.884Z" fill="white"/>
<path opacity="0.2" d="M36.568 65.144H34.528V67.476H36.568V65.144Z" fill="white"/>
<path opacity="0.2" d="M36.568 57.5481H34.528V59.8801H36.568V57.5481Z" fill="white"/>
<path opacity="0.2" d="M36.568 62.6121H34.528V64.9441H36.568V62.6121Z" fill="white"/>
<path opacity="0.2" d="M36.568 60.0801H34.528V62.4121H36.568V60.0801Z" fill="white"/>
<path opacity="0.2" d="M46.696 65.144H44.364V67.476H46.696V65.144Z" fill="white"/>
<path opacity="0.2" d="M49.428 57.3481H51.468V55.7481C51.468 55.5157 51.3757 55.2929 51.2114 55.1286C51.0471 54.9644 50.8243 54.8721 50.592 54.8721H49.428V57.3481Z" fill="white"/>
<path opacity="0.2" d="M49.228 57.5481H46.896V59.8801H49.228V57.5481Z" fill="white"/>
<path opacity="0.2" d="M36.568 67.6799H34.528V70.0119H36.568V67.6799Z" fill="white"/>
<path opacity="0.2" d="M49.228 60.0801H46.896V62.4121H49.228V60.0801Z" fill="white"/>
<path opacity="0.2" d="M49.228 62.6121H46.896V64.9441H49.228V62.6121Z" fill="white"/>
<path opacity="0.2" d="M49.228 65.144H46.896V67.476H49.228V65.144Z" fill="white"/>
<path opacity="0.2" d="M49.228 67.6799H46.896V70.0119H49.228V67.6799Z" fill="white"/>
<path opacity="0.2" d="M51.468 67.6799H49.428V70.0119H51.468V67.6799Z" fill="white"/>
<path opacity="0.2" d="M49.228 54.884H46.896V57.348H49.228V54.884Z" fill="white"/>
<path opacity="0.2" d="M44.164 70.2122H41.832V72.6762H44.164V70.2122Z" fill="white"/>
<path opacity="0.2" d="M46.696 70.2122H44.364V72.6762H46.696V70.2122Z" fill="white"/>
<path opacity="0.2" d="M51.468 62.6121H49.428V64.9441H51.468V62.6121Z" fill="white"/>
<path opacity="0.2" d="M49.228 70.2122H46.896V72.6762H49.228V70.2122Z" fill="white"/>
<path opacity="0.2" d="M51.468 65.144H49.428V67.476H51.468V65.144Z" fill="white"/>
<path opacity="0.2" d="M36.564 70.2122H34.528V71.8122C34.529 72.0431 34.6212 72.2643 34.7845 72.4276C34.9478 72.5909 35.169 72.6831 35.4 72.6842H36.564V70.2122Z" fill="white"/>
<path opacity="0.2" d="M49.428 70.212V72.6719H50.592C50.8236 72.672 51.0458 72.5802 51.21 72.4168C51.3742 72.2534 51.4669 72.0316 51.468 71.8V70.2L49.428 70.212Z" fill="white"/>
<path opacity="0.2" d="M36.564 57.348V54.884H35.4C35.1683 54.8851 34.9465 54.9778 34.7831 55.142C34.6197 55.3062 34.528 55.5284 34.528 55.76V57.36L36.564 57.348Z" fill="white"/>
<path opacity="0.2" d="M51.468 60.0801H49.428V62.4121H51.468V60.0801Z" fill="white"/>
<path opacity="0.2" d="M51.468 57.5481H49.428V59.8801H51.468V57.5481Z" fill="white"/>
<path opacity="0.2" d="M39.096 62.6121H36.764V64.9441H39.096V62.6121Z" fill="white"/>
<path opacity="0.2" d="M39.096 67.6799H36.764V70.0119H39.096V67.6799Z" fill="white"/>
<path opacity="0.2" d="M41.628 54.884H39.296V57.348H41.628V54.884Z" fill="white"/>
<path opacity="0.2" d="M39.096 65.144H36.764V67.476H39.096V65.144Z" fill="white"/>
<path opacity="0.2" d="M41.628 60.0801H39.296V62.4121H41.628V60.0801Z" fill="white"/>
<path opacity="0.2" d="M41.628 57.5481H39.296V59.8801H41.628V57.5481Z" fill="white"/>
<path opacity="0.2" d="M41.628 70.2122H39.296V72.6762H41.628V70.2122Z" fill="white"/>
<path opacity="0.2" d="M39.096 70.2122H36.764V72.6762H39.096V70.2122Z" fill="white"/>
<path opacity="0.2" d="M39.096 54.884H36.764V57.348H39.096V54.884Z" fill="white"/>
<path opacity="0.2" d="M41.628 62.6121H39.296V64.9441H41.628V62.6121Z" fill="white"/>
<path opacity="0.2" d="M39.096 60.0801H36.764V62.4121H39.096V60.0801Z" fill="white"/>
<path opacity="0.2" d="M39.096 57.5481H36.764V59.8801H39.096V57.5481Z" fill="white"/>
<path d="M42.996 69.8321C41.8736 69.8311 40.7973 69.385 40.0033 68.5917C39.2092 67.7984 38.7621 66.7226 38.76 65.6001V61.9601C38.76 60.8367 39.2063 59.7592 40.0007 58.9648C40.7951 58.1704 41.8726 57.7241 42.996 57.7241C44.1195 57.7241 45.1969 58.1704 45.9913 58.9648C46.7857 59.7592 47.232 60.8367 47.232 61.9601V65.6001C47.2299 66.7226 46.7828 67.7984 45.9887 68.5917C45.1947 69.385 44.1184 69.8311 42.996 69.8321ZM42.996 58.1281C41.9797 58.1292 41.0052 58.5331 40.2861 59.2514C39.5671 59.9697 39.1621 60.9438 39.16 61.9601V65.6001C39.16 66.6175 39.5642 67.5932 40.2835 68.3126C41.0029 69.032 41.9786 69.4361 42.996 69.4361C44.0134 69.4361 44.9891 69.032 45.7085 68.3126C46.4279 67.5932 46.832 66.6175 46.832 65.6001V61.9601C46.8299 60.9438 46.4249 59.9697 45.7059 59.2514C44.9868 58.5331 44.0124 58.1292 42.996 58.1281Z" fill="white"/>
<path d="M44.908 63.2841C45.1554 63.2841 45.356 63.0119 45.356 62.6761C45.356 62.3403 45.1554 62.0681 44.908 62.0681C44.6605 62.0681 44.46 62.3403 44.46 62.6761C44.46 63.0119 44.6605 63.2841 44.908 63.2841Z" fill="white"/>
<path d="M41.532 62.6761C41.532 63.0081 41.332 63.2801 41.084 63.2801C40.836 63.2801 40.636 63.0081 40.636 62.6761C40.636 62.3441 40.836 62.0681 41.084 62.0681C41.332 62.0681 41.532 62.3401 41.532 62.6761Z" fill="white"/>
<path d="M43.02 63.28L42.176 65.444H43.02V63.28Z" fill="white"/>
<path d="M42.844 66.944C42.4625 66.964 42.081 66.9041 41.724 66.768L41.896 66.408L41.808 66.588L41.896 66.408C41.896 66.408 42.612 66.724 44.14 66.408L44.224 66.808C43.7701 66.9019 43.3075 66.9475 42.844 66.944Z" fill="white"/>
<path d="M159.192 28.116H115.612C114.479 28.116 113.56 29.0347 113.56 30.168V73.748C113.56 74.8812 114.479 75.8 115.612 75.8H159.192C160.325 75.8 161.244 74.8812 161.244 73.748V30.168C161.244 29.0347 160.325 28.116 159.192 28.116Z" fill="#5C40CC"/>
<path opacity="0.5" d="M154.26 57.5078H120.544C119.521 57.5078 118.692 58.337 118.692 59.3598V65.5278C118.692 66.5506 119.521 67.3798 120.544 67.3798H154.26C155.283 67.3798 156.112 66.5506 156.112 65.5278V59.3598C156.112 58.337 155.283 57.5078 154.26 57.5078Z" fill="white"/>
<path d="M125.38 62.4479L126.472 63.0399L126 63.8599L124.876 63.1999L124.896 64.3999H123.956V63.1759L122.852 63.8359L122.4 63.0399L123.492 62.4479L122.4 61.8479L122.88 61.0239L123.984 61.6879V60.4639H124.924L124.904 61.6879L126.008 61.0239L126.5 61.8479L125.38 62.4479Z" fill="white"/>
<path d="M131.864 62.4479L132.956 63.0399L132.468 63.8599L131.364 63.1999V64.3999H130.424V63.1759L129.324 63.8359L128.84 63.0159L129.932 62.4239L128.84 61.8239L129.324 60.9999L130.424 61.6639V60.4399H131.364V61.6639L132.468 60.9999L132.956 61.8239L131.864 62.4479Z" fill="white"/>
<path d="M138.352 62.4479L139.444 63.0399L138.952 63.8599L137.852 63.1999L137.872 64.3999H136.928V63.1759L135.824 63.8359L135.344 63.0159L136.436 62.4239L135.344 61.8239L135.824 60.9999L136.928 61.6639V60.4399H137.872L137.852 61.6639L138.952 60.9999L139.444 61.8239L138.352 62.4479Z" fill="white"/>
<path d="M144.84 62.4479L145.932 63.0399L145.44 63.8599L144.336 63.1999L144.356 64.3999H143.416V63.1759L142.316 63.8359L141.836 63.0159L142.928 62.4239L141.836 61.8239L142.316 60.9999L143.416 61.6639V60.4399H144.356L144.336 61.6639L145.44 60.9999L145.932 61.8239L144.84 62.4479Z" fill="white"/>
<path d="M151.324 62.4479L152.4 63.0399L151.912 63.8599L150.824 63.1999L150.844 64.3999H149.904V63.1759L148.8 63.8599L148.316 63.0399L149.408 62.4479L148.316 61.8479L148.8 61.0239L149.9 61.6879V60.4639H150.84L150.82 61.6879L151.924 61.0239L152.412 61.8479L151.324 62.4479Z" fill="white"/>
<path opacity="0.5" d="M144.96 50.431C149.135 46.2555 149.135 39.4857 144.96 35.3102C140.784 31.1347 134.015 31.1347 129.839 35.3102C125.664 39.4857 125.664 46.2555 129.839 50.431C134.015 54.6065 140.784 54.6065 144.96 50.431Z" fill="white"/>
<path d="M141.6 42.272H133.24C133.089 42.2715 132.94 42.3008 132.8 42.3583C132.661 42.4158 132.534 42.5003 132.427 42.607C132.32 42.7137 132.236 42.8405 132.178 42.98C132.121 43.1196 132.092 43.2691 132.092 43.42V48.512C132.092 48.8164 132.213 49.1084 132.428 49.3237C132.644 49.539 132.936 49.66 133.24 49.66H141.6C141.905 49.66 142.197 49.539 142.412 49.3237C142.627 49.1084 142.748 48.8164 142.748 48.512V43.42C142.749 43.2691 142.719 43.1196 142.662 42.98C142.604 42.8405 142.52 42.7137 142.413 42.607C142.306 42.5003 142.18 42.4158 142.04 42.3583C141.9 42.3008 141.751 42.2715 141.6 42.272ZM138.188 47.94H136.652L136.972 45.856C136.766 45.7548 136.6 45.5869 136.502 45.3795C136.404 45.1722 136.378 44.9376 136.43 44.7141C136.482 44.4906 136.608 44.2912 136.788 44.1485C136.968 44.0058 137.191 43.9281 137.42 43.9281C137.65 43.9281 137.872 44.0058 138.052 44.1485C138.232 44.2912 138.358 44.4906 138.41 44.7141C138.462 44.9376 138.436 45.1722 138.338 45.3795C138.24 45.5869 138.074 45.7548 137.868 45.856L138.188 47.94Z" fill="#5C40CC"/>
<path d="M134.992 41.4559L134.836 40.6559C134.702 39.986 134.839 39.2902 135.218 38.7216C135.597 38.153 136.186 37.7581 136.856 37.6239C137.526 37.4897 138.222 37.6272 138.79 38.006C139.359 38.3848 139.754 38.974 139.888 39.6439L140.044 40.4239L141.52 40.1279L141.36 39.3279C141.264 38.794 141.063 38.2845 140.767 37.8293C140.472 37.3741 140.089 36.9824 139.641 36.6771C139.192 36.3717 138.687 36.1589 138.156 36.051C137.624 35.9431 137.076 35.9423 136.544 36.0487C136.012 36.1551 135.507 36.3665 135.058 36.6706C134.608 36.9747 134.224 37.3654 133.928 37.8197C133.631 38.274 133.428 38.7829 133.331 39.3166C133.233 39.8503 133.243 40.3981 133.36 40.9279L133.516 41.7279L134.992 41.4559Z" fill="#5C40CC"/>
<path opacity="0.2" d="M143.36 70.936H131.44C131.3 70.936 131.166 70.8804 131.067 70.7814C130.968 70.6824 130.912 70.5481 130.912 70.408C130.913 70.2687 130.969 70.1354 131.068 70.0373C131.167 69.9391 131.301 69.884 131.44 69.884H143.36C143.499 69.884 143.633 69.9391 143.732 70.0373C143.831 70.1354 143.887 70.2687 143.888 70.408C143.888 70.5481 143.832 70.6824 143.733 70.7814C143.634 70.8804 143.5 70.936 143.36 70.936Z" fill="black"/>
<path d="M103.876 70.7161L107.972 67.2361C107.972 67.2361 111.46 63.5401 112.196 63.4601C112.932 63.3801 114.52 63.6961 114.94 64.2241C115.36 64.7521 112.212 68.1841 111.472 68.8161C110.732 69.4481 109.256 69.3441 109.256 69.3441L105.352 73.1161L103.876 70.7161Z" fill="#EBB376"/>
<path d="M72.2761 163.644H68.3161C68.2518 163.646 68.19 163.669 68.1401 163.709C68.0902 163.75 68.055 163.805 68.0401 163.868L67.3961 166.772C67.37 166.897 67.3944 167.028 67.4641 167.135C67.5338 167.242 67.6431 167.317 67.7681 167.344H67.8721C69.1521 167.324 70.0881 167.244 71.6961 167.244C72.6881 167.244 75.6761 167.348 77.0441 167.348C78.4121 167.348 78.5921 165.996 78.0321 165.872C75.5201 165.324 73.6321 164.568 72.8321 163.844C72.679 163.709 72.4801 163.637 72.2761 163.644Z" fill="#263238"/>
<path d="M89.0682 163.544H85.1082C85.0436 163.544 84.981 163.567 84.9308 163.608C84.8806 163.648 84.8458 163.705 84.8322 163.768L84.1882 166.668C84.1621 166.793 84.1865 166.924 84.2562 167.031C84.3259 167.138 84.4352 167.213 84.5602 167.24H84.6642C85.9482 167.22 86.8802 167.14 88.4882 167.14C89.4802 167.14 92.4682 167.244 93.8362 167.244C95.2042 167.244 95.3842 165.892 94.8242 165.768C92.3122 165.22 90.4242 164.464 89.6242 163.74C89.4706 163.606 89.2717 163.536 89.0682 163.544Z" fill="#263238"/>
<path d="M70.1761 90.248H87.4761C89.1201 99.228 93.8241 135.58 90.1321 163.9L84.3561 164.532C84.3561 164.532 85.2601 121.012 80.0921 107.112C79.4961 114.552 78.7881 122.464 78.1761 126.676C76.6721 137.044 73.2801 164.056 73.2801 164.056L67.4241 164.216C67.4241 164.216 68.7081 138.012 69.2681 127.816C69.8881 116.764 70.1521 92.516 70.1761 90.248Z" fill="#263238"/>
<path opacity="0.2" d="M70.1761 90.248H87.4761C89.1201 99.228 93.8241 135.58 90.1321 163.9L84.3561 164.532C84.3561 164.532 85.2601 121.012 80.0921 107.112C79.4961 114.552 78.7881 122.464 78.1761 126.676C76.6721 137.044 73.2801 164.056 73.2801 164.056L67.4241 164.216C67.4241 164.216 68.7081 138.012 69.2681 127.816C69.8881 116.764 70.1521 92.516 70.1761 90.248Z" fill="white"/>
<path opacity="0.2" d="M80.092 107.112C80.9431 109.549 81.5893 112.052 82.024 114.596C82.508 107.976 80.572 100.956 80.572 100.956L80.092 107.112Z" fill="black"/>
<path d="M85.8961 60.3159C88.6281 60.6479 94.0081 73.0679 96.0641 74.1759C98.1201 75.2839 106.272 68.3199 106.272 68.3199L108.328 70.8519C108.328 70.8519 99.0721 80.7439 95.4321 79.6519C91.7921 78.5599 86.6321 69.2079 85.0681 66.2799C83.5041 63.3519 85.8961 60.3159 85.8961 60.3159Z" fill="#5C40CC"/>
<path opacity="0.5" d="M108.328 70.852C108.328 70.852 99.0721 80.74 95.4321 79.652C93.8321 79.168 91.9681 77.116 90.2321 74.716C88.3399 72.0144 86.6166 69.1984 85.072 66.284C84.7347 65.6165 84.5517 64.8818 84.5364 64.134C84.5212 63.3863 84.6742 62.6447 84.9841 61.964C85.2177 61.3828 85.5256 60.8342 85.9001 60.332C88.6321 60.664 94.0121 73.088 96.0681 74.196C98.1241 75.304 106.276 68.34 106.276 68.34L108.328 70.852Z" fill="white"/>
<path opacity="0.2" d="M90.2281 74.6958C88.336 71.9942 86.6127 69.1782 85.0681 66.2638C84.7308 65.5964 84.5478 64.8616 84.5325 64.1139C84.5173 63.3661 84.6703 62.6245 84.9801 61.9438C86.5361 63.8598 89.7001 68.4598 90.2281 74.6958Z" fill="black"/>
<path d="M85.896 60.316C85.896 60.316 74.892 59.796 66.696 61.864C66.696 61.864 69.768 85.668 69.632 96.036L89.232 94.98C89.232 94.98 88.756 71.012 85.896 60.316Z" fill="#5C40CC"/>
<path opacity="0.6" d="M69.6321 96.0359C69.6961 91.2159 69.0641 83.4919 68.3721 76.6039C68.1081 73.9759 67.8361 71.4679 67.5721 69.2919C67.0721 64.9119 66.6801 61.8679 66.6801 61.8679C74.8761 59.7999 85.8801 60.3199 85.8801 60.3199C88.7401 71.0159 89.2361 94.9839 89.2361 94.9839L69.6321 96.0359Z" fill="white"/>
<path opacity="0.2" d="M68.372 76.6001C68.108 73.9721 67.836 71.4641 67.572 69.2881L68.832 68.3201C68.832 68.3201 69.944 72.6561 68.372 76.6001Z" fill="black"/>
<path opacity="0.2" d="M85.752 86L84.676 86.052L81.756 86.188L79.964 86.272L76.232 86.448C76.232 86.448 76.232 86.264 76.212 85.928C76.18 85.204 76.116 83.772 76.008 81.968C75.932 80.624 75.828 79.072 75.7 77.448C75.608 76.328 75.508 75.176 75.392 74.036C75.22 72.344 75.02 70.672 74.784 69.168C74.66 68.368 74.524 67.604 74.384 66.916L83.668 66.312C83.668 66.312 83.788 66.9 83.968 67.912C84.088 68.576 84.232 69.424 84.388 70.416C85.2249 75.5701 85.6808 80.7789 85.752 86Z" fill="black"/>
<path opacity="0.2" d="M81.756 86.196L79.964 86.28C81.24 83.036 81.74 78.464 80.884 77.04C79.724 75.112 78.3 78.808 77.284 83.24C77.0934 84.1964 76.7272 85.1091 76.204 85.932C76.172 85.208 76.108 83.776 76 81.972C76.5725 81.0217 77.005 79.9938 77.284 78.92C78.712 73.908 79.98 73.012 81.612 74.328C83.116 75.532 83.556 81.372 81.756 86.196Z" fill="black"/>
<path opacity="0.2" d="M84.6761 86.06C85.0401 81.808 84.4801 74.644 83.2321 72.44C81.8041 69.912 78.6521 69.856 77.1361 74.44C76.8033 75.5098 76.3198 76.5267 75.7001 77.46C75.6081 76.34 75.5081 75.188 75.3921 74.048C75.8187 73.514 76.2 72.9454 76.5321 72.348C78.2601 69.288 80.9321 67.864 83.5721 69.644C83.8806 69.8653 84.1508 70.1355 84.3721 70.444C85.213 75.5885 85.6742 80.7878 85.7521 86L84.6761 86.06Z" fill="black"/>
<path opacity="0.2" d="M83.964 67.928C81.888 66.36 79.084 66.784 77.292 68.268C76.6076 68.8873 75.7061 69.2109 74.784 69.168C74.66 68.368 74.524 67.604 74.384 66.916L83.668 66.312C83.668 66.312 83.784 66.9 83.964 67.928Z" fill="black"/>
<path d="M73.1201 61.04C74.7001 62.476 78.5721 61.944 78.5721 61.944C78.5721 61.944 80.9721 61.284 80.4801 60.528C79.0561 60.292 78.3681 59.6279 78.0801 58.7799C77.9218 58.2527 77.8728 57.6988 77.9361 57.152C77.9586 56.8472 77.9987 56.5441 78.0561 56.244L73.2561 52.7C73.9001 55.04 74.6681 59.344 73.1201 61.04Z" fill="#EBB376"/>
<path opacity="0.2" d="M74.376 54.9519C74.568 57.8239 76.928 58.6159 78.084 58.7799C77.9257 58.2527 77.8767 57.6987 77.94 57.1519L74.376 54.9519Z" fill="black"/>
<path d="M81.372 45.26C81.372 45.26 82.708 49.58 80.616 51.632C78.524 53.684 77.292 45.456 77.292 45.456L81.372 45.26Z" fill="#263238"/>
<path d="M74.3321 56.164C74.9325 56.8186 75.7315 57.2578 76.606 57.4139C77.4806 57.57 78.3821 57.4344 79.1721 57.028C80.2051 56.5236 81.0064 55.6436 81.4121 54.568C81.4691 54.4186 81.5185 54.2664 81.5601 54.112C82.3081 51.24 81.9601 46.46 78.8441 45.116C78.1558 44.8167 77.4024 44.6984 76.6556 44.7724C75.9088 44.8464 75.1932 45.1102 74.5771 45.5388C73.961 45.9673 73.4647 46.5463 73.1355 47.2207C72.8062 47.8951 72.655 48.6426 72.6961 49.392C72.8201 52.6 72.7401 54.496 74.3321 56.164Z" fill="#EBB376"/>
<path d="M77.5521 50.3999C77.5281 50.6559 77.6801 50.8759 77.8521 50.8759C78.0241 50.8759 78.1641 50.6679 78.1721 50.4079C78.1801 50.1479 78.0401 49.9319 77.8721 49.9319C77.7041 49.9319 77.5601 50.1239 77.5521 50.3999Z" fill="#263238"/>
<path d="M80.5081 50.448C80.4841 50.704 80.6401 50.924 80.8081 50.924C80.9761 50.924 81.1201 50.716 81.1281 50.456C81.1361 50.196 80.9961 49.98 80.8281 49.98C80.6601 49.98 80.5161 50.2 80.5081 50.448Z" fill="#263238"/>
<path d="M79.5682 50.5559C79.8606 51.3629 80.2645 52.1249 80.7682 52.8199C80.5852 52.9442 80.3773 53.0272 80.1591 53.0632C79.9408 53.0991 79.7173 53.0871 79.5042 53.0279L79.5682 50.5559Z" fill="#D58745"/>
<path d="M76.652 49.4119C76.68 49.4165 76.7088 49.4138 76.7354 49.4039C76.7621 49.3941 76.7857 49.3776 76.804 49.3559C76.9193 49.2016 77.069 49.0765 77.2413 48.9903C77.4135 48.9042 77.6035 48.8595 77.796 48.8599C77.8368 48.8632 77.8772 48.8504 77.9087 48.8242C77.9401 48.798 77.96 48.7606 77.964 48.7199C77.9657 48.6999 77.9633 48.6798 77.9572 48.6607C77.951 48.6416 77.9412 48.624 77.9281 48.6087C77.9151 48.5935 77.8992 48.581 77.8814 48.5719C77.8635 48.5628 77.844 48.5574 77.824 48.5559C77.5806 48.5486 77.339 48.6 77.1197 48.7058C76.9004 48.8117 76.7098 48.9688 76.564 49.1639C76.5389 49.1948 76.527 49.2343 76.5307 49.2739C76.5344 49.3136 76.5536 49.3502 76.584 49.3759C76.6052 49.3906 76.628 49.4026 76.652 49.4119Z" fill="#263238"/>
<path d="M81.8 49.452C81.8285 49.4618 81.8594 49.4618 81.888 49.452C81.9064 49.4442 81.9231 49.4328 81.9371 49.4185C81.951 49.4041 81.9621 49.3872 81.9695 49.3686C81.9769 49.35 81.9806 49.3302 81.9804 49.3102C81.9801 49.2902 81.9759 49.2704 81.968 49.252C81.8702 49.0279 81.72 48.8305 81.5299 48.6767C81.3398 48.5228 81.1156 48.4169 80.876 48.368C80.8362 48.3623 80.7958 48.3725 80.7636 48.3965C80.7313 48.4205 80.7099 48.4563 80.704 48.496C80.6993 48.5356 80.7099 48.5755 80.7337 48.6075C80.7575 48.6395 80.7927 48.6611 80.832 48.668C81.0202 48.7121 81.1954 48.7999 81.3434 48.9243C81.4914 49.0487 81.6081 49.2062 81.684 49.384C81.6974 49.4029 81.7147 49.4187 81.7347 49.4304C81.7547 49.4422 81.7769 49.4495 81.8 49.452Z" fill="#263238"/>
<path d="M75.1321 45.4319L75.3441 46.8399C75.1083 46.9612 74.9268 47.1668 74.8357 47.4158C74.7445 47.6648 74.7504 47.939 74.8521 48.1839C75.3401 49.3839 74.7161 51.2279 73.8241 51.9879C73.8241 51.9879 73.7801 51.4759 73.3481 51.6079C72.9161 51.7399 73.1081 54.4079 73.9961 55.6839C72.8678 54.5179 72.0615 53.079 71.6561 51.5079C70.9161 48.9199 70.9921 46.9999 71.5001 45.9759L75.1321 45.4319Z" fill="#263238"/>
<path d="M79.7481 53.812C79.6142 54.1835 79.5086 54.5646 79.4321 54.952C79.3628 54.956 79.2934 54.956 79.2241 54.952C78.2801 54.912 77.8561 54.58 77.6721 54.224C77.5868 54.0485 77.5443 53.8552 77.5481 53.66C77.5472 53.5492 77.562 53.4387 77.5921 53.332C78.1616 53.619 78.7867 53.7786 79.4241 53.8C79.6241 53.812 79.7481 53.812 79.7481 53.812Z" fill="#263238"/>
<path d="M79.4241 53.792L79.3241 54.128C78.4361 54.084 77.8161 53.936 77.5481 53.652C77.5472 53.5411 77.562 53.4307 77.5921 53.324C78.1617 53.6109 78.7868 53.7706 79.4241 53.792Z" fill="white"/>
<path d="M79.2241 54.9441C78.2801 54.9041 77.8561 54.5721 77.6721 54.2161C78.0312 54.2393 78.3833 54.326 78.7121 54.4721C78.9286 54.571 79.1079 54.7363 79.2241 54.9441Z" fill="#DE5753"/>
<path d="M77.2481 46.308C77.3511 46.1679 77.4994 46.0678 77.6679 46.0248C77.8363 45.9817 78.0145 45.9984 78.1721 46.072C78.8481 46.268 79.4441 46.948 80.1401 47.812C80.8361 48.676 82.2121 48.68 82.5401 48.168C82.8681 47.656 82.2241 46.94 82.2241 46.94C82.2241 46.94 82.8161 43.656 79.2361 42.904C75.6561 42.152 73.7721 43.736 73.7721 43.736C73.7721 43.736 70.8001 43.836 70.5721 46.584C70.4947 47.6999 70.562 48.8212 70.7721 49.92C70.7721 49.92 69.9721 50.924 71.4761 50.864C73.1841 50.796 75.2361 49.868 75.3361 48.208C75.4361 46.548 77.2481 46.308 77.2481 46.308Z" fill="#263238"/>
<path d="M71.24 52.0001C71.5823 52.7331 72.2006 53.3011 72.96 53.5801C73.968 53.9401 74.56 53.0561 74.336 52.0641C74.136 51.1801 73.38 49.9041 72.336 49.9801C71.292 50.0561 70.832 51.0881 71.24 52.0001Z" fill="#EBB376"/>
<path d="M66.6961 61.864C63.8281 62.7 59.8201 82.216 60.3481 84.748C60.8761 87.28 70.9481 97.948 70.9481 97.948L73.7481 95.824C73.7481 95.824 65.1881 83.704 65.0841 81.172C64.9801 78.64 68.8801 69.252 68.8801 69.252C68.8801 69.252 68.7761 66.088 68.3521 64.504C68.0545 63.488 67.4813 62.5742 66.6961 61.864Z" fill="#5C40CC"/>
<path opacity="0.5" d="M66.6961 61.864C63.8281 62.7 59.8201 82.216 60.3481 84.748C60.8761 87.28 70.9481 97.948 70.9481 97.948L73.7481 95.824C73.7481 95.824 65.1881 83.704 65.0841 81.172C64.9801 78.64 68.8801 69.252 68.8801 69.252C68.8801 69.252 68.7761 66.088 68.3521 64.504C68.0545 63.488 67.4813 62.5742 66.6961 61.864Z" fill="white"/>
</svg>
