<svg width="250" height="250" viewBox="0 0 250 250" fill="none" xmlns="http://www.w3.org/2000/svg">
<path d="M196.125 134.22L159.76 120.47C159.163 120.244 158.616 119.903 158.15 119.465C157.685 119.028 157.31 118.503 157.048 117.921C156.786 117.338 156.641 116.71 156.621 116.071C156.602 115.433 156.708 114.797 156.935 114.2L175.965 63.87C176.421 62.6634 177.338 61.6874 178.514 61.1567C179.69 60.626 181.028 60.584 182.235 61.04L205.3 69.76L216.19 94.91L202.395 131.41C201.935 132.613 201.016 133.584 199.841 134.111C198.665 134.638 197.329 134.677 196.125 134.22Z" fill="#F5F5F5"/>
<path d="M205.3 69.76L199.94 83.925C199.729 84.4808 199.63 85.0727 199.649 85.6667C199.667 86.2608 199.802 86.8455 200.046 87.3873C200.29 87.9292 200.639 88.4176 201.072 88.8247C201.505 89.2318 202.014 89.5496 202.57 89.76L216.19 94.91L205.3 69.76Z" fill="#EBEBEB"/>
<path d="M199.655 85.24C199.655 85.24 198.18 88.61 201.655 91.24C201.786 91.338 201.923 91.4282 202.065 91.51C203.725 92.51 214.645 99.01 214.745 98.745L216.185 94.935L202.565 89.785C202.565 89.785 199.215 88.36 199.655 85.24Z" fill="#E0E0E0"/>
<path d="M197.11 82.195C197.04 82.38 193.22 81.1 188.575 79.345C183.93 77.59 180.22 76.015 180.29 75.845C180.36 75.675 184.18 76.94 188.825 78.695C193.47 80.45 197.18 82 197.11 82.195Z" fill="#E0E0E0"/>
<path d="M204.945 94.315C204.875 94.495 198.625 92.315 190.98 89.41C183.335 86.505 177.19 84.025 177.26 83.84C177.33 83.655 183.58 85.84 191.23 88.75C198.88 91.66 205 94.13 204.945 94.315Z" fill="#E0E0E0"/>
<path d="M204.91 101.945C204.84 102.125 198.03 99.72 189.695 96.565C181.36 93.41 174.66 90.71 174.73 90.53C174.8 90.35 181.61 92.755 189.945 95.91C198.28 99.065 205 101.76 204.91 101.945Z" fill="#E0E0E0"/>
<path d="M202.525 108.255C202.455 108.435 195.645 106.03 187.31 102.875C178.975 99.72 172.275 97 172.345 96.84C172.415 96.68 179.225 99.065 187.56 102.215C195.895 105.365 202.595 108.07 202.525 108.255Z" fill="#E0E0E0"/>
<path d="M200.14 114.565C200.07 114.745 193.255 112.34 184.925 109.185C176.595 106.03 169.89 103.33 169.955 103.15C170.02 102.97 176.835 105.375 185.175 108.525C193.515 111.675 200.205 114.38 200.14 114.565Z" fill="#E0E0E0"/>
<path d="M197.75 120.875C197.685 121.055 190.87 118.645 182.54 115.495C174.21 112.345 167.5 109.64 167.57 109.46C167.64 109.28 174.45 111.685 182.785 114.835C191.12 117.985 197.82 120.69 197.75 120.875Z" fill="#E0E0E0"/>
<path d="M74.8832 81.9686L26.9428 98.7571C25.2853 99.3375 24.4121 101.152 24.9926 102.809L49.0458 171.495C49.6262 173.152 51.4405 174.025 53.0981 173.445L101.038 156.656C102.696 156.076 103.569 154.262 102.989 152.604L78.9355 83.9188C78.355 82.2613 76.5407 81.3881 74.8832 81.9686Z" fill="#EBEBEB"/>
<path d="M75.4978 86.2378L29.1242 102.478L52.9642 170.554L99.3379 154.314L75.4978 86.2378Z" fill="#E0E0E0"/>
<path d="M74.6679 85.9175L28.2943 102.157L51.6798 168.936L98.0535 152.696L74.6679 85.9175Z" fill="#FAFAFA"/>
<path d="M98.045 152.695L74.6 85.94L74.685 85.98L28.32 102.225L28.365 102.135C37.105 127.215 45.24 150.38 51.735 168.915L51.66 168.88L98.05 152.695L51.695 169H51.64V168.945C45.14 150.41 37.03 127.245 28.24 102.17V102.1H28.305L74.675 85.87H74.74V85.93L98.045 152.695Z" fill="#E0E0E0"/>
<path d="M81.6 158.455C81.6 158.455 91.925 149.745 93.715 140.675C92.6789 142.113 91.3624 143.326 89.8448 144.241C88.3273 145.156 86.6401 145.755 84.885 146C84.885 146 84.68 155.5 81.6 158.455Z" fill="#E0E0E0"/>
<path d="M44.1422 117.037L41.7025 117.892C40.8111 118.204 40.3416 119.179 40.6538 120.071L41.5081 122.51C41.8203 123.402 42.7959 123.871 43.6872 123.559L46.1269 122.705C47.0183 122.393 47.4878 121.417 47.1757 120.526L46.3213 118.086C46.0091 117.195 45.0335 116.725 44.1422 117.037Z" fill="#EBEBEB"/>
<path d="M43.845 121.24C43.828 121.249 43.8091 121.253 43.79 121.253C43.7709 121.253 43.752 121.249 43.735 121.24L42.615 120.59C42.5879 120.569 42.5692 120.539 42.5626 120.506C42.556 120.472 42.5618 120.438 42.579 120.408C42.5962 120.379 42.6236 120.357 42.656 120.346C42.6884 120.335 42.7236 120.337 42.755 120.35L43.755 120.92L44.935 118.42C44.9522 118.387 44.9812 118.361 45.0164 118.348C45.0516 118.335 45.0903 118.336 45.125 118.35C45.1419 118.358 45.1571 118.369 45.1696 118.383C45.182 118.397 45.1916 118.414 45.1976 118.431C45.2037 118.449 45.2061 118.468 45.2048 118.486C45.2035 118.505 45.1985 118.523 45.19 118.54L43.945 121.2C43.9321 121.213 43.9166 121.224 43.8993 121.231C43.8821 121.238 43.8636 121.241 43.845 121.24Z" fill="white"/>
<path d="M75.865 106.7C75.865 106.74 69.865 108.885 62.42 111.49C54.975 114.095 48.92 116.175 48.92 116.14C48.92 116.105 54.92 113.955 62.37 111.35C69.82 108.745 75.855 106.665 75.865 106.7Z" fill="#E0E0E0"/>
<path d="M61.725 116.31C61.725 116.31 61.57 116.38 61.29 116.49L60.08 116.94C59.08 117.31 57.64 117.815 56.08 118.365C54.52 118.915 53.08 119.405 52.08 119.75L50.855 120.155C50.7067 120.209 50.5546 120.253 50.4 120.285C50.5398 120.212 50.6853 120.15 50.835 120.1L52.045 119.655C53.045 119.28 54.485 118.775 56.045 118.225C57.605 117.675 59.045 117.19 60.045 116.84L61.27 116.435C61.4178 116.38 61.57 116.338 61.725 116.31Z" fill="#E0E0E0"/>
<path d="M76.5 108.54C76.5 108.575 70.5 110.72 63.05 113.325C55.6 115.93 49.55 118.015 49.55 117.975C49.55 117.935 55.55 115.795 63.005 113.19C70.46 110.585 76.5 108.5 76.5 108.54Z" fill="#E0E0E0"/>
<path d="M47.625 126.986L45.1852 127.841C44.2939 128.153 43.8244 129.128 44.1365 130.02L44.9909 132.459C45.303 133.351 46.2787 133.82 47.17 133.508L49.6097 132.654C50.501 132.342 50.9706 131.366 50.6584 130.475L49.8041 128.035C49.4919 127.144 48.5163 126.674 47.625 126.986Z" fill="#EBEBEB"/>
<path d="M47.33 131.19C47.3121 131.199 47.2924 131.203 47.2725 131.203C47.2526 131.203 47.2329 131.199 47.215 131.19L46.1 130.54C46.0838 130.531 46.0696 130.519 46.0583 130.505C46.0469 130.49 46.0387 130.474 46.034 130.456C46.0293 130.438 46.0283 130.419 46.0311 130.401C46.0338 130.383 46.0403 130.366 46.05 130.35C46.0588 130.334 46.0708 130.32 46.0853 130.308C46.0998 130.297 46.1164 130.289 46.1342 130.284C46.152 130.279 46.1706 130.278 46.1888 130.281C46.2069 130.284 46.2244 130.29 46.24 130.3L47.24 130.87L48.42 128.345C48.4362 128.312 48.4644 128.287 48.4987 128.274C48.533 128.261 48.571 128.261 48.605 128.275C48.6388 128.29 48.6651 128.318 48.6783 128.353C48.6914 128.388 48.6902 128.426 48.675 128.46L47.43 131.125C47.4189 131.142 47.4042 131.157 47.387 131.168C47.3697 131.179 47.3503 131.187 47.33 131.19Z" fill="white"/>
<path d="M79.35 116.65C79.35 116.69 73.35 118.83 65.9 121.44C58.45 124.05 52.4 126.125 52.4 126.09C52.4 126.055 58.4 123.905 65.85 121.3C73.3 118.695 79.34 116.615 79.35 116.65Z" fill="#E0E0E0"/>
<path d="M65.21 126.26C65.21 126.26 65.055 126.33 64.77 126.44L63.565 126.89C62.565 127.26 61.125 127.765 59.565 128.315C58.005 128.865 56.565 129.355 55.565 129.7L54.34 130.105C54.1917 130.159 54.0396 130.203 53.885 130.235C54.0242 130.161 54.1698 130.099 54.32 130.05L55.53 129.605C56.53 129.23 57.97 128.725 59.53 128.175C61.09 127.625 62.53 127.14 63.53 126.79L64.755 126.385C64.9028 126.33 65.055 126.289 65.21 126.26Z" fill="#E0E0E0"/>
<path d="M80 118.5C80 118.535 74 120.68 66.55 123.285C59.1 125.89 53.05 127.975 53.05 127.935C53.05 127.895 59.05 125.755 66.5 123.15C73.95 120.545 80 118.45 80 118.5Z" fill="#E0E0E0"/>
<path d="M51.1127 136.935L48.673 137.79C47.7817 138.102 47.3121 139.077 47.6243 139.969L48.4787 142.408C48.7908 143.3 49.7664 143.769 50.6577 143.457L53.0975 142.603C53.9888 142.291 54.4583 141.315 54.1462 140.424L53.2918 137.984C52.9797 137.093 52.0041 136.623 51.1127 136.935Z" fill="#EBEBEB"/>
<path d="M50.815 141.14C50.7971 141.149 50.7774 141.153 50.7575 141.153C50.7376 141.153 50.7179 141.149 50.7 141.14L49.58 140.5C49.5617 140.492 49.5454 140.481 49.5319 140.466C49.5185 140.451 49.5083 140.434 49.5021 140.415C49.4959 140.396 49.4937 140.376 49.4958 140.357C49.4979 140.337 49.5041 140.318 49.5141 140.301C49.5241 140.284 49.5376 140.269 49.5538 140.257C49.57 140.246 49.5884 140.238 49.6079 140.234C49.6273 140.23 49.6474 140.23 49.6667 140.235C49.6861 140.239 49.7042 140.248 49.72 140.26L50.72 140.83L51.9 138.305C51.907 138.287 51.9175 138.271 51.9308 138.258C51.9442 138.245 51.9601 138.234 51.9776 138.227C51.9951 138.22 52.0139 138.217 52.0328 138.217C52.0517 138.217 52.0703 138.222 52.0876 138.229C52.1048 138.237 52.1203 138.248 52.1331 138.262C52.1459 138.276 52.1557 138.292 52.162 138.31C52.1683 138.328 52.1709 138.347 52.1697 138.366C52.1685 138.385 52.1635 138.403 52.155 138.42L50.91 141.085C50.8855 141.114 50.852 141.133 50.815 141.14Z" fill="white"/>
<path d="M82.835 126.6C82.835 126.64 76.835 128.78 69.385 131.39C61.935 134 55.885 136.075 55.885 136.035C55.885 135.995 61.885 133.855 69.34 131.25C76.795 128.645 82.82 126.565 82.835 126.6Z" fill="#E0E0E0"/>
<path d="M68.695 136.205C68.5531 136.277 68.406 136.339 68.255 136.39L67.045 136.84C66.045 137.21 64.61 137.715 63.045 138.265C61.48 138.815 60.045 139.3 59.045 139.65L57.82 140.055C57.6715 140.109 57.5194 140.152 57.365 140.185C57.5042 140.11 57.6498 140.049 57.8 140L59.01 139.55C60.01 139.18 61.45 138.675 63.01 138.125C64.57 137.575 66.01 137.09 67.01 136.74L68.23 136.335C68.3824 136.283 68.5377 136.239 68.695 136.205Z" fill="#E0E0E0"/>
<path d="M83.5 128.44C83.5 128.475 77.5 130.62 70.05 133.225C62.6 135.83 56.55 137.915 56.55 137.875C56.55 137.835 62.55 135.695 70 133.085C77.45 130.475 83.465 128.4 83.5 128.44Z" fill="#E0E0E0"/>
<path d="M54.5955 146.884L52.1558 147.739C51.2644 148.051 50.7949 149.026 51.107 149.918L51.9614 152.357C52.2736 153.249 53.2492 153.718 54.1405 153.406L56.5802 152.552C57.4716 152.24 57.9411 151.264 57.629 150.373L56.7746 147.933C56.4624 147.042 55.4868 146.572 54.5955 146.884Z" fill="#EBEBEB"/>
<path d="M54.295 151.09C54.2776 151.097 54.2589 151.101 54.24 151.101C54.2211 151.101 54.2024 151.097 54.185 151.09L53.065 150.44C53.0332 150.421 53.0103 150.39 53.0014 150.354C52.9925 150.317 52.9983 150.279 53.0175 150.247C53.0367 150.216 53.0678 150.193 53.1039 150.184C53.14 150.175 53.1782 150.181 53.21 150.2L54.21 150.77L55.39 148.27C55.4053 148.236 55.4333 148.21 55.468 148.197C55.5027 148.184 55.5412 148.185 55.575 148.2C55.6079 148.216 55.6335 148.244 55.6464 148.279C55.6594 148.313 55.6589 148.351 55.645 148.385L54.395 151.05C54.368 151.076 54.3322 151.09 54.295 151.09Z" fill="white"/>
<path d="M86.32 136.55C86.32 136.59 80.32 138.73 72.87 141.335C65.42 143.94 59.37 146.025 59.37 145.985C59.37 145.945 65.37 143.805 72.82 141.2C80.27 138.595 86.305 136.5 86.32 136.55Z" fill="#E0E0E0"/>
<path d="M72.175 146.155C72.0358 146.229 71.8902 146.291 71.74 146.34L70.53 146.79C69.53 147.16 68.09 147.665 66.53 148.215C64.97 148.765 63.53 149.25 62.53 149.6L61.305 150.005C61.015 150.095 60.85 150.14 60.85 150.135C60.9892 150.061 61.1348 149.999 61.285 149.95L62.495 149.5C63.495 149.13 64.935 148.625 66.495 148.075C68.055 147.525 69.495 147.04 70.495 146.69L71.72 146.285C71.8685 146.231 72.0206 146.188 72.175 146.155Z" fill="#E0E0E0"/>
<path d="M86.965 138.39C86.965 138.425 80.965 140.57 73.515 143.175C66.065 145.78 60.015 147.86 60.015 147.825C60.015 147.79 66.015 145.645 73.465 143.035C80.915 140.425 86.95 138.35 86.965 138.39Z" fill="#E0E0E0"/>
<path d="M33.545 95.65L34.765 99.15C35.1062 100.124 35.8203 100.923 36.7503 101.372C37.6804 101.82 38.7503 101.88 39.725 101.54L65.375 92.54C65.8572 92.3716 66.3015 92.1098 66.6824 91.7695C67.0634 91.4293 67.3735 91.0173 67.595 90.557C67.8165 90.0968 67.9451 89.5974 67.9734 89.0874C68.0018 88.5774 67.9292 88.0669 67.76 87.585L66.54 84.085L33.545 95.65Z" fill="#E0E0E0"/>
<path d="M50.385 90.91C49.7036 91.1497 48.9664 91.1819 48.2667 91.0025C47.567 90.823 46.9363 90.44 46.4545 89.9019C45.9726 89.3638 45.6612 88.6948 45.5597 87.9796C45.4583 87.2644 45.5713 86.5352 45.8845 85.8843C46.1977 85.2334 46.697 84.6901 47.3191 84.3231C47.9413 83.9561 48.6583 83.782 49.3795 83.8227C50.1007 83.8635 50.7936 84.1173 51.3704 84.5521C51.9473 84.9868 52.3821 85.5829 52.62 86.265C52.9382 87.1774 52.8816 88.1787 52.4626 89.0495C52.0437 89.9202 51.2965 90.5893 50.385 90.91ZM48.435 85.345C48.0148 85.4917 47.6475 85.7598 47.3796 86.1153C47.1118 86.4708 46.9554 86.8978 46.9302 87.3422C46.9051 87.7866 47.0124 88.2285 47.2384 88.612C47.4645 88.9954 47.7992 89.3032 48.2003 89.4963C48.6013 89.6895 49.0506 89.7594 49.4913 89.6971C49.9321 89.6349 50.3445 89.4433 50.6763 89.1466C51.0081 88.8499 51.2445 88.4615 51.3555 88.0304C51.4666 87.5994 51.4472 87.1451 51.3 86.725C51.1028 86.1623 50.6903 85.7009 50.1531 85.4421C49.6159 85.1834 48.9979 85.1485 48.435 85.345Z" fill="#E0E0E0"/>
<path d="M70.885 100C70.885 100.065 64.145 102.5 55.78 105.425C47.415 108.35 40.615 110.675 40.59 110.61C40.565 110.545 47.33 108.11 55.695 105.185C64.06 102.26 70.86 99.915 70.885 100Z" fill="#E0E0E0"/>
<path d="M62.22 101.225C62.22 101.29 59.27 102.395 55.575 103.69C51.88 104.985 48.865 106 48.84 105.91C48.815 105.82 51.795 104.74 55.49 103.445C59.185 102.15 62.2 101.16 62.22 101.225Z" fill="#E0E0E0"/>
<path d="M195.5 202.54C197.341 201.676 199.411 201.425 201.405 201.825C202.475 202 203.595 202.325 204.32 203.125C205.045 203.925 205.19 205.345 204.35 206.035C203.808 206.404 203.152 206.568 202.5 206.5C200.935 206.5 199.205 206.205 197.96 207.145C197.245 207.68 196.775 208.57 195.925 208.835C195.497 208.935 195.049 208.891 194.648 208.71C194.248 208.529 193.918 208.222 193.71 207.835C193.306 207.053 193.216 206.146 193.46 205.3C193.565 204.714 193.803 204.16 194.157 203.681C194.511 203.203 194.971 202.812 195.5 202.54Z" fill="#5C40CC"/>
<path d="M191.36 194.6C192.46 196.165 194.595 195.65 195.585 194.69C196.575 193.73 196.99 192.345 197.37 191.025C198.24 188 199.12 184.83 198.475 181.75C198.314 180.824 197.905 179.96 197.29 179.25C196.977 178.898 196.576 178.634 196.129 178.484C195.681 178.335 195.202 178.306 194.74 178.4C193.66 178.685 192.995 179.74 192.51 180.74C191.084 183.705 190.338 186.95 190.325 190.24C190.325 191.77 190.5 193.37 191.36 194.635" fill="#5C40CC"/>
<path d="M188.345 196.85C188.91 196.113 189.286 195.249 189.441 194.333C189.596 193.417 189.526 192.477 189.235 191.595C188.631 189.838 187.555 188.281 186.125 187.095C184.499 185.649 182.607 184.533 180.555 183.81C179.762 183.49 178.909 183.345 178.055 183.385C177.628 183.409 177.213 183.538 176.847 183.759C176.481 183.98 176.175 184.288 175.955 184.655C175.365 185.775 175.955 187.13 176.535 188.235C177.605 190.186 178.829 192.048 180.195 193.805C181.29 195.22 182.545 196.615 184.22 197.255C185.895 197.895 187.625 197.815 188.51 196.66" fill="#5C40CC"/>
<path d="M191.29 218.255C191.345 218.022 191.377 217.784 191.385 217.545C191.44 217.045 191.5 216.375 191.575 215.6C191.671 214.641 191.818 213.688 192.015 212.745C192.269 211.597 192.615 210.472 193.05 209.38C193.477 208.289 194.056 207.264 194.77 206.335C195.352 205.578 196.095 204.959 196.945 204.525C197.521 204.239 198.139 204.047 198.775 203.955C199.015 203.947 199.252 203.913 199.485 203.855C199.244 203.829 199.001 203.829 198.76 203.855C198.101 203.908 197.456 204.078 196.855 204.355C195.959 204.776 195.174 205.399 194.56 206.175C193.817 207.119 193.217 208.167 192.78 209.285C192.336 210.392 191.992 211.537 191.75 212.705C191.566 213.66 191.439 214.625 191.37 215.595C191.305 216.42 191.285 217.095 191.275 217.55C191.252 217.785 191.257 218.021 191.29 218.255Z" fill="#263238"/>
<path d="M191.42 216.76C191.435 216.65 191.435 216.539 191.42 216.43V215.5C191.42 214.68 191.42 213.5 191.46 212C191.535 209.065 191.785 205.91 192.275 201.46C192.735 197.275 193.355 192.405 194.01 189.24C194.15 188.52 194.29 187.87 194.425 187.305C194.56 186.74 194.66 186.245 194.765 185.85C194.87 185.455 194.925 185.17 194.985 184.93C195.012 184.821 195.032 184.711 195.045 184.6C194.995 184.699 194.956 184.803 194.93 184.91C194.855 185.15 194.765 185.45 194.655 185.82C194.545 186.19 194.405 186.7 194.265 187.265C194.125 187.83 193.96 188.475 193.805 189.195C193.004 192.944 192.401 196.732 192 200.545C191.5 205.005 191.29 209.045 191.275 212.005C191.275 213.475 191.275 214.665 191.325 215.505C191.325 215.89 191.365 216.205 191.38 216.45C191.384 216.554 191.398 216.658 191.42 216.76Z" fill="#263238"/>
<path d="M191.44 208.93C191.468 208.597 191.468 208.263 191.44 207.93C191.383 207.034 191.281 206.141 191.135 205.255C190.921 203.939 190.63 202.637 190.265 201.355C189.842 199.777 189.297 198.234 188.635 196.74C187.504 193.986 185.882 191.46 183.85 189.285C183.496 188.913 183.118 188.564 182.72 188.24C182.55 188.09 182.395 187.945 182.22 187.83L181.785 187.53C181.523 187.329 181.243 187.152 180.95 187C181.91 187.75 182.82 188.562 183.675 189.43C185.646 191.621 187.226 194.134 188.345 196.86C188.993 198.345 189.541 199.872 189.985 201.43C190.361 202.699 190.67 203.988 190.91 205.29C191.115 206.405 191.235 207.29 191.305 207.94C191.326 208.273 191.371 208.604 191.44 208.93Z" fill="#263238"/>
<path d="M183.87 222.745L184.655 233.495H198.47L199.25 222.745H183.87Z" fill="#263238"/>
<path d="M200.905 218.505H182.54V222.745H200.905V218.505Z" fill="#263238"/>
<path d="M182.54 233.085V234.255H183.4H200.595V233.085H182.54Z" fill="#455A64"/>
<path d="M184.245 236.325L183.4 234.255H199.94L198.95 236.325H184.245Z" fill="#455A64"/>
<path d="M199 226.255C199 226.255 199 226.295 198.935 226.355L198.73 226.63L197.925 227.66L197.89 227.705L197.855 227.655L195.88 224.925H196L194.05 227.68L193.99 227.765L193.92 227.685L191.615 224.935H191.745L191.62 225.095L189.555 227.68L189.49 227.77L189.425 227.68C188.725 226.68 188.07 225.76 187.475 224.925H187.59L185.195 227.655L185.15 227.705L185.115 227.65C184.8 227.12 184.55 226.695 184.365 226.39L184.175 226.055C184.15 226.018 184.13 225.978 184.115 225.935C184.115 225.935 184.145 225.965 184.195 226.04L184.41 226.365L185.195 227.6H185.12L187.48 224.835L187.54 224.765L187.595 224.84L189.56 227.585H189.425L191.5 225L191.63 224.84L191.695 224.755L191.76 224.835L194.065 227.59H193.935L195.9 224.845L195.955 224.765L196.015 224.845C196.79 225.96 197.455 226.905 197.95 227.61H197.875L198.715 226.61L198.94 226.35L199 226.255Z" fill="#E0E0E0"/>
<path d="M199.445 222.67C199.445 222.72 195.985 222.76 191.715 222.76C187.445 222.76 183.985 222.72 183.985 222.67C183.985 222.62 187.445 222.585 191.715 222.585C195.985 222.585 199.445 222.625 199.445 222.67Z" fill="#455A64"/>
<path d="M200.145 234.375C200.145 234.42 196.38 234.46 191.745 234.46C187.11 234.46 183.345 234.42 183.345 234.375C183.345 234.33 187.105 234.285 191.745 234.285C196.385 234.285 200.145 234.325 200.145 234.375Z" fill="#263238"/>
<path d="M63.9 200.075C63.86 200.12 63.545 199.93 63.195 199.65C62.845 199.37 62.59 199.105 62.63 199.055C62.67 199.005 62.98 199.2 63.33 199.48C63.68 199.76 63.935 200.025 63.9 200.075Z" fill="#263238"/>
<path d="M73.5 185.755C73.6361 184.421 73.526 183.074 73.175 181.78C72.755 180.505 71.775 179.34 70.465 179.065C68.965 178.755 67.435 179.7 66.595 180.98C65.755 182.26 65.47 183.81 65.22 185.315C63.5141 195.714 62.8858 206.262 63.345 216.79L69.465 217.65C72.13 206.665 73 197.06 73.5 185.755Z" fill="#455A64"/>
<path d="M69.59 179L69.56 179.1L69.46 179.375L69.05 180.435C68.965 180.665 68.85 180.935 68.76 181.2L68.465 182.125L68.12 183.19L67.805 184.405C67.2912 186.412 66.8956 188.447 66.62 190.5C66.29 192.8 66.075 195.35 65.9 198.03C65.59 203.395 65.54 208.265 65.4 211.785C65.335 213.55 65.275 214.975 65.21 215.955C65.175 216.455 65.15 216.81 65.13 217.09C65.13 217.205 65.13 217.305 65.13 217.38C65.13 217.455 65.13 217.48 65.13 217.48C65.13 217.48 65.13 217.45 65.13 217.38C65.13 217.31 65.13 217.205 65.13 217.085C65.13 216.81 65.13 216.43 65.165 215.95C65.205 214.95 65.24 213.545 65.285 211.78C65.385 208.28 65.41 203.39 65.725 198.02C65.895 195.335 66.12 192.78 66.46 190.47C66.7468 188.423 67.1592 186.396 67.695 184.4L68.025 183.185C68.155 182.812 68.275 182.457 68.385 182.12L68.705 181.195C68.8 180.915 68.92 180.665 69.01 180.435L69.46 179.395C69.5067 179.285 69.5467 179.195 69.58 179.125C69.5764 179.083 69.5798 179.041 69.59 179Z" fill="#263238"/>
<path d="M70.155 179.025C70.474 179.402 70.7275 179.829 70.905 180.29C71.3729 181.555 71.5623 182.905 71.46 184.25C71.3 187.635 70.995 192.295 70.595 197.445C70.195 202.595 69.74 207.245 69.38 210.61C69.195 212.29 69.04 213.65 68.925 214.61C68.865 215.065 68.82 215.425 68.785 215.69L68.745 215.97C68.7473 216.002 68.7473 216.033 68.745 216.065C68.745 216.065 68.745 216.035 68.745 215.97C68.745 215.905 68.745 215.8 68.745 215.685C68.745 215.42 68.8 215.06 68.84 214.6C68.935 213.64 69.065 212.285 69.225 210.6C69.545 207.23 69.97 202.6 70.375 197.43C70.78 192.26 71.105 187.625 71.305 184.25C71.4139 182.921 71.2436 181.584 70.805 180.325C70.6272 179.873 70.4097 179.438 70.155 179.025Z" fill="#263238"/>
<path d="M74.4 194.87C73.9984 194.841 73.6054 194.739 73.24 194.57C72.8516 194.469 72.4842 194.3 72.155 194.07C72.5571 194.096 72.9506 194.198 73.315 194.37C73.7038 194.47 74.0714 194.639 74.4 194.87Z" fill="#263238"/>
<path d="M75.14 188.63C74.8084 188.895 74.4349 189.103 74.035 189.245C73.6634 189.451 73.2592 189.591 72.84 189.66C73.5411 189.186 74.3194 188.837 75.14 188.63Z" fill="#263238"/>
<path d="M74.755 183.535C74.1506 183.644 73.5286 183.601 72.945 183.41C73.2408 183.325 73.5522 183.31 73.855 183.365C74.1641 183.351 74.4722 183.409 74.755 183.535Z" fill="#263238"/>
<path d="M68.435 180.275C68.385 180.305 68.115 179.97 67.84 179.53C67.6399 179.276 67.4982 178.98 67.425 178.665C67.475 178.635 67.745 178.965 68.025 179.41C68.305 179.855 68.5 180.24 68.435 180.275Z" fill="#263238"/>
<path d="M66.35 183.355C66.0716 183.455 65.773 183.486 65.48 183.445C65.1854 183.473 64.8883 183.429 64.615 183.315C64.8934 183.215 65.192 183.184 65.485 183.225C65.7796 183.197 66.0767 183.241 66.35 183.355Z" fill="#263238"/>
<path d="M64.85 189.5C64.53 189.487 64.2171 189.402 63.935 189.25C63.6263 189.162 63.3411 189.007 63.1 188.795C63.42 188.808 63.7329 188.893 64.015 189.045C64.3237 189.133 64.6089 189.288 64.85 189.5Z" fill="#263238"/>
<path d="M64.69 194.695C64.69 194.755 64.355 194.88 63.91 194.97C63.465 195.06 63.1 195.095 63.085 195.035C63.07 194.975 63.425 194.85 63.865 194.76C64.1304 194.67 64.4139 194.648 64.69 194.695Z" fill="#263238"/>
<path d="M64 203.175C64 203.235 63.64 203.35 63.17 203.435C62.8892 203.519 62.5923 203.532 62.305 203.475C62.5572 203.325 62.8419 203.237 63.135 203.22C63.4151 203.133 63.7124 203.118 64 203.175Z" fill="#263238"/>
<path d="M63.5 207.855C63.53 207.905 63.22 208.125 62.81 208.355C62.4 208.585 62.045 208.705 62.02 208.65C61.995 208.595 62.3 208.38 62.71 208.15C63.12 207.92 63.5 207.8 63.5 207.855Z" fill="#263238"/>
<path d="M67.335 213.165C67.285 213.195 67.015 212.825 66.735 212.335C66.5325 212.055 66.3926 211.734 66.325 211.395C66.375 211.365 66.645 211.735 66.925 212.225C67.1275 212.505 67.2674 212.826 67.335 213.165Z" fill="#263238"/>
<path d="M68.44 204.34C68.48 204.38 68.18 204.745 67.77 205.15C67.36 205.555 66.99 205.845 66.945 205.8C66.9 205.755 67.205 205.395 67.615 204.99C68.025 204.585 68.395 204.295 68.44 204.34Z" fill="#263238"/>
<path d="M68.195 199.705C68.15 199.75 67.875 199.52 67.575 199.205C67.275 198.89 67.075 198.585 67.115 198.545C67.155 198.505 67.435 198.73 67.735 199.045C68.035 199.36 68.24 199.665 68.195 199.705Z" fill="#263238"/>
<path d="M68.955 193.79C69 193.83 68.75 194.185 68.395 194.575C68.04 194.965 67.72 195.26 67.675 195.22C67.63 195.18 67.88 194.825 68.23 194.43C68.58 194.035 68.91 193.75 68.955 193.79Z" fill="#263238"/>
<path d="M69.38 189.5C69.335 189.545 68.99 189.27 68.6 188.89C68.21 188.51 67.935 188.165 67.975 188.12C68.015 188.075 68.365 188.35 68.755 188.735C69.145 189.12 69.42 189.455 69.38 189.5Z" fill="#263238"/>
<path d="M70.22 183.69C70.1538 184.006 70.019 184.303 69.825 184.56C69.56 185.01 69.3 185.35 69.25 185.32C69.2 185.29 69.37 184.9 69.64 184.45C69.91 184 70.165 183.66 70.22 183.69Z" fill="#263238"/>
<path d="M71.795 178.31C71.85 178.34 71.695 178.73 71.45 179.18C71.205 179.63 70.95 179.975 70.91 179.95C70.9576 179.638 71.0756 179.34 71.255 179.08C71.5 178.625 71.74 178.285 71.795 178.31Z" fill="#263238"/>
<path d="M73.585 180.755C73.61 180.81 73.365 180.98 73.035 181.14C72.705 181.3 72.42 181.38 72.395 181.325C72.37 181.27 72.615 181.1 72.945 180.94C73.275 180.78 73.56 180.7 73.585 180.755Z" fill="#263238"/>
<path d="M73.625 200.075C72.7945 200.014 72.0079 199.678 71.39 199.12C71.7793 199.238 72.1561 199.394 72.515 199.585C72.9008 199.71 73.2727 199.874 73.625 200.075Z" fill="#263238"/>
<path d="M72.895 204.165C72.895 204.225 72.54 204.345 72.07 204.435C71.7906 204.525 71.4935 204.543 71.205 204.49C71.4551 204.337 71.7377 204.244 72.03 204.22C72.5 204.13 72.885 204.105 72.895 204.165Z" fill="#263238"/>
<path d="M72 211.18C71.965 211.23 71.5 210.905 71.07 210.365C70.7837 210.057 70.5821 209.679 70.485 209.27C70.7644 209.567 71.0171 209.888 71.24 210.23C71.522 210.523 71.7764 210.841 72 211.18Z" fill="#263238"/>
<path d="M62.155 214.39C62.115 214.345 62.365 214.065 62.71 213.77C63.055 213.475 63.37 213.27 63.41 213.32C63.45 213.37 63.2 213.64 62.855 213.94C62.51 214.24 62.195 214.435 62.155 214.39Z" fill="#263238"/>
<path d="M59.325 199.08C58.925 197.835 58.18 196.385 56.875 196.365C56.4862 196.386 56.1101 196.511 55.7864 196.728C55.4627 196.944 55.2031 197.244 55.035 197.595C54.6758 198.289 54.5035 199.064 54.535 199.845C54.6961 205.387 55.6405 210.878 57.34 216.155H62.125C62.067 210.354 61.1228 204.596 59.325 199.08Z" fill="#455A64"/>
<path d="M50.68 191.245C50.4433 190.079 49.8218 189.026 48.9151 188.255C48.0084 187.484 46.8691 187.041 45.68 186.995C43.565 187.365 42.745 189.445 42.495 191.575C42.245 193.705 42.905 195.825 43.56 197.87C45.6533 204.43 47.75 210.992 49.85 217.555L55.8 216.905C53.94 208.115 52.86 199.965 50.68 191.245Z" fill="#455A64"/>
<path d="M56.875 196.365C56.7204 196.578 56.5848 196.803 56.47 197.04C56.2234 197.716 56.1461 198.442 56.245 199.155C56.335 200.065 56.44 201.155 56.595 202.355C56.75 203.555 56.965 204.855 57.235 206.245C57.775 208.995 58.385 211.455 58.77 213.245C58.965 214.14 59.115 214.87 59.205 215.375C59.245 215.61 59.28 215.8 59.305 215.96C59.33 216.12 59.335 216.165 59.305 216.165C59.279 216.102 59.2589 216.037 59.245 215.97L59.105 215.395C58.975 214.86 58.805 214.145 58.605 213.28C58.18 211.49 57.545 209.035 57.005 206.28C56.735 204.9 56.505 203.58 56.38 202.37C56.3 201.77 56.25 201.19 56.2 200.655C56.15 200.12 56.1 199.615 56.075 199.155C55.9895 198.421 56.0928 197.678 56.375 196.995C56.494 196.751 56.6646 196.536 56.875 196.365Z" fill="#263238"/>
<path d="M45.79 186.825C45.5249 187.127 45.2841 187.45 45.07 187.79C44.5224 188.74 44.2119 189.809 44.165 190.905C44.1401 192.53 44.3886 194.147 44.9 195.69C45.4 197.46 45.995 199.405 46.6 201.44C47.785 205.52 48.855 209.21 49.64 211.905L50.54 215.085C50.64 215.445 50.715 215.73 50.775 215.95C50.8077 216.049 50.8295 216.151 50.84 216.255C50.7941 216.162 50.7573 216.065 50.73 215.965C50.665 215.745 50.57 215.465 50.46 215.105C50.225 214.34 49.895 213.265 49.495 211.95L46.39 201.5C45.79 199.455 45.225 197.5 44.705 195.74C44.1957 194.175 43.9605 192.535 44.01 190.89C44.0744 189.773 44.4183 188.69 45.01 187.74C45.2177 187.394 45.4813 187.085 45.79 186.825Z" fill="#263238"/>
<path d="M54.525 216.27C54.4747 216.178 54.4296 216.083 54.39 215.985C54.315 215.79 54.19 215.515 54.055 215.145C53.77 214.415 53.405 213.34 53.055 211.99C52.705 210.64 52.305 208.99 51.945 207.19C51.585 205.39 51.225 203.375 50.825 201.275C50.425 199.175 49.955 197.2 49.42 195.435C48.9558 193.866 48.3759 192.333 47.685 190.85C47.2153 189.852 46.6791 188.886 46.08 187.96C45.875 187.63 45.69 187.385 45.58 187.215C45.5174 187.13 45.4622 187.04 45.415 186.945C45.4883 187.019 45.5552 187.1 45.615 187.185C45.74 187.355 45.935 187.585 46.15 187.915C46.7824 188.827 47.3424 189.786 47.825 190.785C48.5422 192.265 49.1391 193.8 49.61 195.375C50.1747 197.303 50.6387 199.259 51 201.235C51.395 203.33 51.765 205.33 52.105 207.155C52.445 208.98 52.805 210.595 53.165 211.95C53.525 213.305 53.86 214.38 54.12 215.115C54.24 215.49 54.355 215.77 54.42 215.965C54.4663 216.062 54.5016 216.165 54.525 216.27Z" fill="#263238"/>
<path d="M43.69 196.89C43.69 196.945 43.38 197.075 42.965 197.175C42.55 197.275 42.205 197.31 42.195 197.25C42.185 197.19 42.5 197.065 42.915 196.965C43.33 196.865 43.675 196.83 43.69 196.89Z" fill="#263238"/>
<path d="M43.06 192.83C42.735 192.921 42.3971 192.959 42.06 192.94C41.7274 192.987 41.3892 192.977 41.06 192.91C41.3714 192.761 41.7159 192.696 42.06 192.72C42.3973 192.671 42.7415 192.709 43.06 192.83Z" fill="#263238"/>
<path d="M43.73 189.12C43.69 189.17 43.365 188.96 43.01 188.655C42.655 188.35 42.39 188.065 42.43 188.02C42.47 187.975 42.79 188.18 43.15 188.485C43.51 188.79 43.77 189.075 43.73 189.12Z" fill="#263238"/>
<path d="M45.545 185.69C45.605 185.69 45.585 185.995 45.58 186.34C45.575 186.685 45.58 186.98 45.505 186.99C45.43 187 45.35 186.71 45.36 186.335C45.37 185.96 45.5 185.675 45.545 185.69Z" fill="#263238"/>
<path d="M49.25 187.305C49.3 187.34 49.155 187.635 48.925 187.96C48.695 188.285 48.47 188.525 48.425 188.49C48.38 188.455 48.52 188.165 48.745 187.835C48.97 187.505 49.2 187.27 49.25 187.305Z" fill="#263238"/>
<path d="M51.655 191.5C51.655 191.56 51.37 191.735 50.97 191.9C50.57 192.065 50.22 192.15 50.2 192.095C50.18 192.04 50.485 191.86 50.885 191.7C51.285 191.54 51.635 191.43 51.655 191.5Z" fill="#263238"/>
<path d="M53.115 195.785C52.8504 196.015 52.5229 196.159 52.175 196.2C51.8417 196.308 51.4848 196.32 51.145 196.235C51.4658 196.108 51.8021 196.024 52.145 195.985C52.459 195.879 52.7848 195.812 53.115 195.785Z" fill="#263238"/>
<path d="M46.415 194.565C46.36 194.565 46.415 194.25 46.51 193.9C46.605 193.55 46.755 193.285 46.81 193.305C46.865 193.325 46.81 193.62 46.715 193.97C46.62 194.32 46.5 194.585 46.415 194.565Z" fill="#263238"/>
<path d="M47.35 199.965C47.3702 199.65 47.4626 199.344 47.62 199.07C47.825 198.6 48.035 198.24 48.09 198.265C48.0698 198.58 47.9774 198.886 47.82 199.16C47.615 199.63 47.405 200 47.35 199.965Z" fill="#263238"/>
<path d="M45.04 201.445C44.7454 201.438 44.4549 201.373 44.185 201.255C43.73 201.11 43.36 200.98 43.375 200.92C43.6726 200.882 43.975 200.925 44.25 201.045C44.715 201.19 45.065 201.39 45.04 201.445Z" fill="#263238"/>
<path d="M46.37 205.845C46.405 205.895 46.15 206.135 45.805 206.385C45.46 206.635 45.14 206.795 45.105 206.75C45.07 206.705 45.325 206.455 45.675 206.205C46.025 205.955 46.335 205.795 46.37 205.845Z" fill="#263238"/>
<path d="M47.44 210.235C47.44 210.29 47.14 210.42 46.735 210.515C46.33 210.61 45.995 210.645 45.98 210.59C45.965 210.535 46.28 210.405 46.685 210.305C47.09 210.205 47.425 210.175 47.44 210.235Z" fill="#263238"/>
<path d="M53.235 199.455C53.265 199.505 52.995 199.72 52.605 199.865C52.215 200.01 51.865 200.03 51.855 199.975C51.845 199.92 52.155 199.805 52.525 199.66C52.895 199.515 53.205 199.4 53.235 199.455Z" fill="#263238"/>
<path d="M54.06 206.28C54.035 206.335 53.715 206.24 53.345 206.065C52.975 205.89 52.695 205.705 52.72 205.65C52.745 205.595 53.07 205.695 53.44 205.865C53.81 206.035 54.09 206.225 54.06 206.28Z" fill="#263238"/>
<path d="M55.525 211.17C55.1938 211.153 54.87 211.066 54.575 210.915C54.075 210.72 53.69 210.515 53.71 210.455C54.0395 210.472 54.3617 210.559 54.655 210.71C55.155 210.905 55.545 211.11 55.525 211.17Z" fill="#263238"/>
<path d="M47.675 215C47.645 214.945 48.035 214.685 48.485 214.33C48.935 213.975 49.285 213.655 49.33 213.7C49.375 213.745 49.09 214.13 48.62 214.5C48.3585 214.753 48.0309 214.926 47.675 215Z" fill="#263238"/>
<path d="M51.535 212.5C51.475 212.5 51.39 212.18 51.24 211.8C51.09 211.42 50.94 211.115 50.99 211.08C51.04 211.045 51.29 211.305 51.445 211.72C51.6 212.135 51.595 212.5 51.535 212.5Z" fill="#263238"/>
<path d="M50.5 206.635C50.465 206.685 50.215 206.565 49.94 206.37C49.665 206.175 49.475 205.975 49.51 205.925C49.545 205.875 49.795 205.995 50.07 206.19C50.345 206.385 50.55 206.585 50.5 206.635Z" fill="#263238"/>
<path d="M59.5 197.425C59.535 197.475 59.29 197.715 58.955 197.96C58.62 198.205 58.32 198.37 58.285 198.32C58.25 198.27 58.49 198.035 58.825 197.785C59.16 197.535 59.5 197.375 59.5 197.425Z" fill="#263238"/>
<path d="M60.875 201.135C60.875 201.195 60.5 201.275 60.03 201.225C59.56 201.175 59.205 201.015 59.22 200.96C59.235 200.905 59.605 200.96 60.055 201.005C60.505 201.05 60.87 201.075 60.875 201.135Z" fill="#263238"/>
<path d="M55.04 201.97C55.04 202.025 54.705 202.15 54.245 202.18C53.785 202.21 53.425 202.135 53.43 202.075C53.435 202.015 53.795 201.995 54.235 201.965C54.675 201.935 55.03 201.91 55.04 201.97Z" fill="#263238"/>
<path d="M55.545 198.46C55.545 198.52 55.185 198.53 54.795 198.345C54.405 198.16 54.18 197.895 54.22 197.845C54.26 197.795 54.53 197.985 54.885 198.145C55.24 198.305 55.55 198.4 55.545 198.46Z" fill="#263238"/>
<path d="M61.375 205.12C61.345 205.17 60.98 205 60.56 204.735C60.14 204.47 59.83 204.235 59.865 204.165C59.9 204.095 60.26 204.29 60.68 204.55C61.1 204.81 61.41 205.07 61.375 205.12Z" fill="#263238"/>
<path d="M75.61 215.53H44.485V221.045H75.61V215.53Z" fill="#5C40CC"/>
<path d="M46.81 219.955L50.595 236.44H69.145L73.285 219.955H46.81Z" fill="#5C40CC"/>
<path d="M75.595 221.055C75.595 221.115 68.595 221.165 59.915 221.165C51.235 221.165 44.235 221.115 44.235 221.055C44.235 220.995 51.235 220.945 59.915 220.945C68.595 220.945 75.595 221 75.595 221.055Z" fill="#263238"/>
<path d="M58.285 202.09C58.235 202.12 58.02 201.875 57.81 201.535C57.6 201.195 57.47 200.895 57.52 200.865C57.57 200.835 57.785 201.08 57.995 201.42C58.205 201.76 58.335 202.055 58.285 202.09Z" fill="#263238"/>
<path d="M58.295 206.525C58.28 206.237 58.3367 205.95 58.46 205.69C58.605 205.245 58.775 204.9 58.83 204.92C58.8454 205.209 58.7887 205.498 58.665 205.76C58.5 206.2 58.355 206.545 58.295 206.525Z" fill="#263238"/>
<path d="M59.815 211.185C59.76 211.215 59.53 210.84 59.315 210.355C59.1425 210.074 59.0333 209.758 58.995 209.43C59.05 209.4 59.28 209.775 59.495 210.26C59.6675 210.541 59.7767 210.857 59.815 211.185Z" fill="#263238"/>
<path d="M56.53 214.935C56.485 214.895 56.67 214.61 56.945 214.29C57.22 213.97 57.475 213.75 57.525 213.79C57.575 213.83 57.385 214.12 57.11 214.435C56.835 214.75 56.575 215 56.53 214.935Z" fill="#263238"/>
<path d="M55.84 208.13C55.84 208.19 55.53 208.185 55.17 208.13C54.81 208.075 54.53 207.97 54.54 207.91C54.55 207.85 54.85 207.855 55.205 207.91C55.56 207.965 55.85 208.07 55.84 208.13Z" fill="#263238"/>
<path d="M164.125 177.62H90.315V236.48H164.125V177.62Z" fill="#E0E0E0"/>
<g opacity="0.3">
<path d="M95.69 177.74C104.38 180.84 113.965 181.505 123.29 181.68C125.225 181.715 127.18 181.71 129.05 182.18C130.92 182.65 132.725 183.715 133.685 185.39C134.73 187.215 134.62 189.5 134.025 191.515C133.43 193.53 132.405 195.395 131.665 197.36C130.355 200.837 129.954 204.59 130.5 208.265C130.668 209.831 131.195 211.336 132.04 212.665C132.468 213.325 133.045 213.876 133.723 214.274C134.402 214.671 135.165 214.905 135.95 214.955C138.755 214.995 140.675 212.24 142.065 209.8C147.77 199.8 153.94 188.45 157.59 177.535L95.69 177.74Z" fill="black"/>
</g>
<path d="M115.465 236.165C115.39 236.165 115.335 223.12 115.335 207.03C115.335 190.94 115.39 177.89 115.465 177.89C115.54 177.89 115.595 190.935 115.595 207.03C115.595 223.125 115.535 236.165 115.465 236.165Z" fill="#455A64"/>
<path d="M145.71 134.12C145.49 132.65 141.1 127.8 141.1 127.8C141.1 127.8 138.91 118.995 138.25 116.4C138.03 115.65 137.709 114.933 137.295 114.27C135.743 111.684 133.535 109.554 130.895 108.095L124.82 104.68L123.37 101.45L108.78 93.9501L104.825 100.95C104.825 100.95 95.22 104 93.95 106.165C92.68 108.33 94.58 137.565 94.58 137.565C94.58 137.565 90.58 154.425 89.715 157.915C88.85 161.405 89.985 165.565 89.985 165.565L97.14 156.59C99.365 153.8 104.245 152.515 107.75 152.565L137.705 152.7L136.5 144.31L160.735 149C160.735 149 164.9 140.87 165.235 140.71C165.57 140.55 145.71 134.12 145.71 134.12Z" fill="#5C40CC"/>
<path d="M108.16 103.675C107.95 103.46 109.85 109.885 112.24 116.43C113.526 119.967 114.181 123.702 114.175 127.465V151.165L128.535 150.19L126.39 134.58C126.39 134.58 124.64 124.51 124.15 120.68C123.7 117.18 122.15 107.68 122.15 107.68C122.15 107.68 114.175 109.8 108.16 103.675Z" fill="white"/>
<path d="M140.03 140C140.008 139.879 140.008 139.756 140.03 139.635C140.063 139.308 140.127 138.985 140.22 138.67C140.523 137.618 141.088 136.661 141.86 135.885C142.637 135.112 143.594 134.545 144.645 134.235C144.96 134.142 145.283 134.078 145.61 134.045C145.729 134.022 145.851 134.022 145.97 134.045C145.97 134.09 145.47 134.145 144.7 134.41C143.701 134.753 142.793 135.32 142.047 136.068C141.301 136.816 140.736 137.725 140.395 138.725C140.13 139.5 140.075 140 140.03 140Z" fill="#263238"/>
<path d="M140.77 134.32C141.437 133.928 142.192 133.71 142.965 133.685C143.731 133.579 144.511 133.672 145.23 133.955C145.23 134.035 144.23 133.84 142.985 133.955C141.74 134.07 140.8 134.395 140.77 134.32Z" fill="#263238"/>
<g opacity="0.3">
<path d="M93.135 147.255L91.885 148.665C93.1884 150.274 94.9548 151.443 96.945 152.015C98.9509 152.441 101 152.625 103.05 152.565C103.88 152.605 104.712 152.526 105.52 152.33C106.335 152.095 107.09 151.635 107.935 151.585C108.502 151.588 109.065 151.668 109.61 151.825C110.158 151.98 110.737 151.989 111.29 151.85C111.564 151.776 111.806 151.616 111.982 151.394C112.157 151.171 112.257 150.898 112.265 150.615C106.032 148.793 99.616 147.666 93.135 147.255Z" fill="black"/>
</g>
<path d="M134.135 149.065L130.635 145.325L123.36 143.5C123.36 143.5 116.72 145.5 116.56 145.5C116.4 145.5 110.78 143.96 110.78 143.96L108.815 151.17L118.94 151.865L130.5 151.4C130.5 151.4 131.105 150.84 130.745 150.455C130.385 150.07 132.68 151.105 132.95 151.115C133.22 151.125 133.74 151.335 134.1 150.905C134.345 150.585 134.675 149.64 134.135 149.065Z" fill="#FFBE9D"/>
<path d="M130.745 150.43C130.352 150.356 129.967 150.245 129.595 150.1C128.895 149.88 127.92 149.6 126.835 149.3C125.75 149 124.75 148.8 124.025 148.675C123.628 148.623 123.238 148.531 122.86 148.4C123.26 148.383 123.662 148.413 124.055 148.49C125.011 148.624 125.96 148.811 126.895 149.05C127.832 149.288 128.753 149.582 129.655 149.93C130.038 150.05 130.404 150.218 130.745 150.43Z" fill="#EB996E"/>
<path d="M134.135 149.065C133.59 148.927 133.052 148.76 132.525 148.565C131.525 148.235 130.16 147.825 128.625 147.4C127.09 146.975 125.73 146.49 124.695 146.43C124.138 146.401 123.579 146.423 123.025 146.495C123.16 146.421 123.308 146.37 123.46 146.345C123.869 146.257 124.287 146.223 124.705 146.245C125.775 146.245 127.205 146.7 128.705 147.15C130.205 147.6 131.615 148.015 132.595 148.395C133.095 148.58 133.47 148.75 133.74 148.87C133.881 148.915 134.014 148.981 134.135 149.065Z" fill="#EB996E"/>
<path d="M93.95 106.165C93.95 106.165 88.725 109.8 87.45 115.03C86.175 120.26 80.67 141.635 81.8 144.83C82.93 148.025 104.9 151.165 104.9 151.165L107.505 140.165L96.345 137.11C96.345 137.11 96.49 126.935 96.63 122.72C96.77 118.505 93.95 106.165 93.95 106.165Z" fill="#5C40CC"/>
<path d="M107.365 141.82L110.96 142.705L108.795 150.995L105.265 150.43L107.365 141.82Z" fill="white"/>
<path d="M81.72 143.7C81.72 143.7 81.72 143.885 81.775 144.2C81.8965 144.684 82.1636 145.118 82.54 145.445C83.495 146.335 85.32 147.075 87.63 147.49C88.685 147.84 89.89 148.115 91.175 148.405C92.46 148.695 93.85 148.99 95.31 149.285C98.235 149.885 101.47 150.515 104.9 151.155L104.75 151.25C104.995 150.25 105.25 149.155 105.525 148.06C106.14 145.56 106.74 143.1 107.305 140.785L107.395 140.935L97.5 138.13C96.1338 137.555 94.6555 137.295 93.175 137.37C92.0499 137.433 90.9446 137.693 89.91 138.14C89.2525 138.424 88.6245 138.773 88.035 139.18L87.58 139.51C87.5303 139.55 87.4767 139.585 87.42 139.615C87.42 139.615 87.465 139.565 87.56 139.485C87.655 139.405 87.8 139.28 88 139.13C88.5807 138.699 89.206 138.332 89.865 138.035C90.9062 137.563 92.0242 137.284 93.165 137.21C94.6714 137.114 96.1799 137.364 97.575 137.94L107.5 140.72L107.62 140.75L107.59 140.87C107.025 143.185 106.43 145.625 105.82 148.15C105.55 149.24 105.29 150.32 105.04 151.335L105.01 151.455H104.89C101.46 150.81 98.23 150.17 95.305 149.56C93.845 149.255 92.46 148.95 91.17 148.65C89.88 148.35 88.67 148.065 87.61 147.7C85.27 147.255 83.445 146.485 82.48 145.55C82.0974 145.206 81.8346 144.749 81.73 144.245C81.694 144.065 81.6906 143.881 81.72 143.7Z" fill="#263238"/>
<path d="M96.955 137.855C96.925 137.89 96.55 137.545 95.88 137.1C94.1253 135.925 92.0512 135.319 89.94 135.365C89.13 135.365 88.635 135.475 88.625 135.43C89.0439 135.278 89.4846 135.196 89.93 135.185C92.0994 135.028 94.2532 135.654 96 136.95C96.3661 137.197 96.6888 137.503 96.955 137.855Z" fill="#263238"/>
<path d="M98.42 119.955C98.4383 120.178 98.4383 120.402 98.42 120.625C98.42 121.06 98.375 121.68 98.315 122.45C98.19 123.985 97.965 126.1 97.56 128.42C97.2435 130.405 96.7806 132.364 96.175 134.28C96.055 134.645 95.925 134.975 95.82 135.28L95.5 136C95.4063 136.205 95.2906 136.4 95.155 136.58C95.2177 136.366 95.3014 136.158 95.405 135.96C95.49 135.745 95.58 135.5 95.685 135.23C95.79 134.96 95.89 134.61 96 134.23C96.5465 132.307 96.9822 130.353 97.305 128.38C97.705 126.07 97.96 123.965 98.13 122.435C98.205 121.71 98.27 121.105 98.32 120.625C98.3265 120.399 98.3601 120.174 98.42 119.955Z" fill="#263238"/>
<path d="M111.16 114.29C111.16 114.29 111.11 114.155 110.99 113.92C110.812 113.587 110.552 113.305 110.235 113.1C110 112.939 109.732 112.834 109.45 112.792C109.169 112.75 108.881 112.774 108.61 112.86C108.266 112.978 107.959 113.183 107.719 113.456C107.478 113.728 107.313 114.059 107.24 114.415L107.17 114.77L107.015 114.44C106.43 113.185 105.921 111.896 105.49 110.58C104.726 108.388 104.344 106.081 104.36 103.76C104.36 103.315 104.42 102.915 104.445 102.56C104.47 102.205 104.55 101.91 104.605 101.67C104.658 101.418 104.731 101.17 104.825 100.93C104.654 101.864 104.559 102.811 104.54 103.76C104.581 106.056 104.984 108.33 105.735 110.5C106.166 111.806 106.667 113.088 107.235 114.34L107.01 114.37C107.096 113.977 107.284 113.613 107.556 113.316C107.827 113.018 108.171 112.797 108.555 112.675C108.853 112.585 109.167 112.566 109.474 112.619C109.78 112.672 110.07 112.796 110.32 112.98C110.645 113.208 110.901 113.521 111.06 113.885C111.104 113.981 111.136 114.082 111.155 114.185C111.165 114.25 111.17 114.29 111.16 114.29Z" fill="#263238"/>
<path d="M123.35 115.415C123.296 115.22 123.258 115.021 123.235 114.82C123.126 114.269 123.09 113.706 123.13 113.145C123.243 112.283 123.672 111.493 124.335 110.93C124.745 110.593 125.259 110.407 125.79 110.405C126.079 110.402 126.366 110.461 126.63 110.58C126.894 110.698 127.13 110.872 127.32 111.09L127.1 111.22L126.625 110.025C125.69 107.67 124.86 105.525 124.27 103.98L123.585 102.135C123.49 101.915 123.418 101.685 123.37 101.45C123.493 101.657 123.597 101.874 123.68 102.1C123.88 102.6 124.135 103.185 124.445 103.915C125.08 105.45 125.945 107.575 126.87 109.915L127.34 111.115L127.645 111.885L127.145 111.24C126.98 111.049 126.775 110.896 126.544 110.792C126.313 110.688 126.063 110.636 125.81 110.64C125.334 110.637 124.872 110.798 124.5 111.095C123.875 111.618 123.458 112.347 123.325 113.15C123.271 113.698 123.281 114.25 123.355 114.795C123.379 115.001 123.377 115.209 123.35 115.415Z" fill="#263238"/>
<path d="M132.625 116.655C132.695 116.655 133.825 124.245 135.15 133.63C136.475 143.015 137.485 150.63 137.415 150.63C137.345 150.63 136.215 143.04 134.89 133.63C133.565 124.22 132.555 116.665 132.625 116.655Z" fill="#263238"/>
<g opacity="0.3">
<path d="M105.64 110.66C105.701 112.604 106.123 114.52 106.885 116.31C107.43 115.635 108.035 114.925 108.885 114.725C109.915 114.48 110.96 115.115 111.705 115.895C111.576 115.115 111.268 114.376 110.805 113.735C110.574 113.42 110.273 113.163 109.926 112.983C109.579 112.804 109.196 112.707 108.805 112.7C108.416 112.709 108.041 112.848 107.739 113.094C107.437 113.341 107.227 113.68 107.14 114.06L105.705 110.695" fill="black"/>
</g>
<path d="M97.195 116.155C97.15 116.155 97.165 115.63 97.015 114.815C96.8095 113.753 96.3967 112.742 95.8 111.84C95.464 111.352 95.0805 110.898 94.655 110.485C94.3024 110.151 93.9191 109.852 93.51 109.59C92.805 109.145 92.31 108.975 92.33 108.93C92.4527 108.939 92.5729 108.969 92.685 109.02C92.8249 109.058 92.9607 109.11 93.09 109.175C93.2628 109.249 93.4299 109.336 93.59 109.435C94.0249 109.681 94.4322 109.973 94.805 110.305C95.2534 110.723 95.6542 111.189 96 111.695C96.6197 112.624 97.023 113.68 97.18 114.785C97.2298 115.116 97.2465 115.451 97.23 115.785C97.23 116.025 97.215 116.155 97.195 116.155Z" fill="#263238"/>
<path d="M126.22 80.5C125.934 77.8227 124.651 75.351 122.626 73.5768C120.601 71.8025 117.982 70.8558 115.29 70.9251H114.735C108.76 71.4251 105.85 76.7801 106.52 82.7351L108.16 103.685L108.855 104.535C110.415 106.452 112.566 107.799 114.972 108.366C117.377 108.933 119.903 108.688 122.155 107.67L121.695 100.93C121.695 100.93 127.425 99.89 127.345 94.14C127.31 91.35 126.77 85.64 126.22 80.5Z" fill="#FFBE9D"/>
<path d="M121.74 100.915C119.072 100.989 116.439 100.295 114.155 98.915C114.155 98.915 116.03 103.01 121.755 102.345L121.74 100.915Z" fill="#EB996E"/>
<path d="M124.4 85.2301C124.406 85.4436 124.329 85.6511 124.185 85.8095C124.042 85.9678 123.843 86.0647 123.63 86.0801C123.526 86.0904 123.421 86.0799 123.32 86.0491C123.22 86.0184 123.127 85.9681 123.047 85.9011C122.966 85.8341 122.9 85.7518 122.852 85.6589C122.803 85.566 122.774 85.4644 122.765 85.3601C122.758 85.1462 122.834 84.938 122.978 84.7794C123.122 84.6208 123.321 84.5242 123.535 84.5101C123.639 84.4991 123.745 84.5091 123.845 84.5395C123.946 84.57 124.039 84.6203 124.12 84.6874C124.2 84.7545 124.267 84.8371 124.315 84.9303C124.363 85.0235 124.392 85.1255 124.4 85.2301Z" fill="#263238"/>
<path d="M124.765 82.105C124.7 82.205 124.05 82.275 123.265 82.695C122.48 83.115 122.02 83.64 121.915 83.63C121.81 83.62 121.915 83.485 122.11 83.25C122.409 82.9184 122.765 82.6424 123.16 82.435C123.537 82.2241 123.951 82.0867 124.38 82.03C124.675 82 124.8 82.055 124.765 82.105Z" fill="#263238"/>
<path d="M116.1 85.665C116.11 85.8796 116.034 86.0892 115.89 86.2484C115.746 86.4075 115.544 86.5034 115.33 86.515C115.226 86.526 115.12 86.516 115.02 86.4855C114.919 86.4551 114.826 86.4048 114.745 86.3377C114.665 86.2706 114.598 86.1879 114.55 86.0947C114.502 86.0015 114.473 85.8996 114.465 85.795C114.458 85.5811 114.534 85.3729 114.678 85.2143C114.822 85.0557 115.021 84.9592 115.235 84.945C115.339 84.934 115.445 84.944 115.545 84.9745C115.646 85.0049 115.739 85.0552 115.82 85.1223C115.9 85.1895 115.967 85.2721 116.015 85.3653C116.063 85.4585 116.092 85.5604 116.1 85.665Z" fill="#263238"/>
<path d="M116 83.31C115.885 83.31 115.35 82.975 114.5 82.765C113.65 82.555 112.945 82.6 112.87 82.53C112.795 82.46 112.96 82.43 113.265 82.405C113.71 82.3767 114.158 82.4189 114.59 82.53C115.009 82.6294 115.407 82.7984 115.77 83.03C115.97 83.19 116.03 83.3 116 83.31Z" fill="#263238"/>
<path d="M119.44 90.1751C119.903 90.0204 120.383 89.9213 120.87 89.8801C121.095 89.8801 121.305 89.8001 121.34 89.6451C121.354 89.4133 121.296 89.1829 121.175 88.9851L120.46 87.2801C119.46 84.8601 118.75 82.8651 118.85 82.8301C118.95 82.7951 119.85 84.7201 120.815 87.1401C121.055 87.7401 121.285 88.3101 121.5 88.8551C121.648 89.1232 121.697 89.4344 121.64 89.7351C121.609 89.8157 121.56 89.8882 121.497 89.9471C121.433 90.006 121.358 90.0498 121.275 90.0751C121.152 90.1137 121.024 90.1355 120.895 90.1401C120.414 90.2141 119.924 90.2259 119.44 90.1751Z" fill="#263238"/>
<path d="M116 79.9001C115.9 80.1351 115.025 79.9801 114 80.0501C112.975 80.1201 112.105 80.3701 112 80.1451C111.94 80.0401 112.1 79.8201 112.445 79.6051C112.909 79.3409 113.427 79.1864 113.96 79.1535C114.493 79.1206 115.027 79.21 115.52 79.4151C115.85 79.5901 116.03 79.7851 116 79.9001Z" fill="#263238"/>
<path d="M124.745 80.095C124.55 80.3 123.79 80.095 122.88 80.095C121.97 80.095 121.195 80.25 121.015 80.04C120.935 79.94 121.055 79.735 121.39 79.54C121.852 79.2978 122.369 79.179 122.89 79.195C123.416 79.1914 123.933 79.3259 124.39 79.585C124.72 79.79 124.83 80 124.745 80.095Z" fill="#263238"/>
<path d="M127.895 75.3901C127.844 75.1276 127.699 74.8927 127.488 74.7297C127.276 74.5667 127.012 74.4868 126.745 74.5051C127.032 74.4231 127.301 74.2855 127.535 74.1001C127.651 74.0061 127.739 73.8812 127.788 73.7397C127.836 73.5981 127.844 73.4458 127.81 73.3001C127.66 72.8551 127.09 72.7601 126.64 72.6351C126.049 72.4634 125.526 72.1143 125.14 71.6351C124.595 70.9451 124.385 70.0451 123.91 69.3001C123.603 68.8191 123.192 68.4131 122.708 68.1118C122.224 67.8106 121.678 67.6219 121.111 67.5595C120.544 67.4972 119.97 67.5628 119.431 67.7515C118.893 67.9402 118.404 68.2473 118 68.6501C117.559 68.1966 117.016 67.8549 116.416 67.6535C115.816 67.4521 115.177 67.3968 114.552 67.4922C113.926 67.5875 113.333 67.8308 112.82 68.2018C112.308 68.5728 111.891 69.0607 111.605 69.6251C110.838 69.3052 109.999 69.1974 109.176 69.313C108.353 69.4286 107.576 69.7634 106.927 70.2822C106.278 70.8011 105.78 71.4849 105.486 72.2621C105.192 73.0394 105.112 73.8814 105.255 74.7001L108.835 76.8951C108.864 76.6228 108.951 76.3598 109.089 76.1234C109.227 75.8871 109.414 75.6827 109.637 75.5239C109.86 75.3651 110.114 75.2555 110.383 75.2022C110.651 75.149 110.928 75.1534 111.195 75.2151C112.275 75.5301 112.965 76.7801 114.085 76.8651C114.96 76.9301 115.705 76.2551 116.55 76.0301C117.575 75.7551 118.66 76.1651 119.585 76.6851C120.51 77.2051 121.395 77.8551 122.425 78.1151C123.655 78.3617 124.932 78.2093 126.07 77.6801C126.575 77.5028 127.036 77.2179 127.42 76.8451C127.609 76.658 127.751 76.4283 127.834 76.1752C127.917 75.9221 127.938 75.6529 127.895 75.3901Z" fill="#263238"/>
<path d="M109.44 75.2051L125.84 75.1151C125.248 74.0129 124.388 73.0774 123.34 72.3951C121.162 70.8037 118.537 69.941 115.84 69.9301C113.165 69.9301 107.815 73.3651 105.93 75.2601C104.43 76.7601 104.47 78.0551 104.47 78.0551C104.28 80.1851 105.535 82.5551 106.07 84.6401C106.34 85.7101 106.905 88.9501 106.905 88.9501C107.805 88.9251 108.12 88.1951 107.96 87.3051L107.695 83.8051C108.58 83.0668 109.2 82.0599 109.461 80.9374C109.721 79.8148 109.609 78.6378 109.14 77.5851C108.915 77.2751 108.375 75.8301 109.44 75.2051Z" fill="#263238"/>
<path d="M107.46 83.575C106.625 80.675 105.855 77.575 106.745 74.675H106.245L106.045 74.82C105.583 74.6647 105.083 74.6607 104.618 74.8085C104.153 74.9564 103.748 75.2486 103.46 75.6425C103.173 76.0365 103.018 76.5118 103.019 76.9996C103.02 77.4873 103.176 77.9621 103.465 78.355C102.977 78.3508 102.505 78.5247 102.137 78.8442C101.768 79.1637 101.53 79.6068 101.465 80.09C101.467 80.7635 101.652 81.4237 102 82C102.349 82.578 102.563 83.2276 102.625 83.9C102.646 84.2349 102.548 84.5664 102.349 84.8362C102.149 85.106 101.861 85.2968 101.535 85.375C101.693 85.7162 101.964 85.9924 102.302 86.1572C102.64 86.3221 103.024 86.3655 103.39 86.28C103.156 86.85 102.766 87.3423 102.265 87.7C103.335 88.43 104.8 88.2 105.96 87.615C106.68 87.3256 107.267 86.7808 107.61 86.085C107.93 85.28 107.69 84.395 107.46 83.575Z" fill="#263238"/>
<path d="M107.19 86.9601C107.09 86.9201 103.19 85.8951 103.435 89.8201C103.68 93.7451 107.56 92.7101 107.56 92.5951C107.56 92.4801 107.19 86.9601 107.19 86.9601Z" fill="#FFBE9D"/>
<path d="M106.62 91.1701C106.62 91.1701 106.555 91.2201 106.44 91.2801C106.285 91.3572 106.106 91.3715 105.94 91.3201C105.515 91.1901 105.13 90.5551 105.07 89.8451C105.04 89.5059 105.086 89.1642 105.205 88.8451C105.237 88.7189 105.299 88.6024 105.386 88.5057C105.473 88.4089 105.583 88.335 105.705 88.2901C105.783 88.2659 105.866 88.2691 105.942 88.2992C106.017 88.3292 106.08 88.3842 106.12 88.4551C106.18 88.5601 106.155 88.6401 106.18 88.6501C106.205 88.6601 106.26 88.5751 106.22 88.4151C106.188 88.3217 106.129 88.2399 106.05 88.1801C105.995 88.1414 105.932 88.1144 105.866 88.1007C105.8 88.0869 105.731 88.0867 105.665 88.1001C105.506 88.1419 105.36 88.2234 105.241 88.3372C105.122 88.4509 105.034 88.593 104.985 88.7501C104.841 89.1013 104.781 89.4815 104.81 89.8601C104.885 90.6501 105.31 91.3601 105.91 91.5001C106.016 91.5235 106.127 91.5231 106.233 91.4989C106.339 91.4747 106.439 91.4273 106.525 91.3601C106.62 91.2651 106.635 91.1751 106.62 91.1701Z" fill="#EB996E"/>
<path d="M103.115 83.705C103.115 83.705 103.005 83.555 103.04 83.245C103.082 83.0347 103.169 82.8361 103.296 82.6633C103.423 82.4905 103.587 82.3477 103.775 82.245C104.338 81.9768 104.951 81.8286 105.575 81.81C105.924 81.81 106.268 81.7276 106.579 81.5695C106.89 81.4114 107.159 81.182 107.365 80.9C107.692 80.2642 107.801 79.5387 107.675 78.835C107.58 78.175 107.405 77.58 107.32 77.065C107.162 76.5132 107.17 75.9269 107.345 75.38C107.348 75.9317 107.41 76.4814 107.53 77.02C107.64 77.52 107.835 78.105 107.955 78.8C108.106 79.5689 107.99 80.3664 107.625 81.06C107.408 81.4185 107.08 81.6961 106.69 81.85C106.341 81.9795 105.976 82.0602 105.605 82.09C105.014 82.0935 104.428 82.2088 103.88 82.43C103.708 82.5183 103.556 82.6398 103.431 82.7874C103.307 82.935 103.213 83.1058 103.155 83.29C103.133 83.4273 103.119 83.5659 103.115 83.705Z" fill="#455A64"/>
<path d="M102.165 82.0001C102.165 82.0001 102.08 81.89 102.045 81.6451C102.005 81.2996 102.073 80.95 102.24 80.6451C102.355 80.4283 102.513 80.2377 102.705 80.0851C102.929 79.9167 103.187 79.7975 103.46 79.7351C103.725 79.6782 103.978 79.5731 104.205 79.4251C104.305 79.3352 104.384 79.2237 104.435 79.099C104.486 78.9743 104.509 78.8396 104.5 78.7051C104.5 78.4101 104.465 78.0951 104.475 77.7801C104.479 77.4792 104.513 77.1794 104.575 76.8851C104.676 76.3877 104.867 75.9131 105.14 75.4851C105.227 75.328 105.351 75.195 105.502 75.0981C105.653 75.0012 105.826 74.9434 106.005 74.9301C106.265 74.9301 106.375 75.0501 106.365 75.0601C106.355 75.0701 106.235 75.0151 106.015 75.0601C105.865 75.0921 105.724 75.1585 105.603 75.2539C105.483 75.3492 105.386 75.4711 105.32 75.6101C105.094 76.0294 104.936 76.4816 104.85 76.9501C104.802 77.2275 104.777 77.5085 104.775 77.7901C104.775 78.0801 104.82 78.3901 104.805 78.7301C104.812 78.908 104.779 79.0853 104.707 79.2483C104.635 79.4112 104.526 79.5555 104.39 79.6701C104.132 79.8428 103.841 79.9603 103.535 80.0151C103.307 80.054 103.091 80.141 102.899 80.2703C102.708 80.3997 102.546 80.5683 102.425 80.7651C102.22 81.1425 102.129 81.5718 102.165 82.0001Z" fill="#455A64"/>
<path d="M125.145 71.635C125.17 71.635 124.85 71.85 124.335 71.61C124.045 71.4527 123.791 71.2364 123.59 70.975C123.342 70.6498 123.033 70.3763 122.68 70.17C122.221 69.9119 121.697 69.7929 121.171 69.8275C120.645 69.8621 120.141 70.0489 119.72 70.365C119.22 70.715 118.805 71.21 118.22 71.62C117.923 71.8406 117.582 71.9957 117.22 72.075C116.846 72.1406 116.461 72.1043 116.105 71.97C115.395 71.715 114.835 71.28 114.225 71.06C113.636 70.834 113.011 70.7204 112.38 70.725C111.294 70.7237 110.238 71.0843 109.38 71.75C108.807 72.1979 108.33 72.7575 107.98 73.395C107.735 73.85 107.645 74.13 107.62 74.12C107.595 74.11 107.62 74.045 107.66 73.91C107.717 73.7153 107.787 73.5249 107.87 73.34C108.193 72.6591 108.663 72.0581 109.245 71.58C110.123 70.8626 111.217 70.4627 112.35 70.445C113.017 70.4277 113.682 70.5415 114.305 70.78C114.965 71.02 115.535 71.455 116.18 71.68C116.486 71.7977 116.817 71.8305 117.14 71.775C117.453 71.7032 117.748 71.567 118.005 71.375C118.53 71 118.97 70.505 119.505 70.135C120 69.7645 120.602 69.566 121.22 69.57C121.747 69.5739 122.264 69.7152 122.72 69.98C123.085 70.2129 123.402 70.5132 123.655 70.865C123.83 71.1219 124.057 71.3398 124.32 71.505C124.568 71.6526 124.864 71.6991 125.145 71.635Z" fill="#455A64"/>
<path d="M117.26 91.2051C117.385 91.2051 117.525 92.0151 118.345 92.4901C119.165 92.9651 120.04 92.7251 120.07 92.8401C120.1 92.9551 119.895 93.0401 119.52 93.1101C119.03 93.2011 118.523 93.1161 118.09 92.8701C117.675 92.6298 117.367 92.2398 117.23 91.7801C117.14 91.4351 117.2 91.2101 117.26 91.2051Z" fill="#263238"/>
<path d="M169 169.33C167.478 168.022 165.502 167.365 163.5 167.5L160.12 178.235C162.595 178.345 165.065 179.62 167.455 178.965C168.409 178.671 169.26 178.109 169.906 177.348C170.552 176.586 170.966 175.655 171.1 174.665C171.204 173.672 171.067 172.67 170.702 171.741C170.336 170.812 169.753 169.985 169 169.33Z" fill="#5C40CC"/>
<path d="M163.54 167.255C163.54 167.17 163.905 167.1 164.54 167.105C165.485 167.122 166.42 167.3 167.305 167.63C168.658 168.157 169.828 169.066 170.675 170.245C171.192 170.945 171.574 171.735 171.8 172.575C172.045 173.494 172.072 174.458 171.88 175.39C171.694 176.334 171.272 177.217 170.655 177.955C170.064 178.628 169.315 179.143 168.475 179.455C167.111 179.937 165.64 180.032 164.225 179.73C163.314 179.552 162.426 179.275 161.575 178.905C160.98 178.65 160.665 178.46 160.695 178.375C160.725 178.29 161.085 178.315 161.695 178.42C162.305 178.525 163.23 178.72 164.33 178.82C165.577 178.958 166.84 178.787 168.005 178.32C168.644 178.05 169.209 177.632 169.655 177.1C170.122 176.518 170.441 175.832 170.585 175.1C170.722 174.374 170.712 173.628 170.555 172.907C170.398 172.185 170.097 171.503 169.67 170.9C168.981 169.856 168.034 169.009 166.92 168.44C166.131 168.068 165.305 167.779 164.455 167.58C163.88 167.45 163.53 167.345 163.54 167.255Z" fill="#F5F5F5"/>
<path d="M132.225 207.53L124.875 228.125L150.45 237.4C151.19 234.9 139.735 225.2 139.735 225.2L144.985 212.2L132.225 207.53Z" fill="#5C40CC"/>
<g opacity="0.6">
<path d="M132.23 221.225C131.957 221.21 131.688 221.297 131.474 221.469C131.261 221.64 131.119 221.885 131.075 222.155C131.05 222.427 131.131 222.698 131.301 222.912C131.47 223.126 131.715 223.266 131.985 223.305C132.276 223.321 132.563 223.227 132.789 223.042C133.015 222.857 133.163 222.594 133.205 222.305C133.205 221.76 132.665 221.135 132.125 221.21" fill="white"/>
</g>
<path d="M124.875 228.125L125.62 226.05L149.91 235.74C149.91 235.74 150.87 236.645 150.45 237.4L124.875 228.125Z" fill="white"/>
<path d="M140.2 225.22C140.15 225.345 139.505 225.175 138.745 225.355C137.985 225.535 137.465 225.94 137.37 225.855C137.275 225.77 137.72 225.11 138.645 224.91C139.57 224.71 140.265 225.115 140.2 225.22Z" fill="#263238"/>
<path d="M142.5 227.305C142.5 227.435 141.865 227.45 141.25 227.805C140.635 228.16 140.31 228.695 140.185 228.645C140.06 228.595 140.24 227.86 141.015 227.405C141.79 226.95 142.5 227.185 142.5 227.305Z" fill="#263238"/>
<path d="M142.835 231.065C142.715 231.065 142.765 230.365 143.335 229.795C143.905 229.225 144.585 229.17 144.6 229.295C144.615 229.42 144.125 229.65 143.665 230.125C143.205 230.6 142.965 231.1 142.835 231.065Z" fill="#263238"/>
<path d="M141.065 222.125C140.97 222.22 140.46 221.84 139.74 221.625C139.02 221.41 138.385 221.44 138.36 221.31C138.335 221.18 139.02 220.925 139.86 221.185C140.7 221.445 141.165 222.05 141.065 222.125Z" fill="#263238"/>
<path d="M141.555 218.87C141.096 218.83 140.656 218.667 140.28 218.4C139.847 218.152 139.447 217.85 139.09 217.5C138.877 217.296 138.678 217.077 138.495 216.845C138.38 216.714 138.285 216.565 138.215 216.405C138.165 216.287 138.156 216.155 138.189 216.031C138.223 215.906 138.297 215.797 138.4 215.72C138.494 215.656 138.602 215.614 138.714 215.598C138.827 215.583 138.942 215.594 139.05 215.63C139.212 215.688 139.365 215.769 139.505 215.87C139.755 216.037 139.989 216.226 140.205 216.435C140.566 216.785 140.87 217.19 141.105 217.635C141.362 218.025 141.493 218.484 141.48 218.95C141.41 218.95 141.26 218.475 140.825 217.8C140.567 217.412 140.261 217.057 139.915 216.745C139.71 216.561 139.491 216.394 139.26 216.245C139.015 216.075 138.785 215.99 138.675 216.085C138.565 216.18 138.62 216.14 138.65 216.24C138.702 216.358 138.771 216.467 138.855 216.565C139.019 216.787 139.198 216.997 139.39 217.195C139.714 217.537 140.071 217.847 140.455 218.12C141.115 218.595 141.585 218.805 141.555 218.87Z" fill="#263238"/>
<path d="M141.33 219C141.222 218.547 141.26 218.07 141.44 217.64C141.592 217.158 141.823 216.705 142.125 216.3C142.306 216.062 142.509 215.841 142.73 215.64C142.862 215.497 143.028 215.39 143.212 215.329C143.397 215.267 143.594 215.254 143.785 215.29C143.898 215.335 143.996 215.411 144.068 215.509C144.139 215.607 144.182 215.724 144.19 215.845C144.199 216.013 144.186 216.181 144.15 216.345C144.071 216.751 143.912 217.137 143.682 217.481C143.452 217.824 143.155 218.118 142.81 218.345C142.07 218.845 141.495 218.785 141.5 218.74C141.505 218.695 142 218.58 142.62 218.08C142.973 217.793 143.259 217.433 143.46 217.025C143.577 216.788 143.659 216.535 143.705 216.275C143.765 215.99 143.74 215.73 143.63 215.725C143.517 215.721 143.405 215.741 143.301 215.786C143.198 215.83 143.105 215.896 143.03 215.98C142.823 216.156 142.632 216.35 142.46 216.56C142.167 216.918 141.928 217.318 141.75 217.745C141.44 218.5 141.405 219 141.33 219Z" fill="#263238"/>
<path d="M107.45 152.53C103.57 152.62 99.89 153.165 97.215 155.98C93.67 159.715 89.29 165.03 89.04 168.715C88.67 174.215 91.995 175.865 94.42 177.215C95.4926 177.795 96.7014 178.077 97.92 178.03L142.76 177.69L144.165 170.095L115.165 162.945L116.37 152.03L107.45 152.53Z" fill="#263238"/>
<path d="M116.395 152.025L130.5 151.375C130.5 151.375 154.87 152.73 160.065 157.495C165.26 162.26 164.615 167.675 162.88 172.87C161.145 178.065 145.88 211.31 145.88 211.31C145.88 211.31 147.12 213.425 146.425 215.535C146.144 216.459 145.627 217.294 144.926 217.959C144.225 218.623 143.363 219.094 142.425 219.325L128.865 214.325C128.865 214.325 127.025 213.675 128.325 211.94C129.625 210.205 130.49 209.885 130.49 209.885V206.42C130.49 206.42 135.255 197.755 135.685 196.565C136.115 195.375 140.685 177.745 140.685 177.745L143.72 172.53C143.72 172.53 136.385 169.08 130.025 166.58L115.175 162.92L116.395 152.025Z" fill="#263238"/>
<path d="M139.275 213.715C138.865 213.476 138.467 213.216 138.085 212.935C136.169 211.694 134.012 210.874 131.755 210.53C131.282 210.484 130.811 210.414 130.345 210.32C130.821 210.265 131.302 210.274 131.775 210.345C134.088 210.592 136.298 211.433 138.19 212.785C138.591 213.046 138.956 213.359 139.275 213.715Z" fill="#455A64"/>
<path d="M146.05 211.335C145.754 211.093 145.491 210.814 145.265 210.505C144.805 209.97 144.195 209.21 143.56 208.34C142.925 207.47 142.375 206.665 142 206.07C141.776 205.759 141.589 205.423 141.44 205.07C141.709 205.342 141.947 205.642 142.15 205.965L143.77 208.185C144.375 209.005 144.93 209.745 145.41 210.39C145.657 210.681 145.872 210.998 146.05 211.335Z" fill="#455A64"/>
<path d="M151 167.79C151 167.83 150.5 167.94 149.715 168.2C147.659 168.878 145.797 170.041 144.285 171.59C143.99 171.93 143.678 172.256 143.35 172.565C143.561 172.161 143.831 171.791 144.15 171.465C144.877 170.644 145.719 169.931 146.65 169.35C147.58 168.765 148.591 168.318 149.65 168.025C150.086 167.879 150.541 167.8 151 167.79Z" fill="#455A64"/>
<path d="M137.15 191.33C137.156 191.23 137.174 191.131 137.205 191.035L137.415 190.21L138.225 187.185L141 177.23C141.565 175.285 142.045 173.435 142.59 171.755C143.165 170.295 144.035 168.969 145.145 167.86C145.878 167.109 146.689 166.438 147.565 165.86C147.88 165.66 148.125 165.51 148.3 165.42C148.384 165.367 148.473 165.322 148.565 165.285C148.565 165.285 148.225 165.515 147.625 165.94C146.778 166.545 145.991 167.23 145.275 167.985C144.204 169.09 143.368 170.399 142.815 171.835C142.315 173.49 141.815 175.365 141.25 177.3L138.405 187.23C138.035 188.475 137.73 189.49 137.51 190.23C137.405 190.56 137.325 190.83 137.255 191.04C137.233 191.141 137.198 191.239 137.15 191.33Z" fill="#455A64"/>
<path d="M124.675 165.935C124.6 165.935 124.305 163.305 124.01 160.045C123.715 156.785 123.51 154.135 123.61 154.13C123.71 154.125 123.975 156.76 124.27 160.02C124.565 163.28 124.745 165.93 124.675 165.935Z" fill="#455A64"/>
<path d="M101.195 173C101.155 173 100.94 172.595 100.495 171.97C99.9205 171.157 99.2317 170.431 98.45 169.815C97.6621 169.207 96.7917 168.713 95.865 168.35C95.15 168.07 94.685 167.965 94.695 167.92C95.1159 167.94 95.531 168.026 95.925 168.175C97.8803 168.82 99.5507 170.124 100.65 171.865C100.893 172.211 101.077 172.594 101.195 173Z" fill="#455A64"/>
<path d="M109.835 163.4C109.835 163.44 109.215 163.06 108.18 162.585C105.464 161.352 102.452 160.921 99.5 161.345C98.375 161.505 97.69 161.705 97.68 161.66C97.8255 161.578 97.9821 161.517 98.145 161.48C98.5795 161.346 99.022 161.239 99.47 161.16C102.456 160.636 105.532 161.077 108.25 162.42C108.658 162.621 109.052 162.848 109.43 163.1C109.578 163.181 109.715 163.282 109.835 163.4Z" fill="#455A64"/>
<path d="M143.615 170.08C143.495 170.074 143.376 170.054 143.26 170.02L142.26 169.805L138.61 169C135.525 168.31 131.255 167.38 126.52 166.445C121.785 165.51 117.485 164.735 114.37 164.2L110.675 163.565L109.675 163.39C109.557 163.376 109.441 163.348 109.33 163.305C109.449 163.308 109.567 163.318 109.685 163.335L110.685 163.465C111.56 163.585 112.825 163.775 114.39 164.02C117.515 164.52 121.825 165.25 126.565 166.19C131.305 167.13 135.565 168.085 138.645 168.82C140.18 169.19 141.425 169.5 142.28 169.725L143.28 169.985C143.394 170.007 143.506 170.038 143.615 170.08Z" fill="#455A64"/>
<path d="M115.19 164.225C115.14 164.225 115.035 163.635 114.57 162.795C114.298 162.31 113.962 161.865 113.57 161.47C113.076 160.984 112.552 160.529 112 160.11C110.983 159.359 109.908 158.69 108.785 158.11C108.31 157.884 107.852 157.623 107.415 157.33C107.918 157.489 108.405 157.695 108.87 157.945C110.03 158.483 111.133 159.138 112.16 159.9C112.719 160.327 113.247 160.793 113.74 161.295C114.142 161.711 114.479 162.184 114.74 162.7C114.92 163.049 115.056 163.418 115.145 163.8C115.186 163.938 115.201 164.082 115.19 164.225Z" fill="#455A64"/>
<path d="M165.135 171C165.19 171.06 164.44 171.815 163.855 172.97C163.27 174.125 163.08 175.165 163.005 175.15C163.003 174.342 163.217 173.548 163.625 172.85C163.956 172.111 164.477 171.473 165.135 171Z" fill="#263238"/>
<g opacity="0.3">
<path d="M133.04 119.77L136.25 142.38L136.41 142.74C137.163 134.923 136.006 127.041 133.04 119.77Z" fill="black"/>
</g>
<path d="M150.325 132.76L139.89 151L114.175 151.56L114.11 152.725L139.01 152.54L139.8 152.51L166.09 152.565L171.405 143.4L178.195 133.67C178.293 133.526 178.35 133.357 178.36 133.183C178.369 133.008 178.331 132.835 178.25 132.68C178.168 132.526 178.045 132.397 177.896 132.307C177.746 132.217 177.575 132.17 177.4 132.17L151.155 132.27C150.986 132.271 150.82 132.317 150.674 132.403C150.528 132.489 150.408 132.612 150.325 132.76Z" fill="#E0E0E0"/>
<path d="M171.405 143.415C171.405 143.415 172.755 144.655 172.545 145.705C172.335 146.755 172.4 147.54 171.405 147.61C171.424 147.994 171.294 148.371 171.043 148.662C170.791 148.953 170.438 149.137 170.055 149.175C170.055 149.175 170.36 150.825 168.44 151.11C168.44 151.11 167.85 152.875 166.64 152.445C165.943 152.208 165.272 151.898 164.64 151.52L164.285 150.88C164.285 150.88 162.5 150.21 162.94 149.205C163.21 148.595 164.13 148.435 164.13 148.435C164.024 148.185 163.979 147.912 163.999 147.641C164.019 147.37 164.103 147.107 164.245 146.875C164.67 146.3 166.06 146.775 166.06 146.775C166.031 146.283 166.188 145.797 166.5 145.415C167 144.85 169.19 146.375 169.19 146.375L170.395 144.935L171.405 143.415Z" fill="#FFBE9D"/>
<path d="M168.44 151.11C167.66 150.778 166.917 150.368 166.22 149.885C165.478 149.475 164.781 148.99 164.14 148.435C164.919 148.77 165.663 149.182 166.36 149.665C167.1 150.076 167.797 150.56 168.44 151.11Z" fill="#EB996E"/>
<path d="M170.055 149.175C169.33 148.89 168.639 148.524 167.995 148.085C167.307 147.721 166.661 147.281 166.07 146.775C166.796 147.058 167.488 147.423 168.13 147.865C168.818 148.23 169.463 148.669 170.055 149.175Z" fill="#EB996E"/>
<path d="M167.855 145.555C167.895 145.48 168.72 145.915 169.68 146.525C170.275 146.869 170.848 147.249 171.395 147.665C171.36 147.75 170.5 147.36 169.54 146.745C168.938 146.409 168.373 146.01 167.855 145.555Z" fill="#EB996E"/>
<path d="M178.195 132.87C178.154 132.877 178.111 132.877 178.07 132.87H177.7H176.28L171.06 132.91L153.835 132.95H152.58C152.395 132.932 152.209 132.965 152.041 133.044C151.873 133.123 151.729 133.246 151.625 133.4C151.225 134.113 150.835 134.817 150.455 135.51L148.235 139.51L144.47 146.275C143.4 148.185 142.525 149.735 141.91 150.83C141.615 151.33 141.375 151.76 141.205 152.06L141.015 152.375L140.945 152.48C140.945 152.48 140.945 152.435 140.99 152.36L141.16 152.03L141.825 150.78L144.325 146.185L148.045 139.39C148.745 138.115 149.485 136.775 150.245 135.39L151.42 133.265C151.548 133.075 151.724 132.922 151.931 132.822C152.137 132.722 152.366 132.678 152.595 132.695H153.85L171.075 132.73L176.295 132.775L177.715 132.8H178.085C178.125 132.817 178.162 132.841 178.195 132.87Z" fill="#263238"/>
<path d="M159.695 142.045C159.574 142.221 159.506 142.428 159.499 142.641C159.492 142.855 159.547 143.065 159.657 143.248C159.767 143.431 159.928 143.579 160.12 143.673C160.311 143.767 160.526 143.803 160.738 143.778C160.95 143.753 161.151 143.668 161.315 143.532C161.48 143.396 161.602 143.215 161.666 143.012C161.731 142.808 161.735 142.59 161.679 142.384C161.623 142.178 161.509 141.993 161.35 141.85C161.104 141.658 160.792 141.571 160.482 141.608C160.173 141.644 159.89 141.801 159.695 142.045Z" fill="white"/>
<g opacity="0.3">
<path d="M86.695 135C86.475 135.09 86.22 135.24 86.22 135.5C86.228 135.597 86.2683 135.688 86.3346 135.759C86.4009 135.829 86.4891 135.876 86.585 135.89C86.9518 135.838 87.311 135.742 87.655 135.605C90.36 135.01 92.585 135.58 95.155 136.605L95.24 136.52C94.22 134.305 89.605 133.815 86.695 135Z" fill="black"/>
</g>
<path d="M226 236.5C226 236.57 180.775 236.63 125 236.63C69.225 236.63 24 236.55 24 236.5C24 236.45 69.215 236.37 125 236.37C180.785 236.37 226 236.405 226 236.5Z" fill="#263238"/>
<path d="M72.71 77.105C72.795 77.19 89.4 71.485 89.4 71.485L83 56.835L68.235 62.5L76.365 67.17L72.71 77.105Z" fill="#455A64"/>
<path d="M80.5 61.245V41.3C80.5 41.3 103.405 37.11 119.91 37.36C136.415 37.61 153.41 40.315 153.41 40.315V59.465C153.41 59.465 101.68 54.845 80.5 61.245Z" fill="#455A64"/>
<path d="M80.38 61.265L89.38 71.57V59.465C89.38 59.465 81.855 60.365 80.38 61.265Z" fill="#263238"/>
<path d="M80.5 41.295C80.575 41.295 80.605 45.795 80.575 51.295C80.545 56.795 80.455 61.295 80.385 61.295C80.315 61.295 80.28 56.825 80.31 51.295C80.34 45.765 80.425 41.295 80.5 41.295Z" fill="#263238"/>
<path d="M161.16 75.575C161.075 75.66 144.47 69.9551 144.47 69.9551L150.855 55.3L165.635 60.9551L157.5 65.625L161.16 75.575Z" fill="#455A64"/>
<path d="M153.5 59.7351L144.5 70.0401V58.8101C147.518 58.9133 150.525 59.2224 153.5 59.7351Z" fill="#263238"/>
<path d="M153.4 40.3149C153.47 40.3149 153.55 44.6599 153.575 50.0249C153.6 55.3899 153.575 59.7349 153.49 59.7349C153.405 59.7349 153.34 55.3899 153.315 50.0249C153.29 44.6599 153.325 40.3149 153.4 40.3149Z" fill="#263238"/>
<path d="M93.415 50.045C93.3678 49.4708 93.4909 48.8954 93.769 48.3908C94.047 47.8862 94.4677 47.4748 94.9783 47.208C95.489 46.9412 96.067 46.8308 96.64 46.8908C97.213 46.9507 97.7556 47.1783 98.2 47.545L97.5 48.385C97.3116 48.213 97.0875 48.0848 96.8437 48.0096C96.5999 47.9344 96.3426 47.914 96.09 47.95C95.6418 48.0123 95.2367 48.2501 94.9638 48.6111C94.691 48.9721 94.5727 49.4267 94.635 49.875C94.6973 50.3232 94.9352 50.7283 95.2962 51.0011C95.6572 51.274 96.1118 51.3923 96.56 51.33C96.8142 51.2965 97.0576 51.2064 97.2722 51.0662C97.4869 50.926 97.6673 50.7393 97.8 50.52L98.68 51.135C98.354 51.6093 97.8953 51.9769 97.3613 52.1917C96.8273 52.4065 96.2418 52.459 95.6782 52.3427C95.1145 52.2263 94.5977 51.9462 94.1924 51.5375C93.7872 51.1288 93.5116 50.6096 93.4 50.045H93.415Z" fill="white"/>
<path d="M98.87 49.295C98.7769 48.7177 98.8593 48.1258 99.1065 47.5959C99.3536 47.066 99.7542 46.6225 100.256 46.3228C100.758 46.0231 101.339 45.8811 101.923 45.9151C102.506 45.9491 103.066 46.1576 103.53 46.5135C103.994 46.8695 104.341 47.3565 104.525 47.9115C104.708 48.4666 104.722 49.064 104.562 49.6266C104.403 50.1892 104.078 50.6909 103.63 51.0668C103.182 51.4427 102.632 51.6755 102.05 51.735C101.68 51.7941 101.301 51.777 100.937 51.6849C100.574 51.5928 100.233 51.4275 99.935 51.1991C99.6374 50.9708 99.3895 50.6842 99.2064 50.3568C99.0233 50.0294 98.9088 49.6681 98.87 49.295ZM103.425 48.825C103.384 48.5006 103.249 48.1953 103.036 47.9472C102.823 47.6992 102.542 47.5193 102.227 47.4301C101.913 47.3409 101.579 47.3463 101.267 47.4456C100.956 47.5449 100.68 47.7337 100.475 47.9884C100.271 48.2432 100.145 48.5527 100.115 48.8782C100.085 49.2038 100.151 49.531 100.306 49.8191C100.46 50.1073 100.696 50.3435 100.984 50.4983C101.272 50.6532 101.599 50.7199 101.925 50.69C102.15 50.6752 102.368 50.614 102.568 50.5102C102.768 50.4064 102.944 50.2622 103.085 50.0869C103.226 49.9116 103.329 49.7089 103.387 49.4917C103.446 49.2745 103.459 49.0474 103.425 48.825Z" fill="white"/>
<path d="M110.655 50.9599L110.44 47.77L109.045 50.5L108.495 50.535L106.77 48.075L106.975 51.195L105.82 51.27L105.5 45.955L106.5 45.8899L108.7 49.0649L110.445 45.6399L111.445 45.575L111.805 50.8849L110.655 50.9599Z" fill="white"/>
<path d="M117.54 47.32C117.57 48.51 116.7 49.27 115.28 49.32L114.205 49.35L114.25 50.82L113.015 50.855L112.865 45.5L115.17 45.435C116.595 45.415 117.5 46.13 117.54 47.32ZM116.29 47.355C116.29 46.77 115.885 46.44 115.13 46.46L114.13 46.49L114.185 48.34L115.185 48.31C115.935 48.29 116.305 47.935 116.29 47.355Z" fill="white"/>
<path d="M118.5 45.385H119.73V49.705H122.4V50.705H118.5V45.385Z" fill="white"/>
<path d="M127.175 49.86V50.86L123.05 50.74L123.205 45.415L127.205 45.535L127.175 46.535L124.375 46.45L124.345 47.61L126.815 47.68L126.785 48.64L124.315 48.565L124.28 49.8L127.175 49.86Z" fill="white"/>
<path d="M129.455 46.6501L127.755 46.55L127.815 45.55L132.445 45.8301L132.385 46.8301L130.685 46.725L130.425 51.0401L129.195 50.965L129.455 46.6501Z" fill="white"/>
<path d="M136.93 50.59L136.84 51.59L132.73 51.21L133.23 45.91L137.23 46.28L137.14 47.28L134.35 47L134.245 48.155L136.705 48.38L136.62 49.335L134.155 49.11L134.045 50.335L136.93 50.59Z" fill="white"/>
<path d="M138.47 46.395L140.865 46.715C142.59 46.945 143.635 48.14 143.425 49.715C143.215 51.29 141.885 52.215 140.16 51.965L137.765 51.645L138.47 46.395ZM140.235 50.98C140.453 51.0149 140.675 51.0059 140.889 50.9535C141.103 50.901 141.305 50.8062 141.481 50.6746C141.658 50.543 141.807 50.3774 141.919 50.1874C142.03 49.9974 142.103 49.7869 142.132 49.5684C142.161 49.35 142.146 49.1279 142.088 48.9153C142.03 48.7027 141.93 48.5039 141.793 48.3307C141.657 48.1574 141.487 48.0133 141.294 47.9067C141.102 47.8001 140.889 47.7332 140.67 47.71L139.555 47.56L139.12 50.83L140.235 50.98Z" fill="white"/>
<path d="M163.645 42.13L164.955 43.665L168.645 42.13L167.565 40.515L163.645 42.13Z" fill="#455A64"/>
<path d="M161.955 34.825C161.955 35.2048 161.842 35.576 161.631 35.8917C161.42 36.2075 161.121 36.4536 160.77 36.5989C160.419 36.7442 160.033 36.7822 159.66 36.7081C159.288 36.6341 158.946 36.4512 158.677 36.1827C158.409 35.9142 158.226 35.572 158.152 35.1996C158.078 34.8272 158.116 34.4411 158.261 34.0903C158.406 33.7394 158.653 33.4396 158.968 33.2286C159.284 33.0176 159.655 32.905 160.035 32.905C160.544 32.9063 161.031 33.1091 161.391 33.4688C161.751 33.8286 161.954 34.3162 161.955 34.825Z" fill="#5C40CC"/>
<path d="M118.945 63.465C118.944 63.6553 118.886 63.841 118.78 63.9985C118.673 64.156 118.522 64.2783 118.345 64.3497C118.169 64.4211 117.975 64.4385 117.789 64.3997C117.603 64.3608 117.432 64.2675 117.299 64.1316C117.166 63.9956 117.076 63.8231 117.041 63.6361C117.006 63.449 117.028 63.2558 117.103 63.081C117.178 62.9061 117.303 62.7576 117.463 62.6541C117.623 62.5507 117.81 62.497 118 62.5C118.253 62.5039 118.494 62.6075 118.671 62.7882C118.848 62.9689 118.946 63.2121 118.945 63.465Z" fill="#5C40CC"/>
<path d="M74.22 49.035C74.22 49.1798 74.1769 49.3213 74.0962 49.4416C74.0156 49.5618 73.901 49.6554 73.767 49.7103C73.633 49.7653 73.4857 49.7791 73.3439 49.7502C73.202 49.7212 73.072 49.6506 72.9703 49.5475C72.8686 49.4445 72.7999 49.3134 72.7728 49.1712C72.7458 49.0289 72.7617 48.8818 72.8185 48.7486C72.8753 48.6154 72.9704 48.5021 73.0917 48.4231C73.2131 48.3441 73.3552 48.303 73.5 48.305C73.6919 48.3076 73.875 48.3857 74.0097 48.5223C74.1445 48.6589 74.22 48.8431 74.22 49.035Z" fill="#5C40CC"/>
<path d="M71.51 41L73.66 41.13L74.68 36.9L72.67 36.985L71.51 41Z" fill="#455A64"/>
<path d="M138.71 74.765L139.435 76.795L143.725 76.075L142.86 74.26L138.71 74.765Z" fill="#5C40CC"/>
<path d="M95.32 63.05L93.995 64.75L96.9 67.9851L97.97 66.28L95.32 63.05Z" fill="#455A64"/>
<path d="M90.185 23.115L95.26 28.29L102.405 25.59L102.69 27.365L99.595 33.7L102.45 38.43L102.21 39.845L95.295 38.68L91.205 43.165L90.245 42.44L89.4 36.735L82.95 33.375L82.665 32.07L89.16 30.295L90.185 23.115Z" fill="#5C40CC"/>
<g opacity="0.3">
<path d="M90.185 23.115L95.26 28.29L102.405 25.59L102.69 27.365L99.595 33.7L102.45 38.43L102.21 39.845L95.295 38.68L91.205 43.165L90.245 42.44L89.4 36.735L82.95 33.375L82.665 32.07L89.16 30.295L90.185 23.115Z" fill="black"/>
</g>
<path d="M90.185 21.66L95.26 26.84L102.405 25.59L99.05 32.02L102.45 38.43L95.295 37.23L90.245 42.44L89.18 35.265L82.665 32.07L89.16 28.84L90.185 21.66Z" fill="#5C40CC"/>
<path d="M142.81 23.115L137.73 28.29L130.585 25.59L130.3 27.365L133.395 33.7L130.54 38.43L130.78 39.845L137.695 38.68L141.785 43.165L142.745 42.44L143.59 36.735L150.04 33.375L150.325 32.07L143.83 30.295L142.81 23.115Z" fill="#5C40CC"/>
<g opacity="0.3">
<path d="M142.81 23.115L137.73 28.29L130.585 25.59L130.3 27.365L133.395 33.7L130.54 38.43L130.78 39.845L137.695 38.68L141.785 43.165L142.745 42.44L143.59 36.735L150.04 33.375L150.325 32.07L143.83 30.295L142.81 23.115Z" fill="black"/>
</g>
<path d="M142.81 21.66L137.73 26.84L130.585 25.59L133.94 32.02L130.54 38.43L137.695 37.23L142.745 42.44L143.81 35.265L150.325 32.07L143.83 28.84L142.81 21.66Z" fill="#5C40CC"/>
<path d="M116.33 14.03L120.555 22.285L130.3 21.71L129.97 23.98L123.78 30.535L125.455 37.39L124.63 39.025L116.635 34.97L109.94 38.89L109.045 37.635L110.185 30.35L103.595 23.795L103.745 22.1L112.345 22.405L116.33 14.03Z" fill="#5C40CC"/>
<g opacity="0.3">
<path d="M116.33 14.03L120.555 22.285L130.3 21.71L129.97 23.98L123.78 30.535L125.455 37.39L124.63 39.025L116.635 34.97L109.94 38.89L109.045 37.635L110.185 30.35L103.595 23.795L103.745 22.1L112.345 22.405L116.33 14.03Z" fill="black"/>
</g>
<path d="M116.88 12.26L121.105 20.51L130.3 21.71L123.755 28.28L125.455 37.39L117.19 33.2L109.045 37.635L110.48 28.475L103.745 22.1L112.9 20.63L116.88 12.26Z" fill="#5C40CC"/>
<path d="M133.715 86.315L140.775 87.095C143.159 83.7206 146.718 81.3596 150.754 80.4762C154.79 79.5928 159.01 80.2508 162.585 82.3208C166.16 84.3908 168.832 87.7232 170.076 91.663C171.319 95.6028 171.044 99.8652 169.304 103.612C167.564 107.36 164.486 110.321 160.674 111.914C156.862 113.507 152.592 113.616 148.704 112.221C144.815 110.826 141.589 108.027 139.659 104.374C137.729 100.721 137.236 96.4784 138.275 92.48L133.715 86.315Z" fill="#FAFAFA"/>
<path d="M133.715 86.315C133.99 86.685 135.42 88.575 138.34 92.45H138.235C138.239 92.4417 138.244 92.4344 138.251 92.4285C138.257 92.4227 138.265 92.4184 138.274 92.416C138.283 92.4136 138.292 92.4131 138.301 92.4147C138.309 92.4162 138.318 92.4198 138.325 92.425C138.337 92.432 138.346 92.4426 138.351 92.4551C138.357 92.4677 138.358 92.4816 138.355 92.495C137.639 95.3 137.677 98.2443 138.465 101.03C138.696 101.866 139.003 102.679 139.38 103.46C139.58 103.86 139.77 104.27 139.985 104.675L140.73 105.86C143.109 109.309 146.708 111.726 150.8 112.625C153.065 113.123 155.41 113.133 157.68 112.655C160.072 112.134 162.321 111.093 164.265 109.605C166.301 108.059 167.939 106.048 169.04 103.74C170.18 101.393 170.743 98.8082 170.68 96.2C170.607 93.7049 169.975 91.258 168.83 89.04C167.753 86.9373 166.227 85.0972 164.36 83.65C160.997 81.0504 156.764 79.8406 152.535 80.27C150.748 80.4844 149.004 80.9665 147.36 81.7C144.745 82.9085 142.492 84.7805 140.825 87.13C140.82 87.1396 140.812 87.1472 140.802 87.1517C140.792 87.1562 140.781 87.1574 140.77 87.155L133.715 86.315L140.785 87.03L140.725 87.06C142.387 84.6787 144.65 82.7808 147.285 81.56C148.937 80.7989 150.696 80.2963 152.5 80.07C156.787 79.6161 161.084 80.83 164.5 83.46C166.399 84.9243 167.951 86.7905 169.045 88.925C170.214 91.175 170.858 93.6604 170.93 96.195C170.996 98.8442 170.427 101.471 169.27 103.855C168.149 106.198 166.484 108.24 164.415 109.81C162.439 111.319 160.155 112.374 157.725 112.9C155.415 113.386 153.028 113.37 150.725 112.855C146.589 111.943 142.955 109.493 140.56 106L139.81 104.8C139.595 104.39 139.405 103.97 139.2 103.565C138.824 102.774 138.519 101.95 138.29 101.105C137.506 98.2895 137.485 95.3161 138.23 92.49L138.35 92.535C138.341 92.5495 138.326 92.5601 138.31 92.5647C138.293 92.5693 138.275 92.5676 138.26 92.56L133.715 86.315Z" fill="#263238"/>
<path d="M148.2 90.7199C148.206 90.7965 148.206 90.8734 148.2 90.9499C148.2 91.1149 148.2 91.3249 148.2 91.5899C148.2 92.1699 148.2 92.9749 148.23 93.9949C148.23 96.0699 148.265 98.9949 148.29 102.495L148.175 102.38H159.94C159.97 102.35 159.695 102.625 159.81 102.505V100.905C159.81 100.38 159.81 99.8549 159.81 99.3349V96.2899C159.81 94.3199 159.81 92.4549 159.81 90.7399L159.92 90.8549L151.42 90.7949L149.015 90.7699H148.375H148.145H148.35H148.97L151.345 90.7399L159.91 90.6849H160.025V90.7949C160.025 92.5099 160.025 94.3749 160.025 96.3449V102.5C160.145 102.385 159.87 102.665 159.895 102.635H148.13H148.015V102.5C148.015 98.9699 148.055 96.0249 148.07 93.9349C148.07 92.9349 148.07 92.1249 148.1 91.5549C148.1 91.2999 148.1 91.0949 148.1 90.9349C148.124 90.8591 148.157 90.7868 148.2 90.7199Z" fill="#263238"/>
<path d="M158.695 92.665C158.865 92.8 157.285 95.08 155.16 97.76C154.74 98.295 154.325 98.805 153.94 99.26L153.69 99.565L153.41 99.31C151.57 97.655 150.325 96.385 150.435 96.255C150.545 96.125 151.99 97.175 153.895 98.755L153.36 98.805C153.725 98.305 154.125 97.805 154.55 97.275C156.67 94.595 158.53 92.535 158.695 92.665Z" fill="#5C40CC"/>
</svg>
