<svg width="250" height="250" viewBox="0 0 250 250" fill="none" xmlns="http://www.w3.org/2000/svg">
<path d="M250 191.2H0V191.325H250V191.2Z" fill="#EBEBEB"/>
<path d="M55.83 195.395H39.27V195.52H55.83V195.395Z" fill="#EBEBEB"/>
<path d="M81.75 199H66.665V199.125H81.75V199Z" fill="#EBEBEB"/>
<path d="M47.55 200.035H28.425V200.16H47.55V200.035Z" fill="#EBEBEB"/>
<path d="M224.95 199.765H217V199.89H224.95V199.765Z" fill="#EBEBEB"/>
<path d="M215.395 199.765H195.735V199.89H215.395V199.765Z" fill="#EBEBEB"/>
<path d="M140.165 195.33H125V195.455H140.165V195.33Z" fill="#EBEBEB"/>
<path d="M178.385 195.33H142.335V195.455H178.385V195.33Z" fill="#EBEBEB"/>
<path d="M118.5 168.9H21.955C21.1987 168.899 20.4738 168.597 19.9394 168.062C19.4051 167.527 19.105 166.801 19.105 166.045V30.33C19.1116 29.578 19.4146 28.859 19.9482 28.3291C20.4818 27.7992 21.203 27.5013 21.955 27.5H118.5C119.257 27.5 119.983 27.8008 120.519 28.3362C121.054 28.8716 121.355 29.5978 121.355 30.355V166.045C121.355 166.802 121.054 167.528 120.519 168.064C119.983 168.599 119.257 168.9 118.5 168.9ZM21.955 27.6C21.2318 27.6013 20.5387 27.8895 20.0278 28.4014C19.5169 28.9132 19.23 29.6068 19.23 30.33V166.045C19.23 166.768 19.5169 167.462 20.0278 167.974C20.5387 168.485 21.2318 168.774 21.955 168.775H118.5C119.224 168.774 119.917 168.486 120.429 167.974C120.941 167.462 121.229 166.769 121.23 166.045V30.33C121.229 29.6064 120.941 28.9127 120.429 28.4011C119.917 27.8894 119.224 27.6013 118.5 27.6H21.955Z" fill="#EBEBEB"/>
<path d="M226.655 168.9H130.105C129.348 168.899 128.623 168.597 128.088 168.062C127.553 167.527 127.251 166.802 127.25 166.045V30.33C127.258 29.5776 127.562 28.8585 128.096 28.3288C128.631 27.7991 129.353 27.5013 130.105 27.5H226.655C227.406 27.5026 228.126 27.8011 228.659 28.3309C229.191 28.8606 229.493 29.5789 229.5 30.33V166.045C229.5 166.8 229.201 167.525 228.667 168.06C228.134 168.595 227.41 168.897 226.655 168.9ZM130.105 27.6C129.381 27.6013 128.688 27.8894 128.176 28.4011C127.664 28.9127 127.376 29.6064 127.375 30.33V166.045C127.376 166.769 127.664 167.462 128.176 167.974C128.688 168.486 129.381 168.774 130.105 168.775H226.655C227.379 168.774 228.072 168.486 228.584 167.974C229.096 167.462 229.384 166.769 229.385 166.045V30.33C229.384 29.6064 229.096 28.9127 228.584 28.4011C228.072 27.8894 227.379 27.6013 226.655 27.6H130.105Z" fill="#EBEBEB"/>
<path d="M208.66 128.32H190.035V191.2H208.66V128.32Z" fill="#E6E6E6"/>
<path d="M205.565 191.2H208.66V185.54H202.31L205.565 191.2Z" fill="#F0F0F0"/>
<path d="M132.845 128.32H114.22V191.2H132.845V128.32Z" fill="#E6E6E6"/>
<path d="M208.665 128.32H130.145V189.025H208.665V128.32Z" fill="#F0F0F0"/>
<path d="M206.26 131.01H132.55V147.66H206.26V131.01Z" fill="#E6E6E6"/>
<path d="M172.885 136.185H165.92C162.92 136.185 160.005 134.13 157.92 130.505H180.875C178.8 134.13 175.91 136.185 172.885 136.185Z" fill="#F0F0F0"/>
<path d="M133.245 191.2H130.145V185.54H136.495L133.245 191.2Z" fill="#F0F0F0"/>
<path d="M206.26 150.35H132.55V167H206.26V150.35Z" fill="#E6E6E6"/>
<path d="M172.885 155.5H165.92C162.92 155.5 160.005 153.45 157.92 149.82H180.875C178.8 153.47 175.91 155.5 172.885 155.5Z" fill="#F0F0F0"/>
<path d="M206.26 169.69H132.55V186.34H206.26V169.69Z" fill="#E6E6E6"/>
<path d="M172.885 174.86H165.92C162.92 174.86 160.005 172.805 157.92 169.18H180.875C178.8 172.805 175.91 174.86 172.885 174.86Z" fill="#F0F0F0"/>
<path d="M217.145 46.775H136.715V85.815H217.145V46.775Z" fill="#F0F0F0"/>
<path d="M220.045 46.775H138.07V85.815H220.045V46.775Z" fill="#F5F5F5"/>
<path d="M215.99 82.57V50.025L142.13 50.025V82.57H215.99Z" fill="white"/>
<path d="M192.78 114.53C194.23 99.53 195.235 75.14 194.455 66.99C194.44 66.8503 194.396 66.7153 194.325 66.5938C194.254 66.4723 194.159 66.3671 194.045 66.285C193.894 66.1743 193.714 66.1083 193.527 66.0947C193.34 66.081 193.153 66.1202 192.987 66.2078C192.821 66.2954 192.684 66.4279 192.59 66.59C192.495 66.7522 192.449 66.9376 192.455 67.125C192.59 71.165 192.75 81.26 191.89 98.675C191.46 107.34 190.845 113.275 191.27 114.53H192.78Z" fill="#F0F0F0"/>
<path d="M196.935 82.23C200.245 77.97 207.095 74.6 214.115 74.085C216.87 73.88 205.8 79.375 201.24 84.865C197.705 89.125 193.74 96.145 192.42 99.975C193.195 92.07 193.62 86.5 196.935 82.23Z" fill="#F0F0F0"/>
<path d="M190 81.31C186.575 76.54 178.665 72.865 170.105 72.45C166.745 72.29 179.53 78.28 184.3 84.42C188.005 89.185 191.8 97.085 192.85 101.42C193.105 92.43 193.43 86.085 190 81.31Z" fill="#F0F0F0"/>
<path d="M196.705 68.19C199.32 64.635 205.095 61.715 211.205 61.12C213.605 60.885 204.275 65.62 200.655 70.23C197.84 73.79 194.85 79.615 193.95 82.77C194.1 76.305 194.095 71.745 196.705 68.19Z" fill="#F0F0F0"/>
<path d="M191.44 68.92C188.535 64.875 181.84 61.77 174.59 61.42C171.745 61.285 182.59 66.355 186.59 71.555C189.73 75.59 192.95 82.28 193.835 85.95C194.065 78.33 194.34 72.96 191.44 68.92Z" fill="#F0F0F0"/>
<path d="M194.95 98.27C196.84 95.59 201.085 93.335 205.62 92.795C207.4 92.585 200.54 96.26 197.92 99.725C195.885 102.415 193.75 106.785 193.13 109.14C193.135 104.335 193.065 100.95 194.95 98.27Z" fill="#F0F0F0"/>
<path d="M191.5 96.76C189.86 94.1 185.8 91.855 181.275 91.315C179.495 91.105 186.055 94.76 188.36 98.195C190.145 100.865 191.86 105.195 192.26 107.535C192.75 102.775 193.16 99.42 191.5 96.76Z" fill="#F0F0F0"/>
<path d="M192.165 128.32C195.78 128.32 198.765 127.565 198.97 123.96L199.575 113.525H184.76L185.365 123.96C185.57 127.565 188.555 128.32 192.165 128.32Z" fill="#E6E6E6"/>
<path d="M184.845 115.9H199.5C199.787 115.899 200.063 115.793 200.276 115.601C200.489 115.409 200.624 115.145 200.655 114.86L200.88 112.86C200.897 112.697 200.881 112.532 200.83 112.376C200.78 112.22 200.698 112.076 200.588 111.954C200.479 111.832 200.345 111.735 200.195 111.667C200.046 111.6 199.884 111.565 199.72 111.565H184.625C184.461 111.565 184.299 111.6 184.149 111.667C184 111.735 183.866 111.832 183.757 111.954C183.647 112.076 183.565 112.22 183.515 112.376C183.464 112.532 183.447 112.697 183.465 112.86L183.685 114.86C183.717 115.146 183.853 115.409 184.067 115.601C184.281 115.793 184.558 115.899 184.845 115.9Z" fill="#F0F0F0"/>
<path d="M137.625 128.32H127.8L130.71 106.785H137.625V128.32Z" fill="#E6E6E6"/>
<path d="M152.045 128.32H133.425L129.955 103.115H148.58L152.045 128.32Z" fill="#F0F0F0"/>
<path d="M154.53 128.32H135.155L131.69 103.115H151.065L154.53 128.32Z" fill="#F5F5F5"/>
<path d="M136.865 126.335L133.945 105.1H149.35L152.27 126.335H136.865Z" fill="white"/>
<path d="M145.55 121.435H141.88C141.561 121.436 141.252 121.32 141.011 121.111C140.77 120.901 140.614 120.611 140.57 120.295L139.36 111.5C139.333 111.313 139.347 111.122 139.4 110.941C139.454 110.76 139.546 110.592 139.67 110.45C139.795 110.309 139.949 110.196 140.122 110.118C140.294 110.04 140.481 110 140.67 110H144.34C144.659 110 144.967 110.116 145.208 110.325C145.448 110.535 145.605 110.824 145.65 111.14L146.86 119.935C146.886 120.122 146.871 120.312 146.817 120.493C146.763 120.674 146.671 120.841 146.547 120.983C146.422 121.125 146.269 121.239 146.097 121.317C145.925 121.395 145.739 121.435 145.55 121.435ZM141.05 120.225C141.078 120.422 141.175 120.602 141.325 120.732C141.475 120.862 141.666 120.935 141.865 120.935H145.535C145.652 120.935 145.768 120.911 145.875 120.862C145.982 120.814 146.078 120.743 146.155 120.655C146.232 120.566 146.289 120.461 146.323 120.348C146.356 120.235 146.366 120.117 146.35 120L145.14 111.21C145.112 111.013 145.015 110.833 144.865 110.703C144.715 110.573 144.524 110.5 144.325 110.5H140.655C140.537 110.499 140.421 110.523 140.314 110.572C140.207 110.62 140.112 110.691 140.035 110.78C139.957 110.867 139.898 110.971 139.865 111.083C139.831 111.196 139.822 111.314 139.84 111.43L141.05 120.225Z" fill="#F5F5F5"/>
<path d="M105.75 45.625H31.5601V123.915H105.75V45.625Z" fill="#E6E6E6"/>
<path d="M113.705 43.09H26.7599C26.663 43.09 26.567 43.1092 26.4775 43.1464C26.388 43.1837 26.3067 43.2383 26.2384 43.307C26.1701 43.3758 26.1161 43.4574 26.0794 43.5472C26.0428 43.6369 26.0243 43.7331 26.0249 43.83C26.0249 44.0249 26.1024 44.2119 26.2402 44.3497C26.378 44.4876 26.565 44.565 26.7599 44.565H113.705C113.9 44.565 114.087 44.4876 114.225 44.3497C114.362 44.2119 114.44 44.0249 114.44 43.83C114.441 43.7331 114.422 43.6369 114.385 43.5472C114.349 43.4574 114.295 43.3758 114.226 43.307C114.158 43.2383 114.077 43.1837 113.987 43.1464C113.898 43.1092 113.802 43.09 113.705 43.09Z" fill="#E6E6E6"/>
<path d="M108.905 45.625H33.0349V123.915H108.905V45.625Z" fill="#F0F0F0"/>
<path d="M104.495 119.51V50.035L37.4401 50.035V119.51H104.495Z" fill="#FAFAFA"/>
<path d="M52.6599 119.51L78.5299 50.03H90.7399L64.8749 119.51H52.6599Z" fill="white"/>
<path d="M67.4951 119.51L93.3651 50.03H98.1251L72.2551 119.51H67.4951Z" fill="white"/>
<path d="M104.495 119.505V50.03H103.935V119.505H104.495Z" fill="#E6E6E6"/>
<g opacity="0.6">
<path d="M35.6199 154.035H26.3049L27.7799 41.775H37.0999L35.6199 154.035Z" fill="#F0F0F0"/>
<path d="M39.25 154.035H31.99L33.47 41.775H40.725L39.25 154.035Z" fill="#E6E6E6"/>
<path d="M44.9349 154.035H35.6199L37.0999 41.775H46.4149L44.9349 154.035Z" fill="#F0F0F0"/>
<path d="M48.5649 154.035H41.3049L42.7849 41.775H50.0449L48.5649 154.035Z" fill="#E6E6E6"/>
<path d="M54.2498 154.035H44.9348L46.4148 41.775H55.7298L54.2498 154.035Z" fill="#F0F0F0"/>
</g>
<g opacity="0.6">
<path d="M107.365 154.035H112.63L113.335 41.775H108.07L107.365 154.035Z" fill="#F0F0F0"/>
<path d="M105.315 154.035H109.415L110.125 41.775H106.02L105.315 154.035Z" fill="#E6E6E6"/>
<path d="M102.1 154.035H107.365L108.07 41.775H102.805L102.1 154.035Z" fill="#F0F0F0"/>
<path d="M100.05 154.035H104.15L104.86 41.775H100.755L100.05 154.035Z" fill="#E6E6E6"/>
<path d="M96.835 154.035H102.1L102.805 41.775H97.54L96.835 154.035Z" fill="#F0F0F0"/>
</g>
<path d="M125 213.78C178.541 213.78 221.945 211.246 221.945 208.12C221.945 204.994 178.541 202.46 125 202.46C71.4587 202.46 28.0549 204.994 28.0549 208.12C28.0549 211.246 71.4587 213.78 125 213.78Z" fill="#F5F5F5"/>
<path d="M142.31 59.395C139.31 55.335 140.005 51.79 142.31 49.24C145.185 46.04 149.88 46.065 153.01 47.7C157.91 50.255 158.965 61.45 150.78 63.03C147.876 62.0161 145.046 60.8015 142.31 59.395Z" fill="#263238"/>
<path d="M152.055 48.405C155.055 46.64 154.22 43.215 156.93 41.405C160.7 38.905 168.825 39.99 166.285 46.24C163.745 52.49 172.785 52.85 170.16 59.06C167.535 65.27 159.91 69.06 157.95 60.06C156.485 53.315 162.71 44.625 157.685 45.56C154.55 46.14 153.505 49.365 153.505 49.365L152.055 48.405Z" fill="#263238"/>
<path d="M144.6 74.875C144.19 76.01 143.745 77.04 143.27 78.105C142.795 79.17 142.27 80.195 141.72 81.22C140.613 83.371 139.222 85.3638 137.585 87.145C137.117 87.6438 136.603 88.0974 136.05 88.5C135.503 88.888 134.921 89.2228 134.31 89.5C133.185 90.0033 132.013 90.3919 130.81 90.66C128.532 91.1862 126.199 91.4397 123.86 91.415C123.598 91.4107 123.346 91.3114 123.151 91.1356C122.956 90.9598 122.832 90.7194 122.801 90.4588C122.77 90.1983 122.834 89.9352 122.982 89.7185C123.13 89.5018 123.351 89.346 123.605 89.28H123.655C125.747 88.7909 127.806 88.1714 129.82 87.425C130.767 87.0722 131.683 86.6424 132.56 86.14C132.951 85.9161 133.322 85.6603 133.67 85.375C134.007 85.0932 134.318 84.7819 134.6 84.445C135.244 83.684 135.825 82.8713 136.335 82.015C136.875 81.13 137.395 80.215 137.875 79.26C138.825 77.37 139.725 75.35 140.5 73.41V73.38C140.706 72.8409 141.117 72.4056 141.643 72.1698C142.17 71.934 142.769 71.9169 143.308 72.1225C143.847 72.328 144.282 72.7393 144.518 73.2658C144.754 73.7923 144.771 74.3909 144.565 74.93L144.6 74.875Z" fill="#B55B52"/>
<path d="M143.95 71.175C139.82 71.645 137.545 77.84 137.545 77.84L141.775 83.8C141.775 83.8 146.775 78.135 147.21 75.605C147.645 73 147 70.82 143.95 71.175Z" fill="#263238"/>
<path opacity="0.2" d="M141.69 74.965C143.075 74.095 144.585 74.575 145.87 76.19C146.136 76.6535 146.314 77.162 146.395 77.69C145.145 79.955 141.77 83.795 141.77 83.795L139.835 81.07C139.69 79.46 140.795 75.5 141.69 74.965Z" fill="black"/>
<path d="M124.615 89.5L121.5 87.82L121.415 91.88C121.415 91.88 123.495 92.33 124.87 91.22L124.615 89.5Z" fill="#B55B52"/>
<path d="M118.375 87.96L118.92 91.275L121.435 91.88L121.52 87.82L118.375 87.96Z" fill="#B55B52"/>
<path d="M134.075 80.655L131.345 78.415L112.745 106.36L115.5 108.6C118.64 111.17 125.345 107 130.5 99.28C135.655 91.56 137.215 83.225 134.075 80.655Z" fill="#5C40CC"/>
<path opacity="0.1" d="M134.075 80.655L131.345 78.415L112.745 106.36L115.5 108.6C118.64 111.17 125.345 107 130.5 99.28C135.655 91.56 137.215 83.225 134.075 80.655Z" fill="black"/>
<path d="M128.217 96.2918C133.179 88.4485 134.439 80.3429 131.032 78.1874C127.625 76.0318 120.841 80.6427 115.879 88.4859C110.916 96.3292 109.656 104.435 113.063 106.59C116.47 108.746 123.255 104.135 128.217 96.2918Z" fill="#5C40CC"/>
<path d="M118.595 96.97L121.095 93.2C120.841 92.427 120.829 91.5951 121.06 90.815C121.346 89.8315 121.79 88.901 122.375 88.06C122.902 87.2101 123.592 86.4727 124.405 85.89C125.1 85.43 125.695 85.32 126.18 85.56L126.79 84.65L127.32 85.085L126.72 86C126.883 86.2547 126.992 86.54 127.04 86.8385C127.088 87.1369 127.075 87.442 127 87.735C126.805 88.6173 126.468 89.4618 126 90.235L124.875 89.775C125.225 89.2416 125.4 88.6124 125.375 87.975L123.03 91.475C123.353 92.268 123.419 93.1423 123.22 93.975C122.583 95.9738 121.364 97.7372 119.72 99.04C118.96 99.5667 118.285 99.7183 117.695 99.495L117.09 100.405L116.56 99.97L117.135 99.105C116.956 98.8076 116.841 98.4762 116.797 98.1318C116.753 97.7875 116.781 97.4378 116.88 97.105C117.151 95.9902 117.596 94.9253 118.2 93.95L119.35 94.5C119.095 94.9495 118.891 95.4257 118.74 95.92C118.631 96.259 118.582 96.6142 118.595 96.97ZM124.885 87.5C124.606 87.5273 124.344 87.6429 124.135 87.83C123.555 88.3097 123.126 88.947 122.9 89.665C122.797 89.9705 122.768 90.2961 122.815 90.615L124.885 87.5ZM119.045 97.5C119.199 97.5233 119.356 97.5121 119.504 97.4671C119.653 97.4222 119.79 97.3446 119.905 97.24C120.62 96.6832 121.144 95.9179 121.405 95.05C121.505 94.7024 121.496 94.3325 121.38 93.99L119.045 97.5Z" fill="white"/>
<path opacity="0.1" d="M130.525 87.69C130.895 85.24 130.525 83.275 129.365 82.31C126.81 80.215 121.365 83.615 117.16 89.9C115.393 92.4887 114.088 95.3648 113.305 98.4C113.735 95.53 115.16 91.995 117.415 88.6C121.6 82.315 127.065 78.92 129.62 81.01C131 82.135 131.25 84.64 130.525 87.69Z" fill="black"/>
<path d="M166.775 180.905L162.575 181.305L160.435 171.52L164.635 171.12L166.775 180.905Z" fill="#B55B52"/>
<path d="M190.17 174.855L186.265 176.385L182.5 167.105L186.405 165.575L190.17 174.855Z" fill="#B55B52"/>
<path d="M185.13 174.465L189.41 172.335C189.484 172.298 189.568 172.289 189.648 172.31C189.728 172.33 189.798 172.378 189.845 172.445L192.015 175.59C192.07 175.671 192.107 175.764 192.123 175.861C192.139 175.958 192.134 176.057 192.109 176.152C192.083 176.247 192.037 176.335 191.975 176.41C191.912 176.486 191.834 176.547 191.745 176.59C190.245 177.31 189.585 177.665 187.7 178.59C186.54 179.165 183.955 180.52 182.355 181.315C180.755 182.11 179.885 180.57 180.48 180.095C183.145 177.97 184.025 176.365 184.61 175.02C184.713 174.78 184.897 174.583 185.13 174.465Z" fill="#263238"/>
<path d="M161.755 179.125H166.805C166.895 179.125 166.983 179.155 167.054 179.21C167.126 179.266 167.177 179.343 167.2 179.43L168.3 183.43C168.328 183.524 168.333 183.624 168.314 183.721C168.296 183.817 168.256 183.908 168.196 183.986C168.136 184.064 168.058 184.127 167.97 184.169C167.881 184.212 167.783 184.232 167.685 184.23C165.92 184.2 165.075 184.23 162.855 184.23H156.075C154.23 184.23 153.825 182.36 154.575 182.195C158 181.435 159.975 180.39 161.03 179.395C161.227 179.214 161.487 179.117 161.755 179.125Z" fill="#263238"/>
<path opacity="0.2" d="M160.44 171.525L161.54 176.565H165.83L164.64 171.12L160.44 171.525Z" fill="black"/>
<path opacity="0.2" d="M186.405 165.58L182.5 167.11L184.445 171.89L188.345 170.36L186.405 165.58Z" fill="black"/>
<path d="M156.77 66.95C160.11 66.565 162.27 68.155 162.42 71.49C162.86 83.245 164.16 85.95 166.125 92.03L149.47 96.665C143.55 83.845 141.47 77.8 140.81 74.955C140.673 74.2938 140.756 73.6058 141.047 72.9963C141.337 72.3868 141.82 71.8893 142.42 71.58C146.854 69.1105 151.729 67.5373 156.77 66.95Z" fill="#263238"/>
<path d="M151.705 59.07C151.905 61.635 152.57 66.07 154.705 67.245C154.705 67.245 154.39 68.83 148.87 74.115C145.465 71.245 147.205 69.32 147.205 69.32C149.74 67.915 149.145 66.085 148.145 64.32L151.705 59.07Z" fill="#B55B52"/>
<path opacity="0.2" d="M151.32 59.645C151.684 61.1027 151.736 62.6211 151.47 64.1C151.28 65.1 150.19 65.86 148.97 66.295C148.804 65.6004 148.53 64.9358 148.16 64.325L151.32 59.645Z" fill="black"/>
<path d="M152.685 54.225C153.5 58.37 153.935 60.105 152.425 62.725C150.15 66.685 144.88 66.785 142.84 62.965C141.005 59.53 139.975 53.33 143.545 50.66C144.33 50.0684 145.254 49.6873 146.227 49.5531C147.201 49.4189 148.193 49.536 149.109 49.8933C150.025 50.2505 150.835 50.836 151.46 51.5942C152.086 52.3524 152.508 53.258 152.685 54.225Z" fill="#B55B52"/>
<path d="M154.85 56.75C154.911 57.1496 154.892 57.5574 154.794 57.9496C154.696 58.3419 154.522 58.7108 154.28 59.035C153.63 59.9 152.65 59.48 152.28 58.535C151.95 57.675 151.885 56.185 152.805 55.665C153.006 55.5546 153.232 55.496 153.462 55.4944C153.691 55.4928 153.917 55.5483 154.12 55.6559C154.323 55.7635 154.496 55.9198 154.623 56.1108C154.751 56.3018 154.829 56.5214 154.85 56.75Z" fill="#B55B52"/>
<path d="M149.05 52.03C148.895 53.615 150.165 56.325 152.55 56.955C155.02 54.115 153.39 50.22 151.12 50.14C148.85 50.06 149.05 52.03 149.05 52.03Z" fill="#263238"/>
<path d="M145.72 47.71C142.075 47.875 138.165 49.5 139.52 55.21C142.7 54.545 151.55 53.555 152.23 51.285C151.335 48.37 148.11 47.6 145.72 47.71Z" fill="#263238"/>
<path d="M149.47 96.665C149.47 96.665 148.5 130.305 151.205 143C154.01 156.21 160.345 175.09 160.345 175.09L166.295 174.705C166.295 174.705 162.45 150.02 161.295 139.835C159.665 125.795 161.69 93.26 161.69 93.26L149.47 96.665Z" fill="#5C40CC"/>
<path opacity="0.2" d="M157.85 107.185C158.12 104.135 160.42 104.72 160.935 108.85C160.71 115.35 160.55 122.895 160.68 129.5C158.2 124.655 157.235 114.125 157.85 107.185Z" fill="black"/>
<path d="M167.05 175.09L159.885 175.575L158.89 172.215L166.645 171.395L167.05 175.09Z" fill="#263238"/>
<path d="M155.345 95.03C155.345 95.03 160.415 123.23 167.3 138.405C172.86 150.66 182.935 170.405 182.935 170.405L188.4 168.36C188.4 168.36 179.855 145.945 176.765 137.325C169.07 115.825 173.265 102.775 166.125 92.03L155.345 95.03Z" fill="#5C40CC"/>
<path d="M189.045 168.88L182.74 171.075L180.945 167.845L188.45 165.985L189.045 168.88Z" fill="#263238"/>
<path d="M166.1 91L167.27 92.285C167.36 92.385 167.27 92.54 167.06 92.59L149.595 97.455C149.445 97.495 149.3 97.455 149.265 97.365L148.7 95.915C148.66 95.815 148.765 95.69 148.93 95.645L165.795 90.95C165.846 90.9304 165.901 90.9247 165.954 90.9335C166.008 90.9423 166.058 90.9652 166.1 91Z" fill="#263238"/>
<path d="M164.36 93.5L164.815 93.37C164.905 93.345 164.96 93.28 164.935 93.225L164.185 91.35C164.185 91.295 164.075 91.27 163.985 91.295L163.53 91.42C163.44 91.42 163.385 91.51 163.405 91.565L164.16 93.445C164.18 93.5 164.27 93.525 164.36 93.5Z" fill="#5C40CC"/>
<path d="M150.91 97.24L151.365 97.115C151.45 97.115 151.51 97.025 151.485 96.97L150.735 95.095C150.735 95.04 150.62 95.015 150.53 95.04L150.08 95.165C149.99 95.165 149.935 95.255 149.955 95.31L150.705 97.19C150.73 97.245 150.82 97.265 150.91 97.24Z" fill="#5C40CC"/>
<path d="M157.635 95.37L158.09 95.245C158.18 95.22 158.235 95.155 158.21 95.1L157.46 93.22C157.46 93.165 157.345 93.14 157.255 93.165L156.805 93.29C156.715 93.29 156.66 93.385 156.68 93.44L157.435 95.315C157.455 95.37 157.545 95.395 157.635 95.37Z" fill="#5C40CC"/>
<path d="M146.795 57C146.88 57.335 146.795 57.65 146.56 57.705C146.325 57.76 146.095 57.54 146.01 57.205C145.925 56.87 146.01 56.56 146.245 56.5C146.48 56.44 146.71 56.655 146.795 57Z" fill="#263238"/>
<path d="M143.04 57.97C143.13 58.3 143.04 58.615 142.805 58.675C142.57 58.735 142.34 58.505 142.255 58.175C142.17 57.845 142.255 57.525 142.49 57.47C142.725 57.415 142.955 57.635 143.04 57.97Z" fill="#263238"/>
<path d="M142.59 57.465L141.735 57.44C141.735 57.44 142.305 57.96 142.59 57.465Z" fill="#263238"/>
<path d="M144.185 58.28C144.087 59.115 143.875 59.9326 143.555 60.71C143.756 60.7868 143.971 60.8186 144.185 60.8031C144.4 60.7875 144.608 60.725 144.795 60.62L144.185 58.28Z" fill="#A02724"/>
<path d="M146.265 61.625C146.246 61.6216 146.228 61.6128 146.214 61.5994C146.2 61.5861 146.19 61.5689 146.185 61.55C146.181 61.5375 146.18 61.5244 146.182 61.5115C146.183 61.4985 146.188 61.486 146.194 61.4748C146.201 61.4635 146.209 61.4537 146.22 61.446C146.23 61.4383 146.242 61.4329 146.255 61.43C146.671 61.3315 147.057 61.1362 147.383 60.8598C147.709 60.5835 147.965 60.2341 148.13 59.84C148.134 59.827 148.141 59.8149 148.149 59.8045C148.158 59.7941 148.169 59.7856 148.181 59.7795C148.193 59.7734 148.207 59.7699 148.22 59.7691C148.234 59.7683 148.247 59.7703 148.26 59.775C148.285 59.7841 148.305 59.8019 148.317 59.825C148.329 59.8481 148.332 59.8748 148.325 59.9C148.153 60.3258 147.882 60.7043 147.534 61.0043C147.186 61.3043 146.772 61.5171 146.325 61.625C146.306 61.6308 146.285 61.6308 146.265 61.625Z" fill="#263238"/>
<path d="M147.53 55.5C147.494 55.4954 147.461 55.4797 147.435 55.455C147.241 55.2925 147.011 55.1786 146.764 55.123C146.517 55.0673 146.26 55.0714 146.015 55.135C145.964 55.1509 145.909 55.1462 145.861 55.1219C145.813 55.0976 145.777 55.0556 145.76 55.005C145.751 54.9801 145.747 54.9535 145.748 54.927C145.749 54.9004 145.756 54.8744 145.767 54.8505C145.779 54.8266 145.796 54.8054 145.816 54.7881C145.836 54.7708 145.86 54.7578 145.885 54.75C146.194 54.666 146.519 54.6576 146.833 54.7255C147.146 54.7933 147.438 54.9355 147.685 55.14C147.718 55.1684 147.742 55.2068 147.752 55.2495C147.762 55.2922 147.758 55.337 147.741 55.3773C147.723 55.4176 147.693 55.4512 147.656 55.4733C147.618 55.4954 147.574 55.5048 147.53 55.5Z" fill="#263238"/>
<path d="M140.805 56.69H140.765C140.74 56.6816 140.717 56.6682 140.697 56.6508C140.677 56.6334 140.661 56.6122 140.649 56.5885C140.638 56.5648 140.631 56.5391 140.629 56.5127C140.628 56.4864 140.631 56.4599 140.64 56.435C140.737 56.1296 140.907 55.8521 141.134 55.6258C141.361 55.3996 141.639 55.2312 141.945 55.135C141.971 55.1283 141.997 55.1267 142.023 55.1303C142.05 55.134 142.075 55.1428 142.098 55.1563C142.121 55.1698 142.14 55.1877 142.156 55.2089C142.172 55.2301 142.184 55.2543 142.19 55.28C142.202 55.3323 142.193 55.3873 142.165 55.4332C142.137 55.479 142.092 55.512 142.04 55.525C141.802 55.6061 141.588 55.7429 141.414 55.9238C141.24 56.1047 141.112 56.3245 141.04 56.565C141.023 56.611 140.99 56.6492 140.946 56.6723C140.903 56.6953 140.853 56.7016 140.805 56.69Z" fill="#263238"/>
<path d="M160.375 74.82C159.075 77.5 157.725 80.13 156.3 82.745C155.59 84.055 154.88 85.365 154.125 86.655C153.37 87.945 152.625 89.24 151.73 90.535C151.525 90.855 151.27 91.195 151.03 91.535L150.94 91.655L150.895 91.72L150.82 91.815C150.715 91.945 150.61 92.055 150.505 92.165C150.314 92.3587 150.108 92.5376 149.89 92.7C149.17 93.2266 148.387 93.6616 147.56 93.995C146.1 94.5846 144.595 95.0561 143.06 95.405C140.121 96.0844 137.136 96.5506 134.13 96.8L133.79 94.67C135.185 94.3 136.605 93.91 138 93.505C139.395 93.1 140.78 92.67 142.13 92.2C143.445 91.7572 144.729 91.2294 145.975 90.62C146.5 90.361 146.995 90.044 147.45 89.675C147.525 89.6131 147.593 89.5445 147.655 89.47C147.673 89.4477 147.69 89.4244 147.705 89.4L147.815 89.23C147.99 88.955 148.17 88.695 148.35 88.385C149.06 87.19 149.76 85.91 150.44 84.63L152.465 80.745L156.465 72.905L160.375 74.82Z" fill="#B55B52"/>
<path d="M135.16 94.69L132.215 93.56L132.465 97.715C132.465 97.715 134.78 97.715 135.85 96.29L135.16 94.69Z" fill="#B55B52"/>
<path d="M129.9 93.68L129.27 96.735L132.465 97.715L132.215 93.56L129.9 93.68Z" fill="#B55B52"/>
<path d="M156.75 69.1C155.105 69.855 153.195 76.69 153.195 76.69L160.32 77.5C160.32 77.5 161.7 74.18 161.42 72.475C161 69.75 158.625 68.24 156.75 69.1Z" fill="#263238"/>
<path d="M183 175.685C182.973 175.638 182.951 175.587 182.935 175.535C182.912 175.479 182.904 175.418 182.913 175.358C182.922 175.298 182.947 175.242 182.985 175.195C183.33 174.775 184.86 174.945 185.03 174.965C185.05 174.966 185.069 174.974 185.084 174.986C185.099 174.999 185.11 175.016 185.115 175.035C185.122 175.053 185.122 175.073 185.117 175.092C185.111 175.111 185.1 175.128 185.085 175.14C184.65 175.505 183.84 176.09 183.32 175.94C183.252 175.922 183.188 175.891 183.133 175.847C183.078 175.803 183.032 175.748 183 175.685ZM184.765 175.14C184.15 175.09 183.325 175.1 183.14 175.32C183.126 175.343 183.119 175.37 183.119 175.398C183.119 175.425 183.126 175.452 183.14 175.475C183.155 175.538 183.185 175.597 183.229 175.645C183.273 175.693 183.328 175.729 183.39 175.75C183.665 175.83 184.175 175.605 184.775 175.14H184.765Z" fill="#5C40CC"/>
<path d="M183.375 174.305C183.356 174.268 183.341 174.23 183.33 174.19C183.309 174.113 183.315 174.031 183.347 173.957C183.379 173.883 183.434 173.823 183.505 173.785C183.57 173.743 183.644 173.715 183.72 173.703C183.797 173.692 183.876 173.698 183.95 173.72C184.545 173.88 185.095 174.975 185.12 175.02C185.129 175.035 185.133 175.052 185.133 175.07C185.133 175.088 185.129 175.105 185.12 175.12C185.11 175.134 185.097 175.146 185.081 175.154C185.065 175.162 185.048 175.166 185.03 175.165C184.394 175.084 183.807 174.779 183.375 174.305ZM184.83 174.91C184.625 174.55 184.245 174.005 183.895 173.91C183.849 173.895 183.801 173.891 183.753 173.898C183.705 173.905 183.66 173.923 183.62 173.95C183.51 174.02 183.51 174.085 183.525 174.13C183.6 174.42 184.34 174.825 184.845 174.93L184.83 174.91Z" fill="#5C40CC"/>
<path d="M159.5 179.955C159.15 179.983 158.801 179.901 158.5 179.72C158.421 179.663 158.357 179.588 158.312 179.501C158.268 179.414 158.245 179.318 158.245 179.22C158.238 179.167 158.246 179.113 158.268 179.065C158.29 179.016 158.326 178.975 158.37 178.945C158.825 178.635 160.545 179.415 160.87 179.575C160.89 179.584 160.906 179.599 160.917 179.618C160.928 179.637 160.932 179.658 160.93 179.68C160.927 179.701 160.918 179.72 160.904 179.735C160.889 179.751 160.871 179.761 160.85 179.765C160.408 179.875 159.956 179.939 159.5 179.955ZM158.695 179.085C158.626 179.081 158.556 179.096 158.495 179.13C158.495 179.13 158.455 179.165 158.46 179.225C158.462 179.291 158.478 179.355 158.508 179.413C158.539 179.471 158.582 179.521 158.635 179.56C158.93 179.785 159.635 179.815 160.535 179.645C159.959 179.366 159.344 179.177 158.71 179.085H158.695Z" fill="#5C40CC"/>
<path d="M160.875 179.785H160.835C160.265 179.555 159.115 178.63 159.18 178.155C159.18 178.05 159.265 177.92 159.525 177.89C160.525 177.77 160.955 179.595 160.975 179.67C160.978 179.688 160.977 179.707 160.97 179.724C160.964 179.742 160.954 179.758 160.94 179.77C160.921 179.782 160.898 179.787 160.875 179.785ZM159.62 178.075H159.55C159.445 178.075 159.39 178.12 159.38 178.17C159.345 178.445 160.14 179.17 160.72 179.49C160.585 179.055 160.225 178.075 159.62 178.075Z" fill="#5C40CC"/>
<path d="M146.345 56.5H145.485C145.485 56.5 146.06 57 146.345 56.5Z" fill="#263238"/>
<path d="M148.31 184.235H175.67C175.858 184.235 176.039 184.31 176.172 184.443C176.305 184.576 176.38 184.757 176.38 184.945V187.255H147.605V184.945C147.605 184.758 147.679 184.578 147.811 184.445C147.943 184.312 148.123 184.236 148.31 184.235Z" fill="#263238"/>
<path d="M176.625 194.9H147.85V197.915H176.625V194.9Z" fill="#263238"/>
<path opacity="0.5" d="M176.625 194.9H157.6V197.915H176.625V194.9Z" fill="black"/>
<path d="M160.37 187.25L157.135 207.5C157.108 207.667 157.023 207.818 156.895 207.928C156.767 208.038 156.604 208.099 156.435 208.1H154.85C154.748 208.1 154.647 208.077 154.554 208.034C154.461 207.991 154.378 207.929 154.312 207.851C154.245 207.773 154.196 207.682 154.168 207.583C154.141 207.485 154.134 207.381 154.15 207.28L157.355 187.23L160.37 187.25Z" fill="#263238"/>
<path opacity="0.5" d="M160.37 187.25L160.125 188.79H157.105L157.355 187.25H160.37Z" fill="black"/>
<path d="M150.62 187.25L147.385 207.5C147.358 207.667 147.273 207.818 147.145 207.928C147.017 208.038 146.854 208.099 146.685 208.1H145.1C144.998 208.1 144.897 208.077 144.804 208.034C144.711 207.991 144.628 207.929 144.562 207.851C144.495 207.773 144.446 207.682 144.418 207.583C144.391 207.485 144.384 207.381 144.4 207.28L147.605 187.23L150.62 187.25Z" fill="#263238"/>
<path d="M179.58 207.3L176.38 187.25H173.38L176.6 207.5C176.626 207.667 176.711 207.819 176.839 207.929C176.968 208.039 177.131 208.1 177.3 208.1H178.88C178.981 208.099 179.08 208.077 179.171 208.036C179.263 207.994 179.344 207.933 179.41 207.858C179.476 207.782 179.526 207.693 179.555 207.597C179.584 207.501 179.593 207.4 179.58 207.3Z" fill="#263238"/>
<path opacity="0.5" d="M176.625 188.79L176.38 187.25H173.36L173.605 188.79H176.625Z" fill="black"/>
<path d="M169.83 207.3L166.63 187.25H163.63L166.85 207.5C166.876 207.667 166.961 207.819 167.089 207.929C167.218 208.039 167.381 208.1 167.55 208.1H169.13C169.231 208.099 169.33 208.077 169.421 208.036C169.513 207.994 169.594 207.933 169.66 207.858C169.726 207.782 169.776 207.693 169.805 207.597C169.834 207.501 169.843 207.4 169.83 207.3Z" fill="#263238"/>
<path opacity="0.5" d="M169.83 207.3L166.63 187.25H163.63L166.85 207.5C166.876 207.667 166.961 207.819 167.089 207.929C167.218 208.039 167.381 208.1 167.55 208.1H169.13C169.231 208.099 169.33 208.077 169.421 208.036C169.513 207.994 169.594 207.933 169.66 207.858C169.726 207.782 169.776 207.693 169.805 207.597C169.834 207.501 169.843 207.4 169.83 207.3Z" fill="black"/>
<path opacity="0.5" d="M157.355 184.235H175.67C175.858 184.235 176.039 184.31 176.172 184.443C176.305 184.576 176.38 184.757 176.38 184.945V187.255H157.38V184.255L157.355 184.235Z" fill="black"/>
<path d="M72.8899 205.365L76.8949 198.015L62.57 185.46L61.45 205.365H72.8899Z" fill="#5C40CC"/>
<path opacity="0.1" d="M72.8899 205.365L76.8949 198.015L62.57 185.46L61.45 205.365H72.8899Z" fill="black"/>
<path d="M122.26 121.61C130.295 116.11 137.025 116.675 139.26 118.28C141.495 119.885 134.395 132.075 134.395 132.075C131.74 131.304 129.282 129.97 127.188 128.164C125.094 126.358 123.413 124.123 122.26 121.61Z" fill="#5C40CC"/>
<path opacity="0.2" d="M126.085 127.135C130.61 122.69 135.225 121.265 136.475 122.01C137.725 122.755 133.71 131.325 133.71 131.325C133.71 131.325 128.285 132.105 126.085 127.135Z" fill="black"/>
<path d="M52.445 138.85L51.99 138.62C53.2462 136.148 54.7239 133.795 56.405 131.59L56.81 131.9C55.1501 134.082 53.6893 136.408 52.445 138.85Z" fill="#5C40CC"/>
<path d="M50.0649 144.5L49.5649 144.335C49.9449 143.22 50.3749 142.105 50.8449 141.025L51.3149 141.23C50.8649 142.29 50.4399 143.39 50.0649 144.5Z" fill="#5C40CC"/>
<path d="M143.555 158.375C143.555 183.2 124.865 203.32 97.8849 203.32C70.9049 203.32 49.0349 183.2 49.0349 158.375C49.0349 133.55 70.9049 113.43 97.8849 113.43C124.865 113.43 143.555 133.55 143.555 158.375Z" fill="#5C40CC"/>
<path opacity="0.1" d="M91.3749 198.56L89.4199 202.65C90.8333 202.88 92.2683 203.047 93.7249 203.15L91.3749 198.56Z" fill="black"/>
<path d="M88.415 208.12L94.035 198.015L76.06 191.445L73.76 208.12H88.415Z" fill="#5C40CC"/>
<path d="M114.595 208.12L109.725 198.015L126.84 191.445L127.975 208.12H114.595Z" fill="#5C40CC"/>
<path opacity="0.2" d="M126.89 164.87C126.89 171.59 120.95 177.035 113.645 177.035C106.34 177.035 100.425 171.59 100.425 164.87C100.425 158.15 106.345 152.705 113.645 152.705C120.945 152.705 126.89 158.15 126.89 164.87Z" fill="black"/>
<path opacity="0.2" d="M109.255 168.85C110.495 168.85 111.5 166.979 111.5 164.67C111.5 162.361 110.495 160.49 109.255 160.49C108.015 160.49 107.01 162.361 107.01 164.67C107.01 166.979 108.015 168.85 109.255 168.85Z" fill="black"/>
<path opacity="0.4" d="M93.1998 142.18C93.8448 144.145 93.2498 146.29 91.8748 146.965C90.4998 147.64 88.8748 146.59 88.2148 144.625C87.5548 142.66 88.1598 140.515 89.5348 139.84C90.9098 139.165 92.5548 140.21 93.1998 142.18Z" fill="black"/>
<path opacity="0.4" d="M128 142.27C127.5 144.235 128.115 146.355 129.355 147C130.595 147.645 131.995 146.575 132.485 144.605C132.975 142.635 132.37 140.52 131.13 139.875C129.89 139.23 128.5 140.3 128 142.27Z" fill="black"/>
<path opacity="0.2" d="M121.2 168.85C122.44 168.85 123.445 166.979 123.445 164.67C123.445 162.361 122.44 160.49 121.2 160.49C119.96 160.49 118.955 162.361 118.955 164.67C118.955 166.979 119.96 168.85 121.2 168.85Z" fill="black"/>
<path d="M83.6048 121.2C74.8998 113.99 67.1048 113.43 64.4148 114.74C61.7248 116.05 68.7198 130.185 68.7198 130.185C68.7198 130.185 78.2698 129.625 83.6048 121.2Z" fill="#5C40CC"/>
<path opacity="0.2" d="M78.7048 126.39C73.9298 120.89 68.7698 118.6 67.2648 119.17C65.7598 119.74 69.5748 129.5 69.5748 129.5C69.5748 129.5 75.7248 131.27 78.7048 126.39Z" fill="black"/>
<path opacity="0.4" d="M101.185 117.34H108.54C108.54 117.34 106.94 115.58 101.51 115.045C98.4346 114.795 95.3398 114.963 92.3098 115.545C92.3098 115.545 98.3698 115.41 101.185 117.34Z" fill="black"/>
</svg>
