<svg width="200" height="200" viewBox="0 0 200 200" fill="none" xmlns="http://www.w3.org/2000/svg">
<path d="M185.72 28.044C186.12 30.868 184.004 32.844 179.616 33.452L170.792 34.652L168.536 18.312L176.896 17.16C181.192 16.568 183.532 18.028 183.88 20.548C183.995 21.2859 183.895 22.0413 183.593 22.7242C183.291 23.4071 182.799 23.9888 182.176 24.4C184.108 24.8 185.448 26.06 185.72 28.044ZM173.572 21.036L174 24.188L177.176 23.748C178.716 23.536 179.436 22.888 179.292 21.84C179.148 20.792 178.28 20.384 176.74 20.596L173.572 21.036ZM180.98 28.172C180.828 27.052 179.912 26.632 178.324 26.852L174.448 27.384L174.908 30.7L178.8 30.164C180.368 29.948 181.136 29.292 180.98 28.172Z" fill="#E0E0E0"/>
<path d="M32.976 122.22H15.22V125.032H32.976V122.22Z" fill="#EBEBEB"/>
<path d="M32.976 132.46H15.22V135.272H32.976V132.46Z" fill="#EBEBEB"/>
<path d="M24.096 127.52H15.22V130.332H24.096V127.52Z" fill="#EBEBEB"/>
<path d="M79.9799 146.06H66.3519V134.868H73.4119V137.228H68.7159V143.7H77.6199V141.348H79.9799V146.06Z" fill="#EBEBEB"/>
<path d="M87.8399 146.06H82.0319V143.7H85.4799V137.228H76.5719V140.244H74.2119V134.868H87.8399V146.06Z" fill="#EBEBEB"/>
<path d="M187.548 51.2001H189.904L186.604 67.6961H184.248L187.548 51.2001Z" fill="#EBEBEB"/>
<path d="M10.004 31.7841H46.764V85.0801H10.256L10.004 31.7841Z" fill="#E0E0E0"/>
<path d="M7.24397 84.828H43.668L43.668 32.032L7.24397 32.032L7.24397 84.828Z" fill="white"/>
<path d="M43.92 31.7841V85.0801H6.99597V31.7841H43.92ZM43.42 84.5841V32.2841H7.49597V84.5801L43.42 84.5841Z" fill="#E0E0E0"/>
<path d="M39.144 37.7521H11.772V79.1121H39.144V37.7521Z" fill="white"/>
<path d="M11.772 37.752C11.772 37.752 11.772 37.824 11.772 37.956C11.772 38.088 11.772 38.292 11.772 38.544C11.772 39.068 11.772 39.832 11.772 40.816C11.772 42.816 11.792 45.692 11.804 49.34C11.804 56.632 11.84 66.94 11.864 79.112L11.744 78.992H39.112L38.984 79.124C38.984 63.524 38.984 49.124 39.008 37.764L39.112 37.868L19.196 37.816L13.72 37.776H12.276H11.772C11.772 37.776 11.932 37.776 12.252 37.776H13.68L19.164 37.748L39.164 37.692H39.268V37.796C39.268 49.172 39.268 63.556 39.296 79.156V79.288H39.16H11.792H11.672V79.168C11.696 66.98 11.716 56.628 11.732 49.316C11.732 45.68 11.756 42.8 11.764 40.82C11.764 39.844 11.764 39.092 11.764 38.572C11.764 38.328 11.764 38.136 11.764 38C11.764 37.864 11.772 37.752 11.772 37.752Z" fill="#E0E0E0"/>
<path d="M7.14392 84.8281C7.30508 84.5042 7.50233 84.1996 7.73192 83.9201C8.13192 83.3801 8.67592 82.6481 9.33192 81.8521C9.98792 81.0561 10.5679 80.3601 11.0199 79.8521C11.243 79.5673 11.5026 79.3132 11.7919 79.0961C11.8479 79.1441 10.7999 80.4161 9.53592 82.0001C8.27192 83.5841 7.19992 84.8761 7.14392 84.8281Z" fill="#E0E0E0"/>
<path d="M7.24794 32.036C7.30394 31.992 8.36394 33.236 9.61194 34.812C10.8599 36.388 11.8279 37.708 11.7719 37.752C11.7159 37.796 10.6559 36.552 9.40794 34.976C8.15994 33.4 7.19994 32.08 7.24794 32.036Z" fill="#E0E0E0"/>
<path d="M43.6759 32.076L38.9039 37.9641L43.6759 32.076Z" fill="white"/>
<path d="M38.9039 37.964C38.8479 37.92 39.8719 36.564 41.1879 34.94C42.5039 33.316 43.6199 32.032 43.6759 32.076C43.7319 32.12 42.7079 33.476 41.3919 35.104C40.0759 36.732 38.9599 38 38.9039 37.964Z" fill="#E0E0E0"/>
<path d="M43.672 84.8281C43.612 84.8761 42.564 83.6281 41.332 82.0801C40.1 80.5321 39.136 79.2001 39.2 79.1721C39.264 79.1441 40.304 80.3721 41.54 81.9201C42.776 83.4681 43.728 84.8001 43.672 84.8281Z" fill="#E0E0E0"/>
<path d="M27.2239 59.036H22.3999L21.8239 60.364C21.6603 60.7077 21.5652 61.08 21.5439 61.46C21.5331 61.6293 21.5701 61.7982 21.6507 61.9475C21.7314 62.0967 21.8524 62.2203 21.9999 62.304C22.4274 62.4631 22.8798 62.5444 23.3359 62.544V62.916H18.7999V62.544C19.2575 62.4838 19.6808 62.2693 19.9999 61.936C20.5005 61.3146 20.905 60.6215 21.1999 59.88L26.0799 49H26.2719L31.1879 60.2C31.4577 60.9271 31.8486 61.6033 32.3439 62.2C32.6155 62.4253 32.9552 62.5522 33.3079 62.56V62.932H26.6999V62.56H26.9719C27.3572 62.5924 27.7438 62.5162 28.0879 62.34C28.1605 62.2873 28.2187 62.2171 28.2571 62.1361C28.2955 62.055 28.313 61.9656 28.3079 61.876C28.3069 61.7497 28.2867 61.6242 28.2479 61.504C28.2479 61.444 28.1359 61.192 27.9479 60.752L27.2239 59.036ZM26.8799 58.292L24.8519 53.6L22.7599 58.292H26.8799Z" fill="#E0E0E0"/>
<path d="M86.1641 187.752C85.5161 187.196 84.0681 185.432 85.1841 183.38C85.5841 182.628 86.4641 182.256 87.2481 181.924C88.0598 181.65 88.8247 181.254 89.5161 180.748C90.7441 179.704 91.0841 177.968 91.9161 176.572C92.8521 174.972 94.5961 173.772 96.4441 173.86C98.5561 173.956 100.32 175.68 101.12 177.648C101.92 179.616 101.944 181.804 101.964 183.928C101.964 185.104 101.92 186.428 101.056 187.224C100.256 187.956 99.0561 187.964 97.9841 187.932L86.4001 187.576" fill="#F5F5F5"/>
<path d="M108.256 156H77.8799L83.3519 188.628C83.4657 189.307 83.7695 189.941 84.2282 190.455C84.6869 190.969 85.2817 191.342 85.9439 191.532L86.0519 191.564C86.1439 191.584 86.2279 191.616 86.3239 191.632C86.527 191.672 86.733 191.697 86.9399 191.704V191.736L87.0879 191.712H100.628C100.878 191.711 101.127 191.686 101.372 191.636C102.164 191.513 102.895 191.134 103.45 190.556C104.006 189.977 104.357 189.233 104.448 188.436L107.084 165.952L107.204 165.06L108.248 156.156L108.256 156ZM102.528 176.8H99.4079L99.7239 167.332H103.324L102.528 176.8ZM103.64 167.332H106.624L105.512 176.8H102.828L103.64 167.332ZM94.7319 187.296L94.5439 179.072H99.0319L98.7599 187.296H94.7319ZM89.8799 179.072H94.2399L94.4319 187.296H90.5199L89.8799 179.072ZM90.2159 187.296H86.5599C86.2119 185.076 85.7599 182.192 85.2679 179.072H89.5759L90.2159 187.296ZM89.7039 176.8L88.9679 167.332H93.9719L94.1879 176.8H89.7039ZM94.5039 176.8L94.2839 167.332H99.4359L99.1079 176.8H94.5039ZM94.2319 165.06L93.9999 156.288H99.7719L99.4799 165.06H94.2319ZM93.9319 165.06H88.7999L88.1199 156.288H93.7199L93.9319 165.06ZM88.4999 165.06H83.0599C82.8679 163.86 82.6879 162.7 82.5239 161.672C81.9559 158.124 81.7439 156.792 81.6239 156.288H87.8039L88.4999 165.06ZM88.6759 167.332L89.3999 176.8H84.9119C84.7599 175.84 84.6079 174.868 84.4559 173.896C84.1039 171.66 83.7519 169.424 83.4199 167.332H88.6759ZM84.6079 176.8H81.6759L80.0759 167.332H83.1039C83.5999 170.256 84.0919 173.516 84.6079 176.8ZM84.9639 179.072C85.4119 181.916 85.8519 184.724 86.2519 187.296H83.4519L82.0719 179.072H84.9639ZM99.0599 187.296L99.3319 179.072H102.332L101.632 187.296H99.0599ZM99.7999 165.06L100.092 156.288H104.28L103.532 165.06H99.7999ZM81.3399 156.288C81.4599 156.924 82.0119 160.376 82.7559 165.06H79.7079L78.2359 156.288H81.3399ZM104.28 187.296H101.932L102.636 179.072H105.244L104.28 187.296ZM106.888 165.06H103.832L104.58 156.288H107.92L106.888 165.06Z" fill="#E0E0E0"/>
<path d="M190.66 192.66C190.66 192.72 149.708 192.764 99.204 192.764C48.7 192.764 7.73999 192.72 7.73999 192.66C7.73999 192.6 48.68 192.556 99.204 192.556C149.728 192.556 190.66 192.604 190.66 192.66Z" fill="#263238"/>
<path d="M160.2 15.2679H28.756V116.648H160.2V15.2679Z" fill="white"/>
<path d="M149.392 79.3999H36.48V82.7999H149.392V79.3999Z" fill="#EBEBEB"/>
<path d="M149.336 74.892H36.424V78.292H149.336V74.892Z" fill="#EBEBEB"/>
<path d="M149.336 70.324H36.424V73.724H149.336V70.324Z" fill="#EBEBEB"/>
<path d="M149.336 65.756H36.424V69.156H149.336V65.756Z" fill="#EBEBEB"/>
<path d="M149.392 84.068H36.48V87.468H149.392V84.068Z" fill="#EBEBEB"/>
<path d="M149.392 88.4719H36.48V91.8719H149.392V88.4719Z" fill="#EBEBEB"/>
<path d="M149.392 93.0559H36.48V96.4559H149.392V93.0559Z" fill="#EBEBEB"/>
<path d="M149.392 97.412H36.48V100.812H149.392V97.412Z" fill="#EBEBEB"/>
<path d="M149.392 101.6H36.48V105H149.392V101.6Z" fill="#EBEBEB"/>
<path d="M149.392 106.36H36.48V109.76H149.392V106.36Z" fill="#EBEBEB"/>
<path d="M160.332 15.168H28.756V22.712H160.332V15.168Z" fill="#5C40CC"/>
<path d="M37.952 30.52H37.152V30.224H39.116V30.52H38.316V32.6H37.98L37.952 30.52Z" fill="#263238"/>
<path d="M39.072 31.6999C39.0688 31.5142 39.121 31.3316 39.2219 31.1756C39.3228 31.0196 39.4679 30.8972 39.6386 30.8239C39.8093 30.7505 39.998 30.7297 40.1806 30.764C40.3632 30.7983 40.5315 30.8861 40.664 31.0164C40.7965 31.1466 40.8872 31.3134 40.9247 31.4954C40.9621 31.6773 40.9445 31.8664 40.8742 32.0383C40.8038 32.2103 40.6839 32.3574 40.5296 32.461C40.3754 32.5646 40.1938 32.6199 40.008 32.6199C39.885 32.6255 39.7621 32.6056 39.6471 32.5615C39.5321 32.5175 39.4274 32.4502 39.3396 32.3638C39.2517 32.2775 39.1826 32.174 39.1366 32.0598C39.0906 31.9455 39.0686 31.823 39.072 31.6999ZM40.612 31.6999C40.6073 31.581 40.5678 31.466 40.4984 31.3693C40.4289 31.2726 40.3326 31.1985 40.2214 31.156C40.1102 31.1135 39.989 31.1046 39.8728 31.1304C39.7566 31.1561 39.6505 31.2155 39.5677 31.301C39.4849 31.3865 39.429 31.4944 39.407 31.6114C39.3849 31.7284 39.3977 31.8493 39.4438 31.9591C39.4898 32.0688 39.5671 32.1627 39.6659 32.229C39.7648 32.2953 39.881 32.331 40 32.3319C40.0829 32.3349 40.1655 32.3205 40.2424 32.2895C40.3194 32.2585 40.389 32.2117 40.4467 32.1521C40.5044 32.0925 40.5489 32.0215 40.5774 31.9436C40.6059 31.8657 40.6177 31.7827 40.612 31.6999Z" fill="#263238"/>
<path d="M42.148 31.0159C42.1475 30.9857 42.153 30.9556 42.1642 30.9275C42.1754 30.8993 42.1921 30.8737 42.2133 30.8521C42.2346 30.8305 42.2599 30.8134 42.2878 30.8017C42.3157 30.79 42.3457 30.7839 42.376 30.7839C42.4375 30.7839 42.4965 30.8084 42.54 30.8519C42.5835 30.8954 42.608 30.9544 42.608 31.0159C42.608 31.0775 42.5835 31.1365 42.54 31.18C42.4965 31.2235 42.4375 31.2479 42.376 31.2479C42.3457 31.2479 42.3157 31.2419 42.2878 31.2302C42.2599 31.2185 42.2346 31.2013 42.2133 31.1797C42.1921 31.1582 42.1754 31.1325 42.1642 31.1044C42.153 31.0763 42.1475 31.0462 42.148 31.0159ZM42.148 32.3839C42.1475 32.3537 42.153 32.3236 42.1642 32.2955C42.1754 32.2673 42.1921 32.2417 42.2133 32.2201C42.2346 32.1985 42.2599 32.1814 42.2878 32.1697C42.3157 32.158 42.3457 32.1519 42.376 32.1519C42.4061 32.1519 42.4359 32.158 42.4636 32.1697C42.4913 32.1815 42.5164 32.1987 42.5373 32.2203C42.5582 32.242 42.5745 32.2676 42.5853 32.2958C42.5961 32.3239 42.6011 32.3539 42.6 32.3839C42.6011 32.4142 42.5961 32.4444 42.5853 32.4727C42.5746 32.5011 42.5583 32.527 42.5375 32.5489C42.5166 32.5709 42.4916 32.5885 42.4639 32.6007C42.4362 32.6129 42.4063 32.6194 42.376 32.6199C42.3169 32.62 42.2601 32.5971 42.2175 32.556C42.175 32.515 42.1501 32.459 42.148 32.3999V32.3839Z" fill="#263238"/>
<path d="M36.48 44.444L36.604 44.184C36.8237 44.3611 37.0977 44.4572 37.38 44.456C37.78 44.456 37.96 44.296 37.96 44.092C37.96 43.52 36.54 43.88 36.54 43.008C36.54 42.648 36.82 42.336 37.436 42.336C37.7026 42.3321 37.9648 42.4042 38.192 42.544L38.08 42.816C37.888 42.6919 37.6646 42.6253 37.436 42.624C37.036 42.624 36.868 42.792 36.868 42.996C36.868 43.568 38.288 43.212 38.288 44.072C38.288 44.432 38 44.74 37.38 44.74C37.0545 44.7499 36.736 44.6451 36.48 44.444Z" fill="#263238"/>
<path d="M40.4 42.9359V44.7119H40.096V44.4439C40.0259 44.537 39.9344 44.6117 39.8292 44.6619C39.7241 44.712 39.6084 44.736 39.492 44.7319C39.3881 44.7427 39.2832 44.7301 39.1848 44.695C39.0865 44.66 38.9972 44.6033 38.9236 44.5293C38.85 44.4553 38.7938 44.3658 38.7593 44.2672C38.7247 44.1687 38.7127 44.0637 38.724 43.9599V42.9359H39.048V43.9199C39.048 44.2719 39.224 44.4439 39.528 44.4439C39.6047 44.4487 39.6815 44.4365 39.7529 44.4081C39.8243 44.3796 39.8886 44.3357 39.941 44.2795C39.9934 44.2232 40.0327 44.1561 40.056 44.0828C40.0793 44.0096 40.0862 43.9321 40.076 43.8559V42.9359H40.4Z" fill="#263238"/>
<path d="M42.84 43.824C42.8462 43.9439 42.8274 44.0637 42.7847 44.1759C42.742 44.288 42.6764 44.3901 42.5921 44.4755C42.5078 44.5609 42.4067 44.6279 42.2951 44.672C42.1835 44.7162 42.0639 44.7366 41.944 44.732C41.8216 44.7376 41.6996 44.7132 41.5888 44.6609C41.4779 44.6086 41.3815 44.53 41.308 44.432V44.712H41V42.224H41.32V43.2C41.3945 43.1071 41.4898 43.033 41.5982 42.9836C41.7065 42.9343 41.825 42.9111 41.944 42.916C42.0641 42.9108 42.1839 42.9308 42.2958 42.9747C42.4077 43.0187 42.5091 43.0856 42.5935 43.1711C42.678 43.2567 42.7435 43.359 42.786 43.4714C42.8284 43.5839 42.8468 43.704 42.84 43.824ZM42.516 43.824C42.5105 43.7067 42.4707 43.5935 42.4016 43.4986C42.3324 43.4037 42.2369 43.3312 42.1269 43.29C42.0169 43.2489 41.8972 43.2409 41.7827 43.2671C41.6682 43.2934 41.564 43.3526 41.4828 43.4375C41.4017 43.5224 41.3473 43.6293 41.3263 43.7449C41.3053 43.8604 41.3187 43.9796 41.3648 44.0876C41.411 44.1956 41.4878 44.2877 41.5858 44.3525C41.6837 44.4173 41.7986 44.4519 41.916 44.452C41.9979 44.4545 42.0794 44.4397 42.1551 44.4086C42.2309 44.3776 42.2994 44.3309 42.3559 44.2717C42.4125 44.2125 42.456 44.142 42.4836 44.0649C42.5112 43.9877 42.5222 43.9057 42.516 43.824Z" fill="#263238"/>
<path d="M42.672 45.2759L42.776 45.0279C42.8501 45.0856 42.9422 45.1153 43.036 45.1119C43.208 45.1119 43.304 45.0039 43.304 44.7999V42.9359H43.624V44.7999C43.6332 44.8776 43.6249 44.9564 43.5999 45.0305C43.5749 45.1046 43.5337 45.1723 43.4794 45.2286C43.425 45.2848 43.3588 45.3283 43.2856 45.3559C43.2124 45.3834 43.134 45.3944 43.056 45.3879C42.9191 45.3943 42.784 45.3549 42.672 45.2759ZM43.244 42.3839C43.2445 42.3555 43.2506 42.3276 43.262 42.3016C43.2733 42.2755 43.2897 42.252 43.3101 42.2323C43.3305 42.2127 43.3546 42.1972 43.381 42.1868C43.4074 42.1764 43.4356 42.1714 43.464 42.1719C43.5056 42.1735 43.5457 42.1872 43.5795 42.2115C43.6133 42.2357 43.6392 42.2693 43.6541 42.3082C43.6689 42.347 43.672 42.3894 43.6629 42.43C43.6538 42.4705 43.633 42.5076 43.6031 42.5364C43.5732 42.5653 43.5354 42.5847 43.4945 42.5922C43.4536 42.5998 43.4114 42.5951 43.3731 42.5789C43.3349 42.5626 43.3022 42.5355 43.2792 42.5008C43.2563 42.4662 43.244 42.4255 43.244 42.3839Z" fill="#263238"/>
<path d="M45.84 43.932H44.4C44.4209 44.0843 44.4992 44.223 44.6189 44.3196C44.7386 44.4162 44.8906 44.4636 45.044 44.452C45.1399 44.4553 45.2354 44.4378 45.3238 44.4005C45.4122 44.3632 45.4915 44.307 45.556 44.236L45.736 44.444C45.6467 44.5404 45.5375 44.6162 45.4159 44.666C45.2943 44.7157 45.1632 44.7383 45.032 44.732C44.9081 44.7415 44.7835 44.725 44.6664 44.6834C44.5493 44.6418 44.4422 44.576 44.3521 44.4905C44.262 44.4049 44.1909 44.3013 44.1433 44.1865C44.0957 44.0717 44.0728 43.9482 44.076 43.824C44.071 43.7049 44.0905 43.5861 44.1334 43.475C44.1763 43.3639 44.2417 43.2627 44.3253 43.1779C44.409 43.0931 44.5092 43.0265 44.6198 42.9821C44.7304 42.9377 44.8489 42.9166 44.968 42.92C45.0876 42.9163 45.2067 42.9378 45.3175 42.983C45.4283 43.0282 45.5285 43.0962 45.6114 43.1825C45.6943 43.2688 45.7582 43.3716 45.799 43.4842C45.8397 43.5967 45.8564 43.7165 45.848 43.836C45.844 43.86 45.84 43.9 45.84 43.932ZM44.396 43.7H45.536C45.524 43.557 45.4587 43.4238 45.3532 43.3267C45.2476 43.2296 45.1094 43.1757 44.966 43.1757C44.8225 43.1757 44.6843 43.2296 44.5788 43.3267C44.4732 43.4238 44.4079 43.557 44.396 43.7Z" fill="#263238"/>
<path d="M46.124 43.824C46.121 43.7014 46.1435 43.5795 46.1902 43.466C46.2368 43.3526 46.3066 43.2501 46.395 43.165C46.4834 43.08 46.5885 43.0143 46.7037 42.9721C46.8189 42.93 46.9416 42.9122 47.064 42.92C47.2073 42.912 47.3502 42.9426 47.4776 43.0088C47.6049 43.0749 47.7122 43.1741 47.788 43.296L47.544 43.456C47.4929 43.3746 47.4212 43.3082 47.3363 43.2632C47.2513 43.2183 47.1561 43.1965 47.06 43.2C46.9026 43.2126 46.7558 43.284 46.6487 43.4C46.5416 43.516 46.4821 43.6681 46.4821 43.826C46.4821 43.9839 46.5416 44.136 46.6487 44.252C46.7558 44.368 46.9026 44.4394 47.06 44.452C47.1561 44.4555 47.2513 44.4337 47.3363 44.3888C47.4212 44.3439 47.4929 44.2774 47.544 44.196L47.788 44.352C47.7152 44.4783 47.6093 44.5823 47.4817 44.6528C47.3541 44.7233 47.2097 44.7576 47.064 44.752C46.9397 44.7594 46.8151 44.7406 46.6985 44.6968C46.5819 44.6529 46.4758 44.585 46.3872 44.4975C46.2985 44.41 46.2293 44.3048 46.1839 44.1888C46.1386 44.0727 46.1182 43.9484 46.124 43.824Z" fill="#263238"/>
<path d="M49.228 44.6079C49.1131 44.6944 48.9717 44.7382 48.828 44.7319C48.7525 44.7407 48.676 44.7324 48.6041 44.7077C48.5323 44.6829 48.4669 44.6424 48.4127 44.5891C48.3586 44.5357 48.3172 44.4709 48.2914 44.3994C48.2657 44.3279 48.2563 44.2515 48.264 44.1759V43.1999H47.964V42.9359H48.264V42.5359H48.588V42.9359H49.096V43.1999H48.588V44.1639C48.5824 44.2027 48.5857 44.2422 48.5975 44.2796C48.6094 44.3169 48.6295 44.3511 48.6565 44.3796C48.6834 44.408 48.7164 44.43 48.753 44.4439C48.7897 44.4578 48.829 44.4633 48.868 44.4599C48.9591 44.4614 49.048 44.4318 49.12 44.3759L49.228 44.6079Z" fill="#263238"/>
<path d="M50.3279 43.1559C50.3274 43.1258 50.3329 43.0959 50.3442 43.068C50.3554 43.0401 50.3722 43.0147 50.3935 42.9935C50.4148 42.9722 50.4401 42.9554 50.468 42.9441C50.4959 42.9329 50.5258 42.9274 50.5559 42.9279C50.5855 42.9279 50.6148 42.9338 50.642 42.9454C50.6692 42.9569 50.6938 42.9738 50.7144 42.9951C50.7349 43.0164 50.7509 43.0416 50.7615 43.0692C50.7721 43.0969 50.777 43.1263 50.7759 43.1559C50.777 43.1856 50.7721 43.2153 50.7616 43.2431C50.7511 43.271 50.7351 43.2965 50.7146 43.3181C50.6941 43.3397 50.6695 43.357 50.6423 43.369C50.615 43.3809 50.5857 43.3874 50.5559 43.3879C50.5256 43.3879 50.4957 43.3819 50.4677 43.3702C50.4398 43.3585 50.4145 43.3413 50.3933 43.3197C50.372 43.2981 50.3553 43.2725 50.3441 43.2444C50.3329 43.2162 50.3274 43.1862 50.3279 43.1559ZM50.3279 44.5119C50.3274 44.4818 50.3329 44.4519 50.3442 44.424C50.3554 44.3961 50.3722 44.3707 50.3935 44.3495C50.4148 44.3282 50.4401 44.3114 50.468 44.3001C50.4959 44.2889 50.5258 44.2834 50.5559 44.2839C50.5855 44.2839 50.6148 44.2898 50.642 44.3014C50.6692 44.3129 50.6938 44.3298 50.7144 44.3511C50.7349 44.3724 50.7509 44.3976 50.7615 44.4252C50.7721 44.4529 50.777 44.4823 50.7759 44.5119C50.777 44.5414 50.7721 44.5709 50.7615 44.5985C50.7509 44.6262 50.7349 44.6514 50.7144 44.6727C50.6938 44.6939 50.6692 44.7109 50.642 44.7224C50.6148 44.734 50.5855 44.7399 50.5559 44.7399C50.5258 44.7404 50.4959 44.7349 50.468 44.7236C50.4401 44.7124 50.4148 44.6956 50.3935 44.6743C50.3722 44.653 50.3554 44.6277 50.3442 44.5998C50.3329 44.5719 50.3274 44.542 50.3279 44.5119Z" fill="#263238"/>
<path d="M33.3839 18.9399C33.3839 19.0981 33.337 19.2528 33.2491 19.3843C33.1612 19.5159 33.0363 19.6184 32.8901 19.679C32.7439 19.7395 32.583 19.7554 32.4279 19.7245C32.2727 19.6937 32.1301 19.6175 32.0182 19.5056C31.9064 19.3937 31.8302 19.2512 31.7993 19.096C31.7684 18.9408 31.7843 18.7799 31.8448 18.6337C31.9054 18.4876 32.0079 18.3626 32.1395 18.2747C32.271 18.1868 32.4257 18.1399 32.5839 18.1399C32.7961 18.1399 32.9996 18.2242 33.1496 18.3742C33.2997 18.5242 33.3839 18.7277 33.3839 18.9399Z" fill="white"/>
<path d="M36.292 18.9399C36.292 19.0981 36.2451 19.2528 36.1572 19.3843C36.0693 19.5159 35.9443 19.6184 35.7982 19.679C35.652 19.7395 35.4911 19.7554 35.3359 19.7245C35.1808 19.6937 35.0382 19.6175 34.9263 19.5056C34.8144 19.3937 34.7383 19.2512 34.7074 19.096C34.6765 18.9408 34.6924 18.7799 34.7529 18.6337C34.8135 18.4876 34.916 18.3626 35.0476 18.2747C35.1791 18.1868 35.3338 18.1399 35.492 18.1399C35.7042 18.1399 35.9077 18.2242 36.0577 18.3742C36.2077 18.5242 36.292 18.7277 36.292 18.9399Z" fill="white"/>
<path d="M39.2 18.9399C39.2 19.0981 39.1531 19.2528 39.0652 19.3843C38.9772 19.5159 38.8523 19.6184 38.7061 19.679C38.5599 19.7395 38.3991 19.7554 38.2439 19.7245C38.0887 19.6937 37.9462 19.6175 37.8343 19.5056C37.7224 19.3937 37.6462 19.2512 37.6153 19.096C37.5845 18.9408 37.6003 18.7799 37.6609 18.6337C37.7214 18.4876 37.824 18.3626 37.9555 18.2747C38.0871 18.1868 38.2418 18.1399 38.4 18.1399C38.6121 18.1399 38.8156 18.2242 38.9657 18.3742C39.1157 18.5242 39.2 18.7277 39.2 18.9399Z" fill="white"/>
<path d="M59.4639 58.9C59.4639 58.9 59.4639 58.864 59.4639 58.804V58.536C59.4639 58.288 59.4639 57.944 59.4639 57.504C59.4639 56.6 59.4639 55.3 59.4279 53.66L59.4879 53.716L35.8879 53.764L35.9919 53.66V56.312C35.9919 57.184 35.9919 58.048 35.9919 58.892L35.8799 58.8L52.6799 58.848L57.6519 58.876H58.9959H59.3479H59.4719H59.3599H59.0239H57.6999L52.7519 58.904L35.8879 58.948H35.7839V53.668L35.8879 53.564L59.4879 53.608H59.5479V53.668C59.5479 55.32 59.5239 56.636 59.5159 57.548C59.5159 57.984 59.5159 58.324 59.5159 58.564V58.8C59.5043 58.836 59.4867 58.8698 59.4639 58.9Z" fill="#263238"/>
<path d="M74.024 58.8999C74.0185 58.8668 74.0185 58.833 74.024 58.7999C74.024 58.7239 74.024 58.6319 74.024 58.5239C74.024 58.2639 74.024 57.9159 74.004 57.4719C74.004 56.5559 73.984 55.2559 73.964 53.6599L74.04 53.7319L61.128 53.7639L61.232 53.6599V56.3439C61.232 57.2239 61.232 58.0719 61.232 58.8919L61.132 58.7919L70.36 58.8399L73.056 58.8679H73.784H74.044C73.9654 58.8736 73.8865 58.8736 73.808 58.8679H73.1L70.428 58.8959L61.132 58.9439H61.032V56.2959C61.032 55.8599 61.032 55.4159 61.032 54.9639V53.6119L61.136 53.5079L74.048 53.5359H74.12V53.6119C74.12 55.2119 74.088 56.5399 74.08 57.4679C74.08 57.9039 74.08 58.2679 74.08 58.5039C74.08 58.7399 74.028 58.9039 74.024 58.8999Z" fill="#263238"/>
<path d="M38.2999 55.6H37.4519V55.292H39.4999V55.6H38.6519V57.764H38.2999V55.6Z" fill="#263238"/>
<path d="M39.7279 55.3159C39.7279 55.2858 39.7339 55.256 39.7457 55.2283C39.7574 55.2006 39.7747 55.1756 39.7963 55.1547C39.818 55.1337 39.8436 55.1174 39.8717 55.1066C39.8998 55.0959 39.9298 55.0909 39.9599 55.0919C39.9891 55.0909 40.0183 55.0956 40.0456 55.106C40.073 55.1163 40.098 55.132 40.1192 55.1521C40.1405 55.1722 40.1575 55.1963 40.1693 55.2231C40.1811 55.2499 40.1874 55.2787 40.1879 55.3079C40.1805 55.3637 40.1531 55.4149 40.1108 55.452C40.0685 55.4891 40.0142 55.5095 39.9579 55.5095C39.9016 55.5095 39.8473 55.4891 39.805 55.452C39.7627 55.4149 39.7353 55.3637 39.7279 55.3079V55.3159ZM39.7879 55.8959H40.1279V57.7679H39.7879V55.8959Z" fill="#263238"/>
<path d="M41.828 57.66C41.7131 57.7473 41.5723 57.7937 41.428 57.792C41.3481 57.8014 41.2672 57.7928 41.1911 57.7667C41.1151 57.7406 41.0459 57.6977 40.9886 57.6412C40.9314 57.5848 40.8876 57.5161 40.8605 57.4405C40.8334 57.3648 40.8236 57.2839 40.832 57.204V56.176H40.516V55.896H40.832V55.496H41.172V55.896H41.708V56.176H41.172V57.2C41.172 57.404 41.276 57.516 41.464 57.516C41.5606 57.5168 41.6547 57.4859 41.732 57.428L41.828 57.66Z" fill="#263238"/>
<path d="M42.236 55.1479H42.576V57.768H42.236V55.1479Z" fill="#263238"/>
<path d="M44.9079 56.9439H43.3879C43.409 57.1052 43.4914 57.2522 43.618 57.3543C43.7447 57.4564 43.9058 57.5057 44.0679 57.4919C44.1688 57.4963 44.2694 57.4785 44.3627 57.4398C44.456 57.4011 44.5397 57.3424 44.6079 57.2679L44.7959 57.4879C44.7024 57.5897 44.5876 57.6697 44.4597 57.7222C44.3318 57.7747 44.194 57.7985 44.0559 57.7919C43.9254 57.8015 43.7942 57.7836 43.671 57.7393C43.5478 57.695 43.4353 57.6254 43.3407 57.535C43.2461 57.4445 43.1715 57.3352 43.1217 57.2141C43.072 57.093 43.0482 56.9628 43.0519 56.8319C43.0464 56.7063 43.0668 56.5808 43.1118 56.4634C43.1569 56.346 43.2257 56.2391 43.3139 56.1494C43.4021 56.0597 43.5078 55.9891 43.6244 55.9421C43.7411 55.895 43.8662 55.8725 43.9919 55.8759C44.1179 55.8728 44.2431 55.8961 44.3596 55.9442C44.476 55.9924 44.5811 56.0643 44.6681 56.1555C44.7551 56.2466 44.8221 56.355 44.8648 56.4735C44.9075 56.5921 44.9249 56.7183 44.9159 56.8439C44.9151 56.8774 44.9124 56.9108 44.9079 56.9439ZM43.3879 56.6999H44.5879C44.5646 56.5576 44.4915 56.4282 44.3815 56.3349C44.2716 56.2415 44.1321 56.1903 43.9879 56.1903C43.8437 56.1903 43.7042 56.2415 43.5943 56.3349C43.4844 56.4282 43.4112 56.5576 43.3879 56.6999Z" fill="#263238"/>
<path d="M55.708 56.052H57.952L56.832 57.176L55.708 56.052Z" fill="#263238"/>
<path d="M69.964 56.052H72.208L71.084 57.176L69.964 56.052Z" fill="#263238"/>
<path d="M155.928 112.072C155.928 111.46 155.896 88.7119 155.848 51.1759L155.928 51.2519L33.576 51.2799L33.68 51.1759C33.68 72.6399 33.68 93.2439 33.68 112.072L33.58 111.972L155.94 112.072L33.58 112.168H33.484V112.072C33.484 93.2439 33.484 72.6399 33.484 51.1759V51.0719H33.596L155.948 51.0999H156V51.1759C155.956 88.7119 155.928 111.46 155.928 112.072Z" fill="#E0E0E0"/>
<path d="M155.928 48.8519C155.928 48.8519 155.928 48.6119 155.928 48.1599C155.928 47.7079 155.928 47.0319 155.928 46.1599C155.928 44.3959 155.928 41.7959 155.904 38.4479L155.948 38.4879L33.4079 38.5519L33.5119 38.4479V48.8479L33.4079 48.7439L120.392 48.7879L146.432 48.8159H153.488H155.32C155.72 48.8159 155.952 48.8159 155.952 48.8159H155.336H153.516H146.484L120.484 48.8479L33.4239 48.8919H33.2799V38.3319H33.3879L155.928 38.3999H155.968V38.4399C155.968 41.7999 155.948 44.4039 155.944 46.1759C155.944 47.0519 155.944 47.7239 155.944 48.1759C155.944 48.6279 155.928 48.8519 155.928 48.8519Z" fill="#E0E0E0"/>
<path d="M155.928 36.2359C155.928 36.2359 155.928 35.9999 155.928 35.5439C155.928 35.0879 155.928 34.4159 155.928 33.5439C155.928 31.7799 155.928 29.1839 155.904 25.8359L155.948 25.8759L33.4079 25.9399L33.5119 25.8359V36.2359L33.4079 36.1319L120.392 36.1759L146.432 36.2079H153.488H155.32H155.952H155.336H153.516H146.484L120.484 36.2399L33.4239 36.2839H33.2799V25.7159H33.3879L155.928 25.7799H155.968V25.8239C155.968 29.1799 155.948 31.7879 155.944 33.5559C155.944 34.4359 155.944 35.1039 155.944 35.5559C155.944 36.0079 155.928 36.2359 155.928 36.2359Z" fill="#E0E0E0"/>
<path d="M124.072 54.124C123.879 54.1173 123.691 54.1855 123.547 54.3145C123.403 54.4436 123.314 54.6233 123.3 54.816V57.528C123.344 57.7815 123.476 58.0115 123.673 58.1772C123.87 58.3429 124.119 58.4337 124.376 58.4337C124.633 58.4337 124.882 58.3429 125.079 58.1772C125.276 58.0115 125.408 57.7815 125.452 57.528V55.34H125.24V57.436C125.219 57.6528 125.118 57.8542 124.957 58.0007C124.796 58.1472 124.586 58.2284 124.368 58.2284C124.15 58.2284 123.94 58.1472 123.779 58.0007C123.618 57.8542 123.517 57.6528 123.496 57.436V54.84C123.496 54.6904 123.555 54.547 123.661 54.4412C123.767 54.3354 123.91 54.276 124.06 54.276C124.21 54.276 124.353 54.3354 124.459 54.4412C124.565 54.547 124.624 54.6904 124.624 54.84V57.04C124.604 57.1074 124.562 57.1665 124.506 57.2085C124.449 57.2505 124.38 57.2732 124.31 57.2732C124.24 57.2732 124.171 57.2505 124.114 57.2085C124.058 57.1665 124.016 57.1074 123.996 57.04V55.344H123.788V56.964V57.04C123.814 57.1578 123.879 57.2634 123.973 57.3391C124.066 57.4148 124.183 57.4561 124.304 57.4561C124.425 57.4561 124.542 57.4148 124.635 57.3391C124.729 57.2634 124.794 57.1578 124.82 57.04V56.996C124.82 56.996 124.82 56.972 124.82 56.96V54.8C124.801 54.6147 124.714 54.443 124.576 54.3181C124.438 54.1932 124.258 54.124 124.072 54.124Z" fill="#263238"/>
<path d="M95.5239 55.3199H92.4399V55.8079H95.5239V55.3199Z" fill="#263238"/>
<path d="M95.5239 57.1H92.4399V57.588H95.5239V57.1Z" fill="#263238"/>
<path d="M93.9839 56.24H92.4399V56.728H93.9839V56.24Z" fill="#263238"/>
<path d="M107.104 55.3199H104.02V55.8079H107.104V55.3199Z" fill="#263238"/>
<path d="M107.104 57.1H104.02V57.588H107.104V57.1Z" fill="#263238"/>
<path d="M107.104 56.24H105.56V56.728H107.104V56.24Z" fill="#263238"/>
<path d="M101.392 55.3199H98.3079V55.8079H101.392V55.3199Z" fill="#263238"/>
<path d="M101.392 57.1H98.3079V57.588H101.392V57.1Z" fill="#263238"/>
<path d="M101.392 56.24H98.3079V56.728H101.392V56.24Z" fill="#263238"/>
<path d="M114.828 57.428H112.304V55.356H113.612V55.792H112.744V56.988H114.392V56.556H114.828V57.428Z" fill="#263238"/>
<path d="M116.28 57.428H115.208V56.988H115.844V55.792H114.196V56.352H113.76V55.356H116.28V57.428Z" fill="#263238"/>
<path d="M117.304 56.2279H118.648L117.976 56.8519L117.304 56.2279Z" fill="#263238"/>
<path d="M86.928 56.44V55.276H87.328V56.424C87.328 56.848 87.52 57.032 87.852 57.032C88.184 57.032 88.372 56.848 88.372 56.424V55.276H88.748V56.44C88.7562 56.5635 88.739 56.6874 88.6974 56.804C88.6558 56.9205 88.5907 57.0273 88.5061 57.1177C88.4215 57.2081 88.3193 57.2802 88.2058 57.3294C88.0922 57.3787 87.9698 57.4041 87.846 57.4041C87.7222 57.4041 87.5997 57.3787 87.4862 57.3294C87.3726 57.2802 87.2704 57.2081 87.1858 57.1177C87.1013 57.0273 87.0362 56.9205 86.9946 56.804C86.953 56.6874 86.9357 56.5635 86.944 56.44H86.928Z" fill="#263238"/>
<path d="M83.4679 55.0439H83.8119L83.3279 57.4439H82.9839L83.4679 55.0439Z" fill="#263238"/>
<path d="M80.2318 56.7999C80.2318 57.1999 79.8878 57.4599 79.2398 57.4599H77.9438V55.0599H79.1718C79.8038 55.0599 80.1158 55.3199 80.1158 55.6919C80.1172 55.8005 80.0874 55.9072 80.03 55.9994C79.9725 56.0915 79.8899 56.1653 79.7918 56.2119C79.9193 56.2486 80.0312 56.3258 80.1107 56.432C80.1901 56.5382 80.2326 56.6674 80.2318 56.7999ZM78.6318 55.5439V55.9999H79.0998C79.3278 55.9999 79.4438 55.9239 79.4438 55.7679C79.4438 55.6119 79.3278 55.5359 79.0998 55.5359L78.6318 55.5439ZM79.5598 56.7239C79.5598 56.5599 79.4358 56.4799 79.2038 56.4799H78.6318V56.9679H79.1998C79.4198 56.9599 79.5438 56.8799 79.5438 56.7159L79.5598 56.7239Z" fill="#263238"/>
<path d="M90.572 59.044C90.4692 58.1265 90.4344 57.2026 90.468 56.28C90.4343 55.356 90.4691 54.4308 90.572 53.512C90.6772 54.4306 90.712 55.356 90.676 56.28C90.7119 57.2026 90.6772 58.1266 90.572 59.044Z" fill="#E0E0E0"/>
<path d="M108.904 59.044C108.799 58.1266 108.764 57.2026 108.8 56.28C108.764 55.356 108.799 54.4306 108.904 53.512C109.007 54.4308 109.042 55.356 109.008 56.28C109.041 57.2026 109.007 58.1265 108.904 59.044Z" fill="#E0E0E0"/>
<path d="M120 59.1559C119.897 58.2384 119.862 57.3146 119.896 56.3919C119.862 55.4693 119.897 54.5454 120 53.6279C120.103 54.5454 120.138 55.4693 120.104 56.3919C120.138 57.3146 120.103 58.2384 120 59.1559Z" fill="#E0E0E0"/>
<path d="M128.4 58.992C128.297 58.0745 128.262 57.1506 128.296 56.228C128.262 55.304 128.297 54.3788 128.4 53.46C128.508 54.3784 128.544 55.3039 128.508 56.228C128.544 57.1507 128.508 58.0748 128.4 58.992Z" fill="#E0E0E0"/>
<path d="M89.1519 57.6439C88.331 57.7826 87.4927 57.7826 86.6719 57.6439C87.4927 57.5052 88.331 57.5052 89.1519 57.6439Z" fill="#263238"/>
<path d="M64.904 55.0439V57.4439H64.564V55.3359H64.02V55.0359L64.904 55.0439Z" fill="#263238"/>
<path d="M67.12 57.152V57.452H65.392V57.2L66.372 56.256C66.628 56.008 66.676 55.856 66.676 55.708C66.676 55.46 66.5 55.308 66.164 55.308C66.0483 55.3018 65.9328 55.322 65.8261 55.367C65.7193 55.4121 65.6243 55.4808 65.548 55.568L65.312 55.368C65.4226 55.2459 65.5589 55.15 65.7111 55.087C65.8633 55.0241 66.0275 54.9957 66.192 55.004C66.696 55.004 67.016 55.26 67.016 55.672C67.0114 55.8201 66.973 55.9653 66.9036 56.0963C66.8343 56.2274 66.7359 56.3408 66.616 56.428L65.88 57.136L67.12 57.152Z" fill="#263238"/>
<path d="M155.928 61.6439C155.928 61.6999 128.488 61.7479 94.648 61.7479C60.808 61.7479 33.364 61.6999 33.364 61.6439C33.364 61.5879 60.796 61.5399 94.648 61.5399C128.5 61.5399 155.928 61.5999 155.928 61.6439Z" fill="#E0E0E0"/>
<path d="M148.368 67.712C148.368 67.768 123.452 67.816 92.72 67.816C61.988 67.816 37.068 67.768 37.068 67.712C37.068 67.656 62 67.6 92.72 67.6C123.44 67.6 148.368 67.652 148.368 67.712Z" fill="#263238"/>
<path d="M148.368 72.22C148.368 72.28 123.452 72.324 92.72 72.324C61.988 72.324 37.068 72.28 37.068 72.22C37.068 72.16 61.98 72.116 92.72 72.116C123.46 72.116 148.368 72.164 148.368 72.22Z" fill="#263238"/>
<path d="M148.368 76.7319C148.368 76.7879 123.452 76.8359 92.72 76.8359C61.988 76.8359 37.068 76.7999 37.068 76.7319C37.068 76.6639 61.98 76.6279 92.72 76.6279C123.46 76.6279 148.368 76.6719 148.368 76.7319Z" fill="#263238"/>
<path d="M148.368 81.24C148.368 81.3 123.452 81.344 92.72 81.344C61.988 81.344 37.068 81.3 37.068 81.24C37.068 81.18 61.98 81.136 92.72 81.136C123.46 81.136 148.368 81.2 148.368 81.24Z" fill="#263238"/>
<path d="M148.368 85.752C148.368 85.808 123.452 85.856 92.72 85.856C61.988 85.856 37.068 85.808 37.068 85.752C37.068 85.696 61.98 85.6479 92.72 85.6479C123.46 85.6479 148.368 85.692 148.368 85.752Z" fill="#263238"/>
<path d="M148.368 90.26C148.368 90.32 123.452 90.364 92.72 90.364C61.988 90.364 37.068 90.32 37.068 90.26C37.068 90.2 61.98 90.156 92.72 90.156C123.46 90.156 148.368 90.204 148.368 90.26Z" fill="#263238"/>
<path d="M148.368 94.772C148.368 94.828 123.452 94.876 92.72 94.876C61.988 94.876 37.068 94.828 37.068 94.772C37.068 94.716 61.98 94.668 92.72 94.668C123.46 94.668 148.368 94.712 148.368 94.772Z" fill="#263238"/>
<path d="M148.448 99.12C148.448 99.176 123.532 99.224 92.8 99.224C62.068 99.224 37.1479 99.176 37.1479 99.12C37.1479 99.064 62.06 99.016 92.8 99.016C123.54 99.016 148.448 99.064 148.448 99.12Z" fill="#263238"/>
<path d="M148.528 103.468C148.528 103.528 123.612 103.572 92.8839 103.572C62.1559 103.572 37.2279 103.528 37.2279 103.468C37.2279 103.408 62.1399 103.364 92.8839 103.364C123.628 103.364 148.528 103.412 148.528 103.468Z" fill="#263238"/>
<path d="M37.312 107.816C37.312 107.76 62.228 107.712 92.956 107.712C123.684 107.712 148.608 107.76 148.608 107.816C148.608 107.872 123.696 107.92 92.956 107.92C62.216 107.92 37.312 107.876 37.312 107.816Z" fill="#263238"/>
<path d="M160.2 116.648C160.2 115.936 160.168 76.5079 160.116 15.2679L160.2 15.3559H28.768L28.872 15.252C28.872 51.7719 28.872 86.3239 28.872 116.632L28.78 116.54L160.224 116.632L28.78 116.728H28.684V116.632C28.684 86.3239 28.684 51.7719 28.684 15.252V15.1479H28.8L160.2 15.1999H160.288V15.2839C160.236 76.5079 160.2 115.936 160.2 116.648Z" fill="#263238"/>
<path d="M108.8 46.7479V55.4679C108.8 56.2403 109.107 56.9809 109.653 57.527C110.199 58.0731 110.94 58.3799 111.712 58.3799H122.4C122.555 58.3799 122.708 58.4161 122.847 58.4855C122.986 58.5549 123.107 58.6557 123.2 58.7799L125.816 64.4799L128.968 58.8799C129.063 58.7735 129.18 58.6883 129.31 58.6297C129.44 58.5711 129.581 58.5405 129.724 58.5399H140.924C141.695 58.5305 142.431 58.2156 142.97 57.6645C143.509 57.1133 143.808 56.3709 143.8 55.5999V46.6919C143.8 46.3094 143.725 45.9306 143.578 45.5773C143.431 45.2239 143.216 44.903 142.945 44.6328C142.675 44.3627 142.353 44.1487 141.999 44.003C141.646 43.8573 141.267 43.7829 140.884 43.7839L111.724 43.8359C111.341 43.8344 110.961 43.9085 110.606 44.0542C110.251 44.1998 109.929 44.414 109.657 44.6846C109.386 44.9552 109.17 45.2767 109.023 45.6308C108.876 45.9849 108.8 46.3645 108.8 46.7479Z" fill="#5C40CC"/>
<path d="M116.136 54.28H114.312V52.56L118.512 47.972L118.596 47.952C118.82 47.8616 119.063 47.8318 119.302 47.8655C119.541 47.8992 119.766 47.9953 119.956 48.144C120.488 48.632 120.356 49.524 120.324 49.624V49.712L116.136 54.28ZM114.936 53.676H115.888L119.764 49.436C119.791 49.2887 119.788 49.1375 119.754 48.9917C119.72 48.8458 119.657 48.7084 119.568 48.588C119.464 48.5187 119.345 48.4757 119.221 48.4624C119.097 48.4492 118.972 48.4662 118.856 48.512L114.936 52.792V53.676Z" fill="white"/>
<path d="M128 53.1199V53.7159H124.532V48.9399H127.904V49.5319H125.216V50.9999H127.616V51.5999H125.216V53.1399L128 53.1199Z" fill="white"/>
<path d="M132.4 48.6519V53.7159H131.772V53.1399C131.624 53.3402 131.429 53.5011 131.205 53.6086C130.98 53.716 130.733 53.7666 130.484 53.7559C130.009 53.7338 129.561 53.5297 129.233 53.1859C128.905 52.8421 128.722 52.3852 128.722 51.9099C128.722 51.4347 128.905 50.9777 129.233 50.6339C129.561 50.2902 130.009 50.086 130.484 50.0639C130.725 50.0553 130.965 50.1033 131.185 50.204C131.404 50.3047 131.597 50.4554 131.748 50.6439V48.6439L132.4 48.6519ZM131.752 51.9079C131.737 51.6744 131.654 51.4503 131.514 51.2632C131.373 51.0761 131.181 50.9342 130.961 50.8549C130.741 50.7756 130.502 50.7624 130.275 50.817C130.047 50.8715 129.841 50.9914 129.68 51.1618C129.52 51.3323 129.413 51.5459 129.372 51.7764C129.332 52.0068 129.36 52.2441 129.452 52.459C129.545 52.6739 129.699 52.857 129.894 52.9858C130.089 53.1146 130.318 53.1835 130.552 53.1839C130.715 53.1832 130.877 53.149 131.027 53.0835C131.177 53.018 131.312 52.9226 131.423 52.8031C131.535 52.6836 131.621 52.5426 131.676 52.3886C131.731 52.2347 131.754 52.0711 131.744 51.9079H131.752Z" fill="white"/>
<path d="M133.524 48.98C133.523 48.9224 133.534 48.8653 133.556 48.8121C133.578 48.759 133.611 48.7107 133.652 48.6704C133.693 48.6301 133.742 48.5985 133.796 48.5774C133.849 48.5564 133.906 48.5464 133.964 48.548C134.076 48.5425 134.185 48.5815 134.268 48.6565C134.352 48.7314 134.402 48.8362 134.408 48.948C134.41 49.0066 134.399 49.0649 134.377 49.1193C134.356 49.1737 134.323 49.223 134.281 49.2643C134.24 49.3056 134.19 49.3378 134.136 49.3591C134.081 49.3804 134.023 49.3902 133.964 49.388C133.908 49.3901 133.853 49.3813 133.8 49.3619C133.748 49.3426 133.7 49.3131 133.659 49.2752C133.618 49.2373 133.585 49.1917 133.562 49.1411C133.539 49.0904 133.526 49.0357 133.524 48.98ZM133.64 50.096H134.292V53.696H133.64V50.096Z" fill="white"/>
<path d="M137.576 53.5039C137.346 53.678 137.064 53.7671 136.776 53.7559C136.622 53.7735 136.467 53.7564 136.321 53.706C136.175 53.6555 136.042 53.5729 135.932 53.4642C135.823 53.3556 135.739 53.2237 135.687 53.0783C135.635 52.9328 135.616 52.7776 135.632 52.6239V50.6239H135.016V50.0839H135.632V49.2839H136.284V50.0839H137.324V50.6239H136.284V52.5839C136.273 52.6629 136.28 52.7433 136.304 52.8193C136.328 52.8952 136.369 52.9649 136.423 53.0231C136.478 53.0814 136.544 53.1267 136.618 53.1559C136.693 53.1851 136.772 53.1974 136.852 53.1919C137.037 53.1931 137.217 53.1326 137.364 53.0199L137.576 53.5039Z" fill="white"/>
<path d="M45.728 181.48C44.68 181.428 44.372 179.952 44.764 178.98C45.156 178.008 45.92 177.144 45.932 176.096C45.932 175.188 45.364 174.364 45.308 173.456C45.208 171.82 46.792 170.484 46.86 168.848C46.912 167.568 46.024 166.352 46.24 165.092C46.468 163.74 47.88 162.856 48.204 161.52C48.548 160.104 47.564 158.6 47.94 157.192C48.316 155.784 49.972 154.752 49.736 153.32C49.597 152.859 49.4328 152.407 49.244 151.964C48.948 150.896 49.532 149.776 50.24 148.92C50.948 148.064 51.816 147.32 52.24 146.284C52.916 144.716 52.448 142.804 53.24 141.292C53.904 140.036 55.376 139.188 55.56 137.78C56.304 139.048 55.56 140.66 55.744 142.124C55.856 143.076 56.352 143.936 56.652 144.848C56.9571 145.78 57.0653 146.766 56.9695 147.742C56.8738 148.719 56.5764 149.665 56.096 150.52C55.456 151.644 54.472 152.708 54.52 154C54.58 155.564 56.148 156.7 56.424 158.24C56.824 160.444 54.472 162.428 54.796 164.64C54.88 165.212 55.14 165.752 55.196 166.328C55.36 168.288 53.14 169.672 52.796 171.612C52.548 173.036 53.372 174.508 53.032 175.916C52.768 177 51.832 177.972 52.06 179.064C52.2178 179.521 52.4187 179.961 52.66 180.38C52.8397 180.808 52.8974 181.277 52.8269 181.736C52.7563 182.195 52.5601 182.626 52.26 182.98C51.9482 183.323 51.5352 183.559 51.0808 183.652C50.6264 183.746 50.1541 183.692 49.732 183.5" fill="#5C40CC"/>
<g opacity="0.5">
<path d="M52.672 180.4C52.4308 179.981 52.2299 179.541 52.072 179.084C51.844 177.992 52.78 177.02 53.044 175.936C53.384 174.528 52.56 173.056 52.808 171.632C53.148 169.692 55.368 168.308 55.208 166.348C55.156 165.772 54.896 165.232 54.808 164.66C54.484 162.444 56.832 160.46 56.436 158.26C56.16 156.72 54.596 155.584 54.532 154.02C54.484 152.728 55.468 151.664 56.108 150.54C56.5884 149.685 56.8859 148.739 56.9816 147.762C57.0773 146.786 56.9692 145.8 56.664 144.868C56.364 143.956 55.864 143.096 55.756 142.144C55.588 140.68 56.316 139.068 55.572 137.8C55.388 139.208 53.916 140.056 53.252 141.312C52.452 142.824 52.928 144.736 52.252 146.304C51.816 147.324 50.948 148.084 50.252 148.94C49.556 149.796 48.96 150.916 49.256 151.984C49.4448 152.427 49.6091 152.879 49.748 153.34C49.984 154.772 48.328 155.804 47.952 157.212C47.576 158.62 48.56 160.124 48.216 161.54C47.892 162.876 46.48 163.76 46.252 165.112C46.036 166.372 46.924 167.588 46.872 168.868C46.804 170.504 45.22 171.84 45.32 173.476C45.376 174.384 45.952 175.208 45.944 176.116C45.944 177.164 45.144 178.028 44.776 179C44.408 179.972 44.692 181.448 45.74 181.5L49.764 183.524C50.1861 183.716 50.6585 183.77 51.1129 183.676C51.5673 183.583 51.9802 183.347 52.292 183.004C52.5896 182.647 52.7825 182.215 52.8496 181.756C52.9167 181.296 52.8552 180.827 52.672 180.4Z" fill="white"/>
</g>
<path d="M51.3081 179.428C51.0307 178.96 50.892 178.423 50.9081 177.88C51.0161 177.28 52.0281 176.756 52.2801 175.74C52.6041 174.42 52.0161 172.092 52.2801 170.76C52.6201 168.956 54.4881 167.768 54.4121 165.96C54.3881 165.432 54.4641 164.024 54.4121 163.504C54.2121 161.484 55.9881 160.128 55.7281 158.12C55.5481 156.72 54.0961 155.076 54.0921 153.64C54.0921 152.44 54.9441 151.412 55.5081 150.336C56.363 148.722 56.5909 146.848 56.1481 145.076C55.9281 144.256 55.5441 143.476 55.4841 142.628C55.3881 141.292 56.0441 139.756 55.4841 138.628C55.2881 139.94 54.0401 140.816 53.4521 142.016C52.7481 143.46 53.0761 145.188 52.4681 146.676C52.0681 147.644 51.3321 148.4 50.7161 149.236C50.1001 150.072 49.5841 151.136 49.7961 152.104C49.9393 152.497 50.0608 152.898 50.1601 153.304C50.3121 154.612 48.9081 155.668 48.5601 156.988C48.2121 158.308 48.9601 159.628 48.6401 160.956C48.3321 162.204 47.1081 163.9 46.8761 165.16C46.6561 166.336 47.7201 167.1 47.6361 168.276C47.5321 169.792 46.0361 171.62 46.0361 173.12C46.0361 173.952 46.7521 174.22 46.7161 175.056C46.6721 176.02 45.8641 177.94 45.5161 178.86C45.3272 179.275 45.2511 179.733 45.2953 180.188C45.3396 180.642 45.5026 181.077 45.7681 181.448L50.2641 183.68C52.2281 182.756 52.1401 180.8 51.3081 179.428Z" fill="#5C40CC"/>
<path d="M54.3281 145.484C54.3339 145.517 54.3339 145.551 54.3281 145.584C54.3281 145.66 54.3281 145.756 54.3281 145.876C54.3281 146.136 54.3281 146.512 54.2801 147C54.2426 147.597 54.1075 148.183 53.8801 148.736C53.6161 149.396 53.0561 149.988 52.5281 150.668C52.2421 151.015 52.0237 151.413 51.8841 151.84C51.7427 152.306 51.6885 152.794 51.7241 153.28C51.7721 154.296 52.0841 155.352 52.2321 156.504C52.3217 157.099 52.3013 157.705 52.1721 158.292C52.0963 158.597 51.9778 158.889 51.8201 159.16C51.6476 159.417 51.49 159.685 51.3481 159.96C51.1464 160.55 51.1366 161.188 51.3201 161.784C51.3841 162.1 51.4561 162.42 51.4961 162.752C51.5308 163.089 51.5214 163.429 51.4681 163.764C51.3433 164.417 51.135 165.052 50.8481 165.652C50.5812 166.228 50.3501 166.82 50.1561 167.424C49.9878 168 49.9348 168.604 50.0001 169.2C50.0872 169.79 50.1087 170.389 50.0641 170.984C49.9581 171.543 49.7665 172.083 49.4961 172.584C49.246 173.045 49.0552 173.535 48.9281 174.044C48.7401 175.036 49.0201 175.988 49.0001 176.868C48.948 177.658 48.7739 178.435 48.4841 179.172C48.2756 179.724 48.1281 180.296 48.0441 180.88C47.9974 181.249 48.0357 181.624 48.1561 181.976C48.2481 182.212 48.3201 182.328 48.3081 182.336C48.2362 182.226 48.1746 182.109 48.1241 181.988C47.9856 181.633 47.9335 181.251 47.9721 180.872C48.0406 180.282 48.1748 179.701 48.3721 179.14C48.6496 178.412 48.8129 177.646 48.8561 176.868C48.8561 176.436 48.7961 175.988 48.7481 175.512C48.6743 175.015 48.6743 174.509 48.7481 174.012C48.9441 172.972 49.7081 172.08 49.8641 170.956C49.9045 170.373 49.8817 169.787 49.7961 169.208C49.7247 168.585 49.7777 167.954 49.9521 167.352C50.2961 166.124 51.0441 165.008 51.2601 163.712C51.31 163.393 51.3181 163.069 51.2841 162.748C51.2481 162.428 51.1761 162.112 51.1121 161.796C50.9205 161.162 50.9359 160.484 51.1561 159.86C51.3012 159.584 51.4628 159.317 51.6401 159.06C51.7883 158.803 51.9013 158.527 51.9761 158.24C52.0996 157.672 52.1199 157.087 52.0361 156.512C51.8961 155.38 51.5841 154.312 51.5401 153.276C51.5074 152.772 51.5685 152.266 51.7201 151.784C51.8686 151.346 52.0964 150.939 52.3921 150.584C52.9401 149.9 53.4921 149.328 53.7561 148.692C53.9864 148.15 54.1308 147.575 54.1841 146.988C54.2361 146.508 54.2481 146.128 54.2641 145.872C54.2641 145.752 54.2641 145.656 54.2641 145.58C54.2641 145.504 54.3281 145.484 54.3281 145.484Z" fill="#263238"/>
<path d="M39.304 182C37.84 182.212 37.008 180.252 37.284 178.8C37.56 177.348 38.388 175.94 38.116 174.484C37.88 173.224 36.852 172.24 36.516 170.996C35.928 168.756 37.756 166.476 37.4 164.196C37.124 162.412 35.56 160.968 35.512 159.164C35.476 157.2 37.2 155.6 37.268 153.664C37.356 151.6 35.58 149.792 35.72 147.736C35.86 145.68 37.864 143.8 37.144 141.876C36.908 141.24 36.396 140.744 36.092 140.136C35.388 138.736 35.892 137.028 36.64 135.648C37.388 134.268 38.38 132.976 38.708 131.44C39.208 129.084 38.036 126.564 38.708 124.24C39.28 122.316 41.108 120.74 40.956 118.736C42.34 120.292 41.756 122.736 42.404 124.708C42.804 125.996 43.74 127.052 44.404 128.232C45.0837 129.437 45.5057 130.771 45.6434 132.148C45.7811 133.525 45.6315 134.916 45.204 136.232C44.624 137.964 43.552 139.704 43.972 141.484C44.488 143.632 46.968 144.776 47.772 146.836C48.924 149.784 46.212 153.176 47.272 156.16C47.544 156.928 48.072 157.6 48.28 158.388C49.048 161.056 46.348 163.588 46.408 166.36C46.456 168.404 48.008 170.22 47.912 172.26C47.848 173.836 46.816 175.46 47.432 176.888C47.7 177.516 48.232 177.984 48.632 178.552C48.9993 179.094 49.2094 179.726 49.2391 180.38C49.2687 181.034 49.1168 181.683 48.8 182.256C48.4627 182.818 47.9551 183.258 47.3509 183.511C46.7468 183.765 46.0775 183.82 45.44 183.668" fill="#5C40CC"/>
<g opacity="0.5">
<path d="M48.628 178.576C48.228 178.008 47.704 177.54 47.428 176.912C46.812 175.464 47.828 173.86 47.908 172.284C47.996 170.244 46.452 168.428 46.404 166.384C46.344 163.608 49.044 161.08 48.276 158.412C48.048 157.612 47.54 156.952 47.268 156.184C46.208 153.2 48.92 149.808 47.768 146.86C46.968 144.8 44.484 143.66 43.968 141.508C43.568 139.728 44.624 137.988 45.2 136.256C45.6275 134.94 45.7771 133.549 45.6394 132.172C45.5017 130.795 45.0797 129.462 44.4 128.256C43.732 127.076 42.8 126.02 42.4 124.732C41.768 122.752 42.336 120.332 40.952 118.76C41.084 120.76 39.276 122.34 38.704 124.264C38.016 126.576 39.188 129.096 38.704 131.464C38.376 133 37.38 134.292 36.636 135.672C35.892 137.052 35.384 138.76 36.088 140.16C36.392 140.768 36.888 141.264 37.14 141.9C37.86 143.824 35.848 145.708 35.716 147.76C35.584 149.812 37.352 151.624 37.264 153.688C37.2 155.6 35.476 157.2 35.528 159.148C35.572 160.952 37.128 162.396 37.412 164.18C37.768 166.468 35.94 168.748 36.528 170.98C36.852 172.224 37.88 173.208 38.128 174.468C38.4 175.924 37.568 177.332 37.296 178.784C37.024 180.236 37.852 182.2 39.316 181.984L45.448 183.68C46.0854 183.832 46.7548 183.777 47.3589 183.523C47.9631 183.27 48.4706 182.83 48.808 182.268C49.1206 181.696 49.2692 181.048 49.2375 180.397C49.2057 179.745 48.9948 179.115 48.628 178.576Z" fill="white"/>
</g>
<path d="M46.472 177.62C46.072 177.18 45.5 176.2 45.488 175.588C45.488 174.728 46.732 173.72 46.804 172.244C46.896 170.328 45.44 167.26 45.424 165.352C45.424 162.756 47.664 160.596 47.068 158.132C46.892 157.408 46.608 155.436 46.396 154.728C45.564 151.984 47.652 149.62 46.744 146.912C46.112 145.02 43.648 143.14 43.252 141.152C42.924 139.508 43.82 137.832 44.308 136.184C45.0497 133.713 44.8516 131.054 43.752 128.72C43.22 127.648 42.484 126.7 42.152 125.52C41.652 123.696 42.152 121.388 41.032 119.996C41.116 121.868 39.632 123.42 39.148 125.244C38.564 127.44 39.492 129.744 39.06 131.972C38.776 133.424 37.956 134.672 37.332 135.996C36.708 137.32 36.284 138.94 36.84 140.224C37.084 140.776 37.492 141.22 37.68 141.804C38.248 143.572 36.592 145.424 36.48 147.348C36.368 149.272 37.772 150.896 37.68 152.824C37.592 154.64 36.364 157.324 36.384 159.132C36.384 160.82 38.088 161.584 38.296 163.244C38.56 165.368 36.96 168.32 37.416 170.388C37.668 171.536 38.704 171.716 38.884 172.884C39.088 174.232 38.484 177.112 38.26 178.484C38.036 179.856 38.26 180.832 39.316 182.004L46.156 183.86C48.664 182 48 179.3 46.472 177.62Z" fill="#5C40CC"/>
<path d="M41.364 129.768C41.5248 130.464 41.6424 131.169 41.716 131.88C41.8175 132.716 41.7864 133.562 41.624 134.388C41.5064 134.902 41.325 135.399 41.084 135.868C40.84 136.372 40.544 136.876 40.284 137.424C39.9802 137.986 39.7861 138.601 39.712 139.236C39.6438 139.923 39.7007 140.617 39.88 141.284C40.224 142.684 40.948 144.084 41.48 145.616C41.764 146.413 41.8996 147.254 41.88 148.1C41.8563 148.539 41.7729 148.972 41.632 149.388C41.4623 149.788 41.314 150.196 41.188 150.612C40.984 151.464 41.304 152.344 41.656 153.172C41.832 153.592 42.016 154.016 42.16 154.464C42.3 154.918 42.3806 155.389 42.4 155.864C42.4013 156.8 42.2871 157.732 42.06 158.64C41.8458 159.512 41.6854 160.396 41.58 161.288C41.5379 161.719 41.5379 162.153 41.58 162.584C41.6327 163.007 41.7224 163.425 41.848 163.832C42.1307 164.623 42.3239 165.442 42.424 166.276C42.4361 167.08 42.32 167.881 42.08 168.648C41.8544 169.356 41.7199 170.09 41.68 170.832C41.7014 171.523 41.824 172.208 42.044 172.864C42.2463 173.477 42.4172 174.101 42.556 174.732C42.6623 175.314 42.6906 175.907 42.64 176.496C42.604 177.052 42.54 177.572 42.476 178.056C42.3393 178.879 42.295 179.715 42.344 180.548C42.3815 181.073 42.5403 181.582 42.808 182.036C43 182.34 43.132 182.48 43.124 182.488C42.9948 182.355 42.8783 182.21 42.776 182.056C42.4932 181.602 42.3206 181.088 42.272 180.556C42.2139 179.717 42.2487 178.875 42.376 178.044C42.432 177.56 42.496 177.04 42.528 176.492C42.5704 175.912 42.5382 175.328 42.432 174.756C42.2902 174.13 42.1166 173.512 41.912 172.904C41.6759 172.237 41.541 171.539 41.512 170.832C41.5537 170.077 41.688 169.33 41.912 168.608C42.1455 167.857 42.2576 167.074 42.244 166.288C42.1401 165.47 41.9483 164.665 41.672 163.888C41.541 163.472 41.4486 163.045 41.396 162.612C41.352 162.169 41.352 161.723 41.396 161.28C41.4997 160.381 41.66 159.49 41.876 158.612C42.0999 157.719 42.2128 156.801 42.212 155.88C42.1933 155.421 42.1154 154.967 41.98 154.528C41.84 154.092 41.656 153.672 41.48 153.248C41.2927 152.829 41.1428 152.394 41.032 151.948C40.9182 151.5 40.9099 151.032 41.008 150.58C41.1356 150.157 41.2865 149.742 41.46 149.336C41.5966 148.936 41.6774 148.518 41.7 148.096C41.7155 147.272 41.58 146.451 41.3 145.676C40.792 144.14 40.072 142.752 39.728 141.328C39.5449 140.644 39.4906 139.932 39.568 139.228C39.6464 138.579 39.8473 137.95 40.16 137.376C40.44 136.824 40.74 136.32 40.988 135.828C41.2274 135.368 41.4087 134.88 41.528 134.376C41.698 133.559 41.7385 132.721 41.648 131.892C41.588 131.208 41.5 130.692 41.444 130.324C41.42 130.151 41.4 130.017 41.384 129.924C41.3696 129.873 41.3629 129.821 41.364 129.768Z" fill="#263238"/>
<path d="M38.4 182.96C37.564 183.36 36.688 182.356 36.572 181.432C36.456 180.508 36.68 179.508 36.236 178.688C35.836 177.98 35.036 177.588 34.612 176.908C33.812 175.68 34.48 173.964 33.812 172.66C33.3 171.648 32.088 171.084 31.712 170.016C31.312 168.868 32.016 167.568 31.712 166.396C31.368 165.144 29.956 164.396 29.64 163.148C29.324 161.9 30.164 160.376 29.36 159.364C29.0536 159.069 28.7318 158.79 28.396 158.528C27.704 157.824 27.672 156.704 27.856 155.728C28.04 154.752 28.38 153.792 28.28 152.808C28.124 151.3 26.936 150.008 26.9 148.504C26.872 147.24 27.648 145.948 27.184 144.776C28.308 145.436 28.44 147.008 29.184 148.068C29.68 148.76 30.436 149.212 31.064 149.788C31.7004 150.383 32.2066 151.103 32.5508 151.903C32.8951 152.703 33.0698 153.565 33.064 154.436C33.064 155.584 32.748 156.836 33.344 157.816C34.064 159.016 35.772 159.208 36.652 160.284C37.912 161.828 36.944 164.38 38.152 165.96C38.464 166.36 38.9 166.672 39.188 167.1C40.164 168.548 39.036 170.584 39.588 172.232C40.012 173.432 41.288 174.232 41.632 175.476C41.896 176.428 41.588 177.588 42.236 178.336C42.5564 178.623 42.9033 178.879 43.272 179.1C43.5929 179.357 43.8372 179.696 43.9782 180.082C44.1193 180.468 44.1517 180.885 44.072 181.288C43.985 181.683 43.7772 182.04 43.4776 182.311C43.1779 182.582 42.8013 182.753 42.4 182.8" fill="#5C40CC"/>
<g opacity="0.5">
<path d="M43.308 179.108C42.9393 178.887 42.5924 178.631 42.272 178.344C41.624 177.596 41.932 176.436 41.668 175.484C41.324 174.244 40.068 173.456 39.624 172.24C39.052 170.592 40.18 168.556 39.224 167.108C38.936 166.68 38.5 166.376 38.188 165.968C36.988 164.388 37.948 161.836 36.688 160.292C35.808 159.216 34.1 159.012 33.38 157.824C32.784 156.84 33.088 155.592 33.1 154.444C33.1058 153.573 32.9311 152.71 32.5869 151.91C32.2426 151.11 31.7364 150.391 31.1 149.796C30.472 149.22 29.716 148.768 29.22 148.076C28.456 147.016 28.324 145.444 27.22 144.784C27.684 145.956 26.908 147.248 26.936 148.512C26.972 150.028 28.16 151.312 28.316 152.816C28.416 153.8 28.072 154.764 27.892 155.736C27.712 156.708 27.74 157.824 28.432 158.536C28.7678 158.798 29.0896 159.077 29.396 159.372C30.196 160.384 29.36 161.9 29.676 163.156C29.992 164.412 31.404 165.156 31.748 166.404C32.072 167.576 31.348 168.876 31.748 170.024C32.124 171.092 33.348 171.656 33.848 172.668C34.504 173.972 33.848 175.688 34.648 176.916C35.08 177.596 35.884 177.988 36.272 178.696C36.716 179.496 36.488 180.52 36.608 181.44C36.728 182.36 37.6 183.376 38.436 182.968L42.436 182.796C42.8467 182.764 43.2366 182.602 43.5493 182.334C43.8621 182.065 44.0815 181.705 44.176 181.304C44.2498 180.893 44.2076 180.47 44.0543 180.083C43.9009 179.695 43.6425 179.357 43.308 179.108Z" fill="white"/>
</g>
<path d="M41.8321 178.956C41.4155 178.712 41.076 178.356 40.8521 177.928C40.6761 177.416 41.2521 176.572 40.9921 175.672C40.6761 174.508 39.2121 172.956 38.8321 171.816C38.3201 170.264 39.2561 168.536 38.4321 167.176C38.1841 166.776 37.6321 165.652 37.3681 165.268C36.3441 163.788 37.1361 161.968 36.0681 160.524C35.3241 159.512 33.4841 158.864 32.8681 157.752C32.3561 156.828 32.5641 155.656 32.5401 154.572C32.5057 152.949 31.8732 151.397 30.7641 150.212C30.2401 149.676 29.6161 149.248 29.1921 148.612C28.5401 147.616 28.3921 146.144 27.4561 145.524C27.8561 146.628 27.2761 147.844 27.3401 149.028C27.4161 150.456 28.4161 151.656 28.5881 153.072C28.7001 153.996 28.4481 154.904 28.3321 155.816C28.2161 156.728 28.2721 157.78 28.8561 158.44C29.1081 158.724 29.4361 158.912 29.6561 159.24C30.3361 160.188 29.7001 161.616 29.9961 162.792C30.2921 163.968 31.4561 164.668 31.7721 165.84C32.0721 166.944 31.8561 168.788 32.2161 169.864C32.5561 170.872 33.7121 171.004 34.1561 171.956C34.7241 173.176 34.3361 175.252 35.0081 176.404C35.3841 177.04 36.0361 176.948 36.3721 177.604C36.7721 178.372 36.9561 180.208 37.0801 181.076C37.1161 181.478 37.257 181.864 37.4886 182.194C37.7202 182.525 38.0345 182.789 38.4001 182.96L42.8521 182.748C44.0001 181.14 43.0761 179.664 41.8321 178.956Z" fill="#5C40CC"/>
<path d="M29.524 151.304C29.524 151.304 29.524 151.324 29.576 151.376L29.704 151.6C29.816 151.8 29.98 152.096 30.156 152.492C30.3796 152.969 30.5267 153.478 30.5921 154C30.611 154.701 30.5384 155.402 30.376 156.084C30.3004 156.48 30.3004 156.888 30.376 157.284C30.4673 157.711 30.6353 158.117 30.872 158.484C31.348 159.252 32.048 159.936 32.66 160.768C32.9876 161.191 33.2344 161.671 33.388 162.184C33.461 162.454 33.496 162.732 33.492 163.012C33.4657 163.278 33.4564 163.545 33.4641 163.812C33.5623 164.355 33.8297 164.854 34.228 165.236C34.416 165.452 34.628 165.672 34.784 165.916C34.9517 166.164 35.0862 166.433 35.184 166.716C35.3689 167.278 35.4818 167.861 35.52 168.452C35.5583 169.014 35.6332 169.572 35.744 170.124C35.8667 170.657 36.0967 171.159 36.42 171.6C36.7361 172.022 37.0044 172.478 37.22 172.96C37.3839 173.44 37.469 173.944 37.472 174.452C37.4787 174.917 37.5432 175.379 37.6641 175.828C37.944 176.676 38.572 177.296 38.936 177.992C39.2361 178.624 39.4359 179.299 39.528 179.992C39.6051 180.51 39.7393 181.019 39.928 181.508C40.0515 181.813 40.2415 182.086 40.484 182.308C40.5791 182.374 40.67 182.446 40.756 182.524C40.6529 182.471 40.5552 182.408 40.464 182.336C40.2039 182.12 39.9983 181.846 39.864 181.536C39.6689 181.041 39.5293 180.526 39.448 180C39.3502 179.315 39.1464 178.65 38.844 178.028C38.488 177.356 37.844 176.744 37.54 175.848C37.236 174.952 37.448 173.932 37.084 172.996C36.8664 172.527 36.5981 172.083 36.284 171.672C35.958 171.218 35.7255 170.704 35.6 170.16C35.34 169.06 35.436 167.872 35.044 166.776C34.9447 166.507 34.8102 166.253 34.644 166.02C34.48 165.788 34.288 165.572 34.1 165.352C33.6773 164.943 33.3969 164.408 33.3 163.828C33.2929 163.549 33.3023 163.27 33.328 162.992C33.3356 162.722 33.3047 162.453 33.236 162.192C33.0866 161.699 32.8495 161.237 32.536 160.828C31.94 160.028 31.24 159.316 30.756 158.528C30.5145 158.15 30.3437 157.731 30.252 157.292C30.176 156.885 30.176 156.467 30.252 156.06C30.4227 155.388 30.5047 154.697 30.496 154.004C30.4403 153.485 30.3054 152.978 30.096 152.5C29.928 152.1 29.776 151.804 29.696 151.596C29.652 151.504 29.612 151.428 29.584 151.364C29.5622 151.346 29.5421 151.326 29.524 151.304Z" fill="#263238"/>
<path d="M56.584 174.732H29.896V179.464H56.584V174.732Z" fill="#455A64"/>
<path d="M31.8881 178.524L35.1321 192.66H51.0401L54.5921 178.524H31.8881Z" fill="#455A64"/>
<path d="M56.5681 179.468C56.5681 179.52 50.5681 179.564 43.1241 179.564C35.6801 179.564 29.6801 179.52 29.6801 179.468C29.6801 179.416 35.6801 179.376 43.1241 179.376C50.5681 179.376 56.5681 179.416 56.5681 179.468Z" fill="#263238"/>
<path d="M177.548 151.388C177.548 151.388 168.516 155.508 159.732 155.508C151.6 155.508 142.5 151.412 142.5 151.412L177.548 151.388Z" fill="#E0E0E0"/>
<path d="M158.812 188.268H162.296V151.78H158.812V188.268Z" fill="#E0E0E0"/>
<path d="M144.936 188.896H175.856V186.756H144.936V188.896Z" fill="#E0E0E0"/>
<path d="M172.232 189.816C172.231 190.283 172.369 190.74 172.628 191.128C172.887 191.517 173.255 191.82 173.686 191.999C174.117 192.178 174.592 192.226 175.05 192.135C175.508 192.044 175.929 191.82 176.259 191.49C176.59 191.16 176.815 190.74 176.906 190.282C176.998 189.824 176.951 189.349 176.773 188.918C176.594 188.486 176.292 188.117 175.904 187.858C175.515 187.598 175.059 187.46 174.592 187.46C173.967 187.46 173.367 187.708 172.925 188.15C172.482 188.592 172.233 189.191 172.232 189.816Z" fill="#263238"/>
<path d="M158.492 189.816C158.491 190.283 158.629 190.74 158.888 191.128C159.147 191.517 159.515 191.82 159.946 191.999C160.377 192.178 160.852 192.226 161.31 192.135C161.768 192.044 162.189 191.82 162.519 191.49C162.85 191.16 163.075 190.74 163.166 190.282C163.258 189.824 163.211 189.349 163.033 188.918C162.854 188.486 162.552 188.117 162.164 187.858C161.775 187.598 161.319 187.46 160.852 187.46C160.227 187.46 159.627 187.708 159.185 188.15C158.742 188.592 158.493 189.191 158.492 189.816Z" fill="#263238"/>
<path d="M142.58 189.816C142.579 190.283 142.717 190.74 142.976 191.128C143.235 191.517 143.603 191.82 144.034 191.999C144.465 192.178 144.94 192.226 145.398 192.135C145.856 192.044 146.277 191.82 146.607 191.49C146.938 191.16 147.163 190.74 147.254 190.282C147.346 189.824 147.299 189.349 147.121 188.918C146.942 188.486 146.64 188.117 146.252 187.858C145.863 187.598 145.407 187.46 144.94 187.46C144.315 187.46 143.715 187.708 143.273 188.15C142.83 188.592 142.581 189.191 142.58 189.816Z" fill="#263238"/>
<path d="M159.736 166.872H164.476V164.912H159.736V166.872Z" fill="#E0E0E0"/>
<path d="M163.612 168.244H165.336V163.536H163.612V168.244Z" fill="#E0E0E0"/>
<path d="M140.948 151.388H180.4C181.095 151.388 181.761 151.112 182.253 150.621C182.744 150.129 183.02 149.463 183.02 148.768C183.02 148.073 182.744 147.407 182.253 146.915C181.761 146.424 181.095 146.148 180.4 146.148H140.948C140.253 146.148 139.587 146.424 139.096 146.915C138.604 147.407 138.328 148.073 138.328 148.768C138.328 149.463 138.604 150.129 139.096 150.621C139.587 151.112 140.253 151.388 140.948 151.388Z" fill="#455A64"/>
<path d="M177.296 82.428C177.296 82.428 180.472 81.188 180.34 78.48C180.208 75.772 176.56 73.092 176.776 69.028C176.98 65.212 171.516 53.88 163.712 57.828C162.403 57.6583 161.074 57.7316 159.792 58.044C157.276 58.764 156.492 61.172 154.992 63.556C152.7 67.236 151.136 70.136 152.244 72.7C153.352 75.264 153.816 76.016 152.956 78.204C151.836 81.06 150.688 80.232 151.064 82.728L157.864 82.836L158.508 81.172L158.58 82.972L162.58 82.92L177.296 82.428Z" fill="#263238"/>
<path d="M157.884 61.832C157.968 62.884 157.28 63.832 156.584 64.632C155.888 65.432 155.116 66.232 154.984 67.292C154.728 69.14 156.544 70.848 156.184 72.68C155.992 73.66 155.192 74.452 155.052 75.444C154.912 76.436 155.452 77.336 156.08 78.064C156.708 78.792 157.496 79.392 158.08 80.18C158.08 80.18 159.26 82.096 162.88 80.848" fill="#263238"/>
<path d="M160.98 60.4959L169.952 62.3999C170.371 62.427 170.764 62.6107 171.054 62.9145C171.344 63.2184 171.509 63.6201 171.516 64.0399L171.408 83.4599C171.401 84.787 170.956 86.0746 170.144 87.1239L169.288 88.2279C167.336 90.7439 163.384 90.4879 161.892 87.6759C161.801 87.5168 161.732 87.3458 161.688 87.1679C161.651 87.0231 161.623 86.8762 161.604 86.7279L161.432 84.8359C161.344 83.1079 161.332 81.3479 161.332 81.3639C161.332 81.3799 157.66 80.8999 156.716 76.1639C156.248 73.8119 156.22 69.9239 156.296 66.7439C156.364 63.8799 158.12 60.3039 160.98 60.4959Z" fill="#FFBE9D"/>
<path d="M157.66 70.3999C157.665 70.5591 157.732 70.7101 157.846 70.8213C157.96 70.9324 158.113 70.995 158.272 70.9959C158.352 70.9987 158.431 70.9852 158.505 70.9563C158.579 70.9275 158.647 70.8839 158.704 70.8282C158.76 70.7725 158.805 70.7058 158.836 70.6321C158.866 70.5585 158.881 70.4795 158.88 70.3999C158.875 70.2407 158.808 70.0897 158.694 69.9786C158.58 69.8675 158.427 69.8049 158.268 69.8039C158.188 69.8012 158.109 69.8147 158.035 69.8435C157.961 69.8724 157.893 69.916 157.836 69.9717C157.779 70.0274 157.735 70.0941 157.704 70.1677C157.674 70.2413 157.659 70.3203 157.66 70.3999Z" fill="#263238"/>
<path d="M157.2 68.7319C157.28 68.8079 157.728 68.4479 158.4 68.4239C159.072 68.3999 159.552 68.7119 159.62 68.6279C159.688 68.5439 159.572 68.4479 159.356 68.3039C159.064 68.1191 158.722 68.0284 158.376 68.0439C158.034 68.0534 157.704 68.1742 157.436 68.3879C157.24 68.5519 157.176 68.6959 157.2 68.7319Z" fill="#263238"/>
<path d="M163.548 70.24C163.553 70.3992 163.62 70.5502 163.734 70.6613C163.848 70.7724 164.001 70.835 164.16 70.836C164.238 70.8392 164.316 70.8268 164.39 70.7994C164.463 70.772 164.53 70.7303 164.587 70.6767C164.644 70.623 164.69 70.5585 164.722 70.487C164.753 70.4154 164.771 70.3382 164.772 70.26C164.767 70.1005 164.7 69.9493 164.584 69.8387C164.469 69.7281 164.316 69.6669 164.156 69.668C164.078 69.6648 164.001 69.6771 163.928 69.7043C163.855 69.7314 163.788 69.7729 163.732 69.8261C163.675 69.8794 163.63 69.9435 163.598 70.0145C163.567 70.0856 163.55 70.1622 163.548 70.24Z" fill="#263238"/>
<path d="M163.456 68.5719C163.532 68.6479 163.984 68.2879 164.656 68.2639C165.328 68.2399 165.808 68.5519 165.856 68.4679C165.904 68.3839 165.808 68.2879 165.592 68.1439C165.3 67.9579 164.958 67.8671 164.612 67.8839C164.27 67.8934 163.94 68.0142 163.672 68.2279C163.48 68.3999 163.416 68.5359 163.456 68.5719Z" fill="#263238"/>
<path d="M161.484 73.568C161.133 73.4744 160.771 73.4234 160.408 73.416C160.24 73.416 160.08 73.38 160.048 73.268C160.028 73.0946 160.06 72.9192 160.14 72.764C160.284 72.364 160.432 71.92 160.588 71.468C161.204 69.62 161.644 68.108 161.572 68.084C161.5 68.06 160.936 69.536 160.316 71.38L159.892 72.684C159.795 72.8914 159.772 73.1259 159.828 73.348C159.856 73.4054 159.896 73.456 159.946 73.4961C159.996 73.5362 160.054 73.5648 160.116 73.58C160.209 73.6019 160.304 73.6113 160.4 73.608C160.761 73.6432 161.126 73.6298 161.484 73.568Z" fill="#263238"/>
<path d="M161.332 81.36C163.575 81.3083 165.759 80.6339 167.64 79.412C167.64 79.412 166.168 82.772 161.384 82.512L161.332 81.36Z" fill="#EB996E"/>
<path d="M161.824 75.14C161.944 74.9791 162.103 74.8508 162.285 74.7669C162.467 74.6831 162.668 74.6463 162.868 74.66C163.013 74.6679 163.155 74.7049 163.286 74.7688C163.416 74.8327 163.533 74.9222 163.628 75.032C163.72 75.1377 163.778 75.2693 163.793 75.4088C163.808 75.5483 163.78 75.6891 163.712 75.812C163.611 75.9335 163.476 76.0223 163.324 76.0672C163.173 76.112 163.011 76.1109 162.86 76.064C162.545 75.9688 162.253 75.811 162 75.6C161.925 75.549 161.858 75.4854 161.804 75.412C161.78 75.3761 161.766 75.3336 161.766 75.29C161.766 75.2465 161.78 75.204 161.804 75.168" fill="#EB996E"/>
<path d="M163.436 73.9479C163.328 73.9479 163.352 74.6599 162.764 75.1879C162.176 75.7159 161.412 75.6719 161.408 75.7679C161.404 75.8639 161.584 75.9039 161.904 75.8999C162.322 75.8873 162.723 75.7288 163.036 75.4519C163.336 75.186 163.522 74.8151 163.556 74.4159C163.568 74.1159 163.484 73.9439 163.436 73.9479Z" fill="#263238"/>
<path d="M163.492 66.6199C163.564 66.7959 164.216 66.6879 164.992 66.7479C165.768 66.8079 166.396 66.9999 166.492 66.8359C166.536 66.7559 166.42 66.5919 166.164 66.4359C165.82 66.2338 165.434 66.1159 165.036 66.0919C164.64 66.0589 164.242 66.122 163.876 66.2759C163.6 66.3999 163.46 66.5359 163.492 66.6199Z" fill="#263238"/>
<path d="M157.296 65.8519C157.416 65.9959 157.864 65.8239 158.408 65.7959C158.952 65.7679 159.416 65.8559 159.516 65.6959C159.56 65.6199 159.48 65.4719 159.276 65.3359C158.999 65.1754 158.68 65.1019 158.36 65.1247C158.041 65.1475 157.736 65.2657 157.484 65.4639C157.296 65.6239 157.24 65.7799 157.296 65.8519Z" fill="#263238"/>
<path d="M173.92 62.4C173.256 60.444 170.576 58.2999 168.052 57.3359C167.34 57.0712 166.575 56.9791 165.821 57.0675C165.066 57.1558 164.344 57.4219 163.712 57.844L160.512 59.964C160.678 60.745 161.052 61.4667 161.594 62.0531C162.136 62.6395 162.826 63.0689 163.592 63.296C164.392 63.528 165.388 63.5759 165.884 64.2679C166.38 64.9599 166.124 66.016 166.6 66.7439C167.256 67.752 169 67.6679 169.496 68.7439C169.716 69.224 169.616 69.8 169.844 70.276C170.144 70.908 171.776 71.684 172.44 71.476C173.104 71.268 173.08 70.1119 173.288 69.5119C173.548 68.8352 173.568 68.0895 173.344 67.4C173.02 66.0479 174.364 63.6919 173.92 62.4Z" fill="#263238"/>
<path d="M170.476 72.064C170.476 71.708 170.84 70.864 171.188 70.788C172.12 70.608 173.808 70.616 173.916 72.992C174.064 76.236 170.772 75.716 170.764 75.624C170.756 75.532 170.52 73.288 170.476 72.064Z" fill="#FFBE9D"/>
<path d="M171.7 74.348C171.7 74.348 171.756 74.384 171.856 74.424C171.992 74.48 172.144 74.48 172.28 74.424C172.616 74.284 172.88 73.728 172.868 73.14C172.864 72.8619 172.797 72.5883 172.672 72.34C172.635 72.2428 172.576 72.1557 172.499 72.0861C172.421 72.0165 172.329 71.9664 172.228 71.94C172.162 71.9255 172.093 71.9348 172.033 71.9663C171.973 71.9977 171.926 72.0493 171.9 72.112C171.864 72.204 171.9 72.268 171.868 72.272C171.836 72.276 171.796 72.224 171.816 72.088C171.831 72.006 171.874 71.9314 171.936 71.876C172.023 71.8061 172.133 71.7718 172.244 71.78C172.378 71.8009 172.505 71.8556 172.612 71.9389C172.719 72.0222 172.803 72.1313 172.856 72.256C173.008 72.5304 173.091 72.8382 173.096 73.152C173.096 73.808 172.796 74.436 172.332 74.592C172.246 74.6205 172.155 74.6295 172.065 74.6184C171.975 74.6074 171.889 74.5765 171.812 74.528C171.708 74.428 171.688 74.356 171.7 74.348Z" fill="#EB996E"/>
<path d="M149.468 96.5559L143.728 111.528L132.928 112.216L131.26 116.908L145.516 119.672C145.516 119.672 149.804 120.92 152.248 115.476L156.428 100.584L149.468 96.5559Z" fill="#FFBE9D"/>
<path d="M122.676 114.556C122.738 114.683 122.837 114.789 122.959 114.86C123.082 114.932 123.223 114.965 123.364 114.956C123.424 114.951 123.483 114.939 123.54 114.92C123.94 114.788 123.912 113.956 123.912 113.956L125.868 113.636C125.868 113.636 128.412 115.276 129.32 116.364C130.228 117.452 132.52 116.572 132.52 116.572L133.32 112.4L129.72 109.144C129.72 109.144 129.944 109.336 129.692 108.744C129.44 108.152 128.312 108.364 128.312 108.364C128.136 108.064 127.396 107.964 127.396 107.964L124.24 108.328C123.915 108.362 123.603 108.47 123.326 108.642C123.049 108.815 122.814 109.048 122.64 109.324L121.304 111.436C121.304 111.436 120.596 112.96 120.712 113.316C120.765 113.46 120.87 113.581 121.005 113.654C121.14 113.728 121.298 113.75 121.448 113.716C121.448 113.716 121.604 114.716 121.848 114.752C122.124 114.739 122.395 114.676 122.648 114.564L122.676 114.556Z" fill="#FFBE9D"/>
<path d="M128.628 115.692C128.561 115.65 128.498 115.602 128.44 115.548L127.912 115.124C127.247 114.608 126.554 114.13 125.836 113.692H125.88L123.924 114.024L123.992 113.94C123.998 114.101 123.986 114.262 123.956 114.42C123.93 114.595 123.852 114.758 123.732 114.888C123.659 114.953 123.569 114.995 123.472 115.008C123.382 115.028 123.29 115.028 123.2 115.008C123.01 114.98 122.837 114.885 122.712 114.74C122.68 114.704 122.652 114.665 122.628 114.624L122.608 114.592C122.584 114.592 122.824 114.672 122.724 114.632L122.66 114.656C122.58 114.688 122.496 114.72 122.408 114.748C122.32 114.774 122.23 114.796 122.14 114.812C122.092 114.816 122.044 114.816 121.996 114.812C121.934 114.819 121.872 114.808 121.816 114.78C121.728 114.714 121.661 114.623 121.624 114.52C121.585 114.433 121.552 114.343 121.524 114.252C121.472 114.069 121.431 113.883 121.4 113.696L121.516 113.776C121.383 113.805 121.244 113.798 121.115 113.754C120.986 113.71 120.872 113.632 120.784 113.528C120.694 113.415 120.647 113.273 120.652 113.128C120.66 113 120.682 112.874 120.72 112.752C120.866 112.27 121.047 111.8 121.26 111.344C121.484 110.984 121.728 110.604 121.972 110.216C122.124 109.976 122.272 109.736 122.424 109.5C122.563 109.252 122.728 109.02 122.916 108.808C123.12 108.605 123.362 108.445 123.628 108.336C123.885 108.241 124.154 108.184 124.428 108.168L127.408 107.836H127.432C127.609 107.865 127.783 107.91 127.952 107.972C128.134 108.027 128.294 108.139 128.408 108.292L128.296 108.256C128.457 108.182 128.634 108.149 128.811 108.159C128.988 108.169 129.16 108.221 129.312 108.312C129.576 108.505 129.756 108.791 129.816 109.112L129.792 109.072L132.272 111.304L132.94 111.92C133.021 111.988 133.096 112.063 133.164 112.144C133.073 112.089 132.989 112.025 132.912 111.952L132.216 111.368L129.684 109.2V109.176C129.629 108.896 129.471 108.648 129.24 108.48C129.111 108.405 128.966 108.362 128.816 108.356C128.667 108.35 128.519 108.38 128.384 108.444L128.316 108.472L128.276 108.408C128.18 108.293 128.052 108.21 127.908 108.168C127.749 108.112 127.586 108.07 127.42 108.044H127.444L124.468 108.396C124.21 108.41 123.955 108.463 123.712 108.552C123.472 108.651 123.255 108.796 123.072 108.98C122.894 109.183 122.737 109.405 122.604 109.64L122.152 110.356L121.44 111.484C121.233 111.93 121.056 112.39 120.912 112.86C120.878 112.968 120.856 113.079 120.848 113.192C120.845 113.29 120.878 113.385 120.94 113.46C121.005 113.535 121.089 113.592 121.183 113.624C121.278 113.655 121.379 113.661 121.476 113.64H121.572V113.736C121.601 113.914 121.641 114.091 121.692 114.264C121.721 114.421 121.791 114.567 121.896 114.688C121.922 114.695 121.95 114.695 121.976 114.688H122.096C122.179 114.674 122.26 114.654 122.34 114.628L122.58 114.544L122.64 114.524L122.756 114.568V114.596C122.775 114.629 122.798 114.66 122.824 114.688C122.92 114.801 123.053 114.877 123.2 114.9C123.271 114.914 123.345 114.914 123.416 114.9C123.481 114.894 123.543 114.867 123.592 114.824C123.757 114.591 123.833 114.308 123.808 114.024V113.952H123.876L125.836 113.648H125.86H125.88C126.597 114.097 127.282 114.594 127.932 115.136C128.16 115.328 128.332 115.48 128.44 115.588C128.506 115.617 128.569 115.652 128.628 115.692Z" fill="#EB996E"/>
<path d="M127.788 109.464C127.466 109.609 127.125 109.71 126.776 109.764C125.919 109.939 125.042 110.003 124.168 109.952L124.272 109.884C124.22 110.04 124.164 110.204 124.096 110.364C123.726 111.288 123.183 112.132 122.496 112.852C122.289 113.067 122.067 113.267 121.832 113.452C121.66 113.58 121.564 113.644 121.552 113.632C121.54 113.62 121.896 113.312 122.388 112.752C123.028 112.021 123.542 111.188 123.908 110.288C123.972 110.128 124.028 109.968 124.08 109.82L124.108 109.744H124.184C125.043 109.796 125.905 109.755 126.756 109.624C127.396 109.532 127.78 109.432 127.788 109.464Z" fill="#EB996E"/>
<path d="M124.8 111.304C124.682 111.951 124.407 112.559 124 113.076C123.657 113.634 123.178 114.097 122.608 114.42C122.568 114.372 123.232 113.82 123.832 112.956C124.432 112.092 124.732 111.284 124.8 111.304Z" fill="#EB996E"/>
<path d="M133.156 115.304C133.156 115.304 133.124 115.328 133.056 115.36C132.955 115.409 132.851 115.449 132.744 115.48C132.342 115.606 131.92 115.654 131.5 115.624C130.853 115.581 130.232 115.356 129.708 114.976C129.04 114.485 128.563 113.778 128.356 112.976L128.472 113.052C127.719 113.194 126.951 113.23 126.188 113.16C125.905 113.132 125.623 113.09 125.344 113.032C125.065 112.988 124.795 112.899 124.544 112.768C124.405 112.693 124.297 112.571 124.24 112.424C124.217 112.348 124.21 112.268 124.219 112.189C124.228 112.11 124.253 112.033 124.292 111.964C124.37 111.829 124.498 111.73 124.648 111.688L125.012 111.6C125.972 111.368 126.848 111.2 127.584 111.084C128.32 110.968 128.92 110.9 129.336 110.864C129.551 110.836 129.767 110.825 129.984 110.832C129.776 110.888 129.563 110.925 129.348 110.944C128.948 111.004 128.34 111.096 127.608 111.228C126.876 111.36 126.008 111.544 125.06 111.784L124.7 111.88C124.65 111.892 124.604 111.915 124.564 111.947C124.524 111.978 124.491 112.018 124.468 112.064C124.442 112.108 124.425 112.157 124.419 112.208C124.412 112.259 124.417 112.311 124.432 112.36C124.474 112.462 124.552 112.545 124.652 112.592C124.884 112.71 125.134 112.789 125.392 112.828C125.664 112.884 125.939 112.925 126.216 112.952C126.96 113.021 127.709 112.987 128.444 112.852H128.536L128.56 112.944C128.731 113.623 129.106 114.233 129.636 114.691C130.165 115.149 130.823 115.433 131.52 115.504C131.922 115.542 132.327 115.513 132.72 115.42C132.863 115.373 133.009 115.335 133.156 115.304Z" fill="#EB996E"/>
<path d="M129.448 168.848C129.421 168.731 129.421 168.609 129.448 168.492C129.502 168.166 129.624 167.855 129.808 167.58C129.869 167.485 129.941 167.397 130.024 167.32C130.076 167.27 130.141 167.235 130.211 167.219C130.282 167.203 130.355 167.206 130.424 167.228C130.465 167.243 130.503 167.266 130.534 167.298C130.565 167.329 130.589 167.366 130.604 167.408C130.629 167.487 130.629 167.573 130.604 167.652C130.549 167.777 130.487 167.899 130.416 168.016C130.276 168.252 130.16 168.488 129.98 168.752C129.926 168.827 129.854 168.887 129.769 168.925C129.685 168.963 129.592 168.978 129.5 168.968C129.331 168.939 129.171 168.869 129.036 168.764C128.784 168.582 128.555 168.371 128.352 168.136C128.256 168.02 128.168 167.904 128.084 167.784C127.991 167.666 127.923 167.53 127.884 167.384C127.865 167.298 127.875 167.209 127.912 167.13C127.948 167.05 128.01 166.985 128.088 166.944C128.163 166.923 128.241 166.921 128.317 166.938C128.392 166.956 128.462 166.992 128.52 167.044C128.693 167.196 128.846 167.37 128.976 167.56C129.165 167.825 129.315 168.116 129.42 168.424C129.47 168.533 129.497 168.652 129.5 168.772C129.32 168.377 129.103 168.001 128.852 167.648C128.725 167.478 128.578 167.324 128.416 167.188C128.382 167.157 128.341 167.135 128.296 167.123C128.252 167.111 128.205 167.11 128.16 167.12C128.122 167.142 128.093 167.176 128.078 167.217C128.062 167.258 128.062 167.303 128.076 167.344C128.112 167.463 128.172 167.573 128.252 167.668C128.333 167.782 128.42 167.891 128.512 167.996C128.704 168.217 128.922 168.416 129.16 168.588C129.264 168.675 129.39 168.733 129.524 168.756C129.58 168.763 129.637 168.755 129.689 168.732C129.74 168.708 129.784 168.671 129.816 168.624C129.964 168.408 130.108 168.14 130.244 167.916C130.313 167.813 130.374 167.705 130.424 167.592C130.46 167.488 130.424 167.424 130.368 167.392C130.208 167.328 130.048 167.512 129.936 167.668C129.702 168.028 129.537 168.428 129.448 168.848Z" fill="#263238"/>
<path d="M138.72 169.168L143.324 179.144L150.752 175.712L145.988 163.364L138.72 169.168Z" fill="#FFBE9D"/>
<path d="M142.452 178.476L145.14 183.6C145.14 183.6 138.256 190.72 138.904 192.312L155.088 184.552L150.64 174.268L142.452 178.476Z" fill="#455A64"/>
<path d="M149.812 180.504C149.988 180.481 150.165 180.523 150.313 180.622C150.46 180.721 150.566 180.869 150.612 181.04C150.641 181.215 150.604 181.394 150.507 181.543C150.41 181.691 150.26 181.797 150.088 181.84C149.899 181.869 149.705 181.826 149.546 181.72C149.386 181.615 149.271 181.454 149.224 181.268C149.206 181.078 149.263 180.888 149.382 180.738C149.501 180.589 149.674 180.492 149.864 180.468" fill="#E0E0E0"/>
<g opacity="0.6">
<path d="M155.088 184.556L154.4 183.264L139.148 191.2C139.148 191.2 138.58 191.86 138.904 192.328L155.088 184.556Z" fill="white"/>
</g>
<path d="M144.84 183.648C144.88 183.728 145.292 183.572 145.804 183.648C146.316 183.724 146.68 183.948 146.74 183.884C146.8 183.82 146.46 183.416 145.84 183.344C145.22 183.272 144.8 183.6 144.84 183.648Z" fill="#263238"/>
<path d="M143.48 185.164C143.48 185.248 143.904 185.22 144.332 185.424C144.76 185.628 145.008 185.948 145.084 185.908C145.16 185.868 145 185.396 144.46 185.148C143.92 184.9 143.444 185.088 143.48 185.164Z" fill="#263238"/>
<path d="M143.488 187.66C143.568 187.66 143.488 187.192 143.088 186.86C142.688 186.528 142.224 186.532 142.224 186.612C142.224 186.692 142.56 186.816 142.892 187.096C143.224 187.376 143.408 187.688 143.488 187.66Z" fill="#263238"/>
<path d="M144.068 181.672C144.136 181.728 144.448 181.448 144.908 181.272C145.368 181.096 145.784 181.06 145.792 180.972C145.8 180.884 145.332 180.764 144.792 180.972C144.252 181.18 144 181.628 144.068 181.672Z" fill="#263238"/>
<path d="M140.936 177.144L128.8 146.8C128.8 146.8 129.072 141.6 130.024 139.98C130.976 138.36 159.888 128.8 159.888 128.8C159.888 128.8 167.252 127.028 172.16 128.8C177.068 130.572 182.208 132.356 181.66 135.788C180.852 140.8 176.508 146 176.508 146L155.252 146.632L143.652 150.856L151.452 173.216L140.936 177.144Z" fill="#263238"/>
<path d="M130.144 156.396L129.872 167.38L138.052 167.58L139.228 154.396L130.144 156.396Z" fill="#FFBE9D"/>
<path d="M129.384 166.4L129.532 172.192C129.532 172.192 120.212 175.54 120.092 177.252L138.036 177.432L138.588 166.232L129.384 166.4Z" fill="#455A64"/>
<path d="M135.088 171.464C135.261 171.519 135.407 171.635 135.499 171.791C135.591 171.946 135.623 172.13 135.588 172.308C135.538 172.48 135.425 172.626 135.271 172.718C135.118 172.809 134.935 172.839 134.76 172.8C134.577 172.742 134.422 172.619 134.325 172.453C134.228 172.288 134.196 172.092 134.236 171.904C134.305 171.728 134.44 171.586 134.611 171.507C134.782 171.428 134.978 171.418 135.156 171.48" fill="#E0E0E0"/>
<g opacity="0.6">
<path d="M138.036 177.428L138.004 175.976L120.804 176.344C120.804 176.344 120.004 176.684 120.088 177.248L138.036 177.428Z" fill="white"/>
</g>
<path d="M129.244 172.092C129.244 172.18 129.684 172.224 130.112 172.492C130.54 172.76 130.764 173.152 130.848 173.116C130.932 173.08 130.8 172.576 130.276 172.24C129.752 171.904 129.224 172 129.244 172.092Z" fill="#263238"/>
<path d="M127.352 172.852C127.332 172.936 127.708 173.088 128.004 173.464C128.3 173.84 128.38 174.228 128.468 174.228C128.556 174.228 128.616 173.728 128.24 173.272C127.864 172.816 127.356 172.768 127.352 172.852Z" fill="#263238"/>
<path d="M126.26 175.092C126.34 175.092 126.468 174.692 126.26 174.196C126.052 173.7 125.632 173.516 125.592 173.588C125.552 173.66 125.804 173.92 125.992 174.32C126.18 174.72 126.172 175.084 126.26 175.092Z" fill="#263238"/>
<path d="M129.424 170C129.46 170.08 129.86 169.96 130.356 170C130.852 170.04 131.236 170.2 131.284 170.124C131.332 170.048 130.96 169.724 130.376 169.696C129.792 169.668 129.38 169.908 129.424 170Z" fill="#263238"/>
<path d="M134.92 125.9C134.92 125.9 130.02 125.5 129.476 130.828C128.932 136.156 128.4 160.96 128.4 160.96L139.856 161.912L141.628 136.552L159.888 128.8C159.888 128.8 138.192 125.22 134.92 125.9Z" fill="#263238"/>
<path d="M155.12 118.724C155.12 118.724 152.148 127.064 152.72 127.992C153.292 128.92 160.936 132.748 160.936 132.748L180.076 140.096C180.076 140.096 182.04 136.972 182.04 132.168C182.04 127.364 175.384 118.724 175.384 118.724H155.12Z" fill="#263238"/>
<path d="M160.8 128.356L160.708 128.404L160.436 128.532L159.376 129L155.4 130.736L141.664 136.648L141.724 136.56C141.552 139.064 141.364 141.76 141.168 144.56C140.704 151.104 140.276 157.136 139.936 161.912V161.996H139.852L131.508 161.264L129.212 161.052L128.608 160.988C128.54 160.983 128.471 160.973 128.404 160.96C128.473 160.954 128.543 160.954 128.612 160.96L129.216 160.996L131.516 161.164L139.864 161.824L139.772 161.904C140.1 157.128 140.516 151.104 140.972 144.552C141.168 141.752 141.372 139.048 141.536 136.552V136.492L141.596 136.468L155.36 130.624L159.36 128.944L160.436 128.504L160.712 128.396C160.739 128.379 160.769 128.365 160.8 128.356Z" fill="#455A64"/>
<path d="M176 129.2C175.817 129.167 175.638 129.118 175.464 129.052L174.02 128.588C172.455 128.055 170.85 127.647 169.22 127.368C167.582 127.1 165.91 127.121 164.28 127.432C163.612 127.588 162.952 127.779 162.304 128.004C162.458 127.9 162.625 127.816 162.8 127.752C163.269 127.556 163.753 127.399 164.248 127.284C165.893 126.924 167.591 126.88 169.252 127.156C170.901 127.433 172.52 127.865 174.088 128.444C174.692 128.656 175.176 128.844 175.512 128.972C175.682 129.03 175.846 129.107 176 129.2Z" fill="#455A64"/>
<path d="M173.312 124.8C172.754 124.765 172.194 124.765 171.636 124.8C171.12 124.836 170.508 124.916 169.824 124.996C169.14 125.076 168.396 125.168 167.62 125.316C166.291 125.528 165.016 126 163.868 126.704C163.412 127.024 162.978 127.374 162.568 127.752C162.643 127.619 162.738 127.498 162.848 127.392C163.13 127.092 163.444 126.824 163.784 126.592C164.93 125.835 166.224 125.332 167.58 125.116C168.38 124.968 169.12 124.88 169.804 124.812C170.488 124.744 171.104 124.68 171.628 124.66C172.042 124.643 172.457 124.662 172.868 124.716C173.02 124.719 173.17 124.747 173.312 124.8Z" fill="#455A64"/>
<path d="M148.036 95.016C148.036 95.016 151.456 89.308 152.408 88.152C153.171 87.2606 154.129 86.5571 155.208 86.096C155.634 85.9096 156.082 85.7753 156.54 85.696L161.464 84.608C161.464 84.608 161.464 87.968 164.996 88.176C168.528 88.384 171.48 83.48 171.48 83.48C171.48 83.48 177.168 84.36 178.528 85.06C179.888 85.76 182.028 86.66 183.208 92.54L184.032 98.308L174.228 99.2L173.288 113.776L168.424 117.2C168.424 117.2 154.94 120.704 154.08 120.936C153.22 121.168 152.932 99.2 152.932 99.2C152.932 99.2 149.468 96.98 148.036 95.016Z" fill="#5C40CC"/>
<path d="M154.488 92.564C154.412 92.6975 154.349 92.8381 154.3 92.984C154.188 93.26 154.044 93.664 153.9 94.184C153.075 96.8319 152.735 99.6071 152.896 102.376C152.928 102.908 152.968 103.336 153.012 103.628C153.023 103.781 153.05 103.932 153.092 104.08C153.111 103.927 153.111 103.773 153.092 103.62C153.072 103.324 153.052 102.9 153.04 102.372C152.957 99.6212 153.293 96.8737 154.036 94.224C154.176 93.716 154.3 93.308 154.388 93.024C154.442 92.8758 154.476 92.7211 154.488 92.564Z" fill="#263238"/>
<path d="M174.584 92.2159C174.603 92.3647 174.603 92.5152 174.584 92.6639C174.584 92.9919 174.556 93.3959 174.536 93.8639C174.488 94.9319 174.42 96.3199 174.348 97.8639C174.276 99.4079 174.196 100.832 174.116 101.864C174.08 102.372 174.044 102.784 174.012 103.064C174.007 103.213 173.984 103.361 173.944 103.504C173.923 103.357 173.923 103.207 173.944 103.06C173.944 102.728 173.968 102.324 173.984 101.86C174.028 100.788 174.088 99.4039 174.152 97.8599C174.216 96.3159 174.316 94.8919 174.4 93.8599C174.444 93.3479 174.484 92.9359 174.516 92.6599C174.522 92.5098 174.544 92.3609 174.584 92.2159Z" fill="#263238"/>
<path d="M154.908 116.436L173.376 112.436L174.228 99.236L182.44 98.48C182.44 98.48 181.864 107.484 181.82 110.184C181.7 117.968 179.084 119.308 177.752 120.36C176.42 121.412 154.08 120.936 154.08 120.936L154.908 116.436Z" fill="#FFBE9D"/>
<path d="M144.424 118.828C144.486 118.955 144.585 119.061 144.707 119.132C144.83 119.204 144.971 119.237 145.112 119.228C145.173 119.22 145.233 119.207 145.292 119.188C145.692 119.06 145.664 118.228 145.664 118.228L147.62 117.908C147.62 117.908 150.164 119.548 151.068 120.636C151.972 121.724 154.268 120.844 154.268 120.844L155.068 116.672L151.468 113.416C151.468 113.416 151.688 113.608 151.44 113.016C151.192 112.424 150.06 112.636 150.06 112.636C149.884 112.336 149.144 112.236 149.144 112.236L145.984 112.6C145.66 112.634 145.347 112.741 145.07 112.913C144.793 113.085 144.559 113.317 144.384 113.592L143.048 115.708C143.048 115.708 142.344 117.232 142.456 117.584C142.509 117.729 142.613 117.85 142.748 117.923C142.884 117.997 143.042 118.019 143.192 117.984C143.192 117.984 143.348 118.988 143.612 119.02C143.882 119.008 144.146 118.944 144.392 118.832L144.424 118.828Z" fill="#FFBE9D"/>
<path d="M151.152 115.832C151.152 115.868 150.728 115.832 150.052 115.856C149.174 115.898 148.306 116.061 147.472 116.34C147.015 116.494 146.571 116.684 146.144 116.908C145.764 117.124 145.364 117.308 145.24 117.576C145.214 117.637 145.203 117.704 145.21 117.77C145.216 117.837 145.239 117.901 145.276 117.956C145.334 118.045 145.418 118.115 145.516 118.156C145.605 118.184 145.698 118.198 145.792 118.196C145.792 118.196 145.692 118.284 145.488 118.228C145.367 118.193 145.26 118.12 145.184 118.02C145.13 117.951 145.095 117.869 145.082 117.782C145.068 117.695 145.077 117.606 145.108 117.524C145.194 117.34 145.334 117.185 145.508 117.08C145.68 116.968 145.86 116.852 146.06 116.744C147.284 116.067 148.661 115.713 150.06 115.716C150.428 115.7 150.796 115.739 151.152 115.832Z" fill="#EB996E"/>
<path d="M151.372 117.848C151.372 117.908 150.084 117.848 148.504 117.948C146.924 118.048 145.652 118.232 145.64 118.172C145.905 118.071 146.182 118.004 146.464 117.972C147.136 117.86 147.813 117.784 148.492 117.744C149.172 117.706 149.853 117.706 150.532 117.744C150.816 117.741 151.098 117.776 151.372 117.848Z" fill="#EB996E"/>
<path d="M144.444 118.748C144.416 118.638 144.403 118.525 144.404 118.412C144.384 118.104 144.384 117.796 144.404 117.488C144.414 117.272 144.443 117.058 144.492 116.848C144.548 116.601 144.653 116.367 144.8 116.16C145.117 115.684 145.524 115.277 146 114.96C146.467 114.637 146.975 114.38 147.512 114.196C147.956 114.07 148.414 114.001 148.876 113.992C149.276 113.992 149.584 113.992 149.8 113.992C149.913 113.987 150.027 113.999 150.136 114.028C149.721 114.088 149.303 114.123 148.884 114.132C148.438 114.163 147.996 114.245 147.568 114.376C147.053 114.561 146.564 114.814 146.116 115.128C145.664 115.435 145.274 115.826 144.968 116.28C144.724 116.647 144.585 117.075 144.568 117.516C144.468 118.264 144.488 118.752 144.444 118.748Z" fill="#EB996E"/>
<path d="M149.008 113.016C149.008 113.048 148.536 113.06 147.78 113.148C147.024 113.236 145.888 113.312 145.228 114.312C144.583 115.061 144.045 115.896 143.628 116.792C143.491 117.182 143.39 117.583 143.328 117.992C143.308 117.881 143.308 117.767 143.328 117.656C143.345 117.35 143.407 117.048 143.512 116.76C143.893 115.829 144.422 114.966 145.08 114.204C145.258 113.972 145.465 113.764 145.696 113.584C145.92 113.422 146.172 113.303 146.44 113.232C146.878 113.117 147.327 113.046 147.78 113.02C148.187 112.967 148.6 112.965 149.008 113.016Z" fill="#EB996E"/>
<path d="M150.4 119.968C150.333 119.926 150.27 119.878 150.212 119.824L149.68 119.4C149.016 118.883 148.323 118.405 147.604 117.968H147.652L145.696 118.304L145.764 118.22C145.769 118.38 145.755 118.539 145.724 118.696C145.701 118.872 145.624 119.037 145.504 119.168C145.431 119.232 145.34 119.274 145.244 119.288C145.153 119.306 145.059 119.306 144.968 119.288C144.78 119.259 144.608 119.164 144.484 119.02C144.452 118.983 144.423 118.944 144.396 118.904V118.872L144.512 118.912L144.448 118.936C144.364 118.968 144.28 119 144.196 119.024C144.108 119.053 144.019 119.075 143.928 119.092C143.88 119.096 143.832 119.096 143.784 119.092C143.72 119.099 143.656 119.087 143.6 119.056C143.515 118.989 143.448 118.901 143.408 118.8C143.372 118.708 143.34 118.62 143.312 118.528C143.26 118.346 143.219 118.162 143.188 117.976L143.3 118.056C143.168 118.085 143.03 118.077 142.901 118.033C142.773 117.99 142.659 117.912 142.572 117.808C142.481 117.695 142.433 117.553 142.436 117.408C142.447 117.279 142.471 117.152 142.508 117.028C142.652 116.547 142.832 116.077 143.048 115.624L143.76 114.496L144.212 113.78C144.351 113.532 144.518 113.3 144.708 113.088C144.91 112.885 145.151 112.724 145.416 112.616C145.673 112.521 145.943 112.465 146.216 112.448L149.192 112.112H149.216C149.395 112.138 149.571 112.184 149.74 112.248C149.921 112.302 150.079 112.412 150.192 112.564L150.084 112.532C150.245 112.457 150.422 112.424 150.599 112.433C150.776 112.443 150.948 112.496 151.1 112.588C151.363 112.781 151.542 113.067 151.6 113.388L151.576 113.348L154 115.6L154.668 116.216C154.749 116.284 154.824 116.359 154.892 116.44C154.801 116.385 154.717 116.321 154.64 116.248L153.944 115.66C153.328 115.132 152.472 114.388 151.42 113.48V113.452C151.364 113.174 151.205 112.927 150.976 112.76C150.847 112.685 150.702 112.643 150.553 112.636C150.404 112.629 150.255 112.658 150.12 112.72L150.052 112.752L150.012 112.688C149.916 112.573 149.788 112.49 149.644 112.448C149.485 112.393 149.322 112.351 149.156 112.324H149.18L146.2 112.676C145.943 112.688 145.689 112.741 145.448 112.832C145.208 112.929 144.99 113.075 144.808 113.26C144.626 113.461 144.469 113.682 144.34 113.92C144.188 114.156 144.04 114.396 143.888 114.636C143.644 115.036 143.4 115.404 143.176 115.764C142.968 116.209 142.79 116.667 142.644 117.136C142.612 117.246 142.591 117.358 142.58 117.472C142.578 117.57 142.612 117.665 142.676 117.74C142.74 117.815 142.823 117.872 142.917 117.904C143.011 117.936 143.111 117.941 143.208 117.92H143.308V118.016C143.337 118.194 143.375 118.37 143.424 118.544C143.458 118.699 143.528 118.844 143.628 118.968C143.654 118.972 143.681 118.972 143.708 118.968H143.828C143.912 118.968 143.992 118.932 144.076 118.908L144.316 118.824L144.372 118.8C144.272 118.76 144.516 118.852 144.492 118.84V118.864C144.511 118.896 144.532 118.927 144.556 118.956C144.654 119.07 144.788 119.146 144.936 119.172C145.006 119.186 145.078 119.186 145.148 119.172C145.214 119.165 145.277 119.138 145.328 119.096C145.49 118.862 145.566 118.58 145.544 118.296V118.224H145.608L147.568 117.92H147.592H147.612C148.33 118.368 149.017 118.866 149.668 119.408C149.896 119.6 150.068 119.752 150.176 119.86C150.254 119.888 150.329 119.924 150.4 119.968Z" fill="#EB996E"/>
<path d="M167.872 125.66H164.768V126.344L171.568 192.676H175.196L167.872 125.66Z" fill="#455A64"/>
<path d="M167.872 125.66C167.872 125.66 167.872 125.78 167.904 126.008C167.936 126.236 167.964 126.58 168.008 127.024C168.1 127.916 168.24 129.224 168.408 130.908C168.768 134.28 169.292 139.16 169.94 145.208C171.248 157.288 173.06 174.032 175.084 192.688L175.188 192.572H171.56L171.664 192.664C168.464 161.444 165.724 135.028 164.792 126.344C164.792 126.028 164.792 125.84 164.792 125.66L164.764 125.688H167.108H167.68H167.868H167.688H167.124L164.764 125.668H164.732V126.384C165.58 135.08 168.26 161.5 171.46 192.72V192.816H175.296V192.7C173.24 174.02 171.396 157.256 170.064 145.156C169.388 139.124 168.864 134.256 168.464 130.888C168.276 129.212 168.128 127.916 168.028 127.028C167.976 126.592 167.936 126.26 167.912 126.028C167.888 125.796 167.872 125.66 167.872 125.66Z" fill="#263238"/>
<path d="M112.98 125.66H109.872V126.36L116.348 192.66H119.536L112.98 125.66Z" fill="#263238"/>
<path d="M180.852 126.344L70.112 126.464L70.072 123.54H180.852V126.344Z" fill="#455A64"/>
<path d="M85.6881 125.66H88.7961V126.36L82.3241 192.66H79.1321L85.6881 125.66Z" fill="#455A64"/>
<path d="M85.548 126.528C85.548 126.528 85.548 126.644 85.524 126.872C85.5 127.1 85.472 127.432 85.432 127.868C85.348 128.748 85.228 130.036 85.068 131.696C84.752 135.02 84.288 139.832 83.716 145.792C82.56 157.7 80.96 174.192 79.176 192.592L79.088 192.496H82.288L82.2 192.572C85.224 161.876 87.8 135.872 88.64 127.236V126.532L88.664 126.556H86.32H85.74H86.308H88.664H88.688V126.58C88.688 126.764 88.688 126.956 88.688 127.284C87.852 135.924 85.34 161.932 82.368 192.636V192.712H79V192.616C80.812 174.216 82.44 157.696 83.616 145.772C84.208 139.824 84.688 135.02 85.02 131.704C85.188 130.052 85.316 128.768 85.42 127.896C85.464 127.464 85.5 127.136 85.524 126.912L85.548 126.528Z" fill="#263238"/>
<path d="M130.564 125.912H127.456V126.616L133.932 192.66H137.124L130.564 125.912Z" fill="#455A64"/>
<path d="M130.704 126.8C130.704 126.8 130.704 126.916 130.732 127.14C130.76 127.364 130.784 127.7 130.824 128.136C130.908 129.008 131.028 130.292 131.184 131.948C131.504 135.26 131.984 140.052 132.536 145.988C133.692 157.852 135.296 174.292 137.08 192.604L137.168 192.508H133.968L134.052 192.584C131.028 162.004 128.452 136.1 127.616 127.496V126.8H127.6H129.948H130.708H130.528H129.96H127.6H127.576V127.528C128.4 136.088 130.92 162 133.888 192.584V192.66H137.252V192.564C135.44 174.236 133.812 157.764 132.636 145.9C132.04 139.972 131.564 135.188 131.232 131.9C131.064 130.252 130.936 128.976 130.832 128.108C130.784 127.676 130.752 127.348 130.728 127.124C130.704 126.9 130.704 126.8 130.704 126.8Z" fill="#263238"/>
<path d="M180.44 126.364C180.44 126.308 158.112 126.264 130.576 126.264C103.04 126.264 80.708 126.308 80.708 126.364C80.708 126.42 103.032 126.464 130.576 126.464C158.12 126.464 180.44 126.42 180.44 126.364Z" fill="#263238"/>
<path d="M111.068 103.004L135.392 103.2C136.192 103.2 136.936 103.58 137.056 104.36L139.712 122.088H152.24C152.434 122.088 152.62 122.165 152.758 122.302C152.895 122.44 152.972 122.626 152.972 122.82C152.972 123.014 152.895 123.2 152.758 123.338C152.62 123.475 152.434 123.552 152.24 123.552H112.24L109.508 104.84C109.474 104.614 109.489 104.384 109.552 104.165C109.615 103.945 109.723 103.742 109.871 103.568C110.019 103.394 110.202 103.254 110.409 103.156C110.615 103.059 110.84 103.007 111.068 103.004Z" fill="#E0E0E0"/>
<path d="M111.068 103.004C110.934 102.996 110.799 103.008 110.668 103.04C110.295 103.128 109.966 103.346 109.74 103.656C109.573 103.884 109.47 104.151 109.44 104.432C109.431 104.768 109.461 105.103 109.528 105.432C109.632 106.148 109.748 106.976 109.88 107.9L112.136 123.56V123.624H112.2L151.024 123.648H152.068C152.258 123.665 152.449 123.629 152.62 123.544C152.793 123.446 152.926 123.29 152.996 123.104C153.063 122.918 153.062 122.715 152.992 122.53C152.923 122.345 152.789 122.191 152.616 122.096C152.447 122.008 152.257 121.972 152.068 121.992H139.668L139.764 122.072C138.804 115.724 137.912 109.8 137.112 104.472C137.089 104.115 136.926 103.782 136.66 103.544C136.395 103.324 136.073 103.186 135.732 103.144C135.406 103.112 135.079 103.101 134.752 103.112H133.796L130.132 103.088L123.624 103.048L114.4 103H111.284H111.064H111.284H111.92L114.4 103.036L123.664 103.14L130.172 103.204L133.836 103.236H134.792C135.111 103.226 135.43 103.237 135.748 103.268C136.06 103.312 136.354 103.442 136.596 103.644C136.714 103.749 136.81 103.877 136.879 104.02C136.948 104.163 136.987 104.318 136.996 104.476L139.62 122.076V122.156H152.08C152.236 122.138 152.394 122.165 152.536 122.232C152.635 122.286 152.718 122.367 152.776 122.464C152.833 122.562 152.864 122.673 152.864 122.786C152.864 122.899 152.833 123.01 152.776 123.108C152.718 123.205 152.635 123.286 152.536 123.34C152.394 123.409 152.236 123.437 152.08 123.42H151.036L112.212 123.444L112.288 123.508C111.312 116.924 110.52 111.572 109.968 107.856L109.596 105.392C109.528 105.068 109.495 104.739 109.496 104.408C109.531 104.083 109.665 103.776 109.879 103.53C110.094 103.283 110.379 103.108 110.696 103.028C110.819 103.013 110.944 103.005 111.068 103.004Z" fill="#263238"/>
<path d="M125.784 113.052C125.784 113.354 125.695 113.648 125.527 113.899C125.359 114.15 125.121 114.345 124.842 114.46C124.564 114.576 124.257 114.606 123.961 114.546C123.666 114.487 123.394 114.342 123.181 114.128C122.968 113.915 122.823 113.643 122.765 113.347C122.707 113.051 122.737 112.744 122.853 112.466C122.969 112.188 123.165 111.95 123.416 111.783C123.667 111.616 123.962 111.527 124.264 111.528C124.668 111.529 125.054 111.69 125.339 111.976C125.624 112.261 125.784 112.648 125.784 113.052Z" fill="white"/>
<path d="M138.728 123.388C138.692 123.388 137.928 118.876 136.996 113.304C136.064 107.732 135.36 103.208 135.396 103.2C135.432 103.192 136.196 107.708 137.128 113.284C138.06 118.86 138.76 123.38 138.728 123.388Z" fill="#263238"/>
</svg>
