<svg width="250" height="250" viewBox="0 0 250 250" fill="none" xmlns="http://www.w3.org/2000/svg">
<path d="M250 191.2H0V191.325H250V191.2Z" fill="#EBEBEB"/>
<path d="M44.75 194.605H26.23V194.73H44.75V194.605Z" fill="#EBEBEB"/>
<path d="M120 197.31H84.5V197.435H120V197.31Z" fill="#EBEBEB"/>
<path d="M72.835 194.665H47.46V194.79H72.835V194.665Z" fill="#EBEBEB"/>
<path d="M227.725 198.405H203.39V198.53H227.725V198.405Z" fill="#EBEBEB"/>
<path d="M201.165 198.405H185.18V198.53H201.165V198.405Z" fill="#EBEBEB"/>
<path d="M169.61 196.295H138.605V196.42H169.61V196.295Z" fill="#EBEBEB"/>
<path d="M118.5 168.9H21.955C21.1987 168.899 20.4738 168.597 19.9394 168.062C19.4051 167.527 19.105 166.801 19.105 166.045V30.33C19.1116 29.578 19.4146 28.859 19.9482 28.3291C20.4818 27.7992 21.203 27.5013 21.955 27.5H118.5C119.257 27.5 119.983 27.8008 120.519 28.3362C121.054 28.8716 121.355 29.5978 121.355 30.355V166.045C121.355 166.802 121.054 167.528 120.519 168.064C119.983 168.599 119.257 168.9 118.5 168.9ZM21.955 27.6C21.2318 27.6013 20.5387 27.8895 20.0278 28.4014C19.5169 28.9132 19.23 29.6068 19.23 30.33V166.045C19.23 166.768 19.5169 167.462 20.0278 167.974C20.5387 168.485 21.2318 168.774 21.955 168.775H118.5C119.224 168.774 119.917 168.486 120.429 167.974C120.941 167.462 121.229 166.769 121.23 166.045V30.33C121.229 29.6064 120.941 28.9127 120.429 28.4011C119.917 27.8894 119.224 27.6013 118.5 27.6H21.955Z" fill="#EBEBEB"/>
<path d="M226.655 168.9H130.105C129.348 168.899 128.623 168.597 128.088 168.062C127.553 167.527 127.251 166.802 127.25 166.045V30.33C127.258 29.5776 127.562 28.8585 128.096 28.3288C128.631 27.7991 129.353 27.5013 130.105 27.5H226.655C227.406 27.5026 228.126 27.8011 228.659 28.3309C229.191 28.8606 229.493 29.5789 229.5 30.33V166.045C229.5 166.8 229.201 167.525 228.667 168.06C228.134 168.595 227.41 168.897 226.655 168.9ZM130.105 27.6C129.381 27.6013 128.688 27.8894 128.176 28.4011C127.664 28.9127 127.376 29.6064 127.375 30.33V166.045C127.376 166.769 127.664 167.462 128.176 167.974C128.688 168.486 129.381 168.774 130.105 168.775H226.655C227.379 168.774 228.072 168.486 228.584 167.974C229.096 167.462 229.384 166.769 229.385 166.045V30.33C229.384 29.6064 229.096 28.9127 228.584 28.4011C228.072 27.8894 227.379 27.6013 226.655 27.6H130.105Z" fill="#EBEBEB"/>
<path d="M217.81 189.66H178.81C176.991 189.66 175.246 188.937 173.959 187.651C172.673 186.364 171.95 184.619 171.95 182.8V147.76C171.95 145.941 172.673 144.196 173.959 142.909C175.246 141.623 176.991 140.9 178.81 140.9H217.81V189.66Z" fill="#F0F0F0"/>
<path d="M217.49 189.66H218.135C221.924 189.66 224.995 186.589 224.995 182.8V147.76C224.995 143.971 221.924 140.9 218.135 140.9H217.49C213.701 140.9 210.63 143.971 210.63 147.76V182.8C210.63 186.589 213.701 189.66 217.49 189.66Z" fill="#F5F5F5"/>
<path d="M212.585 158.885H127.125V189.66H212.585V158.885Z" fill="#F0F0F0"/>
<path d="M216.77 191.2H90.46C90.2751 191.201 90.0919 191.165 89.9208 191.094C89.7498 191.024 89.5943 190.921 89.4633 190.79C89.3323 190.66 89.2284 190.505 89.1575 190.334C89.0866 190.163 89.05 189.98 89.05 189.795V189.66H178.78L218.175 189.795C218.175 190.168 218.027 190.525 217.764 190.788C217.5 191.052 217.143 191.2 216.77 191.2Z" fill="#E0E0E0"/>
<path d="M98.62 120.67H180.54C183.077 120.67 185.51 121.678 187.304 123.471C189.097 125.265 190.105 127.698 190.105 130.235V165.84H89.05V130.235C89.05 127.698 90.0578 125.265 91.8516 123.471C93.6454 121.678 96.0782 120.67 98.615 120.67H98.62Z" fill="#E0E0E0"/>
<path d="M105.18 120.67H188C190.415 120.67 192.731 121.629 194.438 123.337C196.146 125.044 197.105 127.36 197.105 129.775V165.845H96.075V129.775C96.075 127.36 97.0342 125.044 98.7417 123.337C100.449 121.629 102.765 120.67 105.18 120.67Z" fill="#F5F5F5"/>
<path d="M208.5 156.075H133.63C132.484 156.075 131.386 156.53 130.575 157.34C129.765 158.15 129.31 159.249 129.31 160.395V164.29C129.31 165.436 129.765 166.534 130.575 167.345C131.386 168.155 132.484 168.61 133.63 168.61H208.5C209.323 168.61 210.138 168.448 210.899 168.133C211.659 167.817 212.35 167.355 212.932 166.773C213.514 166.191 213.975 165.5 214.29 164.739C214.604 163.978 214.766 163.163 214.765 162.34C214.765 160.678 214.105 159.085 212.93 157.91C211.755 156.735 210.162 156.075 208.5 156.075Z" fill="#E0E0E0"/>
<path d="M126.905 189.66H87.905C86.0856 189.66 84.3408 188.937 83.0543 187.651C81.7678 186.364 81.045 184.619 81.045 182.8V147.76C81.045 145.941 81.7678 144.196 83.0543 142.909C84.3408 141.623 86.0856 140.9 87.905 140.9H126.905V189.66Z" fill="#F0F0F0"/>
<path d="M126.58 189.66H127.225C131.014 189.66 134.085 186.589 134.085 182.8V147.76C134.085 143.971 131.014 140.9 127.225 140.9H126.58C122.791 140.9 119.72 143.971 119.72 147.76V182.8C119.72 186.589 122.791 189.66 126.58 189.66Z" fill="#F5F5F5"/>
<path d="M200.53 46.26H165.215V98.19H200.53V46.26Z" fill="#E0E0E0"/>
<path d="M202.655 46.26H166.18V98.19H202.655V46.26Z" fill="#F5F5F5"/>
<path d="M169.235 50.35V94.095H199.6V50.35H169.235Z" fill="white"/>
<path d="M180.64 74.335V77.665C181.632 77.665 182.615 77.4696 183.531 77.0899C184.448 76.7103 185.281 76.1538 185.982 75.4522C186.684 74.7507 187.24 73.9178 187.62 73.0012C188 72.0846 188.195 71.1022 188.195 70.11V66.78C187.203 66.7794 186.22 66.9743 185.303 67.3538C184.386 67.7332 183.553 68.2897 182.851 68.9914C182.15 69.6931 181.593 70.5262 181.214 71.4431C180.834 72.36 180.639 73.3427 180.64 74.335Z" fill="#F5F5F5"/>
<path d="M180.64 63.1049V66.4349C182.643 66.4336 184.564 65.6372 185.981 64.2206C187.397 62.8041 188.194 60.8832 188.195 58.8799V55.5449C187.202 55.5449 186.22 55.7405 185.303 56.1205C184.386 56.5005 183.553 57.0574 182.851 57.7595C182.149 58.4616 181.593 59.295 181.214 60.2122C180.834 61.1294 180.639 62.1124 180.64 63.1049Z" fill="#F5F5F5"/>
<path d="M180.64 85.57V88.9C182.644 88.8987 184.566 88.1016 185.983 86.684C187.399 85.2663 188.195 83.3442 188.195 81.34V78C187.202 78 186.218 78.1959 185.3 78.5765C184.383 78.9571 183.549 79.515 182.848 80.2181C182.146 80.9212 181.59 81.7559 181.211 82.6742C180.832 83.5926 180.638 84.5766 180.64 85.57Z" fill="#F5F5F5"/>
<path d="M148.08 86.9901V50.3501L32.75 50.3501V86.9901H148.08Z" fill="#EBEBEB"/>
<path d="M32.75 86.9901V50.3501H32.055V86.9901H32.75Z" fill="#E0E0E0"/>
<path d="M142.395 56.0349H38.4351V81.3049H142.395V56.0349Z" fill="#F5F5F5"/>
<path d="M63.35 81.3049H54.715L61.475 56.0349H70.11L63.35 81.3049Z" fill="white"/>
<path d="M71.38 81.3049H66.385L73.145 56.0349H78.14L71.38 81.3049Z" fill="white"/>
<path d="M114.845 81.3049H109.85L116.61 56.0349H121.605L114.845 81.3049Z" fill="white"/>
<path d="M77.66 149.295H49.705L46.245 111.315H74.205L77.66 149.295Z" fill="#E6E6E6"/>
<path d="M79.1099 149.295H51.1499L47.6949 111.315H75.6549L79.1099 149.295Z" fill="#F0F0F0"/>
<path d="M54.97 145.09L52.28 115.52H71.83L74.52 145.09H54.97Z" fill="white"/>
<path d="M98.615 149.295H94.85V191.195H98.615V149.295Z" fill="#E6E6E6"/>
<path d="M99.8001 149.295H97.1851V191.195H99.8001V149.295Z" fill="#F5F5F5"/>
<path d="M60.88 153.92H100.61V149.295H60.88V153.92Z" fill="#F5F5F5"/>
<path d="M59.1951 153.92H55.4301V191.2H59.1951V153.92Z" fill="#E6E6E6"/>
<path d="M60.385 153.92H57.77V191.2H60.385V153.92Z" fill="#F5F5F5"/>
<path d="M35.375 153.92H31.61V191.2H35.375V153.92Z" fill="#E6E6E6"/>
<path d="M36.5649 153.92H33.95V191.2H36.5649V153.92Z" fill="#F5F5F5"/>
<path d="M74.795 153.92H71.03V191.2H74.795V153.92Z" fill="#E6E6E6"/>
<path d="M75.98 153.92H73.365V191.2H75.98V153.92Z" fill="#F5F5F5"/>
<path d="M60.88 149.295H31.61V153.92H60.88V149.295Z" fill="#E6E6E6"/>
<path d="M125 213.78C178.541 213.78 221.945 211.246 221.945 208.12C221.945 204.994 178.541 202.46 125 202.46C71.4588 202.46 28.0551 204.994 28.0551 208.12C28.0551 211.246 71.4588 213.78 125 213.78Z" fill="#F5F5F5"/>
<path d="M164.18 68C162.27 66.805 156.785 68 157.68 74C158.575 80 151.525 78.465 153.065 85.445C154.605 92.425 167.1 102.795 174.795 95.755C182.49 88.715 176.005 85.61 176.15 77.255C176.25 72.29 174 63.4 164.18 68Z" fill="#263238"/>
<path d="M175.5 95.455C175.464 95.4548 175.43 95.4404 175.405 95.415C175.393 95.4033 175.383 95.3894 175.377 95.3739C175.37 95.3584 175.367 95.3418 175.367 95.325C175.367 95.3082 175.37 95.2916 175.377 95.2761C175.383 95.2606 175.393 95.2467 175.405 95.235C180.145 90.525 179.05 87.655 177.665 84.025C176.895 82.025 176.03 79.745 175.955 76.79C175.88 73.6 174.715 69.245 171.68 67.45C169.53 66.18 166.77 66.4 163.48 68.105C163.45 68.1193 163.416 68.1216 163.384 68.1113C163.352 68.1011 163.326 68.0792 163.31 68.05C163.301 68.035 163.296 68.0185 163.294 68.0014C163.292 67.9842 163.294 67.9669 163.299 67.9505C163.304 67.934 163.313 67.9189 163.324 67.9059C163.336 67.8929 163.349 67.8824 163.365 67.875C166.74 66.125 169.58 65.91 171.815 67.23C174.935 69.08 176.135 73.53 176.215 76.78C176.285 79.695 177.145 81.945 177.905 83.93C179.32 87.65 180.445 90.59 175.585 95.43C175.56 95.4477 175.53 95.4565 175.5 95.455Z" fill="#263238"/>
<path d="M176.61 94.7701C176.61 94.7701 176.69 94.8851 176.745 94.9601L176.945 95.2301C177.092 95.4168 177.247 95.6018 177.41 95.7851C177.745 96.1627 178.102 96.52 178.48 96.8551C179.254 97.5641 180.091 98.2017 180.98 98.7601C181.883 99.3347 182.821 99.8508 183.79 100.305C184.29 100.55 184.79 100.745 185.29 100.965C185.385 101.01 185.29 100.965 185.225 101.005C185.16 101.045 185.105 101.08 185.16 101.05C185.405 100.841 185.6 100.58 185.73 100.285C185.951 99.8444 186.14 99.3882 186.295 98.9201C186.631 97.8758 186.903 96.8122 187.11 95.7351C187.335 94.6351 187.51 93.5101 187.665 92.3751C187.82 91.2401 187.96 90.0901 188.085 88.9651H190.12C190.287 91.3563 190.268 93.7567 190.065 96.1451C189.972 97.3828 189.783 98.6115 189.5 99.8201C189.348 100.477 189.141 101.119 188.88 101.74C188.564 102.531 188.076 103.242 187.45 103.82C186.989 104.224 186.427 104.495 185.825 104.605C185.228 104.705 184.616 104.652 184.045 104.45C183.46 104.24 182.865 104.065 182.285 103.825C181.108 103.365 179.968 102.815 178.875 102.18C177.765 101.521 176.716 100.764 175.74 99.9201C175.245 99.4809 174.777 99.0117 174.34 98.5151C174.115 98.2651 173.895 98.0151 173.685 97.7251L173.375 97.2851C173.265 97.1201 173.19 97.0051 173.035 96.7351L176.61 94.7701Z" fill="#FFC3BD"/>
<path d="M175.925 92.9201C180.6 95.9201 180.22 97.7401 180.22 97.7401L177.28 102C177.28 102 169.78 99.0001 169.315 96.6451C168.825 94.1901 173.655 91.4701 175.925 92.9201Z" fill="#263238"/>
<path opacity="0.1" d="M175.925 92.9201C180.6 95.9201 180.22 97.7401 180.22 97.7401L177.28 102C177.28 102 169.78 99.0001 169.315 96.6451C168.825 94.1901 173.655 91.4701 175.925 92.9201Z" fill="white"/>
<path d="M180.5 97.3201C180.587 97.3816 180.646 97.4748 180.665 97.5796C180.683 97.6844 180.66 97.7924 180.6 97.8801L177.6 102.185C177.57 102.229 177.532 102.267 177.488 102.296C177.443 102.325 177.393 102.345 177.341 102.354C177.289 102.363 177.235 102.362 177.183 102.35C177.132 102.338 177.083 102.316 177.04 102.285C176.997 102.255 176.96 102.216 176.932 102.171C176.904 102.127 176.885 102.077 176.876 102.025C176.867 101.973 176.868 101.92 176.88 101.868C176.892 101.817 176.914 101.768 176.945 101.725L179.945 97.4201C180.006 97.3346 180.099 97.2763 180.202 97.2576C180.306 97.239 180.413 97.2614 180.5 97.3201Z" fill="#5C40CC"/>
<path d="M188.415 89.945L186.095 86.845L190.545 85.7C190.545 85.7 191.45 88.46 189.97 90.485L188.415 89.945Z" fill="#FFC3BD"/>
<path d="M186.22 83.0349L189.925 82.4099L190.545 85.6999L186.095 86.8449L186.22 83.0349Z" fill="#FFC3BD"/>
<path d="M148.52 203.8L152.76 204.21L155.79 194.24L151.55 193.83L148.52 203.8Z" fill="#FFC3BD"/>
<path d="M121.545 189.065L124.69 192.015L131.48 184.555L128.335 181.605L121.545 189.065Z" fill="#FFC3BD"/>
<path d="M126.145 190.6L123.78 186.345C123.741 186.271 123.677 186.213 123.598 186.184C123.52 186.154 123.433 186.155 123.355 186.185L119.715 187.57C119.622 187.608 119.539 187.665 119.47 187.738C119.402 187.811 119.35 187.898 119.318 187.993C119.286 188.088 119.275 188.189 119.286 188.288C119.296 188.388 119.329 188.484 119.38 188.57C120.23 190.04 120.715 190.71 121.75 192.57C122.39 193.72 123.635 196.365 124.52 197.955C125.405 199.545 127.02 198.76 126.8 198.015C125.8 194.69 125.98 192.84 126.265 191.375C126.317 191.111 126.274 190.836 126.145 190.6Z" fill="#263238"/>
<path d="M153.265 202.915H148.12C148.028 202.917 147.939 202.948 147.867 203.003C147.794 203.059 147.741 203.137 147.715 203.225L146.595 207.295C146.569 207.391 146.565 207.492 146.584 207.59C146.604 207.688 146.646 207.78 146.707 207.859C146.768 207.939 146.846 208.002 146.936 208.046C147.026 208.089 147.125 208.111 147.225 208.11C149.035 208.11 149.895 208.11 152.155 208.11H159.07C160.95 208.11 161.34 206.21 160.57 206.04C157.07 205.27 155.07 204.205 153.995 203.19C153.797 203.006 153.535 202.907 153.265 202.915Z" fill="#263238"/>
<path opacity="0.2" d="M155.79 194.245L154.23 199.38H149.86L151.55 193.835L155.79 194.245Z" fill="black"/>
<path opacity="0.2" d="M128.335 181.605L131.48 184.56L127.98 188.405L124.835 185.45L128.335 181.605Z" fill="black"/>
<path d="M175.925 92.9201C175.925 92.9201 177.625 94.0751 166.85 117.485L149.885 112.79C152.08 105.96 153.27 101.705 153.885 86.6201C156.397 86.7868 158.894 87.136 161.355 87.6651C163.969 88.193 166.542 88.9065 169.055 89.8001C171.397 90.7205 173.691 91.7619 175.925 92.9201Z" fill="#263238"/>
<path opacity="0.1" d="M175.925 92.9201C175.925 92.9201 177.625 94.0751 166.85 117.485L149.885 112.79C152.08 105.96 153.27 101.705 153.885 86.6201C156.397 86.7868 158.894 87.136 161.355 87.6651C163.969 88.193 166.542 88.9065 169.055 89.8001C171.397 90.7205 173.691 91.7619 175.925 92.9201Z" fill="white"/>
<path d="M164.525 79.2C164.325 81.815 163.55 86.49 161.36 87.665C161.36 87.665 160.085 92 165.615 93.595C170.3 94.94 169.06 89.8 169.06 89.8C166.48 88.375 168.06 85.85 168.56 83.02L164.525 79.2Z" fill="#FFC3BD"/>
<path opacity="0.2" d="M164.5 79.2051C164.34 81.3001 163.815 84.7401 162.47 86.6101C164.03 86.7651 166.47 86.2901 167.19 85.1101C167.546 84.2828 167.835 83.4284 168.055 82.5551L164.5 79.2051Z" fill="black"/>
<path d="M171.385 75.4151C171.385 79.7151 171.46 81.5401 169.425 83.8651C166.36 87.3651 161.08 86.4101 159.805 82.1901C158.66 78.3951 158.87 72.0001 162.97 70.0451C163.871 69.61 164.868 69.4126 165.867 69.4716C166.865 69.5307 167.832 69.8442 168.676 70.3824C169.519 70.9205 170.211 71.6655 170.685 72.5464C171.159 73.4273 171.4 74.4148 171.385 75.4151Z" fill="#FFC3BD"/>
<path d="M162.5 73.0299C164.915 76.4049 173.04 81.0949 173.585 76.5749C174.13 72.0549 169.98 67.5749 165.87 68.0199C161.76 68.4649 160.435 70.1599 162.5 73.0299Z" fill="#263238"/>
<path d="M173.165 79.4301C172.983 79.8 172.73 80.1303 172.42 80.4023C172.111 80.6743 171.75 80.8825 171.36 81.0151C170.315 81.3601 169.74 80.4401 169.985 79.4251C170.21 78.5101 171.02 77.2301 172.095 77.3251C172.329 77.3491 172.553 77.4314 172.746 77.5643C172.94 77.6973 173.097 77.8766 173.204 78.086C173.31 78.2954 173.362 78.5282 173.355 78.763C173.349 78.9978 173.283 79.2271 173.165 79.4301Z" fill="#FFC3BD"/>
<path d="M166.85 117.5C166.85 117.5 172.89 141.965 168.93 160.47C166.275 172.865 156.705 197.905 156.705 197.905L149.205 197.715C149.205 197.715 156.45 171.44 157.945 161.105C160.51 143.425 154.405 114.06 154.405 114.06L166.85 117.5Z" fill="#5C40CC"/>
<path opacity="0.2" d="M160.115 121L156.375 126.9C157.495 133.896 158.204 140.951 158.5 148.03C163.775 138.615 161.285 126 160.115 121Z" fill="black"/>
<path d="M158.045 198.28L148.52 198.045L149.16 194.655L158.74 195.375L158.045 198.28Z" fill="#263238"/>
<path d="M163.13 116.5C163.13 116.5 159.63 143.25 152.095 158.45C146 170.725 129.735 188.2 129.735 188.2L125.575 183.915C125.575 183.915 136.575 164.915 141.075 156.77C152.185 136.77 142.34 118.845 149.87 112.77L163.13 116.5Z" fill="#5C40CC"/>
<path d="M130.155 188.785L124.79 183.55L126.57 181.13L132.42 187.175L130.155 188.785Z" fill="#263238"/>
<path d="M149.905 111.72L148.72 113.03C148.63 113.13 148.72 113.29 148.93 113.345L166.725 118.27C166.875 118.31 167.025 118.27 167.06 118.18L167.635 116.68C167.675 116.58 167.565 116.455 167.4 116.405L150.22 111.65C150.166 111.633 150.108 111.631 150.053 111.643C149.998 111.656 149.947 111.682 149.905 111.72Z" fill="#5C40CC"/>
<path opacity="0.5" d="M149.905 111.72L148.72 113.03C148.63 113.13 148.72 113.29 148.93 113.345L166.725 118.27C166.875 118.31 167.025 118.27 167.06 118.18L167.635 116.68C167.675 116.58 167.565 116.455 167.4 116.405L150.22 111.65C150.166 111.633 150.108 111.631 150.053 111.643C149.998 111.656 149.947 111.682 149.905 111.72Z" fill="white"/>
<path d="M151.68 114.28L151.22 114.155C151.13 114.13 151.075 114.06 151.095 114.005L151.855 112.095C151.88 112.035 151.975 112.01 152.065 112.035L152.525 112.165C152.615 112.165 152.675 112.255 152.65 112.315L151.89 114.225C151.866 114.256 151.832 114.278 151.794 114.288C151.756 114.298 151.716 114.295 151.68 114.28Z" fill="#5C40CC"/>
<path d="M165.385 118.075L164.925 117.95C164.835 117.925 164.775 117.855 164.8 117.8L165.56 115.885C165.584 115.854 165.618 115.832 165.656 115.822C165.694 115.812 165.734 115.815 165.77 115.83L166.23 115.96C166.32 115.985 166.375 116.05 166.355 116.105L165.595 118C165.57 118.075 165.5 118.1 165.385 118.075Z" fill="#5C40CC"/>
<path d="M158.535 116.18L158.075 116.05C157.98 116.05 157.925 115.96 157.945 115.905L158.71 113.99C158.71 113.935 158.825 113.91 158.915 113.935L159.375 114.06C159.47 114.06 159.525 114.155 159.505 114.21L158.74 116.125C158.72 116.18 158.625 116.205 158.535 116.18Z" fill="#5C40CC"/>
<path d="M164.955 77C164.955 77.35 164.805 77.645 164.58 77.655C164.355 77.665 164.15 77.4 164.125 77.05C164.1 76.7 164.275 76.405 164.505 76.39C164.735 76.375 164.935 76.645 164.955 77Z" fill="#263238"/>
<path d="M161 77.2249C161 77.5749 160.85 77.8699 160.62 77.8849C160.39 77.8999 160.195 77.6249 160.17 77.2749C160.145 76.9249 160.32 76.6299 160.55 76.6199C160.78 76.6099 161 76.8799 161 77.2249Z" fill="#263238"/>
<path d="M160.66 76.6299L159.81 76.4399C159.81 76.4399 160.275 77.0699 160.66 76.6299Z" fill="#263238"/>
<path d="M162.085 77.7649C161.82 78.578 161.447 79.3517 160.975 80.0649C161.16 80.1814 161.368 80.256 161.585 80.2837C161.802 80.3113 162.022 80.2913 162.23 80.2249L162.085 77.7649Z" fill="#ED847E"/>
<path d="M164.175 81.4149C163.967 81.4686 163.754 81.5005 163.54 81.5099C163.529 81.5113 163.517 81.5103 163.506 81.5069C163.495 81.5035 163.485 81.4979 163.477 81.4903C163.468 81.4827 163.462 81.4734 163.457 81.463C163.452 81.4526 163.45 81.4413 163.45 81.4299C163.449 81.4187 163.451 81.4075 163.455 81.397C163.458 81.3864 163.464 81.3766 163.471 81.3683C163.479 81.3599 163.488 81.3531 163.498 81.3482C163.508 81.3434 163.519 81.3405 163.53 81.3399C163.967 81.3222 164.394 81.2027 164.777 80.9909C165.16 80.7791 165.488 80.4809 165.735 80.1199C165.748 80.1041 165.766 80.0934 165.786 80.0898C165.806 80.0861 165.826 80.0898 165.844 80.1001C165.862 80.1103 165.875 80.1266 165.881 80.1458C165.888 80.165 165.888 80.186 165.88 80.2049C165.486 80.8104 164.877 81.243 164.175 81.4149Z" fill="#263238"/>
<path d="M166.26 74.445C166.232 74.4523 166.202 74.452 166.174 74.4441C166.146 74.4362 166.12 74.421 166.1 74.4C165.918 74.2081 165.693 74.0626 165.443 73.9756C165.194 73.8886 164.927 73.8627 164.665 73.9C164.621 73.9078 164.575 73.8988 164.537 73.8748C164.499 73.8507 164.472 73.8133 164.46 73.77C164.451 73.7257 164.459 73.6795 164.484 73.6413C164.508 73.6031 164.546 73.5757 164.59 73.565C164.907 73.5142 165.231 73.5404 165.536 73.6413C165.84 73.7423 166.116 73.915 166.34 74.145C166.371 74.1783 166.388 74.2221 166.388 74.2675C166.388 74.313 166.371 74.3567 166.34 74.39C166.318 74.4143 166.291 74.4332 166.26 74.445Z" fill="#263238"/>
<path d="M159.29 74.95C159.264 74.9659 159.233 74.9742 159.202 74.9742C159.172 74.9742 159.141 74.9659 159.115 74.95C159.08 74.9231 159.056 74.8835 159.05 74.8396C159.043 74.7957 159.054 74.751 159.08 74.715C159.264 74.4526 159.509 74.2384 159.794 74.0905C160.078 73.9425 160.394 73.8652 160.715 73.865C160.737 73.8663 160.759 73.8719 160.779 73.8817C160.799 73.8914 160.817 73.9051 160.832 73.9218C160.847 73.9385 160.859 73.958 160.866 73.9791C160.873 74.0003 160.876 74.0227 160.875 74.045C160.874 74.0673 160.868 74.0892 160.858 74.1093C160.849 74.1295 160.835 74.1475 160.818 74.1624C160.801 74.1772 160.782 74.1886 160.761 74.196C160.74 74.2033 160.717 74.2063 160.695 74.205C160.431 74.2092 160.173 74.2757 159.94 74.3991C159.707 74.5225 159.506 74.6993 159.355 74.915C159.336 74.9314 159.314 74.9434 159.29 74.95Z" fill="#263238"/>
<path d="M154.285 93.065C153.85 93.725 153.455 94.255 153.01 94.815C152.565 95.375 152.13 95.9 151.67 96.42C150.747 97.4651 149.766 98.4567 148.73 99.39C147.7 100.342 146.608 101.224 145.46 102.03C144.895 102.45 144.29 102.815 143.7 103.195L142.775 103.725L142.315 103.985C142.145 104.075 141.925 104.195 141.715 104.28C140.788 104.699 139.759 104.835 138.755 104.67C137.808 104.491 136.922 104.071 136.185 103.45C135.562 102.931 135.014 102.328 134.555 101.66C134.132 101.053 133.756 100.414 133.43 99.75C132.244 97.2316 131.425 94.556 131 91.805L133 91.345C133.415 92.535 133.88 93.77 134.405 94.925C134.897 96.0796 135.477 97.1945 136.14 98.26C136.693 99.2241 137.426 100.073 138.3 100.76C138.591 100.983 138.936 101.123 139.3 101.165C139.618 101.179 139.933 101.102 140.21 100.945C140.307 100.896 140.4 100.841 140.49 100.78L140.88 100.53L141.655 100.03C142.155 99.66 142.655 99.315 143.155 98.92C144.14 98.1488 145.084 97.3277 145.985 96.46C146.9 95.595 147.755 94.67 148.58 93.72C148.995 93.245 149.4 92.765 149.79 92.275C150.18 91.785 150.57 91.275 150.885 90.825L154.285 93.065Z" fill="#FFC3BD"/>
<path d="M133.385 93.1899L133.825 88.5249L129.63 90.2399C129.63 90.2399 130.13 92.5849 131.73 93.4249L133.385 93.1899Z" fill="#FFC3BD"/>
<path d="M132.485 86.005L129.24 85.3L129.63 90.24L133.825 88.525L132.485 86.005Z" fill="#FFC3BD"/>
<path d="M153.89 86.6201C151.705 86.6201 146.445 94.9601 146.445 94.9601L150.16 98.8101C150.16 98.8101 157.16 94.0901 157.435 91.3101C157.675 88.9201 156.67 86.6451 153.89 86.6201Z" fill="#263238"/>
<path opacity="0.1" d="M153.89 86.6201C151.705 86.6201 146.445 94.9601 146.445 94.9601L150.16 98.8101C150.16 98.8101 157.16 94.0901 157.435 91.3101C157.675 88.9201 156.67 86.6451 153.89 86.6201Z" fill="white"/>
<path d="M150.5 98.9999C150.425 99.0748 150.323 99.1168 150.217 99.1168C150.112 99.1168 150.01 99.0748 149.935 98.9999L146.18 95.3199C146.105 95.245 146.063 95.1434 146.063 95.0374C146.063 94.9315 146.105 94.8299 146.18 94.7549C146.256 94.6798 146.358 94.6377 146.465 94.6377C146.572 94.6377 146.674 94.6798 146.75 94.7549L150.5 98.4299C150.575 98.5058 150.617 98.6082 150.617 98.7149C150.617 98.8217 150.575 98.9241 150.5 98.9999Z" fill="#5C40CC"/>
<path d="M127 192.89C127.137 192.886 127.269 192.837 127.375 192.75C127.425 192.718 127.465 192.672 127.491 192.618C127.517 192.564 127.527 192.504 127.52 192.445C127.475 191.905 126.105 191.17 125.945 191.085C125.931 191.076 125.916 191.072 125.9 191.072C125.884 191.072 125.868 191.076 125.855 191.085C125.841 191.095 125.831 191.109 125.825 191.125C125.82 191.141 125.82 191.159 125.825 191.175C125.98 191.725 126.325 192.675 126.825 192.85C126.88 192.874 126.94 192.887 127 192.89ZM126 191.335C126.5 191.605 127.28 192.125 127.305 192.46C127.308 192.49 127.303 192.521 127.288 192.547C127.274 192.574 127.252 192.596 127.225 192.61C127.174 192.657 127.112 192.691 127.045 192.707C126.977 192.722 126.906 192.72 126.84 192.7C126.57 192.6 126.26 192.095 126 191.335Z" fill="#5C40CC"/>
<path d="M127.185 191.55C127.401 191.567 127.617 191.512 127.8 191.395C127.86 191.345 127.901 191.276 127.916 191.2C127.93 191.123 127.918 191.043 127.88 190.975C127.854 190.903 127.811 190.838 127.755 190.785C127.7 190.732 127.633 190.693 127.56 190.67C126.975 190.465 125.885 191.06 125.84 191.085C125.827 191.093 125.816 191.104 125.808 191.117C125.8 191.13 125.796 191.145 125.795 191.16C125.795 191.175 125.799 191.19 125.806 191.203C125.812 191.216 125.823 191.227 125.835 191.235C126.256 191.44 126.717 191.547 127.185 191.55ZM127.27 190.795C127.35 190.795 127.429 190.808 127.505 190.835C127.554 190.85 127.6 190.876 127.637 190.912C127.675 190.947 127.703 190.991 127.72 191.04C127.775 191.17 127.72 191.23 127.69 191.265C127.435 191.48 126.535 191.36 126.07 191.16C126.442 190.961 126.85 190.837 127.27 190.795Z" fill="#5C40CC"/>
<path d="M155.545 203.745C155.895 203.771 156.244 203.689 156.545 203.51C156.623 203.452 156.686 203.376 156.729 203.289C156.772 203.203 156.795 203.107 156.795 203.01C156.801 202.96 156.793 202.909 156.772 202.863C156.751 202.817 156.717 202.778 156.675 202.75C156.21 202.43 154.34 203.29 154.13 203.39C154.113 203.397 154.099 203.41 154.09 203.427C154.081 203.443 154.077 203.462 154.08 203.48C154.082 203.497 154.089 203.513 154.101 203.526C154.113 203.538 154.128 203.547 154.145 203.55C154.603 203.664 155.073 203.729 155.545 203.745ZM156.365 202.86C156.438 202.855 156.51 202.871 156.575 202.905C156.6 202.905 156.625 202.95 156.62 203.02C156.619 203.089 156.602 203.156 156.57 203.217C156.537 203.278 156.491 203.33 156.435 203.37C156.015 203.69 154.99 203.555 154.435 203.455C155.043 203.156 155.694 202.955 156.365 202.86Z" fill="#5C40CC"/>
<path d="M154.16 203.57H154.19C154.755 203.34 155.93 202.395 155.865 201.925C155.865 201.825 155.785 201.7 155.53 201.67C154.53 201.555 154.095 203.39 154.075 203.47C154.072 203.486 154.073 203.502 154.079 203.517C154.084 203.531 154.093 203.545 154.105 203.555C154.121 203.565 154.141 203.57 154.16 203.57ZM155.44 201.83H155.5C155.675 201.83 155.685 201.915 155.69 201.94C155.73 202.24 154.89 203.005 154.28 203.325C154.415 202.9 154.795 201.83 155.44 201.83Z" fill="#5C40CC"/>
<path d="M164.605 76.4L163.755 76.21C163.755 76.21 164.22 76.84 164.605 76.4Z" fill="#263238"/>
<path d="M76.2565 205.846L132.806 200.909C136.647 200.573 139.488 197.188 139.153 193.348L127.375 58.4512C127.039 54.6108 123.654 51.7695 119.814 52.1048L63.264 57.0423C59.4237 57.3776 56.5823 60.7626 56.9176 64.603L68.6958 199.5C69.0311 203.34 72.4161 206.181 76.2565 205.846Z" fill="#5C40CC"/>
<path d="M61.15 104.445C61.6739 104.395 62.1571 104.141 62.495 103.738C62.8329 103.335 62.9982 102.814 62.955 102.29L61.4 84.4999C61.3517 83.9761 61.099 83.4924 60.6965 83.1536C60.2941 82.8148 59.7744 82.6482 59.25 82.6899C58.7253 82.7382 58.2408 82.9916 57.9019 83.3952C57.563 83.7987 57.397 84.3197 57.44 84.8449L59 102.635C59.0484 103.159 59.3011 103.642 59.7035 103.981C60.106 104.32 60.6257 104.487 61.15 104.445Z" fill="#5C40CC"/>
<path d="M130.218 90.3741L130.91 90.3136C131.722 90.2427 132.322 89.5274 132.251 88.7159L131.302 77.8472C131.232 77.0357 130.516 76.4353 129.705 76.5061L129.012 76.5666C128.201 76.6374 127.6 77.3528 127.671 78.1643L128.62 89.0329C128.691 89.8445 129.406 90.4449 130.218 90.3741Z" fill="#263238"/>
<path d="M131.03 108.671L131.725 108.608C132.539 108.535 133.14 107.815 133.067 107.001L132.085 96.0906C132.012 95.276 131.292 94.675 130.477 94.7483L129.782 94.8109C128.968 94.8842 128.367 95.604 128.44 96.4186L129.422 107.329C129.495 108.143 130.215 108.744 131.03 108.671Z" fill="#263238"/>
<path d="M77.4446 205.739L133.994 200.802C137.835 200.466 140.676 197.081 140.341 193.241L128.563 58.3442C128.227 54.5039 124.842 51.6625 121.002 51.9978L64.4521 56.9354C60.6118 57.2707 57.7704 60.6557 58.1057 64.496L69.8839 199.393C70.2192 203.233 73.6043 206.075 77.4446 205.739Z" fill="#263238"/>
<path opacity="0.4" d="M71.8751 197.34L138 191.565C138.346 191.533 138.665 191.366 138.888 191.1C139.111 190.834 139.219 190.491 139.19 190.145L128 61.8449C127.968 61.5002 127.802 61.182 127.537 60.9592C127.272 60.7365 126.93 60.6271 126.585 60.6549L60.4351 66.4349C60.2644 66.45 60.0983 66.4986 59.9463 66.5778C59.7944 66.6571 59.6595 66.7655 59.5495 66.8969C59.4395 67.0283 59.3564 67.1801 59.305 67.3436C59.2536 67.5071 59.235 67.6792 59.2501 67.8499L70.4601 196.155C70.4745 196.326 70.5227 196.492 70.6017 196.645C70.6808 196.797 70.7893 196.932 70.9208 197.042C71.0523 197.152 71.2044 197.235 71.3682 197.286C71.5319 197.337 71.7042 197.356 71.8751 197.34Z" fill="#5C40CC"/>
<path opacity="0.3" d="M117.845 61.4199L109.535 194.05L95.715 195.26L104.025 62.6249L117.845 61.4199Z" fill="#5C40CC"/>
<path opacity="0.2" d="M100.06 57.1635L85.9391 58.3965C85.6117 58.4251 85.3695 58.7136 85.3981 59.041L85.4481 59.6138C85.4767 59.9412 85.7652 60.1834 86.0926 60.1548L100.214 58.9218C100.541 58.8932 100.783 58.6047 100.755 58.2773L100.705 57.7045C100.676 57.3771 100.388 57.1349 100.06 57.1635Z" fill="white"/>
<path d="M86.9 108.56H155.705C157.492 108.565 159.205 109.278 160.469 110.541C161.732 111.805 162.445 113.518 162.45 115.305V149.055C162.445 150.843 161.733 152.556 160.469 153.82C159.205 155.085 157.493 155.798 155.705 155.805H131.895L121.3 166.4L110.705 155.805H86.9C85.1114 155.8 83.3976 155.087 82.1329 153.822C80.8682 152.557 80.1553 150.844 80.15 149.055V115.305C80.1553 113.517 80.8683 111.804 82.1332 110.54C83.3981 109.276 85.1119 108.564 86.9 108.56Z" fill="#5C40CC"/>
<path opacity="0.3" d="M86.9 108.56H155.705C157.492 108.565 159.205 109.278 160.469 110.541C161.732 111.805 162.445 113.518 162.45 115.305V149.055C162.445 150.843 161.733 152.556 160.469 153.82C159.205 155.085 157.493 155.798 155.705 155.805H131.895L121.3 166.4L110.705 155.805H86.9C85.1114 155.8 83.3976 155.087 82.1329 153.822C80.8682 152.557 80.1553 150.844 80.15 149.055V115.305C80.1553 113.517 80.8683 111.804 82.1332 110.54C83.3981 109.276 85.1119 108.564 86.9 108.56Z" fill="white"/>
<path d="M91.3101 120.255V144.105C91.302 145.03 91.6604 145.92 92.3069 146.582C92.9533 147.243 93.8353 147.622 94.7601 147.635H147.84C148.765 147.622 149.647 147.243 150.293 146.582C150.94 145.92 151.298 145.03 151.29 144.105V120.255C151.29 119.803 151.205 119.355 151.04 118.935C150.788 118.289 150.349 117.733 149.779 117.339C149.208 116.946 148.533 116.731 147.84 116.725H94.7601C94.0675 116.731 93.3927 116.945 92.8231 117.339C92.2535 117.733 91.8153 118.289 91.5651 118.935C91.3956 119.354 91.309 119.803 91.3101 120.255Z" fill="white"/>
<path opacity="0.1" d="M91.5651 118.935L117.225 130.11C118.511 130.671 119.899 130.961 121.303 130.961C122.706 130.961 124.094 130.671 125.38 130.11L151.04 118.935C150.788 118.289 150.349 117.733 149.779 117.339C149.208 116.946 148.533 116.731 147.84 116.725H94.7601C94.0675 116.731 93.3927 116.945 92.8231 117.339C92.2535 117.733 91.8153 118.289 91.5651 118.935Z" fill="black"/>
<path d="M92.7156 118.812C96.7223 114.805 96.7223 108.309 92.7156 104.302C88.7088 100.295 82.2125 100.295 78.2057 104.302C74.1989 108.309 74.1989 114.805 78.2057 118.812C82.2125 122.819 88.7088 122.819 92.7156 118.812Z" fill="#DE5753"/>
<path d="M87.44 117.81H85.05V108.81C84.1665 109.632 83.1134 110.25 81.965 110.62V108.455C82.7025 108.184 83.3888 107.79 83.995 107.29C84.6776 106.782 85.1986 106.088 85.495 105.29H87.435L87.44 117.81Z" fill="white"/>
<path d="M143.185 47.96C142.829 47.9571 142.486 47.8277 142.217 47.5951C141.947 47.3624 141.77 47.0416 141.715 46.69C141.029 42.1824 138.584 38.1306 134.915 35.4229C131.247 32.7151 126.655 31.5723 122.145 32.245C121.779 32.2546 121.422 32.13 121.141 31.8946C120.861 31.6592 120.676 31.3293 120.622 30.9671C120.568 30.605 120.648 30.2355 120.848 29.9284C121.047 29.6213 121.352 29.3978 121.705 29.3C126.995 28.5114 132.382 29.8529 136.684 33.0304C140.986 36.2079 143.853 40.962 144.655 46.25C144.71 46.6393 144.609 47.0345 144.376 47.3505C144.142 47.6666 143.793 47.8783 143.405 47.94C143.332 47.9538 143.259 47.9605 143.185 47.96Z" fill="#5C40CC"/>
<path d="M135.79 49.0699C135.435 49.0672 135.092 48.9385 134.823 48.7069C134.554 48.4753 134.376 48.1556 134.32 47.8049C133.934 45.2563 132.553 42.9649 130.479 41.4333C128.406 39.9017 125.81 39.2549 123.26 39.6349C122.893 39.6459 122.536 39.5222 122.254 39.2872C121.972 39.0523 121.787 38.7223 121.732 38.3597C121.677 37.9971 121.757 37.6269 121.957 37.3193C122.156 37.0116 122.462 36.7877 122.815 36.6899C126.146 36.1924 129.538 37.0364 132.247 39.0367C134.956 41.0371 136.76 44.0304 137.265 47.3599C137.321 47.75 137.221 48.1465 136.988 48.4637C136.754 48.7808 136.404 48.9932 136.015 49.0549C135.94 49.0649 135.865 49.0699 135.79 49.0699Z" fill="#5C40CC"/>
<path d="M128.4 50.185C128.044 50.1821 127.701 50.0528 127.432 49.8201C127.162 49.5875 126.985 49.2667 126.93 48.915C126.887 48.6225 126.786 48.3415 126.634 48.0881C126.481 47.8346 126.281 47.6137 126.043 47.4381C125.805 47.2625 125.535 47.1356 125.248 47.0647C124.96 46.9938 124.662 46.9803 124.37 47.025C124.007 47.03 123.655 46.9032 123.378 46.6683C123.102 46.4333 122.92 46.1061 122.866 45.7472C122.812 45.3883 122.891 45.0221 123.086 44.7165C123.282 44.4109 123.582 44.1865 123.93 44.085C124.61 43.9824 125.305 44.0153 125.972 44.1819C126.64 44.3485 127.268 44.6455 127.821 45.0559C128.373 45.4662 128.839 45.9817 129.192 46.5728C129.544 47.1639 129.777 47.8189 129.875 48.5C129.93 48.8893 129.829 49.2845 129.596 49.6006C129.362 49.9167 129.013 50.1283 128.625 50.19C128.55 50.1958 128.475 50.1941 128.4 50.185Z" fill="#5C40CC"/>
</svg>
