<svg width="300" height="200" viewBox="0 0 300 200" fill="none" xmlns="http://www.w3.org/2000/svg">
<path d="M248.284 75.5238C250.54 74.0098 251.142 70.9533 249.628 68.6969C248.114 66.4405 245.058 65.8387 242.801 67.3526C240.545 68.8666 239.943 71.923 241.457 74.1794C242.971 76.4358 246.027 77.0377 248.284 75.5238Z" fill="#E0E0E0"/>
<path d="M230.936 76.676C233.83 76.676 236.176 74.33 236.176 71.436C236.176 68.5421 233.83 66.196 230.936 66.196C228.042 66.196 225.696 68.5421 225.696 71.436C225.696 74.33 228.042 76.676 230.936 76.676Z" fill="#E0E0E0"/>
<path d="M219.712 67.724C222.783 67.724 225.272 65.2347 225.272 62.164C225.272 59.0933 222.783 56.604 219.712 56.604C216.641 56.604 214.152 59.0933 214.152 62.164C214.152 65.2347 216.641 67.724 219.712 67.724Z" fill="#E0E0E0"/>
<path d="M217.432 53.724C220.64 53.724 223.24 51.1237 223.24 47.916C223.24 44.7084 220.64 42.108 217.432 42.108C214.224 42.108 211.624 44.7084 211.624 47.916C211.624 51.1237 214.224 53.724 217.432 53.724Z" fill="#E0E0E0"/>
<path d="M224.548 41.444C227.864 41.444 230.552 38.756 230.552 35.44C230.552 32.1241 227.864 29.436 224.548 29.436C221.232 29.436 218.544 32.1241 218.544 35.44C218.544 38.756 221.232 41.444 224.548 41.444Z" fill="#E0E0E0"/>
<path d="M238.216 37.052C241.83 37.052 244.76 34.1221 244.76 30.508C244.76 26.8938 241.83 23.964 238.216 23.964C234.602 23.964 231.672 26.8938 231.672 30.508C231.672 34.1221 234.602 37.052 238.216 37.052Z" fill="#E0E0E0"/>
<path d="M261.003 63.1265C261.603 60.5715 260.018 58.0141 257.463 57.4143C254.908 56.8146 252.35 58.3997 251.751 60.9547C251.151 63.5097 252.736 66.0671 255.291 66.6669C257.846 67.2666 260.403 65.6815 261.003 63.1265Z" fill="#E0E0E0"/>
<path d="M258.932 52.164C261.366 52.164 263.34 50.1905 263.34 47.756C263.34 45.3215 261.366 43.348 258.932 43.348C256.498 43.348 254.524 45.3215 254.524 47.756C254.524 50.1905 256.498 52.164 258.932 52.164Z" fill="#E0E0E0"/>
<path d="M251.6 39.304C253.825 39.304 255.628 37.5006 255.628 35.276C255.628 33.0514 253.825 31.248 251.6 31.248C249.375 31.248 247.572 33.0514 247.572 35.276C247.572 37.5006 249.375 39.304 251.6 39.304Z" fill="#E0E0E0"/>
<path d="M82.8 31.9C83.2463 31.8016 83.7058 31.7772 84.16 31.828C85.2213 31.9314 86.23 32.3394 87.0646 33.003C87.8992 33.6666 88.5242 34.5574 88.864 35.568C89.1855 36.5201 89.2449 37.5411 89.036 38.524C88.7998 39.6156 88.2426 40.6116 87.436 41.384C86.5769 42.2218 85.4714 42.7615 84.2825 42.9235C83.0935 43.0855 81.884 42.8614 80.832 42.284C79.8528 41.7487 79.0549 40.9342 78.54 39.944C78.0772 39.0518 77.863 38.0515 77.92 37.048C77.9687 36.1773 78.2222 35.3303 78.66 34.576C79.2868 33.4755 80.2766 32.6271 81.46 32.176C81.8824 32.0068 82.3297 31.9082 82.784 31.884C82.784 31.924 82.304 31.96 81.504 32.284C80.3766 32.7652 79.443 33.6101 78.852 34.684C78.4169 35.4661 78.1842 36.3445 78.1751 37.2394C78.1661 38.1343 78.3809 39.0173 78.8 39.808C79.0368 40.2636 79.3417 40.6803 79.704 41.044C80.0808 41.4315 80.5186 41.7544 81 42C81.9946 42.5426 83.1366 42.753 84.2592 42.6004C85.3819 42.4478 86.4263 41.9404 87.24 41.152C88.0019 40.4223 88.5296 39.4825 88.756 38.452C88.9593 37.5231 88.9124 36.5569 88.62 35.652C88.3639 34.8581 87.9239 34.1359 87.336 33.544C86.4802 32.6652 85.3526 32.1013 84.136 31.944C83.6917 31.907 83.2458 31.8924 82.8 31.9Z" fill="#E0E0E0"/>
<path d="M84.884 24.868C84.884 24.868 84.856 24.812 84.808 24.688L84.592 24.148C84.396 23.648 84.12 22.924 83.756 21.992L83.812 22.024L78.748 22.74L78.816 22.668C78.74 23.6 78.652 24.636 78.56 25.744V25.8L78.508 25.824C77.4866 26.2509 76.5274 26.8133 75.656 27.496L75.608 27.536L75.548 27.508L72.748 26.236L72.884 26.2L69.8 30.276V30.124L71.8 32.488L71.852 32.548L71.82 32.62C71.4013 33.6451 71.1202 34.7211 70.984 35.82V35.904L70.904 35.932L68.012 37.016L68.104 36.868C68.32 38.468 68.556 40.176 68.796 41.932L68.664 41.808L71.74 42.076H71.832L71.868 42.16C72.2927 43.1762 72.851 44.1313 73.528 45L73.584 45.072L73.544 45.156C73.144 46.04 72.708 47 72.264 47.956L72.22 47.768L76.288 50.864H76.092L78.46 48.864L78.532 48.804L78.62 48.84C79.6383 49.2591 80.7076 49.5416 81.8 49.68C81.856 49.724 81.672 49.58 81.928 49.784V49.832L81.964 49.92L82.032 50.104L82.168 50.468L82.436 51.192C82.62 51.676 82.796 52.156 82.976 52.636L82.808 52.536L87.876 51.848L87.74 51.988C87.8307 50.9534 87.9213 49.928 88.012 48.912V48.82L88.1 48.784C89.1172 48.3606 90.0736 47.8037 90.944 47.128L91.016 47.072L91.1 47.108L93.9 48.392L93.72 48.44L96.82 44.372V44.556C96.148 43.756 95.484 42.956 94.82 42.184L94.764 42.116L94.8 42.04C95.2215 41.0153 95.5053 39.9393 95.644 38.84V38.76L95.72 38.732L98.616 37.656L98.532 37.796C98.292 36.012 98.068 34.328 97.856 32.728L97.964 32.832L94.888 32.552H94.82L94.792 32.492C94.3839 31.4978 93.8488 30.5607 93.2 29.704L93.164 29.652L93.188 29.596C93.656 28.576 94.08 27.66 94.48 26.796L94.508 26.908L90.452 23.792H90.54L88.14 25.76H88.116H88.088C87.3135 25.4363 86.5098 25.1871 85.688 25.016L85.08 24.904L84.876 24.864C84.9452 24.8586 85.0148 24.8586 85.084 24.864C85.22 24.864 85.424 24.904 85.7 24.956C86.5224 25.104 87.3269 25.3386 88.1 25.656H88.048C88.692 25.108 89.46 24.456 90.404 23.656L90.444 23.62L90.492 23.652L94.572 26.732L94.632 26.776L94.6 26.844C94.2 27.716 93.8 28.636 93.328 29.644V29.536C94.0215 30.4225 94.5933 31.3978 95.028 32.436L94.936 32.368L98.012 32.632H98.108V32.728C98.328 34.328 98.556 36.008 98.804 37.792V37.896L98.708 37.932L95.816 39.016L95.904 38.908C95.7632 40.0276 95.4754 41.1237 95.048 42.168L95.024 42.024C95.6773 42.7947 96.344 43.5827 97.024 44.388L97.1 44.476L97.028 44.568L93.936 48.64L93.864 48.736L93.756 48.684L90.956 47.408H91.112C90.2197 48.1015 89.2391 48.6732 88.196 49.108L88.292 48.98C88.204 49.996 88.112 51.02 88.024 52.056V52.18H87.9L82.836 52.872H82.712L82.668 52.752L82.128 51.312L81.856 50.584L81.72 50.22L81.652 50.04L81.616 49.948V49.904V49.88C81.872 50.084 81.688 49.936 81.744 49.98C80.624 49.8392 79.5277 49.55 78.484 49.12L78.648 49.096L76.276 51.096L76.18 51.176L76.084 51.1L72 48.024L71.9 47.952L71.952 47.84L73.236 45.04L73.256 45.196C72.5637 44.3036 71.9933 43.323 71.56 42.28L71.684 42.372L68.608 42.1H68.492V41.984C68.252 40.224 68.024 38.508 67.808 36.916V36.804L67.912 36.768L70.804 35.688L70.72 35.8C70.8598 34.6807 71.1504 33.5854 71.584 32.544V32.676L69.6 30.28L69.536 30.204L69.596 30.128C70.6653 28.7093 71.696 27.356 72.688 26.068L72.74 25.996L72.824 26.032L75.624 27.32H75.516C76.4052 26.6305 77.3834 26.0641 78.424 25.636L78.368 25.712C78.468 24.604 78.564 23.568 78.652 22.636V22.572H78.716L83.784 21.916H83.824V21.952L84.6 24.108C84.684 24.344 84.748 24.508 84.796 24.668C84.8324 24.7313 84.8619 24.7984 84.884 24.868Z" fill="#E0E0E0"/>
<path fill-rule="evenodd" clip-rule="evenodd" d="M60.4 54.4001C61.9653 54.5954 63.4975 54.999 64.956 55.6001L68.304 52.8001L74.068 57.2001L72.256 61.1721C73.2236 62.419 74.0225 63.7882 74.632 65.2441L78.98 65.6441L79.952 72.8001L75.86 74.3281C75.6665 75.8938 75.2629 77.4262 74.66 78.8841L77.46 82.2321L73.084 87.9841L69.108 86.1721C67.8626 87.1419 66.4931 87.941 65.036 88.5481L64.636 92.8961L57.472 93.8681L55.944 89.7761C54.3788 89.5803 52.8466 89.1767 51.388 88.5761L48.04 91.3761L42.288 87.0001L44.1 83.0241C43.1314 81.7785 42.3336 80.4091 41.728 78.9521L37.376 78.5521L36.404 71.3881L40.496 69.8601C40.69 68.2945 41.0936 66.7621 41.696 65.3041L38.896 61.9561L43.272 56.2041L47.248 58.0161C48.4941 57.0483 49.8634 56.2506 51.32 55.6441L51.72 51.2921L58.884 50.3201L60.4 54.4001ZM57.46 64.3441C55.9396 64.5495 54.5144 65.2011 53.3644 66.2166C52.2145 67.2321 51.3915 68.5658 50.9996 70.0491C50.6077 71.5324 50.6646 73.0985 51.1629 74.5495C51.6612 76.0005 52.5786 77.2711 53.7991 78.2006C55.0196 79.1301 56.4884 79.6768 58.0196 79.7715C59.5509 79.8661 61.0758 79.5046 62.4015 78.7325C63.7272 77.9605 64.7942 76.8126 65.4675 75.4341C66.1408 74.0555 66.3901 72.5083 66.184 70.9881C65.9047 68.9549 64.831 67.1154 63.1981 65.8723C61.5651 64.6292 59.5061 64.084 57.472 64.3561L57.46 64.3441Z" fill="#E0E0E0"/>
<path d="M285.6 171.6C285.6 171.66 224.884 171.704 150 171.704C75.116 171.704 14.4 171.644 14.4 171.6C14.4 171.556 75.104 171.496 150 171.496C224.896 171.496 285.6 171.528 285.6 171.6Z" fill="#263238"/>
<path d="M236.84 53.288H73.572C70.3533 53.288 67.744 55.8972 67.744 59.116V163.136C67.744 166.355 70.3533 168.964 73.572 168.964H236.84C240.059 168.964 242.668 166.355 242.668 163.136V59.116C242.668 55.8972 240.059 53.288 236.84 53.288Z" fill="#455A64"/>
<path d="M60.908 161.492H250.424V164.496C250.424 166.384 249.674 168.195 248.339 169.531C247.003 170.866 245.192 171.616 243.304 171.616H68.028C66.1397 171.616 64.3287 170.866 62.9934 169.531C61.6582 168.195 60.908 166.384 60.908 164.496V161.492Z" fill="#455A64"/>
<path d="M237.484 57.8839H72.44V155.572H237.484V57.8839Z" fill="#263238"/>
<path d="M137.964 160.408L140.316 164.148H173.408L175.592 160.408H137.964Z" fill="#263238"/>
<path d="M233.116 61.192H77.148C76.4256 61.192 75.84 61.7776 75.84 62.5V153.952C75.84 154.674 76.4256 155.26 77.148 155.26H233.116C233.838 155.26 234.424 154.674 234.424 153.952V62.5C234.424 61.7776 233.838 61.192 233.116 61.192Z" fill="#EBEBEB"/>
<path d="M234.256 155.396H75.672L75.84 68.22H234.256V155.396Z" fill="#FAFAFA"/>
<path d="M88.844 64.8239C88.844 65.0749 88.7696 65.3202 88.6301 65.5288C88.4906 65.7374 88.2923 65.8999 88.0604 65.9958C87.8284 66.0916 87.5733 66.1165 87.3272 66.0672C87.0811 66.018 86.8552 65.8968 86.678 65.7191C86.5008 65.5414 86.3804 65.3151 86.3319 65.0688C86.2835 64.8226 86.3091 64.5675 86.4057 64.3359C86.5023 64.1043 86.6654 63.9065 86.8745 63.7677C87.0835 63.6288 87.3291 63.5551 87.58 63.5559C87.7464 63.5559 87.9111 63.5887 88.0647 63.6525C88.2183 63.7163 88.3578 63.8097 88.4752 63.9275C88.5927 64.0453 88.6857 64.1852 88.749 64.339C88.8123 64.4928 88.8446 64.6576 88.844 64.8239Z" fill="#263238"/>
<path d="M81.168 64.8239C81.168 65.0749 81.0935 65.3202 80.954 65.5288C80.8145 65.7374 80.6163 65.8999 80.3843 65.9958C80.1524 66.0916 79.8972 66.1165 79.6512 66.0672C79.4051 66.018 79.1792 65.8968 79.002 65.7191C78.8248 65.5414 78.7044 65.3151 78.6559 65.0688C78.6074 64.8226 78.6331 64.5675 78.7297 64.3359C78.8263 64.1043 78.9894 63.9065 79.1985 63.7677C79.4075 63.6288 79.6531 63.5551 79.904 63.5559C80.0703 63.5559 80.235 63.5887 80.3887 63.6525C80.5423 63.7163 80.6818 63.8097 80.7992 63.9275C80.9166 64.0453 81.0097 64.1852 81.073 64.339C81.1362 64.4928 81.1685 64.6576 81.168 64.8239Z" fill="#263238"/>
<path d="M84.856 64.8239C84.856 65.0747 84.7816 65.3198 84.6423 65.5284C84.503 65.7369 84.3049 65.8994 84.0732 65.9954C83.8416 66.0914 83.5866 66.1165 83.3406 66.0675C83.0947 66.0186 82.8687 65.8979 82.6914 65.7205C82.5141 65.5432 82.3933 65.3173 82.3444 65.0713C82.2954 64.8253 82.3206 64.5704 82.4165 64.3387C82.5125 64.107 82.675 63.9089 82.8835 63.7696C83.0921 63.6303 83.3372 63.5559 83.588 63.5559C83.9243 63.5559 84.2468 63.6895 84.4846 63.9273C84.7224 64.1651 84.856 64.4876 84.856 64.8239Z" fill="#263238"/>
<path d="M241.164 160.4C241.164 160.464 202.34 160.512 154.46 160.512C106.58 160.512 67.744 160.464 67.744 160.4C67.744 160.336 106.544 160.288 154.46 160.288C202.376 160.288 241.164 160.344 241.164 160.4Z" fill="#263238"/>
<path d="M210.64 111.5H102.876C101.61 111.5 100.397 110.997 99.5017 110.102C98.6068 109.207 98.104 107.994 98.104 106.728C98.104 105.462 98.6066 104.248 99.5015 103.352C100.396 102.457 101.61 101.953 102.876 101.952H210.64C211.906 101.953 213.12 102.457 214.015 103.352C214.909 104.248 215.412 105.462 215.412 106.728C215.412 107.994 214.909 109.207 214.014 110.102C213.119 110.997 211.906 111.5 210.64 111.5Z" fill="#EBEBEB"/>
<path d="M158.556 111.5H152.8C152.165 111.505 151.535 111.384 150.946 111.144C150.358 110.904 149.823 110.55 149.373 110.101C148.923 109.653 148.566 109.12 148.323 108.532C148.081 107.945 147.957 107.315 147.96 106.68C147.951 106.057 148.067 105.438 148.301 104.861C148.535 104.283 148.883 103.759 149.323 103.318C149.763 102.877 150.288 102.529 150.865 102.294C151.442 102.06 152.061 101.943 152.684 101.952L158.556 101.976C159.844 101.997 161.073 102.525 161.975 103.445C162.877 104.365 163.38 105.603 163.376 106.892C163.376 109.552 161.2 111.5 158.556 111.5Z" fill="#E0E0E0"/>
<path d="M155.568 111.5H102.876C101.61 111.5 100.397 110.997 99.5018 110.102C98.6068 109.207 98.1041 107.994 98.1041 106.728C98.1041 105.462 98.6067 104.248 99.5015 103.352C100.396 102.457 101.61 101.953 102.876 101.952H155.568C156.835 101.952 158.05 102.455 158.945 103.351C159.841 104.246 160.344 105.461 160.344 106.728C160.344 107.355 160.221 107.976 159.98 108.555C159.74 109.134 159.389 109.66 158.945 110.104C158.501 110.547 157.975 110.898 157.395 111.138C156.816 111.377 156.195 111.5 155.568 111.5Z" fill="url(#paint0_linear_9_1150)"/>
<g opacity="0.2">
<path opacity="0.2" d="M104.7 101.952L110.532 111.5H114.656L108.592 101.952H104.7Z" fill="white"/>
</g>
<g opacity="0.2">
<path opacity="0.2" d="M95.876 101.952L101.708 111.5H105.832L99.768 101.952H95.876Z" fill="white"/>
</g>
<g opacity="0.2">
<path opacity="0.2" d="M113.236 101.952L119.064 111.5H123.192L117.128 101.952H113.236Z" fill="white"/>
</g>
<g opacity="0.2">
<path opacity="0.2" d="M121.772 101.952L127.6 111.5H131.728L125.664 101.952H121.772Z" fill="white"/>
</g>
<g opacity="0.2">
<path opacity="0.2" d="M130.304 101.952L136.136 111.5H140.26L134.196 101.952H130.304Z" fill="white"/>
</g>
<g opacity="0.2">
<path opacity="0.2" d="M138.84 101.952L144.668 111.5H148.796L142.732 101.952H138.84Z" fill="white"/>
</g>
<g opacity="0.2">
<path opacity="0.2" d="M147.376 101.952L153.204 111.5H157.332L151.268 101.952H147.376Z" fill="white"/>
</g>
<g opacity="0.2">
<path opacity="0.2" d="M155.908 101.952L161.74 111.5H165.864L159.8 101.952H155.908Z" fill="white"/>
</g>
<path d="M130.684 120.648C131.696 120.648 132.284 121.152 132.284 122.024C132.284 122.896 131.704 123.464 130.684 123.464H129.756V124.664H129.076V120.648H130.684ZM129.756 122.856H130.656C131.276 122.856 131.628 122.588 131.628 122.056C131.628 121.524 131.276 121.256 130.656 121.256H129.756V122.856Z" fill="url(#paint1_linear_9_1150)"/>
<path d="M133.056 124.68V120.4H133.72V124.68H133.056Z" fill="url(#paint2_linear_9_1150)"/>
<path d="M137.536 123.4H135.224C135.263 123.621 135.38 123.82 135.554 123.962C135.728 124.103 135.948 124.176 136.172 124.168C136.333 124.169 136.492 124.138 136.641 124.076C136.789 124.014 136.923 123.923 137.036 123.808L137.388 124.184C137.225 124.355 137.028 124.489 136.809 124.578C136.591 124.667 136.356 124.708 136.12 124.7C135.912 124.714 135.704 124.684 135.509 124.611C135.314 124.538 135.137 124.425 134.989 124.279C134.841 124.132 134.726 123.956 134.651 123.762C134.577 123.568 134.544 123.36 134.556 123.152C134.546 122.945 134.579 122.739 134.653 122.546C134.727 122.353 134.84 122.177 134.986 122.031C135.132 121.884 135.306 121.769 135.499 121.693C135.691 121.618 135.897 121.583 136.104 121.592C137.2 121.6 137.6 122.296 137.536 123.4ZM136.96 122.916C136.96 122.806 136.938 122.698 136.895 122.597C136.851 122.497 136.787 122.406 136.708 122.331C136.628 122.256 136.533 122.198 136.43 122.161C136.327 122.124 136.217 122.109 136.108 122.116C135.884 122.108 135.666 122.187 135.499 122.336C135.332 122.485 135.229 122.693 135.212 122.916H136.96Z" fill="url(#paint3_linear_9_1150)"/>
<path d="M140.18 124.304C140.053 124.443 139.896 124.552 139.72 124.621C139.545 124.691 139.356 124.719 139.168 124.704C139.033 124.719 138.897 124.706 138.768 124.665C138.639 124.624 138.52 124.557 138.419 124.467C138.317 124.377 138.236 124.267 138.179 124.144C138.123 124.021 138.093 123.887 138.092 123.752C138.092 123.196 138.492 122.84 139.248 122.832H140.172V122.74C140.172 122.34 139.928 122.124 139.444 122.124C139.118 122.133 138.803 122.242 138.54 122.436L138.268 121.976C138.655 121.706 139.117 121.566 139.588 121.576C140.388 121.576 140.82 121.976 140.824 122.652V124.652H140.176L140.18 124.304ZM140.18 123.604V123.32H139.352C138.92 123.32 138.72 123.436 138.72 123.72C138.72 124.004 138.944 124.176 139.312 124.176C139.776 124.184 140.14 123.936 140.172 123.6L140.18 123.604Z" fill="url(#paint4_linear_9_1150)"/>
<path d="M143.82 121.9L143.576 122.388C143.312 122.221 143.008 122.128 142.696 122.116C142.44 122.116 142.248 122.204 142.248 122.424C142.248 122.988 143.876 122.68 143.872 123.792C143.872 124.42 143.312 124.7 142.696 124.7C142.248 124.708 141.812 124.558 141.464 124.276L141.7 123.804C141.989 124.041 142.35 124.175 142.724 124.184C143.008 124.184 143.228 124.084 143.228 123.856C143.228 123.228 141.628 123.58 141.628 122.472C141.628 121.852 142.168 121.588 142.756 121.588C143.134 121.586 143.503 121.694 143.82 121.9Z" fill="url(#paint5_linear_9_1150)"/>
<path d="M147.348 123.4H145.036C145.075 123.621 145.193 123.82 145.367 123.961C145.541 124.102 145.76 124.175 145.984 124.168C146.145 124.169 146.304 124.137 146.453 124.076C146.601 124.014 146.735 123.923 146.848 123.808L147.2 124.184C147.037 124.355 146.84 124.489 146.621 124.578C146.403 124.667 146.168 124.709 145.932 124.7C145.724 124.714 145.516 124.684 145.321 124.611C145.126 124.538 144.949 124.425 144.801 124.279C144.653 124.132 144.538 123.956 144.463 123.762C144.389 123.568 144.356 123.36 144.368 123.152C144.358 122.946 144.392 122.739 144.466 122.547C144.54 122.354 144.654 122.179 144.799 122.032C144.945 121.885 145.119 121.77 145.311 121.695C145.504 121.619 145.71 121.584 145.916 121.592C146.992 121.6 147.428 122.296 147.348 123.4ZM146.772 122.916C146.772 122.807 146.75 122.699 146.707 122.598C146.664 122.498 146.6 122.408 146.521 122.333C146.442 122.258 146.348 122.2 146.245 122.162C146.142 122.125 146.033 122.109 145.924 122.116C145.7 122.108 145.481 122.187 145.314 122.336C145.146 122.485 145.042 122.692 145.024 122.916H146.772Z" fill="url(#paint6_linear_9_1150)"/>
<path d="M153.248 124.68L152.292 121.536L151.324 124.68H150.62L149.288 120.648H150L150.98 123.924L151.952 120.656H152.62L153.6 123.932L154.572 120.656H155.272L153.928 124.688L153.248 124.68Z" fill="url(#paint7_linear_9_1150)"/>
<path d="M157.404 124.304C157.277 124.444 157.12 124.552 156.945 124.622C156.769 124.691 156.58 124.719 156.392 124.704C156.257 124.719 156.121 124.706 155.992 124.665C155.863 124.624 155.744 124.557 155.643 124.467C155.541 124.377 155.46 124.267 155.403 124.144C155.347 124.021 155.317 123.887 155.316 123.752C155.316 123.196 155.716 122.84 156.472 122.832H157.4V122.74C157.4 122.34 157.152 122.124 156.668 122.124C156.342 122.133 156.027 122.242 155.764 122.436L155.492 121.976C155.879 121.707 156.341 121.567 156.812 121.576C157.612 121.576 158.044 121.976 158.048 122.652V124.652H157.396L157.404 124.304ZM157.404 123.604V123.32H156.576C156.144 123.32 155.94 123.436 155.94 123.72C155.94 124.004 156.164 124.176 156.532 124.176C157 124.184 157.364 123.936 157.4 123.6L157.404 123.604Z" fill="url(#paint8_linear_9_1150)"/>
<path d="M159.772 120.74C159.772 120.819 159.749 120.896 159.705 120.962C159.661 121.028 159.598 121.079 159.525 121.11C159.452 121.14 159.372 121.148 159.294 121.132C159.216 121.117 159.145 121.079 159.089 121.023C159.033 120.967 158.995 120.896 158.98 120.818C158.964 120.74 158.972 120.66 159.002 120.587C159.033 120.514 159.084 120.451 159.15 120.407C159.216 120.363 159.293 120.34 159.372 120.34C159.478 120.34 159.58 120.382 159.655 120.457C159.73 120.532 159.772 120.634 159.772 120.74ZM159.06 124.68V121.6H159.716V124.664L159.06 124.68Z" fill="url(#paint9_linear_9_1150)"/>
<path d="M162.544 124.484C162.317 124.626 162.056 124.703 161.788 124.708C161.67 124.717 161.552 124.7 161.441 124.658C161.331 124.616 161.231 124.55 161.149 124.464C161.067 124.379 161.005 124.277 160.968 124.165C160.93 124.052 160.918 123.933 160.932 123.816V122.216H160.5V121.72H160.932V120.88H161.6V121.72H162.504V122.216H161.6V123.684C161.6 124 161.72 124.084 161.928 124.084C162.089 124.076 162.247 124.031 162.388 123.952L162.544 124.484Z" fill="url(#paint10_linear_9_1150)"/>
<path d="M166.124 120.4C165.679 121.155 165.444 122.015 165.444 122.892C165.444 123.768 165.679 124.629 166.124 125.384H165.524C165.068 124.633 164.826 123.771 164.826 122.892C164.826 122.013 165.068 121.151 165.524 120.4H166.124Z" fill="url(#paint11_linear_9_1150)"/>
<path d="M168.428 123.084V122.128H169.06V123.084H169.648V123.688H169.06V124.68H168.428V123.688H166.504V123.2L167.88 120.664H168.536L167.232 123.1L168.428 123.084Z" fill="url(#paint12_linear_9_1150)"/>
<path d="M170.98 121.26V122.128H171.532C172.408 122.128 172.972 122.644 172.972 123.352C172.972 124.172 172.384 124.704 171.48 124.704C170.969 124.69 170.472 124.531 170.048 124.244L170.316 123.692C170.619 123.954 171.003 124.105 171.404 124.12C171.928 124.12 172.244 123.848 172.244 123.392C172.244 122.936 171.928 122.732 171.412 122.732C171.168 122.732 170.612 122.756 170.352 122.784V120.652H172.8V121.264L170.98 121.26Z" fill="url(#paint13_linear_9_1150)"/>
<path d="M175.684 121.836C175.684 122.588 175.284 123.036 174.62 123.036C173.956 123.036 173.556 122.58 173.556 121.836C173.556 121.092 173.956 120.636 174.62 120.636C175.284 120.636 175.684 121.088 175.684 121.836ZM173.996 121.836C173.996 122.352 174.22 122.636 174.62 122.636C175.02 122.636 175.248 122.336 175.248 121.836C175.248 121.336 175.016 121.036 174.62 121.036C174.224 121.036 174 121.324 174 121.836H173.996ZM177.28 120.636H177.912L174.952 124.668H174.316L177.28 120.636ZM178.716 123.476C178.716 124.228 178.316 124.676 177.652 124.676C176.988 124.676 176.588 124.224 176.588 123.476C176.588 122.728 176.988 122.276 177.652 122.276C178.316 122.276 178.716 122.74 178.716 123.488V123.476ZM177.032 123.476C177.032 123.992 177.256 124.276 177.652 124.276C178.048 124.276 178.28 123.98 178.28 123.476C178.28 122.972 178.048 122.676 177.652 122.676C177.256 122.676 177.032 122.976 177.032 123.488V123.476Z" fill="url(#paint14_linear_9_1150)"/>
<path d="M180.34 120.4C180.796 121.151 181.038 122.013 181.038 122.892C181.038 123.771 180.796 124.633 180.34 125.384H179.74C180.185 124.629 180.42 123.768 180.42 122.892C180.42 122.015 180.185 121.155 179.74 120.4H180.34Z" fill="url(#paint15_linear_9_1150)"/>
<path d="M137.484 90.656H138.156V94.764H140.696V95.348H137.496L137.484 90.656Z" fill="black"/>
<path d="M140.996 93C140.977 92.5028 141.107 92.0113 141.369 91.5885C141.631 91.1657 142.014 90.8309 142.468 90.6271C142.921 90.4232 143.426 90.3597 143.916 90.4445C144.406 90.5294 144.86 90.7588 145.219 91.1034C145.578 91.4479 145.825 91.8918 145.93 92.3782C146.035 92.8645 145.992 93.3711 145.807 93.8329C145.622 94.2946 145.303 94.6905 144.891 94.9697C144.479 95.249 143.993 95.3988 143.496 95.4C143.173 95.4134 142.85 95.3613 142.547 95.2468C142.244 95.1322 141.967 94.9576 141.734 94.7334C141.5 94.5092 141.315 94.24 141.188 93.9421C141.061 93.6442 140.996 93.3237 140.996 93ZM145.312 93C145.316 92.638 145.212 92.2831 145.014 91.9804C144.815 91.6776 144.532 91.4407 144.198 91.2998C143.865 91.1589 143.497 91.1204 143.142 91.1892C142.786 91.2579 142.459 91.4309 142.203 91.6859C141.946 91.941 141.771 92.2667 141.7 92.6216C141.629 92.9765 141.665 93.3445 141.803 93.6788C141.942 94.0132 142.177 94.2987 142.478 94.499C142.78 94.6994 143.134 94.8055 143.496 94.804C143.736 94.8117 143.974 94.7704 144.197 94.6826C144.42 94.5948 144.623 94.4624 144.793 94.2935C144.963 94.1246 145.097 93.9227 145.186 93.7003C145.275 93.4779 145.318 93.2395 145.312 93Z" fill="black"/>
<path d="M149.932 94.172H147.436L146.92 95.348H146.232L148.356 90.656H149.02L151.152 95.348H150.448L149.932 94.172ZM149.696 93.636L148.684 91.34L147.672 93.636H149.696Z" fill="black"/>
<path d="M151.848 90.656H153.824C155.332 90.656 156.356 91.608 156.356 93C156.356 94.392 155.332 95.348 153.824 95.348H151.848V90.656ZM153.784 94.764C154.944 94.764 155.688 94.052 155.688 93C155.688 91.948 154.944 91.24 153.784 91.24H152.516V94.764H153.784Z" fill="black"/>
<path d="M157.384 90.656H158.052V95.348H157.384V90.656Z" fill="black"/>
<path d="M163.496 90.656V95.348H162.944L160.144 91.848V95.348H159.472V90.656H160L162.8 94.152V90.656H163.496Z" fill="black"/>
<path d="M168.152 92.9759H168.8V94.7999C168.295 95.199 167.667 95.4097 167.024 95.3959C166.388 95.3959 165.777 95.1431 165.327 94.693C164.877 94.2429 164.624 93.6325 164.624 92.9959C164.624 92.3594 164.877 91.749 165.327 91.2989C165.777 90.8488 166.388 90.5959 167.024 90.5959C167.359 90.5811 167.693 90.638 168.004 90.7629C168.315 90.8877 168.596 91.0777 168.828 91.3199L168.428 91.7199C168.25 91.5425 168.037 91.4031 167.803 91.3103C167.57 91.2174 167.319 91.1731 167.068 91.1799C166.822 91.1635 166.574 91.1978 166.342 91.2809C166.109 91.3639 165.896 91.4938 165.716 91.6626C165.535 91.8313 165.391 92.0353 165.293 92.2619C165.195 92.4885 165.144 92.7329 165.144 92.9799C165.144 93.227 165.195 93.4713 165.293 93.698C165.391 93.9246 165.535 94.1286 165.716 94.2973C165.896 94.4661 166.109 94.596 166.342 94.679C166.574 94.762 166.822 94.7964 167.068 94.7799C167.456 94.7888 167.838 94.6845 168.168 94.4799L168.152 92.9759Z" fill="black"/>
<path d="M169.748 94.924C169.747 94.8638 169.758 94.804 169.781 94.7482C169.803 94.6924 169.837 94.6417 169.879 94.5991C169.922 94.5566 169.972 94.523 170.028 94.5005C170.084 94.4779 170.144 94.4669 170.204 94.468C170.263 94.4679 170.322 94.4798 170.376 94.5029C170.431 94.526 170.48 94.5599 170.521 94.6024C170.562 94.645 170.594 94.6954 170.615 94.7507C170.636 94.8059 170.646 94.8649 170.644 94.924C170.646 94.9835 170.636 95.0428 170.615 95.0985C170.594 95.1542 170.562 95.2051 170.521 95.2483C170.48 95.2915 170.431 95.3261 170.377 95.3501C170.322 95.3741 170.264 95.3869 170.204 95.388C170.143 95.388 170.083 95.3759 170.028 95.3525C169.972 95.3291 169.921 95.2948 169.879 95.2516C169.836 95.2084 169.803 95.1572 169.78 95.1009C169.758 95.0447 169.747 94.9845 169.748 94.924Z" fill="black"/>
<path d="M171.268 94.924C171.267 94.8638 171.278 94.804 171.301 94.7482C171.323 94.6924 171.357 94.6417 171.399 94.5991C171.442 94.5566 171.492 94.523 171.548 94.5005C171.604 94.4779 171.664 94.4669 171.724 94.468C171.783 94.4679 171.842 94.4798 171.897 94.5029C171.951 94.5259 172.001 94.5597 172.042 94.6022C172.084 94.6447 172.116 94.6951 172.138 94.7504C172.159 94.8056 172.17 94.8647 172.168 94.924C172.17 94.9837 172.159 95.0431 172.138 95.0988C172.116 95.1545 172.084 95.2054 172.043 95.2485C172.001 95.2917 171.952 95.3262 171.897 95.3501C171.843 95.3741 171.784 95.3869 171.724 95.388C171.663 95.388 171.603 95.3759 171.548 95.3525C171.492 95.3291 171.441 95.2948 171.399 95.2516C171.356 95.2084 171.323 95.1572 171.3 95.1009C171.278 95.0447 171.267 94.9845 171.268 94.924Z" fill="black"/>
<path d="M172.8 94.924C172.799 94.8638 172.81 94.804 172.833 94.7482C172.855 94.6924 172.889 94.6417 172.931 94.5991C172.974 94.5566 173.024 94.523 173.08 94.5005C173.136 94.4779 173.196 94.4669 173.256 94.468C173.315 94.4674 173.374 94.4789 173.429 94.5017C173.484 94.5246 173.534 94.5584 173.576 94.601C173.617 94.6436 173.649 94.6942 173.671 94.7497C173.692 94.8052 173.702 94.8645 173.7 94.924C173.702 94.9838 173.692 95.0435 173.671 95.0994C173.65 95.1554 173.617 95.2065 173.576 95.2497C173.535 95.293 173.485 95.3275 173.43 95.3512C173.375 95.375 173.316 95.3875 173.256 95.388C173.195 95.388 173.135 95.3759 173.08 95.3525C173.024 95.3291 172.973 95.2948 172.931 95.2516C172.888 95.2084 172.855 95.1572 172.832 95.1009C172.81 95.0447 172.799 94.9845 172.8 94.924Z" fill="black"/>
<path d="M122.416 171.412L137.44 171.252L136.252 165.876L122.824 164.88L122.416 171.412Z" fill="#B78876"/>
<path d="M130 164.7L136.96 165.156C136.96 165.156 139.76 158.236 141.056 158.196L140.656 171.72L129.784 171.452L130 164.7Z" fill="url(#paint16_linear_9_1150)"/>
<path d="M136.248 169.32C136.284 169.451 136.367 169.565 136.481 169.639C136.596 169.713 136.734 169.742 136.868 169.72C137 169.689 137.115 169.609 137.189 169.496C137.264 169.383 137.292 169.245 137.268 169.112C137.227 168.976 137.137 168.86 137.016 168.787C136.895 168.713 136.751 168.686 136.612 168.712C136.477 168.758 136.365 168.854 136.3 168.981C136.235 169.108 136.222 169.256 136.264 169.392" fill="#E0E0E0"/>
<path d="M140.652 171.72L139.556 171.652L140.356 158.708C140.356 158.708 140.636 158.116 141.06 158.196L140.652 171.72Z" fill="#E0E0E0"/>
<path d="M136.896 164.936C136.964 164.936 136.984 165.268 137.184 165.6C137.384 165.932 137.66 166.112 137.632 166.172C137.604 166.232 137.232 166.124 136.988 165.72C136.744 165.316 136.836 164.92 136.896 164.936Z" fill="#263238"/>
<path d="M137.524 163.532C137.588 163.532 137.692 163.808 137.964 164.04C138.236 164.272 138.532 164.348 138.528 164.412C138.524 164.476 138.148 164.512 137.816 164.216C137.484 163.92 137.464 163.532 137.524 163.532Z" fill="#263238"/>
<path d="M139.248 162.776C139.248 162.84 138.928 162.92 138.568 162.74C138.208 162.56 138.08 162.248 138.136 162.22C138.192 162.192 138.376 162.392 138.672 162.536C138.968 162.68 139.244 162.712 139.248 162.776Z" fill="#263238"/>
<path d="M135.3 165.008C135.356 165.036 135.256 165.336 135.272 165.708C135.288 166.08 135.396 166.38 135.336 166.412C135.276 166.444 135.052 166.156 135.044 165.716C135.036 165.276 135.248 164.972 135.3 165.008Z" fill="#263238"/>
<path d="M133.892 164.94C133.946 165.163 133.937 165.397 133.868 165.616C133.819 165.86 133.74 166.096 133.632 166.32C133.566 166.457 133.492 166.591 133.412 166.72C133.369 166.794 133.313 166.86 133.248 166.916C133.2 166.958 133.139 166.982 133.075 166.986C133.012 166.99 132.949 166.972 132.896 166.936C132.851 166.902 132.814 166.858 132.789 166.807C132.764 166.756 132.751 166.7 132.752 166.644C132.754 166.558 132.769 166.473 132.796 166.392C132.835 166.254 132.888 166.12 132.952 165.992C133.061 165.765 133.206 165.557 133.38 165.376C133.68 165.072 133.932 164.976 133.944 164.996C133.956 165.016 133.752 165.172 133.504 165.484C133.358 165.666 133.237 165.866 133.144 166.08C133.09 166.21 133.046 166.343 133.012 166.48C132.972 166.624 132.968 166.744 133.012 166.784C133.056 166.824 133.048 166.784 133.088 166.784C133.135 166.74 133.177 166.69 133.212 166.636C133.29 166.523 133.361 166.406 133.424 166.284C133.535 166.077 133.626 165.86 133.696 165.636C133.743 165.399 133.809 165.167 133.892 164.94Z" fill="#263238"/>
<path d="M134 165.028C133.803 165.151 133.572 165.208 133.34 165.188C133.09 165.192 132.841 165.153 132.604 165.072C132.464 165.025 132.33 164.964 132.204 164.888C132.116 164.85 132.039 164.789 131.981 164.712C131.924 164.634 131.888 164.544 131.876 164.448C131.879 164.388 131.899 164.33 131.934 164.28C131.969 164.231 132.016 164.192 132.072 164.168C132.153 164.136 132.238 164.116 132.324 164.108C132.527 164.083 132.733 164.099 132.931 164.154C133.128 164.21 133.312 164.304 133.472 164.432C133.812 164.704 133.872 164.984 133.872 164.988C133.872 164.992 133.72 164.776 133.388 164.564C133.197 164.44 132.981 164.36 132.756 164.328C132.623 164.309 132.489 164.309 132.356 164.328C132.208 164.328 132.092 164.392 132.104 164.448C132.116 164.504 132.208 164.632 132.32 164.692C132.435 164.763 132.557 164.822 132.684 164.868C132.9 164.95 133.126 165.002 133.356 165.02C133.728 165.056 133.976 164.992 134 165.028Z" fill="#263238"/>
<path d="M29.008 167.2L27.86 171.6L14.98 171.484C14.98 171.484 16.744 170.152 23.212 170.248L23.84 167.2H29.008Z" fill="#B78876"/>
<path d="M42.192 107.6C41.8115 106.876 41.502 106.116 41.268 105.332C41.0331 104.549 41.0331 103.715 41.268 102.932C41.3948 102.541 41.6146 102.187 41.9087 101.9C42.2027 101.613 42.5622 101.401 42.956 101.284C43.444 101.164 43.976 101.22 44.44 101.02C44.98 100.792 45.32 100.268 45.724 99.848C46.369 99.1869 47.2112 98.7532 48.124 98.612C48.5959 98.5192 49.0845 98.5636 49.532 98.74C49.7547 98.8313 49.9507 98.9775 50.1017 99.165C50.2528 99.3524 50.354 99.5749 50.396 99.812C50.9359 99.5725 51.5047 99.4044 52.088 99.312C52.6774 99.2227 53.2784 99.3661 53.764 99.712C53.9991 99.8918 54.1706 100.142 54.2534 100.426C54.3361 100.711 54.3258 101.014 54.224 101.292C54.4673 101.155 54.7527 101.114 55.0248 101.176C55.2969 101.238 55.5361 101.399 55.696 101.628C55.8478 101.862 55.9286 102.135 55.9286 102.414C55.9286 102.693 55.8478 102.966 55.696 103.2C55.3089 103.714 54.7518 104.074 54.124 104.216C53.5605 104.355 52.9733 104.369 52.404 104.256" fill="#263238"/>
<path d="M48.556 124.968C49.6659 124.832 50.6768 124.262 51.3678 123.383C52.0589 122.504 52.3738 121.387 52.244 120.276C52.092 118.984 51.96 117.908 51.96 117.908C51.96 117.908 55.216 117.228 55.088 113.944C54.96 110.66 54.012 103.144 54.012 103.144C52.1052 102.437 50.0441 102.251 48.0415 102.606C46.0389 102.961 44.1673 103.844 42.62 105.164L42.152 105.564L43.828 121.2C43.8855 121.76 44.0542 122.303 44.3241 122.797C44.5941 123.291 44.96 123.726 45.4003 124.077C45.8406 124.428 46.3465 124.688 46.8884 124.841C47.4302 124.994 47.9972 125.037 48.556 124.968Z" fill="#B78876"/>
<path d="M51.96 117.86C50.4462 117.964 48.9356 117.616 47.62 116.86C47.62 116.86 48.752 119.172 52.02 118.708L51.96 117.86Z" fill="#AA6550"/>
<path d="M42.732 108.952C42.672 108.932 40.44 108.4 40.628 110.64C40.816 112.88 43.028 112.24 43.028 112.168C43.028 112.096 42.732 108.952 42.732 108.952Z" fill="#B78876"/>
<path d="M42.268 111.376C42.268 111.376 42.232 111.408 42.168 111.444C42.0777 111.49 41.9733 111.5 41.876 111.472C41.7233 111.393 41.5946 111.274 41.5032 111.129C41.4118 110.983 41.3609 110.816 41.356 110.644C41.3353 110.452 41.3571 110.258 41.42 110.076C41.4353 110.004 41.4677 109.938 41.5144 109.881C41.561 109.825 41.6206 109.78 41.688 109.752C41.732 109.737 41.7798 109.738 41.8234 109.754C41.8671 109.77 41.904 109.8 41.928 109.84C41.964 109.9 41.952 109.944 41.964 109.948C41.976 109.952 42.012 109.908 41.964 109.816C41.9477 109.761 41.9121 109.714 41.864 109.684C41.8318 109.663 41.7958 109.649 41.758 109.642C41.7202 109.635 41.6814 109.636 41.644 109.644C41.5496 109.666 41.4629 109.713 41.3926 109.78C41.3224 109.847 41.2711 109.931 41.244 110.024C41.1662 110.226 41.1375 110.444 41.16 110.66C41.1656 110.861 41.2306 111.055 41.3466 111.219C41.4626 111.382 41.6246 111.508 41.812 111.58C41.8734 111.594 41.9373 111.593 41.9985 111.578C42.0597 111.563 42.1164 111.533 42.164 111.492C42.268 111.432 42.276 111.38 42.268 111.376Z" fill="#AA6550"/>
<path d="M53.256 108.568C53.2617 108.69 53.2205 108.809 53.1409 108.901C53.0613 108.994 52.9493 109.052 52.828 109.064C52.7686 109.071 52.7083 109.067 52.6507 109.05C52.5931 109.034 52.5393 109.007 52.4924 108.969C52.4455 108.932 52.4065 108.886 52.3776 108.834C52.3487 108.781 52.3304 108.723 52.324 108.664C52.3162 108.542 52.3567 108.421 52.4367 108.329C52.5168 108.236 52.6299 108.178 52.752 108.168C52.8115 108.16 52.872 108.164 52.9298 108.18C52.9877 108.196 53.0417 108.224 53.0887 108.261C53.1357 108.299 53.1747 108.345 53.2035 108.398C53.2322 108.45 53.2501 108.508 53.256 108.568Z" fill="#263238"/>
<path d="M53.624 107.8C53.572 107.864 53.2 107.62 52.696 107.648C52.192 107.676 51.836 107.944 51.78 107.884C51.724 107.824 51.804 107.748 51.96 107.62C52.1707 107.458 52.4263 107.364 52.692 107.352C52.9536 107.339 53.2128 107.409 53.432 107.552C53.6 107.664 53.652 107.772 53.624 107.8Z" fill="#263238"/>
<path d="M48.452 108.8C48.4577 108.922 48.4165 109.041 48.3369 109.133C48.2573 109.226 48.1453 109.284 48.024 109.296C47.9646 109.303 47.9043 109.299 47.8467 109.282C47.7891 109.266 47.7353 109.238 47.6884 109.201C47.6415 109.164 47.6025 109.118 47.5736 109.065C47.5446 109.013 47.5264 108.955 47.52 108.896C47.5112 108.773 47.5513 108.652 47.6315 108.559C47.7117 108.467 47.8255 108.409 47.948 108.4C48.0074 108.393 48.0677 108.397 48.1253 108.414C48.1829 108.43 48.2367 108.457 48.2836 108.495C48.3305 108.532 48.3695 108.578 48.3984 108.63C48.4273 108.683 48.4455 108.74 48.452 108.8Z" fill="#263238"/>
<path d="M48.672 108.148C48.616 108.212 48.248 107.964 47.744 107.992C47.24 108.02 46.88 108.292 46.824 108.232C46.768 108.172 46.848 108.092 47.004 107.968C47.2142 107.805 47.4701 107.711 47.736 107.7C47.9991 107.685 48.2601 107.755 48.48 107.9C48.64 108 48.7 108.116 48.672 108.148Z" fill="#263238"/>
<path d="M50.692 111.796C50.9491 111.697 51.2181 111.633 51.492 111.604C51.62 111.584 51.74 111.552 51.756 111.464C51.7632 111.331 51.7267 111.199 51.652 111.088C51.516 110.78 51.372 110.46 51.22 110.124C50.8239 109.312 50.4948 108.469 50.236 107.604C50.701 108.382 51.1024 109.197 51.436 110.04L51.836 111.008C51.925 111.16 51.9576 111.338 51.928 111.512C51.9122 111.558 51.8859 111.6 51.8512 111.634C51.8165 111.668 51.7743 111.693 51.728 111.708C51.6582 111.732 51.5856 111.747 51.512 111.752C51.2414 111.799 50.9661 111.814 50.692 111.796Z" fill="#263238"/>
<path d="M49.224 112.22C49.308 112.22 49.336 112.756 49.824 113.124C50.312 113.492 50.892 113.396 50.9 113.472C50.908 113.548 50.776 113.588 50.528 113.604C50.2078 113.627 49.8899 113.535 49.632 113.344C49.3841 113.16 49.2165 112.888 49.164 112.584C49.132 112.356 49.2 112.216 49.224 112.22Z" fill="#263238"/>
<path d="M53.396 106.92C53.312 107.04 52.96 106.94 52.54 106.956C52.12 106.972 51.772 107.072 51.684 106.956C51.644 106.9 51.684 106.78 51.844 106.664C52.0434 106.521 52.2826 106.444 52.528 106.444C52.7749 106.433 53.0188 106.502 53.224 106.64C53.376 106.748 53.432 106.864 53.396 106.92Z" fill="#263238"/>
<path d="M47.924 106.356C47.868 106.42 47.74 106.404 47.568 106.376C47.3603 106.343 47.1503 106.327 46.94 106.328C46.7303 106.334 46.5216 106.358 46.316 106.4C46.148 106.432 46.02 106.452 45.964 106.4C45.908 106.348 45.964 106.196 46.12 106.04C46.3445 105.852 46.6275 105.749 46.92 105.748C47.2089 105.743 47.4909 105.836 47.72 106.012C47.928 106.152 47.972 106.296 47.924 106.356Z" fill="#263238"/>
<path d="M54.228 104.152C52.6683 104.66 50.9877 104.66 49.428 104.152C47.696 103.592 45.76 103.484 45.392 103.872C45.024 104.26 45.196 105.932 43.672 106.672C43.672 106.672 44.268 109.824 42.988 109.904C41.708 109.984 41.748 104.956 41.748 104.956L44.608 102.976L47.88 101.828L51.036 101.344L54.112 101.8L54.228 104.152Z" fill="#263238"/>
<path d="M59.048 124.612L68.904 133.836L84.504 123.188L89.376 128.788L74.392 140.788C72.8887 142.129 70.9683 142.909 68.956 142.996C67.5953 143.055 66.2396 142.794 64.9977 142.235C63.7558 141.676 62.662 140.834 61.804 139.776L56.524 135.32L59.048 124.612Z" fill="url(#paint17_linear_9_1150)"/>
<path d="M49.892 120.648L59.048 124.612L58.744 127.148L63.004 144.044L67.636 147.424L63.8 153.06C62.9361 154.324 61.8073 155.384 60.492 156.168L51.36 161.6C50.503 161.913 49.5592 161.888 48.7194 161.532C47.8796 161.176 47.2064 160.514 46.836 159.68L38.76 141.356L30.644 166.528C30.3898 167.318 29.8644 167.992 29.1609 168.431C28.4573 168.87 27.6209 169.046 26.8 168.928L23.6 168.46C23.3422 168.422 23.0953 168.331 22.8751 168.191C22.655 168.052 22.4667 167.868 22.3222 167.651C22.1778 167.434 22.0805 167.189 22.0367 166.932C21.9929 166.676 22.0036 166.412 22.068 166.16L31.144 130.872C31.6215 129.039 32.4001 127.298 33.448 125.72C34.4236 124.265 35.7342 123.065 37.2696 122.221C38.8051 121.378 40.5206 120.915 42.272 120.872L49.892 120.648Z" fill="url(#paint18_linear_9_1150)"/>
<path d="M53.1 120.912L52.76 119.076L43.056 118.424V120.864C43.124 121.56 44.256 121.352 45.312 121.788L50.064 122.736C51.224 122.828 53.696 122.4 53.1 120.912Z" fill="url(#paint19_linear_9_1150)"/>
<path d="M63.1 144.124C62.9992 143.916 62.9149 143.701 62.848 143.48C62.7 143.08 62.496 142.456 62.252 141.696C61.768 140.184 61.144 138.096 60.544 135.736C59.944 133.376 59.472 131.24 59.168 129.684C59.016 128.904 58.904 128.272 58.832 127.832C58.782 127.607 58.7526 127.378 58.744 127.148C58.8156 127.366 58.8717 127.59 58.912 127.816C59.016 128.284 59.152 128.904 59.312 129.652C59.652 131.204 60.144 133.34 60.744 135.684C61.344 138.028 61.944 140.132 62.396 141.656C62.612 142.392 62.796 142.996 62.928 143.456C63.0016 143.674 63.0591 143.897 63.1 144.124Z" fill="#263238"/>
<path d="M41.692 133.008C41.5926 133.438 41.4588 133.859 41.292 134.268C41.004 135.092 40.644 136.128 40.244 137.268C39.844 138.408 39.484 139.444 39.196 140.268C39.07 140.69 38.9163 141.103 38.736 141.504C38.8023 141.068 38.9095 140.64 39.056 140.224C39.288 139.424 39.636 138.372 40.048 137.2C40.46 136.028 40.848 134.976 41.152 134.216C41.2975 133.799 41.4782 133.395 41.692 133.008Z" fill="#263238"/>
<g opacity="0.2">
<path opacity="0.2" d="M38.728 141.396C39.5093 143.164 40.2866 144.932 41.06 146.7C41.1684 146.992 41.3268 147.262 41.528 147.5C41.6306 147.619 41.762 147.711 41.9096 147.765C42.0573 147.82 42.2164 147.836 42.372 147.812C42.948 147.68 43.092 146.94 43.112 146.352C43.248 142.484 43.112 138.524 41.764 134.892C41.668 134.628 41.488 134.316 41.208 134.352C40.928 134.388 40.84 134.672 40.772 134.912L38.876 141.712" fill="black"/>
</g>
<g opacity="0.2">
<path opacity="0.2" d="M63.908 141.76C64.0628 141.664 64.1888 141.527 64.2726 141.365C64.3564 141.204 64.3949 141.022 64.384 140.84C64.3561 140.477 64.2583 140.122 64.096 139.796C63.0366 137.323 61.6113 135.024 59.868 132.976L61.784 139.776L63.908 141.76Z" fill="black"/>
</g>
<path d="M33.628 138.712C33.604 138.712 33.7 136.4 33.844 133.548C33.988 130.696 34.116 128.388 34.14 128.388C34.164 128.388 34.068 130.704 33.928 133.552C33.788 136.4 33.652 138.716 33.628 138.712Z" fill="#E0E0E0"/>
<path d="M35.428 130.696C35.4467 130.757 35.4548 130.82 35.452 130.884C35.4618 131.058 35.4618 131.233 35.452 131.408C35.3897 132.57 34.9908 133.689 34.304 134.628C34.2016 134.768 34.0908 134.902 33.972 135.028C33.9315 135.077 33.8859 135.121 33.836 135.16C33.836 135.16 34.008 134.948 34.236 134.588C34.8865 133.638 35.2794 132.535 35.376 131.388C35.428 130.968 35.416 130.696 35.428 130.696Z" fill="#E0E0E0"/>
<path d="M32.156 131.016C32.156 131.016 32.192 131.256 32.264 131.632C32.3636 132.126 32.5165 132.607 32.72 133.068C32.9266 133.525 33.1842 133.957 33.488 134.356C33.724 134.664 33.888 134.836 33.888 134.848C33.8411 134.816 33.7981 134.778 33.76 134.736C33.6506 134.628 33.5478 134.513 33.452 134.392C33.1299 133.998 32.8609 133.564 32.652 133.1C32.4424 132.636 32.2957 132.147 32.216 131.644C32.1894 131.493 32.172 131.341 32.164 131.188C32.1561 131.131 32.1534 131.073 32.156 131.016Z" fill="#E0E0E0"/>
<path d="M35.016 129.328C35.0221 129.378 35.0221 129.43 35.016 129.48C35.0243 129.613 35.0243 129.747 35.016 129.88C34.9766 130.328 34.8908 130.77 34.76 131.2C34.6312 131.633 34.4569 132.052 34.24 132.448C34.1777 132.569 34.1083 132.687 34.032 132.8C34.0066 132.844 33.9757 132.884 33.94 132.92C33.94 132.92 34.036 132.728 34.188 132.42C34.3847 132.027 34.5492 131.619 34.68 131.2C34.8044 130.77 34.8954 130.332 34.952 129.888C34.9634 129.7 34.9848 129.513 35.016 129.328Z" fill="#E0E0E0"/>
<path d="M32.904 129.6C32.904 129.6 32.904 129.844 32.904 130.24C32.9163 130.752 32.9806 131.261 33.096 131.76C33.2159 132.255 33.3847 132.738 33.6 133.2C33.768 133.556 33.892 133.768 33.88 133.776C33.8426 133.732 33.8092 133.685 33.78 133.636C33.72 133.54 33.64 133.404 33.548 133.236C33.3159 132.773 33.1387 132.284 33.02 131.78C32.9038 131.276 32.846 130.761 32.848 130.244C32.8484 130.088 32.8578 129.931 32.876 129.776C32.8759 129.716 32.8853 129.657 32.904 129.6Z" fill="#E0E0E0"/>
<path d="M33.572 128.844C33.572 128.844 33.536 128.988 33.508 129.22C33.4767 129.521 33.4929 129.824 33.556 130.12C33.72 130.812 33.956 131.348 33.956 131.36C33.8877 131.251 33.8301 131.136 33.784 131.016C33.6578 130.733 33.56 130.438 33.492 130.136C33.423 129.831 33.4149 129.516 33.468 129.208C33.4777 129.081 33.5131 128.957 33.572 128.844Z" fill="#E0E0E0"/>
<path d="M32.34 134.088C32.364 134.088 32.596 134.524 32.98 135.004C33.364 135.484 33.748 135.804 33.732 135.836C33.6335 135.784 33.5433 135.718 33.464 135.64C33.0678 135.284 32.7327 134.865 32.472 134.4C32.4128 134.303 32.3683 134.198 32.34 134.088Z" fill="#E0E0E0"/>
<path d="M35.468 134.62C35.4138 134.732 35.3453 134.837 35.264 134.932C35.0817 135.173 34.8854 135.402 34.676 135.62C34.4644 135.837 34.2386 136.041 34 136.228C33.9071 136.311 33.8051 136.384 33.696 136.444C33.7753 136.348 33.8652 136.26 33.964 136.184C34.132 136.028 34.364 135.812 34.608 135.56C34.852 135.308 35.06 135.072 35.212 134.896C35.288 134.796 35.3738 134.703 35.468 134.62Z" fill="#E0E0E0"/>
<path d="M26.836 164.572C26.812 164.572 26.908 162.26 27.052 159.408C27.196 156.556 27.324 154.248 27.348 154.248C27.372 154.248 27.276 156.56 27.132 159.412C26.988 162.264 26.86 164.572 26.836 164.572Z" fill="#E0E0E0"/>
<path d="M28.636 156.552C28.6442 156.616 28.6442 156.68 28.636 156.744C28.6482 156.918 28.6482 157.094 28.636 157.268C28.5736 158.43 28.1748 159.549 27.488 160.488C27.3859 160.628 27.275 160.762 27.156 160.888C27.116 160.938 27.0704 160.984 27.02 161.024C27.02 161.024 27.192 160.812 27.44 160.448C27.7628 159.977 28.0236 159.466 28.216 158.928C28.4073 158.39 28.5296 157.829 28.58 157.26C28.636 156.828 28.62 156.552 28.636 156.552Z" fill="#E0E0E0"/>
<path d="M25.364 156.876C25.364 156.876 25.4 157.112 25.472 157.492C25.6666 158.482 26.0853 159.413 26.696 160.216C26.932 160.524 27.096 160.696 27.096 160.704C27.0481 160.673 27.005 160.635 26.968 160.592C26.8575 160.486 26.7545 160.372 26.66 160.252C26.0124 159.461 25.586 158.513 25.424 157.504C25.3973 157.352 25.38 157.198 25.372 157.044C25.3641 156.988 25.3614 156.932 25.364 156.876Z" fill="#E0E0E0"/>
<path d="M28.22 155.2C28.22 155.2 28.22 155.252 28.22 155.348C28.22 155.444 28.22 155.584 28.22 155.748C28.1479 156.651 27.8862 157.529 27.452 158.324C27.368 158.476 27.296 158.596 27.244 158.676C27.2172 158.719 27.1864 158.759 27.152 158.796C27.152 158.796 27.248 158.604 27.4 158.296C27.5969 157.895 27.7614 157.479 27.892 157.052C28.0176 156.624 28.1072 156.187 28.16 155.744C28.2 155.4 28.208 155.2 28.22 155.2Z" fill="#E0E0E0"/>
<path d="M26.112 155.464C26.112 155.464 26.112 155.708 26.112 156.1C26.124 156.612 26.1883 157.121 26.304 157.62C26.4208 158.119 26.587 158.606 26.8 159.072C26.968 159.428 27.092 159.636 27.08 159.644C27.068 159.652 27.04 159.6 26.98 159.504C26.8939 159.376 26.8164 159.242 26.748 159.104C26.5141 158.642 26.3368 158.153 26.22 157.648C26.1019 157.143 26.0442 156.626 26.048 156.108C26.0487 155.952 26.058 155.795 26.076 155.64C26.0782 155.58 26.0904 155.52 26.112 155.464Z" fill="#E0E0E0"/>
<path d="M26.8 154.704C26.8 154.704 26.764 154.844 26.736 155.076C26.7028 155.378 26.7191 155.683 26.784 155.98C26.944 156.672 27.184 157.204 27.184 157.216C27.1131 157.11 27.0553 156.996 27.012 156.876C26.8865 156.593 26.7887 156.298 26.72 155.996C26.652 155.691 26.6425 155.376 26.692 155.068C26.7018 154.94 26.7386 154.816 26.8 154.704Z" fill="#E0E0E0"/>
<path d="M25.548 159.944C25.568 159.944 25.804 160.38 26.188 160.864C26.572 161.348 26.956 161.664 26.94 161.696C26.841 161.643 26.7506 161.576 26.672 161.496C26.4731 161.319 26.2898 161.125 26.124 160.916C25.9561 160.707 25.8075 160.484 25.68 160.248C25.6187 160.155 25.574 160.052 25.548 159.944Z" fill="#E0E0E0"/>
<path d="M28.676 160.476C28.6207 160.589 28.5522 160.695 28.472 160.792C28.2894 161.031 28.0931 161.26 27.884 161.476C27.6708 161.696 27.4422 161.9 27.2 162.088C27.1092 162.173 27.0069 162.244 26.896 162.3C26.9762 162.206 27.066 162.12 27.164 162.044C27.332 161.888 27.564 161.672 27.808 161.42C28.052 161.168 28.26 160.928 28.408 160.756C28.4879 160.654 28.5777 160.56 28.676 160.476Z" fill="#E0E0E0"/>
<path d="M41.636 131.4C41.612 131.4 41.708 129.088 41.848 126.236C41.988 123.384 42.124 121.076 42.148 121.076C42.172 121.076 42.072 123.388 41.932 126.24C41.792 129.092 41.66 131.4 41.636 131.4Z" fill="#E0E0E0"/>
<path d="M43.436 123.38C43.4417 123.444 43.4417 123.508 43.436 123.572C43.4482 123.746 43.4482 123.922 43.436 124.096C43.3737 125.258 42.9748 126.377 42.288 127.316C42.1847 127.455 42.0739 127.589 41.956 127.716C41.9161 127.766 41.8704 127.812 41.82 127.852C41.82 127.852 41.992 127.64 42.24 127.276C42.8915 126.327 43.2831 125.224 43.376 124.076C43.432 123.652 43.42 123.38 43.436 123.38Z" fill="#E0E0E0"/>
<path d="M40.164 123.704C40.164 123.704 40.196 123.94 40.272 124.32C40.3676 124.813 40.5193 125.293 40.724 125.752C40.9327 126.21 41.1916 126.643 41.496 127.044C41.732 127.348 41.896 127.524 41.896 127.532C41.85 127.5 41.8083 127.462 41.772 127.42C41.662 127.312 41.5578 127.199 41.46 127.08C41.1379 126.686 40.8689 126.252 40.66 125.788C40.4517 125.323 40.3038 124.834 40.22 124.332C40.192 124.136 40.176 123.98 40.172 123.872C40.1589 123.817 40.1562 123.76 40.164 123.704Z" fill="#E0E0E0"/>
<path d="M43.02 122C43.02 122 43.02 122.052 43.02 122.148C43.02 122.244 43.02 122.384 43.02 122.548C42.9815 122.998 42.8971 123.443 42.768 123.876C42.6415 124.309 42.4685 124.728 42.252 125.124C42.168 125.276 42.096 125.396 42.04 125.476C41.984 125.556 41.956 125.596 41.952 125.592C41.948 125.588 42.048 125.404 42.2 125.096C42.397 124.696 42.5603 124.28 42.688 123.852C42.8166 123.425 42.9076 122.987 42.96 122.544C43 122.228 43.008 122 43.02 122Z" fill="#E0E0E0"/>
<path d="M40.908 122.288C40.908 122.288 40.908 122.536 40.908 122.928C40.9202 123.44 40.9846 123.949 41.1 124.448C41.2163 124.947 41.3838 125.432 41.6 125.896C41.764 126.256 41.892 126.464 41.876 126.472C41.8374 126.429 41.8038 126.382 41.776 126.332C41.6929 126.203 41.6168 126.069 41.548 125.932C41.3124 125.47 41.135 124.981 41.02 124.476C40.8999 123.972 40.8422 123.454 40.848 122.936C40.848 122.74 40.848 122.58 40.872 122.468C40.8796 122.407 40.8916 122.347 40.908 122.288Z" fill="#E0E0E0"/>
<path d="M41.6 121.532C41.6 121.532 41.564 121.672 41.536 121.904C41.5028 122.206 41.519 122.511 41.584 122.808C41.744 123.5 41.984 124.032 41.984 124.044C41.9112 123.939 41.8533 123.825 41.812 123.704C41.6852 123.421 41.5874 123.126 41.52 122.824C41.452 122.519 41.4425 122.204 41.492 121.896C41.5018 121.768 41.5386 121.644 41.6 121.532Z" fill="#E0E0E0"/>
<path d="M40.348 126.772C40.348 126.772 40.6 127.208 40.988 127.692C41.376 128.176 41.756 128.492 41.74 128.524C41.641 128.471 41.5506 128.404 41.472 128.324C41.0726 127.967 40.7371 127.545 40.48 127.076C40.4194 126.983 40.3747 126.88 40.348 126.772Z" fill="#E0E0E0"/>
<path d="M43.476 127.304C43.4207 127.417 43.3522 127.523 43.272 127.62C43.0894 127.859 42.8931 128.088 42.684 128.304C42.4741 128.521 42.251 128.726 42.016 128.916C41.9238 129.001 41.8201 129.072 41.708 129.128C41.7908 129.033 41.8819 128.946 41.98 128.868C42.148 128.716 42.38 128.5 42.624 128.248C42.868 127.996 43.076 127.756 43.224 127.58C43.2981 127.479 43.3826 127.387 43.476 127.304Z" fill="#E0E0E0"/>
<path d="M50.308 129.544C50.284 129.544 50.38 127.228 50.52 124.38C50.66 121.532 50.796 119.22 50.816 119.22C50.836 119.22 50.744 121.532 50.604 124.384C50.464 127.236 50.328 129.544 50.308 129.544Z" fill="#E0E0E0"/>
<path d="M52.108 121.524C52.1137 121.588 52.1137 121.652 52.108 121.716C52.108 121.84 52.108 122.02 52.108 122.24C52.0361 123.394 51.638 124.504 50.96 125.44C50.8567 125.579 50.7459 125.713 50.628 125.84C50.544 125.932 50.496 125.98 50.488 125.976C50.48 125.972 50.66 125.764 50.912 125.4C51.5634 124.451 51.9551 123.347 52.048 122.2C52.104 121.796 52.092 121.524 52.108 121.524Z" fill="#E0E0E0"/>
<path d="M48.836 121.848C48.836 121.848 48.868 122.084 48.944 122.464C49.0396 122.957 49.1912 123.437 49.396 123.896C49.6047 124.354 49.8636 124.787 50.168 125.188C50.4 125.492 50.568 125.668 50.568 125.676C50.5211 125.644 50.4781 125.606 50.44 125.564C50.364 125.488 50.256 125.372 50.132 125.224C49.8121 124.829 49.5433 124.394 49.332 123.932C49.1247 123.467 48.9781 122.978 48.896 122.476C48.868 122.28 48.848 122.124 48.844 122.016C48.8318 121.961 48.8291 121.904 48.836 121.848Z" fill="#E0E0E0"/>
<path d="M51.692 120.16C51.697 120.209 51.697 120.259 51.692 120.308C51.692 120.404 51.692 120.544 51.692 120.708C51.6535 121.158 51.5691 121.603 51.44 122.036C51.31 122.468 51.1371 122.886 50.924 123.284C50.8602 123.404 50.7894 123.52 50.712 123.632C50.66 123.716 50.628 123.756 50.62 123.752C50.612 123.748 50.72 123.564 50.872 123.256C51.2675 122.454 51.5244 121.591 51.632 120.704C51.668 120.372 51.68 120.156 51.692 120.16Z" fill="#E0E0E0"/>
<path d="M49.6 120.432C49.6 120.432 49.6 120.68 49.6 121.072C49.6159 121.584 49.6815 122.093 49.796 122.592C49.9123 123.091 50.0798 123.576 50.296 124.04C50.46 124.4 50.584 124.608 50.572 124.616C50.5334 124.573 50.4998 124.526 50.472 124.476C50.412 124.384 50.332 124.244 50.24 124.076C50.0079 123.613 49.8307 123.124 49.712 122.62C49.595 122.115 49.5386 121.598 49.544 121.08C49.5437 120.924 49.5517 120.767 49.568 120.612C49.5715 120.551 49.5822 120.491 49.6 120.432Z" fill="#E0E0E0"/>
<path d="M50.252 119.676C50.252 119.676 50.216 119.816 50.184 120.048C50.1521 120.35 50.1697 120.655 50.236 120.952C50.396 121.644 50.636 122.176 50.636 122.188C50.567 122.081 50.5093 121.967 50.464 121.848C50.339 121.564 50.2413 121.27 50.172 120.968C50.103 120.663 50.0949 120.348 50.148 120.04C50.1565 119.913 50.192 119.789 50.252 119.676Z" fill="#E0E0E0"/>
<path d="M49.016 124.916C49.04 124.916 49.272 125.352 49.66 125.836C50.048 126.32 50.424 126.636 50.408 126.668C50.3107 126.615 50.2217 126.547 50.144 126.468C49.9437 126.291 49.759 126.097 49.592 125.888C49.4275 125.678 49.2804 125.454 49.152 125.22C49.0914 125.126 49.0456 125.024 49.016 124.916Z" fill="#E0E0E0"/>
<path d="M52.144 125.448C52.0925 125.563 52.0237 125.67 51.94 125.764C51.7601 126.004 51.5651 126.233 51.356 126.448C51.1461 126.665 50.923 126.87 50.688 127.06C50.5958 127.145 50.4921 127.216 50.38 127.272C50.462 127.178 50.5516 127.091 50.648 127.012C50.82 126.86 51.048 126.644 51.296 126.392C51.544 126.14 51.748 125.9 51.896 125.724C51.9709 125.625 52.0539 125.533 52.144 125.448Z" fill="#E0E0E0"/>
<path d="M53.872 137.64C53.848 137.64 53.944 135.324 54.084 132.476C54.224 129.628 54.36 127.316 54.384 127.316C54.408 127.316 54.312 129.628 54.168 132.48C54.024 135.332 53.896 137.64 53.872 137.64Z" fill="#E0E0E0"/>
<path d="M55.672 129.62C55.6802 129.684 55.6802 129.748 55.672 129.812C55.6842 129.986 55.6842 130.162 55.672 130.336C55.6096 131.498 55.2108 132.617 54.524 133.556C54.4207 133.695 54.3098 133.829 54.192 133.956C54.152 134.006 54.1064 134.052 54.056 134.092C54.056 134.092 54.228 133.88 54.476 133.516C55.1274 132.567 55.5191 131.464 55.612 130.316C55.672 129.892 55.656 129.62 55.672 129.62Z" fill="#E0E0E0"/>
<path d="M52.4 129.944C52.4 129.944 52.432 130.18 52.508 130.56C52.6032 131.054 52.7563 131.534 52.964 131.992C53.1701 132.45 53.4277 132.884 53.732 133.284C53.968 133.588 54.132 133.764 54.132 133.772C54.0842 133.741 54.041 133.703 54.004 133.66C53.924 133.584 53.82 133.468 53.692 133.32C53.3699 132.926 53.1009 132.492 52.892 132.028C52.6837 131.563 52.5358 131.074 52.452 130.572C52.424 130.376 52.408 130.22 52.404 130.112C52.3974 130.056 52.3961 130 52.4 129.944Z" fill="#E0E0E0"/>
<path d="M55.256 128.256C55.256 128.256 55.256 128.308 55.256 128.404C55.256 128.5 55.256 128.64 55.256 128.804C55.2172 129.254 55.1341 129.698 55.008 130.132C54.8786 130.565 54.7043 130.983 54.488 131.38C54.404 131.532 54.332 131.652 54.28 131.728C54.228 131.804 54.192 131.852 54.188 131.848C54.184 131.844 54.284 131.66 54.436 131.352C54.6329 130.951 54.7974 130.535 54.928 130.108C55.055 129.68 55.1459 129.243 55.2 128.8C55.236 128.468 55.244 128.252 55.256 128.256Z" fill="#E0E0E0"/>
<path d="M53.144 128.528C53.144 128.528 53.144 128.776 53.144 129.168C53.1563 129.68 53.2206 130.189 53.336 130.688C53.4541 131.186 53.6216 131.671 53.836 132.136C54.004 132.496 54.128 132.704 54.116 132.712C54.104 132.72 54.072 132.664 54.016 132.572C53.9299 132.444 53.8524 132.31 53.784 132.172C53.5502 131.71 53.3729 131.221 53.256 130.716C53.136 130.212 53.0782 129.694 53.084 129.176C53.0847 129.02 53.0941 128.863 53.112 128.708C53.1173 128.647 53.128 128.587 53.144 128.528Z" fill="#E0E0E0"/>
<path d="M53.816 127.772C53.816 127.772 53.78 127.912 53.752 128.144C53.7188 128.446 53.735 128.751 53.8 129.048C53.96 129.74 54.2 130.272 54.2 130.284C54.1291 130.178 54.0713 130.064 54.028 129.944C53.903 129.661 53.8053 129.366 53.736 129.064C53.668 128.759 53.6585 128.444 53.708 128.136C53.7178 128.008 53.7546 127.884 53.816 127.772Z" fill="#E0E0E0"/>
<path d="M52.584 133.012C52.584 133.012 52.836 133.448 53.224 133.932C53.612 134.416 53.992 134.732 53.976 134.764C53.877 134.711 53.7866 134.644 53.708 134.564C53.5108 134.391 53.3275 134.202 53.16 134C52.993 133.79 52.8445 133.567 52.716 133.332C52.6537 133.234 52.609 133.125 52.584 133.012Z" fill="#E0E0E0"/>
<path d="M55.712 133.544C55.6566 133.657 55.5882 133.763 55.508 133.86C55.3254 134.099 55.129 134.328 54.92 134.544C54.71 134.761 54.4869 134.966 54.252 135.156C54.1597 135.241 54.056 135.312 53.944 135.368C54.0281 135.275 54.119 135.188 54.216 135.108C54.384 134.956 54.616 134.74 54.86 134.488C55.104 134.236 55.312 133.996 55.46 133.82C55.5354 133.72 55.6198 133.628 55.712 133.544Z" fill="#E0E0E0"/>
<path d="M66.244 140.848C66.22 140.848 65.488 138.66 64.608 135.944C63.728 133.228 63.032 131.024 63.052 131.016C63.072 131.008 63.804 133.204 64.688 135.92C65.572 138.636 66.264 140.84 66.244 140.848Z" fill="#E0E0E0"/>
<path d="M65.076 132.712C65.1111 132.766 65.1406 132.824 65.164 132.884C65.2343 133.043 65.2957 133.206 65.348 133.372C65.5241 133.923 65.6197 134.497 65.632 135.076C65.6428 135.655 65.5715 136.233 65.42 136.792C65.3744 136.96 65.3197 137.126 65.256 137.288C65.2341 137.349 65.2073 137.407 65.176 137.464C65.176 137.464 65.26 137.204 65.364 136.776C65.4963 136.221 65.5581 135.651 65.548 135.08C65.5352 134.509 65.4492 133.941 65.292 133.392C65.172 132.968 65.064 132.716 65.076 132.712Z" fill="#E0E0E0"/>
<path d="M62.132 134.176C62.132 134.176 62.248 134.388 62.452 134.716C62.7191 135.142 63.033 135.536 63.388 135.892C63.7427 136.247 64.1373 136.56 64.564 136.824C64.892 137.028 65.108 137.132 65.104 137.144C65.0483 137.131 64.9946 137.111 64.944 137.084C64.8064 137.023 64.6728 136.954 64.544 136.876C64.1059 136.621 63.7025 136.31 63.344 135.952C62.9833 135.594 62.6713 135.191 62.416 134.752C62.3399 134.622 62.2705 134.489 62.208 134.352C62.1744 134.297 62.1489 134.238 62.132 134.176Z" fill="#E0E0E0"/>
<path d="M64.204 131.6C64.2324 131.642 64.254 131.688 64.268 131.736C64.3176 131.867 64.3603 132 64.396 132.136C64.5226 132.569 64.603 133.014 64.636 133.464C64.6679 133.914 64.6545 134.365 64.596 134.812C64.572 134.984 64.544 135.124 64.524 135.212C64.515 135.262 64.5002 135.31 64.48 135.356C64.48 135.356 64.504 135.144 64.536 134.804C64.5714 134.358 64.5714 133.91 64.536 133.464C64.502 133.02 64.4311 132.58 64.324 132.148C64.256 131.788 64.192 131.6 64.204 131.6Z" fill="#E0E0E0"/>
<path d="M62.328 132.592C62.328 132.592 62.412 132.82 62.56 133.184C62.9451 134.138 63.5255 135 64.264 135.716C64.544 135.988 64.736 136.14 64.728 136.152C64.6755 136.127 64.627 136.095 64.584 136.056C64.4563 135.964 64.3347 135.864 64.22 135.756C63.4553 135.054 62.8674 134.181 62.504 133.208C62.436 133.02 62.388 132.868 62.36 132.76C62.3421 132.706 62.3314 132.649 62.328 132.592Z" fill="#E0E0E0"/>
<path d="M62.684 131.644C62.684 131.644 62.684 131.788 62.756 132.016C62.8333 132.309 62.9576 132.587 63.124 132.84C63.524 133.432 63.948 133.84 63.924 133.86C63.8205 133.786 63.7264 133.7 63.644 133.604C63.4257 133.383 63.2288 133.142 63.056 132.884C62.8842 132.624 62.7647 132.333 62.704 132.028C62.6705 131.903 62.6637 131.772 62.684 131.644Z" fill="#E0E0E0"/>
<path d="M63.396 136.98C63.396 136.96 63.796 137.296 64.32 137.612C64.844 137.928 65.324 138.096 65.316 138.12C65.2063 138.11 65.0993 138.08 65 138.032C64.7493 137.937 64.5071 137.82 64.276 137.684C64.0461 137.548 63.8292 137.391 63.628 137.216C63.5377 137.151 63.4592 137.071 63.396 136.98Z" fill="#E0E0E0"/>
<path d="M66.508 136.368C66.4954 136.492 66.4685 136.614 66.428 136.732C66.3442 137.022 66.2426 137.306 66.124 137.584C66.0086 137.859 65.875 138.126 65.724 138.384C65.6685 138.497 65.5971 138.603 65.512 138.696C65.556 138.578 65.6095 138.465 65.672 138.356C65.776 138.152 65.916 137.868 66.072 137.556C66.228 137.244 66.32 136.94 66.396 136.724C66.4199 136.601 66.4574 136.482 66.508 136.368Z" fill="#E0E0E0"/>
<path d="M79.456 129.544C79.456 129.544 78.024 131.364 76.224 133.576C74.424 135.788 72.944 137.576 72.928 137.576C72.912 137.576 74.356 135.756 76.16 133.54C77.964 131.324 79.436 129.532 79.456 129.544Z" fill="#E0E0E0"/>
<path d="M73.252 134.936C73.2804 134.879 73.3125 134.825 73.3479 134.772C73.4446 134.625 73.5488 134.484 73.6599 134.348C74.4016 133.453 75.3845 132.789 76.4919 132.436C76.6586 132.383 76.8282 132.341 77 132.308C77.0623 132.29 77.127 132.28 77.1919 132.28C77.1919 132.28 76.928 132.348 76.512 132.492C75.973 132.683 75.4598 132.939 74.984 133.256C74.5114 133.578 74.0813 133.958 73.7039 134.388C73.4159 134.72 73.268 134.948 73.252 134.936Z" fill="#E0E0E0"/>
<path d="M76.08 136.616C76.08 136.616 76.196 136.404 76.36 136.056C76.5725 135.601 76.7335 135.123 76.84 134.632C76.9458 134.141 76.9955 133.639 76.988 133.136C76.988 132.736 76.948 132.512 76.964 132.512C76.9807 132.565 76.9928 132.62 77 132.676C77.0229 132.828 77.0376 132.982 77.044 133.136C77.0707 133.644 77.0303 134.154 76.924 134.652C76.8113 135.148 76.6352 135.628 76.4 136.08C76.3331 136.219 76.2555 136.353 76.168 136.48C76.1447 136.529 76.1151 136.575 76.08 136.616Z" fill="#E0E0E0"/>
<path d="M72.8 136.284C72.8 136.284 72.824 136.236 72.88 136.156C72.9595 136.045 73.045 135.938 73.136 135.836C73.4321 135.497 73.7618 135.189 74.12 134.916C74.48 134.644 74.8675 134.411 75.276 134.22C75.406 134.159 75.5395 134.105 75.676 134.06C75.722 134.039 75.7704 134.025 75.82 134.016C75.82 134.016 75.628 134.112 75.324 134.272C74.927 134.476 74.5482 134.715 74.192 134.984C73.8371 135.255 73.5041 135.553 73.196 135.876C72.924 136.128 72.8 136.292 72.8 136.284Z" fill="#E0E0E0"/>
<path d="M74.644 137.312C74.644 137.312 74.792 137.116 75.016 136.796C75.3091 136.375 75.5597 135.926 75.764 135.456C75.9647 134.985 76.1162 134.494 76.216 133.992C76.296 133.592 76.32 133.364 76.336 133.364C76.3422 133.421 76.3422 133.479 76.336 133.536C76.3263 133.693 76.3076 133.849 76.28 134.004C76.1927 134.514 76.0464 135.012 75.844 135.488C75.6396 135.965 75.3791 136.416 75.068 136.832C74.948 136.988 74.844 137.112 74.768 137.192C74.7321 137.237 74.6904 137.278 74.644 137.312Z" fill="#E0E0E0"/>
<path d="M73.652 137.528C73.652 137.528 73.768 137.436 73.928 137.264C74.1326 137.041 74.2988 136.785 74.42 136.508C74.704 135.856 74.82 135.276 74.848 135.284C74.8414 135.419 74.8199 135.553 74.784 135.684C74.7166 135.986 74.6201 136.281 74.496 136.564C74.3709 136.85 74.1916 137.11 73.968 137.328C73.8775 137.416 73.7699 137.484 73.652 137.528Z" fill="#E0E0E0"/>
<path d="M77.752 134.036C77.728 134.036 77.804 133.532 77.78 132.916C77.756 132.3 77.644 131.808 77.668 131.8C77.7159 131.901 77.7483 132.009 77.764 132.12C77.8206 132.383 77.8541 132.651 77.864 132.92C77.8735 133.187 77.8601 133.455 77.824 133.72C77.817 133.828 77.7927 133.935 77.752 134.036Z" fill="#E0E0E0"/>
<path d="M75.548 131.752C75.6583 131.694 75.7751 131.65 75.896 131.62C76.185 131.534 76.4788 131.466 76.776 131.416C77.0738 131.366 77.3743 131.334 77.676 131.32C77.801 131.307 77.927 131.307 78.052 131.32C77.93 131.349 77.8054 131.367 77.68 131.372C77.452 131.396 77.136 131.432 76.792 131.492C76.448 131.552 76.136 131.616 75.912 131.672C75.7937 131.711 75.6717 131.738 75.548 131.752Z" fill="#E0E0E0"/>
<path d="M52.584 157.836C52.56 157.836 52.484 155.524 52.408 152.672C52.332 149.82 52.296 147.504 52.32 147.504C52.344 147.504 52.42 149.816 52.492 152.668C52.564 155.52 52.608 157.836 52.584 157.836Z" fill="#E0E0E0"/>
<path d="M53.776 149.704C53.7974 149.766 53.8095 149.831 53.812 149.896C53.8353 150.068 53.8486 150.242 53.852 150.416C53.8726 151.579 53.5589 152.723 52.948 153.712C52.828 153.9 52.724 154.048 52.648 154.144C52.6116 154.197 52.5686 154.246 52.52 154.288C52.52 154.288 52.676 154.064 52.896 153.684C53.1838 153.19 53.4057 152.66 53.556 152.108C53.7054 151.556 53.7847 150.988 53.792 150.416C53.796 150 53.76 149.708 53.776 149.704Z" fill="#E0E0E0"/>
<path d="M50.536 150.272C50.536 150.272 50.588 150.508 50.692 150.88C50.8256 151.365 51.0134 151.833 51.252 152.276C51.4944 152.716 51.7841 153.127 52.116 153.504C52.376 153.792 52.552 153.952 52.544 153.964C52.4942 153.936 52.4485 153.901 52.408 153.86C52.2907 153.762 52.1798 153.656 52.076 153.544C51.7249 153.176 51.4236 152.763 51.18 152.316C50.9381 151.868 50.7552 151.391 50.636 150.896C50.5995 150.746 50.5715 150.593 50.552 150.44C50.5404 150.385 50.535 150.328 50.536 150.272Z" fill="#E0E0E0"/>
<path d="M53.26 148.376C53.2752 148.424 53.2833 148.474 53.284 148.524C53.284 148.62 53.284 148.76 53.284 148.924C53.2811 149.376 53.2315 149.826 53.136 150.268C53.0404 150.708 52.8983 151.138 52.712 151.548C52.64 151.704 52.58 151.832 52.532 151.916C52.5112 151.962 52.4828 152.004 52.448 152.04C52.448 152.04 52.532 151.844 52.66 151.524C52.8285 151.11 52.9623 150.684 53.06 150.248C53.1519 149.812 53.2094 149.369 53.232 148.924C53.252 148.588 53.248 148.376 53.26 148.376Z" fill="#E0E0E0"/>
<path d="M51.176 148.8C51.176 148.8 51.176 149.044 51.228 149.436C51.2808 149.946 51.3839 150.45 51.536 150.94C51.6902 151.427 51.894 151.898 52.144 152.344C52.336 152.688 52.476 152.888 52.464 152.896C52.4214 152.857 52.3838 152.812 52.352 152.764C52.284 152.676 52.196 152.544 52.092 152.364C51.8252 151.92 51.6117 151.446 51.456 150.952C51.3003 150.457 51.2049 149.946 51.172 149.428C51.172 149.232 51.172 149.072 51.172 148.96C51.1675 148.907 51.1688 148.853 51.176 148.8Z" fill="#E0E0E0"/>
<path d="M51.788 148C51.788 148 51.76 148.144 51.752 148.376C51.7397 148.679 51.7789 148.982 51.868 149.272C52.08 149.952 52.376 150.472 52.344 150.472C52.2641 150.371 52.197 150.261 52.144 150.144C51.998 149.871 51.8788 149.584 51.788 149.288C51.6961 148.989 51.6635 148.675 51.692 148.364C51.6998 148.238 51.7324 148.114 51.788 148Z" fill="#E0E0E0"/>
<path d="M50.952 153.32C50.972 153.32 51.24 153.72 51.66 154.188C52.08 154.656 52.484 154.94 52.46 154.96C52.3576 154.917 52.263 154.858 52.18 154.784C51.9669 154.622 51.7687 154.441 51.588 154.244C51.4032 154.05 51.2384 153.839 51.096 153.612C51.0308 153.524 50.982 153.425 50.952 153.32Z" fill="#E0E0E0"/>
<path d="M54.112 153.6C54.0652 153.716 54.0048 153.826 53.932 153.928C53.6034 154.435 53.2153 154.901 52.776 155.316C52.6906 155.407 52.5938 155.486 52.488 155.552C52.5626 155.452 52.6456 155.358 52.736 155.272C52.892 155.108 53.108 154.872 53.332 154.604C53.556 154.336 53.732 154.08 53.88 153.896C53.9454 153.789 54.0233 153.689 54.112 153.6Z" fill="#E0E0E0"/>
<path d="M61.388 149.652C61.364 149.652 60.632 147.464 59.752 144.752C58.872 142.04 58.172 139.828 58.196 139.82C58.22 139.812 58.948 142.008 59.832 144.724C60.716 147.44 61.408 149.644 61.388 149.652Z" fill="#E0E0E0"/>
<path d="M60.22 141.516C60.254 141.571 60.2834 141.628 60.308 141.688C60.3788 141.848 60.4403 142.013 60.492 142.18C60.6683 142.731 60.764 143.305 60.776 143.884C60.7869 144.462 60.7155 145.038 60.564 145.596C60.518 145.765 60.4619 145.93 60.396 146.092C60.352 146.208 60.324 146.272 60.316 146.268C60.308 146.264 60.4 146.008 60.504 145.58C60.6398 145.025 60.703 144.455 60.692 143.884C60.6789 143.313 60.5929 142.745 60.436 142.196C60.316 141.772 60.204 141.524 60.22 141.516Z" fill="#E0E0E0"/>
<path d="M57.276 142.98C57.276 142.98 57.392 143.192 57.596 143.52C57.8615 143.946 58.1742 144.34 58.528 144.696C58.8922 145.051 59.2947 145.365 59.728 145.632C60.056 145.832 60.272 145.936 60.268 145.948C60.264 145.96 60.208 145.948 60.108 145.892C60.008 145.836 59.868 145.776 59.708 145.68C59.2699 145.425 58.8665 145.114 58.508 144.756C58.1473 144.398 57.8353 143.995 57.58 143.556C57.5031 143.427 57.4337 143.293 57.372 143.156C57.292 143.04 57.268 142.984 57.276 142.98Z" fill="#E0E0E0"/>
<path d="M59.348 140.4C59.3726 140.443 59.3927 140.489 59.408 140.536C59.444 140.628 59.492 140.76 59.54 140.936C59.7888 141.806 59.8556 142.719 59.736 143.616C59.7191 143.75 59.6951 143.884 59.664 144.016C59.6566 144.067 59.6432 144.116 59.624 144.164C59.6313 143.978 59.65 143.792 59.68 143.608C59.7154 143.163 59.7154 142.717 59.68 142.272C59.644 141.827 59.5731 141.386 59.468 140.952C59.4172 140.77 59.3772 140.586 59.348 140.4Z" fill="#E0E0E0"/>
<path d="M57.472 141.396C57.472 141.396 57.552 141.628 57.704 141.992C57.8978 142.466 58.1391 142.919 58.424 143.344C58.7109 143.767 59.0392 144.161 59.404 144.52C59.688 144.796 59.88 144.948 59.868 144.96C59.8173 144.932 59.7691 144.9 59.724 144.864C59.636 144.8 59.512 144.696 59.364 144.564C58.9837 144.213 58.6442 143.819 58.352 143.392C58.0649 142.961 57.8287 142.498 57.648 142.012C57.58 141.824 57.532 141.672 57.504 141.564C57.4836 141.51 57.4728 141.453 57.472 141.396Z" fill="#E0E0E0"/>
<path d="M57.828 140.448C57.828 140.448 57.828 140.596 57.9 140.82C57.9739 141.114 58.0984 141.393 58.268 141.644C58.668 142.236 59.092 142.644 59.068 142.668C58.9695 142.588 58.8796 142.499 58.8 142.4C58.5819 142.181 58.3862 141.942 58.216 141.684C58.044 141.422 57.9231 141.131 57.86 140.824C57.8247 140.702 57.8138 140.574 57.828 140.448Z" fill="#E0E0E0"/>
<path d="M58.536 145.788C58.536 145.768 58.936 146.104 59.464 146.416C59.992 146.728 60.468 146.904 60.46 146.928C60.3496 146.912 60.2419 146.881 60.14 146.836C59.8907 146.74 59.6498 146.624 59.42 146.488C59.1907 146.351 58.9727 146.196 58.768 146.024C58.6813 145.955 58.6034 145.876 58.536 145.788Z" fill="#E0E0E0"/>
<path d="M61.652 145.172C61.6401 145.296 61.6133 145.418 61.5719 145.536C61.4001 146.115 61.1612 146.672 60.8599 147.196C60.8005 147.306 60.7294 147.409 60.6479 147.504C60.6925 147.388 60.746 147.276 60.808 147.168C60.912 146.96 61.052 146.676 61.188 146.368C61.324 146.06 61.4359 145.748 61.5159 145.532C61.5483 145.407 61.5939 145.287 61.652 145.172Z" fill="#E0E0E0"/>
<path d="M34.064 152.864C34.04 152.864 33.308 150.676 32.428 147.964C31.548 145.252 30.848 143.04 30.872 143.032C30.896 143.024 31.624 145.22 32.508 147.936C33.392 150.652 34.084 152.86 34.064 152.864Z" fill="#E0E0E0"/>
<path d="M32.896 144.728C32.93 144.783 32.9595 144.84 32.984 144.9C33.0549 145.06 33.1163 145.225 33.168 145.392C33.3444 145.943 33.44 146.517 33.452 147.096C33.4621 147.671 33.3908 148.245 33.24 148.8C33.1941 148.969 33.138 149.134 33.072 149.296C33.028 149.412 33 149.476 32.992 149.472C32.984 149.468 33.08 149.212 33.184 148.784C33.3163 148.229 33.3781 147.659 33.368 147.088C33.3549 146.517 33.2689 145.949 33.112 145.4C32.992 144.988 32.88 144.736 32.896 144.728Z" fill="#E0E0E0"/>
<path d="M29.952 146.196C29.952 146.196 30.068 146.404 30.272 146.732C30.5363 147.157 30.8475 147.552 31.2 147.908C31.5642 148.263 31.9666 148.577 32.4 148.844C32.728 149.048 32.944 149.148 32.94 149.164C32.8843 149.151 32.8306 149.131 32.78 149.104C32.68 149.06 32.54 148.988 32.38 148.892C31.9418 148.637 31.5385 148.326 31.18 147.968C30.8193 147.61 30.5072 147.207 30.252 146.768C30.1751 146.639 30.1057 146.505 30.044 146.368C30.0064 146.315 29.9755 146.257 29.952 146.196Z" fill="#E0E0E0"/>
<path d="M32.024 143.6C32.0497 143.643 32.0698 143.688 32.084 143.736C32.12 143.828 32.168 143.96 32.216 144.136C32.4586 145.002 32.5213 145.909 32.4 146.8C32.376 146.972 32.352 147.108 32.328 147.2C32.3204 147.249 32.3069 147.298 32.288 147.344C32.288 147.344 32.312 147.128 32.344 146.788C32.3795 146.343 32.3795 145.897 32.344 145.452C32.308 145.007 32.2371 144.566 32.132 144.132C32.086 143.957 32.05 143.779 32.024 143.6Z" fill="#E0E0E0"/>
<path d="M30.148 144.608C30.148 144.608 30.232 144.84 30.38 145.204C30.5731 145.678 30.8143 146.131 31.1 146.556C31.3869 146.979 31.7152 147.373 32.08 147.732C32.364 148.008 32.556 148.16 32.544 148.172L32.404 148.076C32.2773 147.983 32.1558 147.882 32.04 147.776C31.6578 147.426 31.3181 147.033 31.028 146.604C30.741 146.173 30.5047 145.71 30.324 145.224C30.256 145.04 30.208 144.884 30.18 144.776C30.1591 144.722 30.1483 144.665 30.148 144.608Z" fill="#E0E0E0"/>
<path d="M30.504 143.66C30.504 143.66 30.504 143.808 30.576 144.032C30.6505 144.327 30.7749 144.607 30.944 144.86C31.344 145.448 31.768 145.856 31.744 145.88C31.6403 145.804 31.545 145.717 31.46 145.62C31.2419 145.401 31.0462 145.162 30.876 144.904C30.7056 144.641 30.5849 144.35 30.52 144.044C30.4889 143.918 30.4835 143.788 30.504 143.66Z" fill="#E0E0E0"/>
<path d="M31.2 149C31.2 148.98 31.6 149.316 32.128 149.628C32.656 149.94 33.132 150.116 33.124 150.14C33.0135 150.124 32.9058 150.093 32.804 150.048C32.5546 149.952 32.3138 149.836 32.084 149.7C31.8552 149.564 31.6384 149.409 31.4359 149.236C31.3475 149.168 31.2682 149.088 31.2 149Z" fill="#E0E0E0"/>
<path d="M34.328 148.4C34.3159 148.525 34.289 148.649 34.248 148.768C34.1623 149.056 34.0608 149.339 33.944 149.616C33.826 149.89 33.6924 150.157 33.544 150.416C33.4907 150.53 33.4191 150.634 33.332 150.724C33.3765 150.608 33.43 150.496 33.492 150.388C33.596 150.18 33.736 149.896 33.892 149.588C34.048 149.28 34.144 148.968 34.22 148.752C34.2439 148.631 34.2801 148.513 34.328 148.4Z" fill="#E0E0E0"/>
<path d="M45.692 144.96C45.668 144.96 45.764 142.644 45.904 139.796C46.044 136.948 46.18 134.636 46.204 134.636C46.228 134.636 46.128 136.948 45.988 139.8C45.848 142.652 45.716 144.96 45.692 144.96Z" fill="#E0E0E0"/>
<path d="M47.492 136.94C47.4977 137.004 47.4977 137.068 47.492 137.132C47.5042 137.306 47.5042 137.481 47.492 137.656C47.4296 138.818 47.0308 139.937 46.344 140.876C46.2407 141.015 46.1298 141.149 46.012 141.276C45.972 141.326 45.9264 141.372 45.876 141.412C45.876 141.412 46.048 141.196 46.296 140.836C46.9474 139.887 47.3391 138.783 47.432 137.636C47.488 137.2 47.476 136.94 47.492 136.94Z" fill="#E0E0E0"/>
<path d="M44.22 137.264C44.22 137.264 44.252 137.5 44.328 137.88C44.4236 138.373 44.5752 138.853 44.78 139.312C44.9887 139.77 45.2476 140.203 45.552 140.604C45.784 140.908 45.952 141.084 45.952 141.092C45.906 141.06 45.8643 141.022 45.828 140.98C45.7179 140.872 45.6138 140.759 45.516 140.64C45.1953 140.244 44.9265 139.808 44.716 139.344C44.5076 138.88 44.361 138.39 44.28 137.888C44.2563 137.737 44.2403 137.585 44.232 137.432C44.2176 137.377 44.2135 137.32 44.22 137.264Z" fill="#E0E0E0"/>
<path d="M47.076 135.572C47.076 135.572 47.076 135.628 47.076 135.724C47.076 135.82 47.076 135.96 47.076 136.124C47.0375 136.574 46.9531 137.019 46.824 137.452C46.6957 137.885 46.5228 138.303 46.308 138.7C46.2433 138.82 46.1725 138.936 46.096 139.048C46.0726 139.092 46.0429 139.132 46.008 139.168C46.008 139.168 46.104 138.98 46.256 138.672C46.4531 138.272 46.6163 137.856 46.744 137.428C46.8726 137.001 46.9636 136.563 47.016 136.12C47.052 135.788 47.064 135.572 47.076 135.572Z" fill="#E0E0E0"/>
<path d="M44.964 135.848C44.964 135.848 44.964 136.096 44.964 136.488C44.9762 137 45.0406 137.509 45.156 138.008C45.2722 138.507 45.4398 138.992 45.656 139.456C45.82 139.816 45.944 140.024 45.932 140.032C45.8933 139.989 45.8598 139.942 45.832 139.892C45.7489 139.763 45.6728 139.629 45.604 139.492C45.3686 139.03 45.19 138.541 45.072 138.036C44.9549 137.531 44.8985 137.014 44.904 136.496C44.904 136.3 44.904 136.136 44.928 136.028C44.9356 135.967 44.9476 135.907 44.964 135.848Z" fill="#E0E0E0"/>
<path d="M45.636 135.092C45.636 135.092 45.6 135.232 45.572 135.464C45.5386 135.765 45.5548 136.069 45.62 136.364C45.78 137.06 46.02 137.592 46.02 137.604C45.9467 137.498 45.8888 137.382 45.848 137.26C45.7206 136.979 45.6227 136.685 45.556 136.384C45.488 136.079 45.4785 135.764 45.528 135.456C45.5378 135.328 45.5746 135.204 45.636 135.092Z" fill="#E0E0E0"/>
<path d="M44.4 140.332C44.4 140.332 44.652 140.768 45.04 141.252C45.428 141.736 45.808 142.052 45.788 142.084C45.6914 142.029 45.6027 141.962 45.524 141.884C45.1246 141.527 44.7892 141.105 44.532 140.636C44.4714 140.543 44.4267 140.44 44.4 140.332Z" fill="#E0E0E0"/>
<path d="M47.532 140.864C47.477 140.976 47.4085 141.081 47.328 141.176C46.9651 141.659 46.5431 142.094 46.072 142.472C45.9804 142.559 45.8766 142.631 45.764 142.688C45.8468 142.594 45.9378 142.507 46.036 142.428C46.204 142.276 46.436 142.056 46.68 141.808C46.924 141.56 47.132 141.316 47.28 141.14C47.3541 141.039 47.4385 140.947 47.532 140.864Z" fill="#E0E0E0"/>
<g opacity="0.3">
<path opacity="0.3" d="M43.36 121.076C44.9263 122.318 46.71 123.258 48.62 123.848C49.4278 124.143 50.2944 124.242 51.148 124.136C51.5734 124.077 51.9746 123.903 52.3087 123.633C52.6427 123.363 52.8969 123.007 53.044 122.604C53.104 122.4 53.096 122.128 52.904 122.04C52.712 121.952 52.504 122.128 52.308 122.264C51.736 122.692 50.032 122.796 49.32 122.712C46.988 122.44 45.472 121.872 43.36 121.084" fill="black"/>
</g>
<path d="M58.4 137.308C58.4285 137.369 58.4499 137.434 58.464 137.5C58.5 137.632 58.56 137.82 58.608 138.072C58.7632 138.781 58.853 139.503 58.876 140.228C58.9812 142.643 58.4195 145.04 57.2525 147.157C56.0854 149.273 54.3582 151.028 52.26 152.228C51.6327 152.594 50.9741 152.903 50.292 153.152C50.056 153.244 49.86 153.292 49.732 153.336C49.6679 153.361 49.6005 153.375 49.532 153.38C49.7704 153.266 50.0148 153.164 50.264 153.076C50.9277 152.801 51.5696 152.476 52.184 152.104C54.2297 150.887 55.9143 149.148 57.0644 147.064C58.2146 144.98 58.7888 142.627 58.728 140.248C58.7189 139.529 58.652 138.812 58.528 138.104C58.4705 137.841 58.4277 137.575 58.4 137.308Z" fill="#263238"/>
<g opacity="0.2">
<path opacity="0.2" d="M58.728 139.936C58.7558 140.803 58.5875 141.665 58.2357 142.458C57.8838 143.251 57.3575 143.955 56.696 144.516C55.836 145.232 54.776 145.684 53.896 146.408C53.1084 147.074 52.5201 147.945 52.196 148.924C52.032 149.432 51.96 150.052 52.328 150.436C52.696 150.82 53.46 150.764 54.012 150.528C55.816 149.764 57.1 148.072 57.792 146.24C58.484 144.408 58.652 142.42 58.772 140.464" fill="black"/>
</g>
<path d="M68.848 138.456C68.2259 136.881 68.246 135.124 68.904 133.564C68.7495 134.371 68.6493 135.188 68.604 136.008C68.6294 136.829 68.7109 137.646 68.848 138.456Z" fill="#263238"/>
<path d="M70.056 137.972C69.5538 137.354 69.2153 136.619 69.072 135.836C68.8618 135.069 68.8508 134.261 69.04 133.488C69.0588 134.261 69.1377 135.031 69.276 135.792C69.4838 136.536 69.7445 137.265 70.056 137.972Z" fill="#263238"/>
<path d="M89.836 126.672C89.836 126.672 89.712 126.576 89.492 126.472C89.1941 126.329 88.8549 126.298 88.536 126.384L88.356 126.436L88.448 126.268C88.5744 126.034 88.6584 125.779 88.696 125.516C88.7713 125 88.6905 124.474 88.464 124.004C88.288 123.64 88.1 123.464 88.124 123.444C88.3161 123.567 88.4699 123.742 88.568 123.948C88.8441 124.433 88.9484 124.997 88.864 125.548C88.8188 125.829 88.724 126.1 88.584 126.348L88.492 126.232C88.8469 126.144 89.2222 126.2 89.536 126.388C89.764 126.528 89.844 126.664 89.836 126.672Z" fill="#AA6550"/>
<path d="M92.52 124.924C92.892 124.012 96.62 122.404 96.12 121.832C95.484 121.088 92.3 123.688 92.016 123.888C91.732 124.088 91.444 123.676 91.712 123.488C92.092 123.248 96.056 120.636 95.44 119.888C95.096 119.488 94.432 120.184 94.432 120.184C94.432 120.184 90.896 122.908 90.616 122.548C90.336 122.188 92.352 120.516 93.072 120.004C93.792 119.492 93.844 118.944 93.364 118.804C93.036 118.712 90.796 120.232 90.092 120.76C89.388 121.288 87.492 122.76 87.86 121.256C88.228 119.752 87.952 118.456 87.644 118.168C87.336 117.88 86.816 118.212 86.9 118.684C86.9444 119.204 86.9175 119.727 86.82 120.24C86.7339 120.654 86.5996 121.057 86.42 121.44C86.0463 122.312 85.4419 123.066 84.672 123.62L88.612 128.26L89.116 127.92C91.064 126.596 92.892 126.088 93.948 125.48C95.912 124.344 95.816 124.164 95.652 123.952C95.232 123.412 92.148 125.836 92.52 124.924Z" fill="#B78876"/>
<path d="M87.2 117.6L88.476 125.884L93.4679 125.8L93.7 124.252C93.7 124.252 96.5279 124.252 96.7479 121.852C96.9679 119.452 94.54 119.428 94.54 119.428L94.908 117.264L87.2 117.6ZM93.82 123.408L94.408 120.336C94.408 120.336 96.116 120.308 95.984 121.688C95.852 123.068 93.8 123.396 93.8 123.396L93.82 123.408Z" fill="#455A64"/>
<path d="M90.912 106.444C90.912 106.444 90.948 106.464 91.004 106.516C91.0795 106.599 91.144 106.692 91.196 106.792C91.3635 107.177 91.4055 107.606 91.316 108.016C91.178 108.608 90.9572 109.178 90.66 109.708C90.5087 110.02 90.3946 110.349 90.32 110.688C90.2474 111.045 90.2779 111.416 90.408 111.756C90.7182 112.41 91.1467 113.002 91.672 113.5C92.1105 113.936 92.4276 114.48 92.592 115.076C92.6821 115.483 92.6239 115.908 92.428 116.276C92.3716 116.375 92.3 116.464 92.216 116.54C92.156 116.588 92.12 116.612 92.116 116.604C92.2046 116.489 92.2848 116.367 92.356 116.24C92.517 115.879 92.5495 115.474 92.448 115.092C92.2716 114.529 91.9551 114.019 91.528 113.612C90.9791 113.101 90.5325 112.49 90.212 111.812C90.0709 111.437 90.039 111.029 90.12 110.636C90.1988 110.28 90.3224 109.936 90.488 109.612C90.7842 109.096 91.014 108.545 91.172 107.972C91.271 107.589 91.2543 107.185 91.124 106.812C91.012 106.568 90.896 106.456 90.912 106.444Z" fill="#263238"/>
<path d="M89.6 106.464C89.6 106.464 89.636 106.464 89.692 106.54C89.7709 106.622 89.837 106.715 89.888 106.816C90.0572 107.201 90.0992 107.63 90.008 108.04C89.8675 108.631 89.6468 109.201 89.352 109.732C89.1977 110.043 89.0835 110.372 89.012 110.712C88.9403 111.069 88.9693 111.439 89.096 111.78C89.4096 112.432 89.8378 113.023 90.36 113.524C90.8005 113.957 91.118 114.5 91.28 115.096C91.3777 115.509 91.3193 115.943 91.116 116.316C91.0611 116.414 90.9893 116.502 90.904 116.576C90.844 116.628 90.812 116.648 90.808 116.644C90.804 116.64 90.924 116.528 91.044 116.276C91.205 115.915 91.2375 115.51 91.136 115.128C90.9595 114.567 90.6445 114.059 90.22 113.652C89.6695 113.141 89.2215 112.53 88.9 111.852C88.7601 111.475 88.7296 111.066 88.812 110.672C88.8883 110.316 89.0106 109.972 89.176 109.648C89.4747 109.135 89.7047 108.585 89.86 108.012C89.9616 107.628 89.9448 107.222 89.812 106.848C89.688 106.592 89.568 106.476 89.6 106.464Z" fill="#263238"/>
<path d="M87.668 120.992C87.668 120.992 87.668 120.872 87.84 120.74C87.955 120.66 88.0866 120.606 88.225 120.583C88.3634 120.56 88.5052 120.569 88.64 120.608C89.0248 120.75 89.3693 120.983 89.644 121.288C89.7897 121.465 89.9731 121.607 90.1807 121.703C90.3883 121.8 90.6149 121.85 90.844 121.848C91.316 121.788 91.712 121.448 92.132 121.276C92.3321 121.178 92.5495 121.119 92.772 121.104C92.9688 121.101 93.1639 121.14 93.344 121.22C93.6015 121.332 93.8161 121.524 93.956 121.768C94.048 121.94 94.06 122.048 94.048 122.052C94.036 122.056 93.996 121.96 93.888 121.812C93.7348 121.607 93.5268 121.449 93.288 121.356C93.1256 121.296 92.9529 121.269 92.78 121.276C92.582 121.3 92.3898 121.358 92.212 121.448C91.7996 121.722 91.3458 121.927 90.868 122.056C90.5884 122.092 90.3052 122.028 90.068 121.876C89.8635 121.75 89.6754 121.6 89.508 121.428C89.2588 121.136 88.9471 120.903 88.596 120.748C88.4775 120.708 88.3523 120.693 88.2278 120.703C88.1033 120.714 87.9823 120.749 87.872 120.808C87.732 120.9 87.684 121 87.668 120.992Z" fill="#FAFAFA"/>
<path d="M87.488 119.924C87.488 119.924 87.488 119.796 87.668 119.664C87.7913 119.577 87.9326 119.519 88.0815 119.494C88.2304 119.469 88.383 119.478 88.528 119.52C88.9347 119.674 89.2993 119.922 89.592 120.244C89.924 120.556 90.348 120.912 90.86 120.844C91.372 120.776 91.784 120.444 92.228 120.232C92.4409 120.129 92.6718 120.067 92.908 120.052C93.1607 120.046 93.4103 120.108 93.6311 120.231C93.8519 120.354 94.0359 120.534 94.164 120.752C94.264 120.932 94.276 121.052 94.264 121.052C94.252 121.052 94.208 120.952 94.096 120.796C93.9318 120.577 93.7103 120.408 93.456 120.308C93.2834 120.244 93.0998 120.216 92.916 120.224C92.7038 120.248 92.4978 120.31 92.308 120.408C91.908 120.596 91.48 120.964 90.88 121.052C90.592 121.083 90.3018 121.017 90.056 120.864C89.8388 120.728 89.6387 120.567 89.46 120.384C89.1938 120.074 88.8617 119.828 88.488 119.664C88.3619 119.62 88.2282 119.604 88.0952 119.615C87.9623 119.626 87.8331 119.664 87.716 119.728C87.552 119.828 87.504 119.936 87.488 119.924Z" fill="#FAFAFA"/>
<path d="M50.1 161.82L56.992 171.548L132.652 171.512L132.608 162.924L94.348 159.284L62.56 154.556L50.1 161.82Z" fill="#263238"/>
<path d="M62.264 154.84L67.636 147.424L82.772 128.736C83.8147 127.612 85.1054 126.746 86.5414 126.208C87.9774 125.67 89.5191 125.474 91.044 125.636C92.8997 125.832 94.6618 126.551 96.1254 127.708C97.589 128.866 98.694 130.415 99.312 132.176L109.312 162.672L96.072 160.592L89.344 141.728L78.736 156.528L62.264 154.84Z" fill="#263238"/>
<path d="M109.3 160.704H109.2H108.856L107.532 160.608L102.668 160.208L86.62 158.86L77.784 158.092C76.428 157.964 75.136 157.868 73.928 157.736C72.8087 157.614 71.6974 157.427 70.6 157.176C69.6846 156.986 68.7991 156.672 67.968 156.244C67.3468 155.908 66.7858 155.472 66.308 154.952C66.0045 154.624 65.7523 154.251 65.56 153.848C65.4899 153.711 65.4324 153.567 65.388 153.42C65.6332 153.961 65.9642 154.46 66.368 154.896C66.846 155.401 67.4059 155.821 68.024 156.14C68.8493 156.553 69.7265 156.853 70.632 157.032C71.726 157.274 72.8333 157.451 73.948 157.564C75.148 157.688 76.444 157.78 77.804 157.9L86.636 158.652L102.68 160.06L107.54 160.512L108.86 160.644L109.204 160.684L109.3 160.704Z" fill="#455A64"/>
<path d="M90.4 134.904C90.3179 135.235 90.215 135.561 90.092 135.88C89.5882 137.442 89.3436 139.075 89.368 140.716C89.3918 141.057 89.3918 141.399 89.368 141.74C89.2703 141.41 89.2192 141.068 89.216 140.724C89.1606 139.895 89.1955 139.062 89.32 138.24C89.4447 137.42 89.6566 136.615 89.952 135.84C90.0571 135.509 90.2079 135.194 90.4 134.904Z" fill="#455A64"/>
<path d="M87.48 137.448C87.6819 138.223 87.9249 138.987 88.208 139.736C88.5535 140.457 88.9367 141.159 89.356 141.84C88.2137 140.652 87.5463 139.087 87.48 137.44V137.448Z" fill="#455A64"/>
<path d="M130.684 165.496C130.383 166.476 130.17 167.482 130.048 168.5C129.998 169.524 130.038 170.551 130.168 171.568C130.043 171.287 129.962 170.989 129.928 170.684C129.808 169.956 129.778 169.215 129.84 168.48C129.903 167.745 130.057 167.021 130.3 166.324C130.381 166.028 130.511 165.749 130.684 165.496Z" fill="#455A64"/>
<path d="M53.124 121.788C53.124 121.788 53.124 121.824 53.06 121.876C52.9934 121.957 52.9183 122.031 52.836 122.096C52.5322 122.337 52.1823 122.512 51.808 122.612C50.864 122.904 49.5 122.832 48.052 122.612C46.8156 122.409 45.6074 122.061 44.452 121.576C44.008 121.392 43.652 121.216 43.42 121.092C43.2917 121.034 43.1719 120.958 43.064 120.868C43.064 120.84 43.612 121.104 44.508 121.44C45.6734 121.879 46.8792 122.202 48.108 122.404C49.544 122.628 50.88 122.716 51.796 122.476C52.2824 122.344 52.7351 122.109 53.124 121.788Z" fill="#263238"/>
<path d="M265.808 139.784C267.484 138.92 269.46 138.808 271.32 139.116C272.324 139.28 273.364 139.58 274.048 140.316C274.732 141.052 274.848 142.388 274.076 143.036C273.571 143.376 272.962 143.529 272.356 143.468C270.9 143.468 269.28 143.196 268.116 144.072C267.452 144.572 267.008 145.404 266.216 145.652C265.818 145.744 265.401 145.704 265.028 145.538C264.655 145.372 264.346 145.089 264.148 144.732C263.769 144.002 263.686 143.154 263.916 142.364C264.011 141.817 264.231 141.3 264.56 140.852C264.888 140.405 265.315 140.039 265.808 139.784Z" fill="url(#paint20_linear_9_1150)"/>
<path d="M261.964 132.364C262.988 133.832 264.984 133.344 265.908 132.452C266.832 131.56 267.224 130.26 267.58 129.024C268.38 126.2 269.212 123.24 268.604 120.364C268.46 119.492 268.078 118.677 267.5 118.008C267.206 117.675 266.829 117.425 266.408 117.285C265.986 117.144 265.535 117.118 265.1 117.208C264.096 117.476 263.472 118.46 263.02 119.396C261.69 122.161 260.993 125.188 260.98 128.256C260.98 129.684 261.144 131.18 261.948 132.356" fill="url(#paint21_linear_9_1150)"/>
<path d="M259.148 134.468C260.26 133.148 260.472 131.22 259.976 129.564C259.413 127.919 258.408 126.461 257.072 125.348C255.554 123.997 253.788 122.955 251.872 122.28C251.131 121.977 250.332 121.841 249.532 121.88C249.132 121.905 248.744 122.028 248.402 122.237C248.059 122.446 247.773 122.735 247.568 123.08C247.024 124.124 247.568 125.392 248.116 126.424C249.117 128.244 250.259 129.983 251.532 131.624C252.556 132.944 253.728 134.248 255.292 134.824C256.856 135.4 258.472 135.352 259.292 134.268" fill="url(#paint22_linear_9_1150)"/>
<path d="M261.896 154.464C261.947 154.246 261.977 154.024 261.988 153.8C262.036 153.312 262.092 152.704 262.164 151.98C262.252 151.086 262.385 150.197 262.564 149.316C262.803 148.244 263.127 147.193 263.532 146.172C263.93 145.154 264.468 144.196 265.132 143.328C265.674 142.622 266.367 142.045 267.16 141.64C267.699 141.373 268.277 141.193 268.872 141.108C269.096 141.097 269.318 141.065 269.536 141.012C269.311 140.986 269.085 140.986 268.86 141.012C268.243 141.059 267.638 141.216 267.076 141.476C266.24 141.871 265.508 142.454 264.936 143.18C264.241 144.059 263.68 145.036 263.272 146.08C262.858 147.117 262.536 148.187 262.308 149.28C262.137 150.172 262.019 151.074 261.956 151.98C261.896 152.752 261.876 153.376 261.864 153.808C261.851 154.027 261.862 154.247 261.896 154.464Z" fill="#263238"/>
<path d="M262.02 153.068C262.032 152.964 262.032 152.86 262.02 152.756V151.876C262.02 151.108 262.02 150 262.06 148.628C262.128 145.888 262.364 142.94 262.82 138.784C263.248 134.876 263.828 130.328 264.42 127.368C264.552 126.696 264.684 126.092 264.82 125.56C264.956 125.028 265.04 124.572 265.136 124.2C265.232 123.828 265.288 123.568 265.344 123.344C265.373 123.244 265.391 123.14 265.396 123.036C265.351 123.13 265.315 123.228 265.288 123.328C265.22 123.548 265.136 123.828 265.032 124.172C264.928 124.516 264.804 124.996 264.668 125.524C264.532 126.052 264.384 126.656 264.24 127.328C263.484 130.826 262.915 134.361 262.536 137.92C262.08 142.084 261.876 145.88 261.856 148.624C261.856 150 261.856 151.108 261.904 151.876C261.928 152.236 261.944 152.528 261.96 152.76C261.967 152.865 261.987 152.968 262.02 153.068Z" fill="#263238"/>
<path d="M262.04 145.752C262.06 145.444 262.06 145.136 262.04 144.828C262.004 144.236 261.924 143.38 261.756 142.328C261.559 141.1 261.292 139.885 260.956 138.688C260.56 137.214 260.05 135.772 259.432 134.376C258.374 131.804 256.859 129.444 254.96 127.412C254.631 127.064 254.28 126.738 253.908 126.436C253.748 126.3 253.604 126.16 253.46 126.056L253.06 125.772C252.808 125.584 252.54 125.418 252.26 125.276C253.157 125.978 254.008 126.737 254.808 127.548C256.647 129.596 258.121 131.943 259.168 134.488C259.775 135.874 260.287 137.3 260.7 138.756C261.048 139.941 261.337 141.142 261.564 142.356C261.756 143.392 261.868 144.24 261.932 144.828C261.943 145.138 261.979 145.447 262.04 145.752Z" fill="#263238"/>
<path d="M254.968 158.656L255.7 168.696H268.6L269.336 158.656H254.968Z" fill="#263238"/>
<path d="M270.872 154.696H253.72V158.656H270.872V154.696Z" fill="#263238"/>
<path d="M253.72 168.312V169.408H254.528H270.592V168.312H253.72Z" fill="#455A64"/>
<path d="M255.316 171.34L254.528 169.408H269.976L269.056 171.34H255.316Z" fill="#455A64"/>
<path d="M269.096 161.936C269.079 161.968 269.059 161.999 269.036 162.028L268.844 162.284L268.092 163.248L268.056 163.288L268.024 163.244L266.18 160.692H266.284L264.468 163.264L264.408 163.344L264.348 163.268L262.192 160.704H262.316L262.196 160.852L260.268 163.252L260.204 163.332L260.144 163.248L258.324 160.676H258.432L256.192 163.228L256.152 163.276L256.12 163.224L255.42 162.044L255.24 161.732C255.219 161.696 255.201 161.658 255.184 161.62C255.184 161.62 255.216 161.652 255.26 161.72L255.46 162.02L256.196 163.18H256.124C256.7 162.508 257.448 161.632 258.328 160.596L258.384 160.532L258.436 160.604L260.272 163.164H260.148L262.072 160.744L262.188 160.596L262.252 160.52L262.312 160.592L264.464 163.164H264.344L266.18 160.604L266.232 160.528L266.284 160.604L268.092 163.184H268.028L268.808 162.244L269.016 162.004C269.04 161.978 269.066 161.955 269.096 161.936Z" fill="#E0E0E0"/>
<path d="M269.516 158.588C269.516 158.632 266.28 158.668 262.316 158.668C258.352 158.668 255.116 158.632 255.116 158.588C255.116 158.544 258.348 158.508 262.316 158.508C266.284 158.508 269.516 158.544 269.516 158.588Z" fill="#455A64"/>
<path d="M270.164 169.52C270.164 169.564 266.652 169.6 262.32 169.6C257.988 169.6 254.472 169.564 254.472 169.52C254.472 169.476 257.984 169.44 262.32 169.44C266.656 169.44 270.164 169.476 270.164 169.52Z" fill="#263238"/>
<defs>
<linearGradient id="paint0_linear_9_1150" x1="129.224" y1="101.952" x2="129.224" y2="111.5" gradientUnits="userSpaceOnUse">
<stop stop-color="#5C40CC" stop-opacity="0.85"/>
<stop offset="1" stop-color="#5C40CC"/>
</linearGradient>
<linearGradient id="paint1_linear_9_1150" x1="130.68" y1="120.648" x2="130.68" y2="124.664" gradientUnits="userSpaceOnUse">
<stop stop-color="#5C40CC" stop-opacity="0.85"/>
<stop offset="1" stop-color="#5C40CC"/>
</linearGradient>
<linearGradient id="paint2_linear_9_1150" x1="133.388" y1="120.4" x2="133.388" y2="124.68" gradientUnits="userSpaceOnUse">
<stop stop-color="#5C40CC" stop-opacity="0.85"/>
<stop offset="1" stop-color="#5C40CC"/>
</linearGradient>
<linearGradient id="paint3_linear_9_1150" x1="136.048" y1="121.591" x2="136.048" y2="124.703" gradientUnits="userSpaceOnUse">
<stop stop-color="#5C40CC" stop-opacity="0.85"/>
<stop offset="1" stop-color="#5C40CC"/>
</linearGradient>
<linearGradient id="paint4_linear_9_1150" x1="139.458" y1="121.575" x2="139.458" y2="124.71" gradientUnits="userSpaceOnUse">
<stop stop-color="#5C40CC" stop-opacity="0.85"/>
<stop offset="1" stop-color="#5C40CC"/>
</linearGradient>
<linearGradient id="paint5_linear_9_1150" x1="142.668" y1="121.588" x2="142.668" y2="124.7" gradientUnits="userSpaceOnUse">
<stop stop-color="#5C40CC" stop-opacity="0.85"/>
<stop offset="1" stop-color="#5C40CC"/>
</linearGradient>
<linearGradient id="paint6_linear_9_1150" x1="145.861" y1="121.591" x2="145.861" y2="124.703" gradientUnits="userSpaceOnUse">
<stop stop-color="#5C40CC" stop-opacity="0.85"/>
<stop offset="1" stop-color="#5C40CC"/>
</linearGradient>
<linearGradient id="paint7_linear_9_1150" x1="152.28" y1="120.648" x2="152.28" y2="124.688" gradientUnits="userSpaceOnUse">
<stop stop-color="#5C40CC" stop-opacity="0.85"/>
<stop offset="1" stop-color="#5C40CC"/>
</linearGradient>
<linearGradient id="paint8_linear_9_1150" x1="156.682" y1="121.576" x2="156.682" y2="124.71" gradientUnits="userSpaceOnUse">
<stop stop-color="#5C40CC" stop-opacity="0.85"/>
<stop offset="1" stop-color="#5C40CC"/>
</linearGradient>
<linearGradient id="paint9_linear_9_1150" x1="159.372" y1="120.34" x2="159.372" y2="124.68" gradientUnits="userSpaceOnUse">
<stop stop-color="#5C40CC" stop-opacity="0.85"/>
<stop offset="1" stop-color="#5C40CC"/>
</linearGradient>
<linearGradient id="paint10_linear_9_1150" x1="161.522" y1="120.88" x2="161.522" y2="124.71" gradientUnits="userSpaceOnUse">
<stop stop-color="#5C40CC" stop-opacity="0.85"/>
<stop offset="1" stop-color="#5C40CC"/>
</linearGradient>
<linearGradient id="paint11_linear_9_1150" x1="165.475" y1="120.4" x2="165.475" y2="125.384" gradientUnits="userSpaceOnUse">
<stop stop-color="#5C40CC" stop-opacity="0.85"/>
<stop offset="1" stop-color="#5C40CC"/>
</linearGradient>
<linearGradient id="paint12_linear_9_1150" x1="168.076" y1="120.664" x2="168.076" y2="124.68" gradientUnits="userSpaceOnUse">
<stop stop-color="#5C40CC" stop-opacity="0.85"/>
<stop offset="1" stop-color="#5C40CC"/>
</linearGradient>
<linearGradient id="paint13_linear_9_1150" x1="171.51" y1="120.652" x2="171.51" y2="124.704" gradientUnits="userSpaceOnUse">
<stop stop-color="#5C40CC" stop-opacity="0.85"/>
<stop offset="1" stop-color="#5C40CC"/>
</linearGradient>
<linearGradient id="paint14_linear_9_1150" x1="176.136" y1="120.636" x2="176.136" y2="124.676" gradientUnits="userSpaceOnUse">
<stop stop-color="#5C40CC" stop-opacity="0.85"/>
<stop offset="1" stop-color="#5C40CC"/>
</linearGradient>
<linearGradient id="paint15_linear_9_1150" x1="180.389" y1="120.4" x2="180.389" y2="125.384" gradientUnits="userSpaceOnUse">
<stop stop-color="#5C40CC" stop-opacity="0.85"/>
<stop offset="1" stop-color="#5C40CC"/>
</linearGradient>
<linearGradient id="paint16_linear_9_1150" x1="135.42" y1="158.196" x2="135.42" y2="171.72" gradientUnits="userSpaceOnUse">
<stop stop-color="#5C40CC" stop-opacity="0.85"/>
<stop offset="1" stop-color="#5C40CC"/>
</linearGradient>
<linearGradient id="paint17_linear_9_1150" x1="72.95" y1="123.188" x2="72.95" y2="143.004" gradientUnits="userSpaceOnUse">
<stop stop-color="#5C40CC" stop-opacity="0.85"/>
<stop offset="1" stop-color="#5C40CC"/>
</linearGradient>
<linearGradient id="paint18_linear_9_1150" x1="44.8231" y1="120.648" x2="44.8231" y2="168.964" gradientUnits="userSpaceOnUse">
<stop stop-color="#5C40CC" stop-opacity="0.85"/>
<stop offset="1" stop-color="#5C40CC"/>
</linearGradient>
<linearGradient id="paint19_linear_9_1150" x1="48.1236" y1="118.424" x2="48.1236" y2="122.748" gradientUnits="userSpaceOnUse">
<stop stop-color="#5C40CC" stop-opacity="0.85"/>
<stop offset="1" stop-color="#5C40CC"/>
</linearGradient>
<linearGradient id="paint20_linear_9_1150" x1="269.199" y1="138.96" x2="269.199" y2="145.7" gradientUnits="userSpaceOnUse">
<stop stop-color="#5C40CC" stop-opacity="0.85"/>
<stop offset="1" stop-color="#5C40CC"/>
</linearGradient>
<linearGradient id="paint21_linear_9_1150" x1="264.897" y1="117.156" x2="264.897" y2="133.299" gradientUnits="userSpaceOnUse">
<stop stop-color="#5C40CC" stop-opacity="0.85"/>
<stop offset="1" stop-color="#5C40CC"/>
</linearGradient>
<linearGradient id="paint22_linear_9_1150" x1="253.786" y1="121.873" x2="253.786" y2="135.189" gradientUnits="userSpaceOnUse">
<stop stop-color="#5C40CC" stop-opacity="0.85"/>
<stop offset="1" stop-color="#5C40CC"/>
</linearGradient>
</defs>
</svg>
