<svg width="250" height="250" viewBox="0 0 250 250" fill="none" xmlns="http://www.w3.org/2000/svg">
<path d="M130.58 109.665L99.305 82.925L99.63 82.55L130.505 108.945L167.91 61.105L182.63 71.76L212.685 32.145L213.085 32.445L182.73 72.45L168.005 61.795L130.58 109.665Z" fill="#EBEBEB"/>
<path d="M22.085 152.625C22.085 152.96 21.9856 153.288 21.7993 153.567C21.6131 153.845 21.3484 154.063 21.0387 154.191C20.7289 154.319 20.3881 154.353 20.0593 154.287C19.7305 154.222 19.4285 154.061 19.1915 153.824C18.9544 153.587 18.793 153.285 18.7276 152.956C18.6622 152.627 18.6957 152.286 18.824 151.976C18.9523 151.667 19.1696 151.402 19.4483 151.216C19.7271 151.029 20.0548 150.93 20.39 150.93C20.8395 150.93 21.2707 151.109 21.5886 151.427C21.9064 151.744 22.085 152.176 22.085 152.625Z" fill="#EBEBEB"/>
<path d="M99.465 86.085C101.312 86.085 102.81 84.5874 102.81 82.74C102.81 80.8926 101.312 79.395 99.465 79.395C97.6176 79.395 96.12 80.8926 96.12 82.74C96.12 84.5874 97.6176 86.085 99.465 86.085Z" fill="#EBEBEB"/>
<path d="M20.575 152.79L20.205 152.455L56.67 112.175L64.91 119.34L97.77 83.99L98.135 84.33L64.945 120.035L56.71 112.875L20.575 152.79Z" fill="#EBEBEB"/>
<path d="M213.04 35.1951C215.448 35.1951 217.4 33.2431 217.4 30.8351C217.4 28.4271 215.448 26.4751 213.04 26.4751C210.632 26.4751 208.68 28.4271 208.68 30.8351C208.68 33.2431 210.632 35.1951 213.04 35.1951Z" fill="#EBEBEB"/>
<path d="M215.17 29.3451C214.605 30.1623 213.967 30.9271 213.265 31.6301L212.545 32.4101L212.47 32.4901L212.385 32.4251C211.851 32.0693 211.356 31.6569 210.91 31.1951C211.482 31.4841 212.023 31.8309 212.525 32.2301H212.365L213.07 31.4401C213.709 30.6832 214.412 29.9823 215.17 29.3451Z" fill="white"/>
<path d="M72.035 75.1151C72.46 71.9951 68.065 69.4351 64.76 69.1651C63.185 69.0401 61.55 69.2801 60.055 68.7601C56.82 67.6351 55.555 63.4551 52.375 62.1251C50.015 61.1251 47.295 62.0151 45.01 63.1651C42.725 64.3151 40.46 65.7651 37.905 65.9301C35.685 66.0701 33.27 65.2451 31.325 66.3351C29.875 67.1401 29.115 68.8351 27.78 69.7951C26.445 70.7551 24.78 70.9651 23.15 71.0551C21.52 71.1451 19.85 71.1601 18.37 71.8351C16.89 72.5101 15.675 74.0701 15.98 75.6651L72.035 75.1151Z" fill="#EBEBEB"/>
<path d="M189.78 22.9051C190.045 20.9601 187.305 19.36 185.245 19.195C184.245 19.115 183.245 19.2651 182.31 18.9401C180.31 18.2401 179.485 15.6351 177.515 14.8001C176.045 14.1801 174.35 14.735 172.925 15.45C171.5 16.165 170.085 17.075 168.495 17.175C167.105 17.265 165.6 16.7501 164.385 17.4301C163.485 17.9301 163.01 18.975 162.175 19.5901C161.308 20.1261 160.304 20.3972 159.285 20.3701C158.263 20.3506 157.246 20.5201 156.285 20.8701C155.365 21.2901 154.605 22.265 154.785 23.26L189.78 22.9051Z" fill="#F5F5F5"/>
<path d="M226.65 66.885C226.795 65.84 225.32 64.985 224.21 64.885C223.68 64.9044 223.149 64.8574 222.63 64.745C221.545 64.37 221.13 62.965 220.055 62.52C219.265 62.185 218.35 62.485 217.585 62.87C216.82 63.255 216.06 63.74 215.2 63.795C214.455 63.845 213.645 63.57 212.995 63.935C212.495 64.205 212.255 64.765 211.805 65.095C211.339 65.3835 210.798 65.5295 210.25 65.515C209.705 65.5016 209.162 65.5915 208.65 65.78C208.395 65.8787 208.18 66.0573 208.036 66.289C207.891 66.5208 207.826 66.7931 207.85 67.065L226.65 66.885Z" fill="#F5F5F5"/>
<path d="M60.455 39.96C60.595 38.915 59.12 38.055 58.015 37.96C57.4846 37.9793 56.9538 37.9323 56.435 37.82C55.35 37.445 54.935 36.04 53.86 35.595C53.065 35.26 52.155 35.56 51.39 35.945C50.625 36.33 49.89 36.815 49.005 36.87C48.26 36.92 47.45 36.645 46.8 37.005C46.3 37.28 46.06 37.84 45.61 38.17C45.1433 38.4577 44.6031 38.6036 44.055 38.59C43.5097 38.5762 42.9667 38.6661 42.455 38.855C42.1987 38.9546 41.9817 39.1347 41.8365 39.3682C41.6914 39.6018 41.6259 39.8761 41.65 40.15L60.455 39.96Z" fill="#FAFAFA"/>
<path d="M70.375 146.535L80.295 124.495L90.485 118.375L96.815 104.6L114.995 108.855L128.555 150.45L107.565 160.765L90.485 171.18L70.375 146.535Z" fill="#F5F5F5"/>
<path d="M243.855 210.41L225.91 174.59L217.605 162.16L207.815 116.885L196.025 107.08L184.18 123.58L168 127.61L153.08 141.88L183.11 173.745L200.81 192.41L214.635 218.23L241.17 243.315C240.9 243.07 243.855 210.41 243.855 210.41Z" fill="#EBEBEB"/>
<path d="M9.23999 246.435L11.07 222.125L20.845 206.93L27.245 178.01L38.88 171.18L53.255 147.005L66.945 137.74L95.35 165.83L114.1 145.635L128.555 150.45L122.6 157.855L107.565 160.765L77.95 186.59L54.92 199.285L48.78 210.375L35.455 212.325L9.23999 246.435Z" fill="#EBEBEB"/>
<path d="M77.74 169.435C76.935 170.58 75.37 170.2 74.645 169.5C73.92 168.8 73.615 167.785 73.335 166.815C72.7 164.6 72.055 162.28 72.53 160.025C72.6436 159.34 72.9447 158.7 73.4 158.175C73.6291 157.917 73.922 157.724 74.2494 157.615C74.5768 157.506 74.9271 157.486 75.265 157.555C76.055 157.765 76.545 158.555 76.9 159.27C77.9415 161.438 78.488 163.81 78.5 166.215C78.5724 167.34 78.3078 168.461 77.74 169.435Z" fill="#5C40CC"/>
<g opacity="0.2">
<path opacity="0.2" d="M77.74 169.435C76.935 170.58 75.37 170.2 74.645 169.5C73.92 168.8 73.615 167.785 73.335 166.815C72.7 164.6 72.055 162.28 72.53 160.025C72.6436 159.34 72.9447 158.7 73.4 158.175C73.6291 157.917 73.922 157.724 74.2494 157.615C74.5768 157.506 74.9271 157.486 75.265 157.555C76.055 157.765 76.545 158.555 76.9 159.27C77.9415 161.438 78.488 163.81 78.5 166.215C78.5724 167.34 78.3078 168.461 77.74 169.435Z" fill="black"/>
</g>
<path d="M74.725 175.25C73.3765 174.617 71.8607 174.433 70.4 174.725C69.6017 174.796 68.8501 175.132 68.265 175.68C67.73 176.27 67.63 177.305 68.265 177.81C68.6595 178.078 69.1352 178.2 69.61 178.155C70.755 178.155 72.02 177.94 72.935 178.625C73.435 179.02 73.8 179.67 74.435 179.865C74.747 179.932 75.0724 179.898 75.3637 179.768C75.6551 179.637 75.8972 179.417 76.055 179.14C76.3535 178.569 76.4198 177.904 76.24 177.285C76.1625 176.852 75.9853 176.442 75.7224 176.089C75.4594 175.736 75.118 175.449 74.725 175.25Z" fill="#5C40CC"/>
<path d="M79.945 171.08C79.5334 170.54 79.2593 169.907 79.1461 169.238C79.0328 168.568 79.0839 167.881 79.295 167.235C79.7382 165.946 80.5268 164.802 81.575 163.93C82.7655 162.871 84.1514 162.054 85.655 161.525C86.2366 161.289 86.863 161.183 87.49 161.215C87.8031 161.233 88.1072 161.326 88.3757 161.489C88.6441 161.651 88.8688 161.876 89.03 162.145C89.455 162.965 89.03 163.955 88.6 164.765C87.8164 166.194 86.9203 167.558 85.92 168.845C85.12 169.88 84.2 170.905 82.975 171.37C81.75 171.835 80.475 171.785 79.83 170.935" fill="#5C40CC"/>
<path d="M77.795 186.76C77.7535 186.596 77.7283 186.429 77.72 186.26C77.685 185.88 77.635 185.4 77.58 184.835C77.5094 184.133 77.4025 183.436 77.26 182.745C77.0742 181.904 76.8201 181.08 76.5 180.28C76.1895 179.48 75.7651 178.729 75.24 178.05C74.8174 177.493 74.2737 177.04 73.65 176.725C73.2283 176.515 72.776 176.374 72.31 176.305C72.1413 176.297 71.9738 176.272 71.81 176.23C71.9862 176.212 72.1638 176.212 72.34 176.23C72.8231 176.264 73.2959 176.386 73.735 176.59C74.391 176.899 74.9662 177.356 75.415 177.925C75.9623 178.615 76.4023 179.384 76.72 180.205C77.0432 181.015 77.2958 181.852 77.475 182.705C77.6105 183.404 77.704 184.11 77.755 184.82C77.8 185.425 77.815 185.915 77.825 186.255C77.8278 186.424 77.8178 186.593 77.795 186.76Z" fill="#263238"/>
<path d="M77.695 185.665C77.6821 185.584 77.6821 185.501 77.695 185.42V184.73C77.695 184.13 77.695 183.26 77.665 182.185C77.615 180.035 77.43 177.07 77.07 173.81C76.71 170.55 76.235 167.62 75.8 165.515C75.695 165.015 75.595 164.515 75.495 164.1C75.395 163.685 75.325 163.32 75.245 163.03C75.165 162.74 75.13 162.53 75.085 162.36C75.0594 162.283 75.0459 162.202 75.045 162.12C75.0793 162.192 75.1061 162.267 75.125 162.345C75.18 162.52 75.245 162.74 75.33 163.01C75.415 163.28 75.51 163.655 75.615 164.07C75.72 164.485 75.835 164.955 75.95 165.485C76.5439 168.227 76.9896 171 77.285 173.79C77.645 177.055 77.785 180.03 77.82 182.18C77.82 183.26 77.82 184.13 77.78 184.73C77.78 185.015 77.75 185.23 77.74 185.425C77.7311 185.506 77.716 185.586 77.695 185.665Z" fill="#263238"/>
<path d="M77.68 179.93C77.6626 179.689 77.6626 179.446 77.68 179.205C77.68 178.74 77.77 178.07 77.9 177.245C78.06 176.282 78.2736 175.329 78.54 174.39C78.8564 173.236 79.2558 172.106 79.735 171.01C80.5615 168.993 81.7474 167.143 83.235 165.55C83.4929 165.277 83.7685 165.022 84.06 164.785C84.185 164.675 84.3 164.57 84.415 164.485L84.735 164.265C84.9258 164.119 85.1281 163.988 85.34 163.875C84.6373 164.427 83.9693 165.021 83.34 165.655C81.8994 167.261 80.7429 169.101 79.92 171.095C79.4484 172.185 79.0475 173.304 78.72 174.445C78.405 175.495 78.22 176.445 78.04 177.27C77.86 178.095 77.805 178.77 77.755 179.21C77.748 179.452 77.7229 179.692 77.68 179.93Z" fill="#263238"/>
<path d="M221.93 201.34C221.466 201.347 221.009 201.447 220.586 201.636C220.162 201.824 219.781 202.096 219.465 202.435C218.837 203.118 218.373 203.935 218.11 204.825C217.555 206.525 217.73 208.58 218.11 210.325C220.015 209.76 221.275 207.825 221.855 206.825C222.765 205.215 223.44 201.75 221.915 201.355" fill="#5C40CC"/>
<path d="M215.135 212.38C215.466 211.982 215.687 211.505 215.775 210.995C215.862 210.485 215.814 209.96 215.635 209.475C215.447 208.993 215.165 208.552 214.805 208.18C214.446 207.807 214.015 207.51 213.54 207.305C213.332 207.186 213.101 207.115 212.862 207.096C212.624 207.077 212.384 207.111 212.16 207.195C211.966 207.307 211.806 207.468 211.695 207.662C211.585 207.856 211.528 208.077 211.53 208.3C211.545 208.75 211.677 209.188 211.915 209.57C212.66 210.905 213.625 212.07 215.125 212.38" fill="#5C40CC"/>
<path d="M214.75 217.97C214.806 217.858 214.845 217.739 214.865 217.615C214.925 217.38 215.005 217.04 215.095 216.615C215.344 215.512 215.445 214.38 215.395 213.25C215.335 212.109 214.967 211.005 214.33 210.055C214.132 209.773 213.9 209.516 213.64 209.29C213.552 209.198 213.446 209.123 213.33 209.07C213.651 209.401 213.946 209.757 214.21 210.135C214.801 211.078 215.145 212.154 215.21 213.265C215.257 214.379 215.176 215.495 214.97 216.59C214.869 217.045 214.795 217.506 214.75 217.97Z" fill="#263238"/>
<path d="M221.115 203.92C220.995 204.088 220.891 204.267 220.805 204.455C220.615 204.81 220.35 205.32 220.03 205.955C219.39 207.225 218.53 209 217.64 210.98C216.75 212.96 215.98 214.775 215.45 216.1C215.18 216.76 214.95 217.295 214.835 217.67C214.752 217.859 214.685 218.055 214.635 218.255C214.743 218.079 214.834 217.894 214.905 217.7L215.58 216.155C216.145 214.845 216.93 213.045 217.825 211.065C218.72 209.085 219.555 207.305 220.16 206.015L220.875 204.485C220.969 204.303 221.049 204.114 221.115 203.92Z" fill="#263238"/>
<path d="M217.25 214.395C217.843 213.477 218.646 212.714 219.593 212.169C220.54 211.623 221.603 211.312 222.695 211.26C223.245 211.26 223.91 211.355 224.14 211.855C224.37 212.355 224.02 212.94 223.64 213.355C222.811 214.166 221.76 214.713 220.62 214.929C219.481 215.144 218.303 215.018 217.235 214.565" fill="#5C40CC"/>
<path d="M221.87 212.72C221.751 212.703 221.629 212.703 221.51 212.72C221.368 212.719 221.226 212.729 221.085 212.75C220.899 212.766 220.714 212.791 220.53 212.825C220.052 212.914 219.584 213.054 219.135 213.24C218.582 213.468 218.055 213.757 217.565 214.1C217.082 214.452 216.638 214.854 216.24 215.3C215.919 215.667 215.636 216.066 215.395 216.49C215.299 216.651 215.214 216.818 215.14 216.99C215.076 217.115 215.022 217.246 214.98 217.38C214.931 217.49 214.895 217.606 214.875 217.725C214.915 217.725 215.085 217.255 215.515 216.565C215.767 216.159 216.057 215.777 216.38 215.425C217.168 214.564 218.131 213.882 219.205 213.425C219.642 213.235 220.096 213.086 220.56 212.98C221.355 212.765 221.87 212.76 221.87 212.72Z" fill="#263238"/>
<path d="M178.775 223.61C178.679 223.618 178.581 223.618 178.485 223.61L177.65 223.635L174.545 223.675L164.045 223.715L164.145 223.67L162.305 225.91L154.355 235.53L151.92 238.425L151.25 239.205C151.176 239.3 151.093 239.388 151 239.465C151.062 239.361 151.132 239.262 151.21 239.17L151.845 238.36L154.21 235.415L162.105 225.745C162.735 224.98 163.355 224.245 163.945 223.505L163.985 223.46H164.045L174.545 223.505L177.65 223.545H178.485C178.584 223.556 178.681 223.577 178.775 223.61Z" fill="#263238"/>
<path d="M125.765 201.5L94.69 200.48L86.08 211.63L72.44 217.7L65.035 233.415L73.655 223.41L90.245 220.63L102.06 208.315L125.765 201.5Z" fill="#F5F5F5"/>
<path d="M9.23999 246.435C9.23999 246.435 9.38499 246.23 9.68499 245.835L11.015 244.085L16.17 237.335C20.67 231.46 27.215 222.925 35.385 212.275V212.245H35.42L48.745 210.285L48.675 210.33C50.6 206.83 52.675 203.115 54.805 199.235H54.835L77.835 186.53L107.5 160.67H107.525H107.56L122.59 157.76L122.515 157.805L130.175 148.27L137.425 139.27L137.475 139.21H137.555L153.92 142.85H153.96L153.985 142.88L200.89 192.38C206.09 202.12 210.715 210.77 214.69 218.21L234.19 236.71L239.37 241.635L240.7 242.91C241 243.195 241.145 243.345 241.145 243.345L240.685 242.925L239.34 241.67L234.13 236.77L214.55 218.32L200.71 192.505L153.775 143.055L153.84 143.095L137.5 139.435L137.63 139.39L130.38 148.39L122.7 157.935L122.67 157.975H122.625L107.59 160.88L107.65 160.85L78.025 186.67L54.99 199.35L55.035 199.31L48.885 210.4V210.44H48.835L35.505 212.385L35.56 212.35C27.37 222.985 20.805 231.5 16.285 237.35L11.055 244.115L9.70499 245.85C9.39999 246.24 9.23999 246.435 9.23999 246.435Z" fill="#263238"/>
<path d="M128.555 201.115L128.43 201.16L128.05 201.275L126.585 201.695L121.085 203.23L102.085 208.435L102.145 208.405C99.805 210.84 97.275 213.48 94.645 216.21L90.32 220.71L90.29 220.74H90.25L73.675 223.5L73.735 223.465L66.465 231.83L64.465 234.125L63.93 234.72C63.81 234.85 63.74 234.915 63.74 234.915C63.74 234.915 63.795 234.84 63.91 234.7C64.025 234.56 64.2 234.345 64.41 234.085C64.87 233.535 65.535 232.755 66.38 231.755L73.585 223.33L73.61 223.3H73.645L90.225 220.5L90.155 220.535C91.56 219.07 93.005 217.565 94.475 216.035L101.975 208.235H102H102.03L121.03 203.115L126.53 201.655L128.03 201.275L128.41 201.18L128.555 201.115Z" fill="#263238"/>
<path d="M166.09 190.5C166.09 190.57 159.33 190.63 150.99 190.63C142.65 190.63 135.885 190.57 135.885 190.5C135.885 190.43 142.645 190.37 150.99 190.37C159.335 190.37 166.09 190.445 166.09 190.5Z" fill="#263238"/>
<path d="M168.61 110C168.61 110 168.575 107.155 168.455 107.135L162.61 108.435C162.55 108.805 161.815 113.47 161.94 113.935L168.5 115.75C168.5 115.75 168.61 110.165 168.61 110Z" fill="#FFBE9D"/>
<path d="M168.615 115.315C168.615 115.315 168.615 115.265 168.645 115.19C168.715 114.55 168.645 111.77 168.335 111.655C168.025 111.54 167.005 111.735 166.935 112.105C166.865 112.475 167.095 115.605 167.095 115.605C167.095 115.605 167.16 116.105 167.99 116.215C168.5 116.285 168.615 115.315 168.615 115.315Z" fill="#FFBE9D"/>
<path d="M166.95 116.315C166.95 116.315 166.95 116.265 166.98 116.19C167.045 115.55 167.005 112.77 166.665 112.655C166.325 112.54 165.335 112.735 165.27 113.105C165.205 113.475 165.425 116.605 165.425 116.605C165.425 116.605 165.495 117.105 166.325 117.215C166.835 117.285 166.95 116.315 166.95 116.315Z" fill="#FFBE9D"/>
<path d="M165.32 116.815C165.32 116.815 165.32 116.765 165.345 116.685C165.415 116.05 165.375 113.27 165.035 113.15C164.695 113.03 163.705 113.235 163.64 113.6C163.575 113.965 163.795 117.1 163.795 117.1C163.795 117.1 163.865 117.6 164.69 117.715C165.205 117.785 165.32 116.815 165.32 116.815Z" fill="#FFBE9D"/>
<path d="M163.695 117.285C163.695 117.285 163.695 117.235 163.725 117.155C163.79 116.52 163.75 113.74 163.41 113.62C163.07 113.5 162.08 113.705 162.015 114.07C161.95 114.435 162.175 117.57 162.175 117.57C162.175 117.57 162.24 118.07 163.07 118.185C163.58 118.25 163.695 117.285 163.695 117.285Z" fill="#FFBE9D"/>
<path d="M166.925 112.915C167.022 113.36 167.066 113.815 167.055 114.27C167.1 114.717 167.085 115.167 167.01 115.61C166.913 115.165 166.869 114.71 166.88 114.255C166.834 113.808 166.849 113.357 166.925 112.915Z" fill="#EB996E"/>
<path d="M165.285 112.905C165.447 114.183 165.492 115.474 165.42 116.76C165.314 116.124 165.262 115.48 165.265 114.835C165.214 114.192 165.221 113.546 165.285 112.905Z" fill="#EB996E"/>
<g opacity="0.78">
<path opacity="0.78" d="M163.62 113.045C163.782 114.323 163.827 115.613 163.755 116.9C163.649 116.264 163.597 115.62 163.6 114.975C163.549 114.332 163.555 113.686 163.62 113.045Z" fill="#EB996E"/>
</g>
<path d="M162.575 108.59C162.575 108.59 160.26 113.845 160.6 114.17C161.036 114.495 161.506 114.773 162 115L162.575 108.59Z" fill="#FFBE9D"/>
<path d="M149.78 38.0899L148.085 57.7449L138.24 56.9599C138.18 55.8099 138.24 51.3649 138.24 51.3649C138.24 51.3649 134.145 50.7249 134.095 46.6299C134.07 44.6299 134.355 40.5299 134.655 36.8249C134.814 34.8496 135.74 33.0151 137.236 31.7149C138.731 30.4147 140.677 29.7524 142.655 29.8699C143.668 29.9264 144.659 30.1858 145.57 30.6327C146.481 31.0796 147.293 31.705 147.958 32.4717C148.622 33.2384 149.126 34.1308 149.439 35.0959C149.752 36.061 149.868 37.0791 149.78 38.0899Z" fill="#FFBE9D"/>
<path d="M138.255 51.3049C140.145 51.3473 142.004 50.825 143.595 49.8049C143.595 49.8049 142.335 52.7549 138.245 52.3849L138.255 51.3049Z" fill="#EB996E"/>
<path d="M136.26 39.695C136.26 39.8477 136.318 39.9947 136.424 40.1055C136.529 40.2162 136.672 40.2823 136.825 40.29C136.975 40.2996 137.124 40.2492 137.237 40.1499C137.35 40.0506 137.42 39.9104 137.43 39.76C137.431 39.6074 137.373 39.4603 137.268 39.35C137.162 39.2398 137.018 39.1752 136.865 39.17C136.791 39.1639 136.716 39.1727 136.645 39.1959C136.574 39.2191 136.508 39.2562 136.452 39.3051C136.396 39.354 136.35 39.4137 136.317 39.4807C136.284 39.5476 136.264 39.6205 136.26 39.695Z" fill="#263238"/>
<path d="M135.55 38.89C135.62 38.97 136.05 38.64 136.695 38.64C137.34 38.64 137.785 38.96 137.855 38.88C137.925 38.8 137.815 38.71 137.61 38.565C137.342 38.3747 137.021 38.2725 136.692 38.2725C136.364 38.2725 136.043 38.3747 135.775 38.565C135.58 38.72 135.5 38.855 135.55 38.89Z" fill="#263238"/>
<path d="M142.305 39.7C142.305 39.8522 142.364 39.9986 142.469 40.1086C142.574 40.2185 142.718 40.2835 142.87 40.29C142.944 40.2954 143.019 40.2859 143.09 40.2621C143.16 40.2382 143.226 40.2005 143.281 40.1511C143.337 40.1018 143.383 40.0417 143.415 39.9746C143.448 39.9074 143.466 39.8344 143.47 39.76C143.473 39.6078 143.416 39.4607 143.311 39.3503C143.206 39.24 143.062 39.1752 142.91 39.17C142.835 39.1638 142.76 39.1728 142.689 39.1963C142.618 39.2198 142.552 39.2574 142.495 39.3069C142.439 39.3563 142.393 39.4166 142.36 39.4841C142.328 39.5516 142.309 39.625 142.305 39.7Z" fill="#263238"/>
<path d="M141.735 39C141.81 39.075 142.235 38.745 142.88 38.75C143.525 38.755 143.97 39.065 144.04 38.99C144.11 38.915 144 38.815 143.8 38.67C143.526 38.4825 143.202 38.3831 142.87 38.385C142.543 38.3814 142.223 38.485 141.96 38.68C141.765 38.835 141.7 39 141.735 39Z" fill="#263238"/>
<path d="M139.45 43.6749C139.125 43.5744 138.789 43.5123 138.45 43.4899C138.29 43.4899 138.135 43.4449 138.11 43.3349C138.091 43.1613 138.127 42.986 138.215 42.8349C138.37 42.4449 138.525 42.0349 138.715 41.6099C139.155 40.5734 139.511 39.5033 139.78 38.4099C139.255 39.4072 138.812 40.4457 138.455 41.5149C138.3 41.9449 138.145 42.3549 138 42.7449C137.899 42.9388 137.871 43.1621 137.92 43.3749C137.942 43.4324 137.978 43.4838 138.024 43.5247C138.07 43.5656 138.125 43.5948 138.185 43.6099C138.273 43.6365 138.364 43.6499 138.455 43.6499C138.784 43.6996 139.119 43.708 139.45 43.6749Z" fill="#263238"/>
<path d="M141.305 44.11C141.2 44.11 141.2 44.79 140.615 45.275C140.03 45.76 139.305 45.685 139.3 45.775C139.295 45.865 139.46 45.905 139.77 45.915C140.171 45.9207 140.56 45.7843 140.87 45.53C141.167 45.289 141.358 44.9404 141.4 44.56C141.425 44.275 141.35 44.11 141.305 44.11Z" fill="#263238"/>
<path d="M141.575 36.54C141.635 36.715 142.265 36.63 143.005 36.72C143.745 36.81 144.34 37.01 144.435 36.86C144.53 36.71 144.375 36.625 144.135 36.46C143.816 36.2533 143.453 36.1248 143.075 36.085C142.697 36.0425 142.314 36.0869 141.955 36.215C141.685 36.325 141.545 36.46 141.575 36.54Z" fill="#263238"/>
<path d="M135.78 37.0699C135.89 37.2149 136.325 37.0699 136.845 37.0699C137.365 37.0699 137.81 37.1649 137.91 37.0149C138.01 36.8649 137.885 36.7999 137.695 36.6649C137.435 36.5031 137.133 36.4214 136.827 36.4303C136.521 36.4392 136.225 36.5382 135.975 36.7149C135.795 36.8549 135.73 36.9999 135.78 37.0699Z" fill="#263238"/>
<path d="M152.675 32.845C152.7 32.4625 152.583 32.0842 152.346 31.7832C152.108 31.4821 151.768 31.2797 151.39 31.215C151.552 30.8476 151.592 30.4383 151.505 30.0464C151.419 29.6545 151.21 29.3003 150.908 29.0352C150.607 28.7701 150.229 28.6078 149.829 28.5718C149.43 28.5358 149.029 28.628 148.685 28.835C148.569 28.3899 148.331 27.9862 147.997 27.67C147.663 27.3538 147.247 27.1378 146.796 27.0466C146.345 26.9553 145.878 26.9926 145.447 27.1541C145.016 27.3156 144.64 27.5949 144.36 27.96C144.072 27.618 143.7 27.3562 143.28 27.2C142.861 27.0438 142.409 26.9985 141.967 27.0684C141.525 27.1383 141.108 27.321 140.758 27.599C140.407 27.8769 140.134 28.2407 139.965 28.655C139.658 28.3952 139.299 28.2034 138.912 28.0921C138.525 27.9808 138.119 27.9526 137.721 28.0092C137.322 28.0659 136.94 28.2062 136.6 28.4209C136.259 28.6356 135.968 28.9198 135.745 29.255C135.296 29.0938 134.822 29.0175 134.345 29.03C134.038 29.0379 133.738 29.129 133.478 29.2936C133.219 29.4583 133.008 29.6903 132.87 29.965C132.781 30.2002 132.774 30.4585 132.85 30.6981C132.926 30.9378 133.081 31.1446 133.29 31.285C133.111 31.2273 132.922 31.2074 132.735 31.2265C132.548 31.2456 132.367 31.3033 132.203 31.396C132.039 31.4887 131.897 31.6143 131.784 31.7648C131.671 31.9154 131.591 32.0878 131.548 32.2709C131.506 32.4541 131.502 32.6441 131.536 32.829C131.571 33.0139 131.643 33.1896 131.749 33.3451C131.855 33.5005 131.992 33.6323 132.151 33.7321C132.311 33.832 132.489 33.8976 132.675 33.925C132.544 33.992 132.434 34.0946 132.359 34.2211C132.284 34.3477 132.246 34.4929 132.25 34.64C132.306 34.8842 132.423 35.11 132.591 35.2956C132.759 35.4812 132.973 35.6205 133.21 35.7C134.42 36.1377 135.749 36.1163 136.945 35.64C138.155 35.235 139.275 34.6 140.475 34.14C141.675 33.68 143.68 32.915 144.885 33.34C145.062 33.4034 145.23 33.4891 145.385 33.595C146.033 34.1111 146.458 34.8552 146.575 35.675C146.577 35.7016 146.577 35.7284 146.575 35.755C146.735 36.925 146.71 38.11 146.88 39.255C146.991 40.4378 147.497 41.5489 148.315 42.41C148.67 42.74 149.315 42.97 149.59 42.58C149.691 42.4204 149.742 42.2339 149.735 42.045C149.895 40.01 150.335 38.14 150.57 36.15C150.871 35.6474 151.245 35.1924 151.68 34.8C152.233 34.2873 152.586 33.5942 152.675 32.845Z" fill="#263238"/>
<path d="M140.465 30.7849C140.394 30.6125 140.375 30.4231 140.41 30.2399C140.454 29.7259 140.687 29.2465 141.065 28.8949C141.352 28.6364 141.703 28.4603 142.081 28.3855C142.46 28.3107 142.852 28.3398 143.215 28.4699C143.436 28.5424 143.639 28.6604 143.811 28.8163C143.983 28.9722 144.121 29.1625 144.215 29.3749C144.31 29.616 144.32 29.8821 144.245 30.1299C144.208 30.2625 144.141 30.3848 144.049 30.4872C143.957 30.5896 143.843 30.6692 143.715 30.7199C143.585 30.7713 143.445 30.79 143.306 30.7743C143.168 30.7586 143.035 30.709 142.92 30.6299C142.813 30.5446 142.73 30.4329 142.679 30.3058C142.628 30.1787 142.611 30.0405 142.63 29.9049C142.654 29.6545 142.772 29.4223 142.96 29.2549C143.133 29.1016 143.338 28.9888 143.56 28.9249C143.926 28.8132 144.313 28.7871 144.691 28.8486C145.069 28.9102 145.428 29.0577 145.74 29.2799C145.983 29.4552 146.167 29.6989 146.27 29.9799C146.342 30.1925 146.355 30.4209 146.305 30.6399C146.21 30.9999 146.005 31.1099 146.005 31.0999C146.104 30.948 146.172 30.7781 146.205 30.5999C146.234 30.4005 146.21 30.1971 146.135 30.0099C146.028 29.7668 145.855 29.5589 145.635 29.4099C145.343 29.2182 145.012 29.0936 144.666 29.0452C144.321 28.9968 143.968 29.0257 143.635 29.1299C143.448 29.1743 143.278 29.2714 143.145 29.4097C143.012 29.548 142.922 29.7217 142.885 29.9099C142.871 30.0031 142.881 30.0983 142.915 30.1861C142.95 30.2739 143.006 30.3511 143.08 30.4099C143.159 30.4633 143.251 30.4962 143.346 30.5058C143.441 30.5154 143.537 30.5014 143.625 30.4649C143.802 30.3764 143.938 30.2232 144.005 30.037C144.072 29.8508 144.065 29.6459 143.985 29.4649C143.903 29.2841 143.785 29.122 143.638 28.9887C143.491 28.8554 143.318 28.7537 143.13 28.6899C142.804 28.5719 142.453 28.5407 142.111 28.5994C141.769 28.6581 141.448 28.8048 141.18 29.0249C140.821 29.3441 140.581 29.7762 140.5 30.2499C140.455 30.5899 140.5 30.7849 140.465 30.7849Z" fill="#455A64"/>
<path d="M145.44 28.1699C145.558 28.1248 145.683 28.1011 145.81 28.0999C146.153 28.0669 146.499 28.077 146.84 28.1299C147.365 28.2038 147.85 28.45 148.22 28.8299C148.455 29.0725 148.603 29.3856 148.642 29.721C148.681 30.0563 148.608 30.3951 148.435 30.6849C148.374 30.7798 148.3 30.8657 148.215 30.9399L148.08 30.7199C148.241 30.6625 148.414 30.6443 148.583 30.6669C148.753 30.6895 148.915 30.7522 149.055 30.8499C149.319 31.0172 149.507 31.2809 149.58 31.5849C149.63 31.8308 149.628 32.0845 149.573 32.3294C149.518 32.5742 149.411 32.8045 149.26 33.0049C149.068 33.2634 148.831 33.4853 148.56 33.6599C148.37 33.7849 148.26 33.8349 148.25 33.8199C148.24 33.8049 148.335 33.7299 148.5 33.5849C148.736 33.388 148.943 33.1592 149.115 32.9049C149.237 32.7217 149.321 32.5156 149.362 32.299C149.402 32.0824 149.398 31.8599 149.35 31.6449C149.288 31.4014 149.134 31.1915 148.92 31.0599C148.812 30.9865 148.689 30.9393 148.559 30.922C148.43 30.9046 148.298 30.9176 148.175 30.9599L147.505 31.2299L148.045 30.7299C148.112 30.6713 148.171 30.6041 148.22 30.5299C148.371 30.283 148.429 29.9908 148.385 29.7049C148.345 29.4341 148.225 29.1815 148.04 28.9799C147.709 28.6298 147.278 28.392 146.805 28.2999C146 28.1499 145.44 28.2249 145.44 28.1699Z" fill="#455A64"/>
<path d="M151.37 32.5C151.4 32.5 151.475 32.64 151.475 32.89C151.47 33.2271 151.344 33.5512 151.118 33.8021C150.893 34.0531 150.585 34.2139 150.25 34.255C150 34.255 149.85 34.225 149.855 34.19C150.252 34.0936 150.619 33.9013 150.925 33.63C151.165 33.2964 151.318 32.9079 151.37 32.5Z" fill="#455A64"/>
<path d="M133.875 30.3699C133.978 30.2376 134.11 30.13 134.26 30.0549C134.762 29.7766 135.34 29.6672 135.909 29.7428C136.478 29.8184 137.008 30.0751 137.42 30.4749C137.576 30.6193 137.701 30.794 137.787 30.9883C137.873 31.1826 137.918 31.3925 137.92 31.6049C137.906 31.8525 137.795 32.0847 137.612 32.2519C137.429 32.4192 137.188 32.5082 136.94 32.4999C136.812 32.4851 136.689 32.436 136.586 32.3577C136.484 32.2794 136.404 32.1748 136.355 32.0549C136.26 31.8391 136.244 31.5964 136.31 31.3699C136.374 31.1631 136.488 30.9753 136.643 30.8235C136.797 30.6717 136.987 30.5605 137.195 30.4999C137.553 30.3745 137.942 30.3745 138.3 30.4999C138.601 30.6105 138.876 30.7805 139.11 30.9999C139.439 31.312 139.712 31.6771 139.92 32.0799C140.008 32.2189 140.074 32.3707 140.115 32.5299C140.008 32.4056 139.913 32.2717 139.83 32.1299C139.601 31.7569 139.318 31.4199 138.99 31.1299C138.765 30.9176 138.489 30.767 138.188 30.6925C137.888 30.6181 137.573 30.6223 137.275 30.7049C137.108 30.7557 136.955 30.8458 136.83 30.9675C136.705 31.0893 136.61 31.2393 136.555 31.4049C136.46 31.7349 136.615 32.1849 136.965 32.2099C137.14 32.2066 137.307 32.1381 137.434 32.0178C137.56 31.8976 137.638 31.7342 137.65 31.5599C137.649 31.3834 137.612 31.209 137.543 31.0467C137.473 30.8845 137.372 30.7377 137.245 30.6149C136.797 30.1648 136.195 29.902 135.56 29.8799C135.129 29.8597 134.699 29.942 134.305 30.1199C134.167 30.2117 134.023 30.2951 133.875 30.3699Z" fill="#455A64"/>
<path d="M148.4 39.94C148.47 39.91 151.215 39.11 151.125 41.91C151.035 44.71 148.245 44.04 148.24 43.96C148.235 43.88 148.4 39.94 148.4 39.94Z" fill="#FFBE9D"/>
<path d="M149.13 42.9299C149.13 42.9299 149.18 42.9649 149.26 43.0049C149.377 43.0509 149.508 43.0509 149.625 43.0049C149.809 42.8954 149.96 42.7391 150.064 42.5521C150.167 42.365 150.22 42.1538 150.215 41.9399C150.229 41.6998 150.191 41.4594 150.105 41.2349C150.081 41.1472 150.036 41.0666 149.974 40.9997C149.912 40.9327 149.835 40.8814 149.75 40.8499C149.694 40.8319 149.633 40.8346 149.579 40.8575C149.525 40.8805 149.481 40.9222 149.455 40.9749C149.415 41.0499 149.43 41.1049 149.415 41.1099C149.4 41.1149 149.36 41.0649 149.385 40.9499C149.403 40.8805 149.443 40.819 149.5 40.7749C149.579 40.7213 149.676 40.6998 149.77 40.7149C149.885 40.7411 149.991 40.7961 150.079 40.8749C150.166 40.9536 150.232 41.0535 150.27 41.1649C150.379 41.4115 150.427 41.6808 150.41 41.9499C150.416 42.1995 150.349 42.4454 150.215 42.6564C150.082 42.8674 149.888 43.034 149.66 43.1349C149.585 43.1538 149.507 43.1559 149.431 43.1412C149.355 43.1265 149.283 43.0954 149.22 43.0499C149.135 42.9999 149.12 42.9349 149.13 42.9299Z" fill="#EB996E"/>
<path d="M131.035 176.04L132.855 184.42C132.855 184.42 124.95 189.08 125.135 190.66L141.5 187.72L139.2 174.55L131.035 176.04Z" fill="#263238"/>
<path d="M141.5 187.72L141.215 186.4L125.625 189.715C125.625 189.715 124.955 190.165 125.125 190.66L141.5 187.72Z" fill="#455A64"/>
<path d="M149.655 176.96L149.925 185.53C149.925 185.53 141.305 188.685 141.2 190.27L157.835 190.345L157.96 176.975L149.655 176.96Z" fill="#263238"/>
<g opacity="0.6">
<path opacity="0.6" d="M157.835 190.345L157.795 188.995L141.86 189.43C141.86 189.43 141.12 189.75 141.2 190.27L157.835 190.345Z" fill="#455A64"/>
</g>
<path d="M130.135 183.225C130.135 183.225 121.635 141.4 121.605 140.56L136.835 132.5L142.735 181.585L130.135 183.225Z" fill="#263238"/>
<path d="M149.32 184.63L137.54 112.13V96.5L153.63 98C153.835 98.61 159.1 184.735 159.1 184.735L157.44 184.64H149.32" fill="#263238"/>
<path d="M128.28 95.39L121.605 140.56L136.53 136.94L142.615 96.86L128.28 95.39Z" fill="#263238"/>
<path d="M142.09 99.22C142.09 99.22 142.09 99.295 142.09 99.44L142.16 100.09C142.225 100.665 142.32 101.505 142.445 102.59C142.7 104.75 143.085 107.875 143.585 111.735C144.585 119.45 146.085 130.09 147.715 141.85C148.525 147.735 149.27 153.35 149.905 158.445C150.07 159.72 150.2 160.97 150.405 162.175C150.61 163.38 150.77 164.55 150.94 165.675C151.285 167.935 151.605 170.045 151.895 171.965C152.475 175.815 152.93 178.93 153.23 181.085C153.38 182.16 153.49 182.995 153.555 183.585C153.59 183.87 153.61 184.085 153.62 184.235C153.625 184.29 153.625 184.345 153.62 184.4C153.62 184.445 153.595 184.4 153.595 184.4C153.595 184.4 153.63 184.4 153.625 184.4C153.631 184.343 153.631 184.286 153.625 184.23C153.625 184.085 153.625 183.865 153.58 183.58C153.53 183.01 153.43 182.17 153.295 181.08C153.02 178.925 152.585 175.805 152.025 171.955C151.74 170.03 151.43 167.92 151.095 165.66C150.925 164.53 150.748 163.363 150.565 162.16C150.39 160.955 150.265 159.705 150.1 158.43C149.48 153.325 148.74 147.715 147.93 141.835C146.305 130.075 144.77 119.435 143.74 111.725C143.24 107.875 142.82 104.755 142.535 102.59L142.21 100.09C142.175 99.81 142.145 99.59 142.125 99.445C142.105 99.3 142.09 99.22 142.09 99.22Z" fill="#455A64"/>
<path d="M133.11 182.84C133.11 182.84 133.11 182.765 133.085 182.625L133 182C132.905 181.445 132.77 180.635 132.59 179.595C132.225 177.5 131.695 174.48 131.04 170.755L125.85 141.595C125.697 140.901 125.654 140.187 125.725 139.48C125.815 138.78 125.93 138.075 126.035 137.38C126.252 135.99 126.463 134.62 126.67 133.27C127.095 130.575 127.51 127.98 127.925 125.51C128.745 120.565 129.54 116.125 130.25 112.4C130.96 108.675 131.58 105.675 132.055 103.61C132.28 102.575 132.485 101.775 132.61 101.235C132.67 100.97 132.715 100.735 132.75 100.615C132.785 100.495 132.795 100.405 132.795 100.405C132.795 100.405 132.77 100.47 132.73 100.61C132.69 100.75 132.64 100.96 132.57 101.225C132.43 101.765 132.215 102.56 131.98 103.59C131.48 105.655 130.835 108.655 130.105 112.375C129.375 116.095 128.57 120.535 127.74 125.475C127.32 127.95 126.9 130.545 126.47 133.24C126.26 134.585 126.05 135.96 125.83 137.35C125.73 138.05 125.615 138.74 125.52 139.46C125.451 140.187 125.495 140.921 125.65 141.635C127.7 153.01 129.555 163.315 130.9 170.78C131.58 174.5 132.13 177.515 132.51 179.61L132.96 182.01C133.015 182.275 133.055 182.485 133.085 182.63C133.115 182.775 133.11 182.84 133.11 182.84Z" fill="#455A64"/>
<path d="M137.54 111.62C137.485 111.62 138.18 116.315 139.095 122.08C140.01 127.845 140.795 132.5 140.85 132.5C140.905 132.5 140.21 127.805 139.295 122.04C138.38 116.275 137.595 111.61 137.54 111.62Z" fill="#455A64"/>
<path d="M149.175 184.5C149.301 184.535 149.43 184.557 149.56 184.565C149.81 184.595 150.175 184.63 150.62 184.665C151.515 184.735 152.755 184.8 154.12 184.825C155.485 184.85 156.73 184.825 157.62 184.78C158.07 184.78 158.435 184.74 158.685 184.715C158.815 184.716 158.945 184.698 159.07 184.66C158.588 184.62 158.103 184.611 157.62 184.635C156.72 184.635 155.485 184.635 154.12 184.635C152.755 184.635 151.515 184.565 150.62 184.535C150.14 184.49 149.657 184.479 149.175 184.5Z" fill="#455A64"/>
<path d="M130.135 183.225C130.302 183.236 130.47 183.227 130.635 183.2L131.99 183.06C133.135 182.925 134.71 182.735 136.45 182.505C138.19 182.275 139.76 182.065 140.895 181.9L142.245 181.695C142.415 181.681 142.583 181.647 142.745 181.595C142.579 181.577 142.411 181.577 142.245 181.595L140.89 181.735C139.745 181.865 138.17 182.06 136.43 182.285C134.69 182.51 133.12 182.725 131.98 182.895L130.635 183.1C130.464 183.124 130.297 183.166 130.135 183.225Z" fill="#455A64"/>
<path d="M54.5 25.21C54.5 25.21 61.11 22.63 65.625 23.92C70.14 25.21 71.5 28 74.885 27.775C77.575 27.585 79.48 26.42 80.45 23.56C81.42 20.7 81.42 17.13 90.605 17.47C97.635 17.73 98.345 18.76 98.345 18.76L99.1 37.465C95.1 36.835 91.05 36.38 86.685 36.995C85.619 37.2256 84.6515 37.7831 83.9175 38.5897C83.1834 39.3964 82.7194 40.412 82.59 41.495C82.09 45.495 77.975 47.045 75.515 47.045C72.015 47.045 70.215 44.665 67.23 43.975C62.545 42.89 54.5 46.17 54.5 46.17V25.21Z" fill="#5C40CC"/>
<path d="M101.96 64.3149L97.92 64.0299L98.025 70.3699L102.36 73.5349L102.8 73.3749L103.05 66.1649L101.96 64.3149Z" fill="#EB996E"/>
<path d="M79.755 39.625C79.685 39.625 79.565 36.525 79.49 32.7C79.415 28.875 79.415 25.77 79.49 25.77C79.565 25.77 79.68 28.865 79.755 32.695C79.83 36.525 79.825 39.62 79.755 39.625Z" fill="#263238"/>
<path d="M72.355 31.5C72.43 31.5 72.485 34.705 72.485 38.65C72.485 42.595 72.43 45.805 72.355 45.805C72.28 45.805 72.225 42.6 72.225 38.65C72.225 34.7 72.285 31.5 72.355 31.5Z" fill="#263238"/>
<g opacity="0.2">
<path opacity="0.2" d="M72.355 42.65C72.305 44.085 72.355 45.99 72.355 45.99C73.405 46.69 75.57 47.115 76.775 46.74H76.81C77.6067 46.4849 78.3243 46.0288 78.8935 45.4158C79.4628 44.8027 79.8645 44.0534 80.06 43.24C80.208 42.698 80.2721 42.1364 80.25 41.575C79.85 36.82 79.335 30.895 79.485 26.125C78.4892 26.9669 77.3015 27.551 76.0267 27.8256C74.7519 28.1003 73.4292 28.0571 72.175 27.7L72.355 42.65Z" fill="black"/>
</g>
<g opacity="0.6">
<path opacity="0.6" d="M71.695 28.3599C71.4789 28.2639 71.2729 28.1467 71.08 28.0099L69.445 27.0099C67.6804 25.8597 65.7248 25.0334 63.67 24.5699C61.5989 24.1892 59.4663 24.3162 57.455 24.9399C56.6302 25.2319 55.8208 25.5657 55.03 25.9399C55.2183 25.7957 55.4191 25.6685 55.63 25.5599C56.1973 25.2511 56.7893 24.9902 57.4 24.7799C59.4333 24.091 61.6096 23.936 63.72 24.3299C65.8057 24.7954 67.7829 25.6558 69.545 26.8649C70.23 27.3049 70.765 27.6849 71.135 27.9499C71.3343 28.0684 71.5219 28.2057 71.695 28.3599Z" fill="white"/>
</g>
<g opacity="0.6">
<path opacity="0.6" d="M87.94 18.8099C87.94 18.8549 87.44 18.8099 86.66 18.8899C85.6438 19.0092 84.6727 19.3773 83.8328 19.9617C82.9929 20.546 82.3101 21.3286 81.845 22.2399C81.485 22.9399 81.375 23.4249 81.345 23.4099C81.3735 22.9735 81.4927 22.5477 81.695 22.1599C82.1319 21.1883 82.8247 20.3536 83.6992 19.745C84.5737 19.1365 85.5971 18.777 86.66 18.7049C87.0894 18.6524 87.5249 18.6881 87.94 18.8099Z" fill="white"/>
</g>
<path d="M98.7 16.84L104.035 165.06L103.115 165.28L97.635 16.91L98.7 16.84Z" fill="#263238"/>
<path d="M108.565 72.705L106.565 65.51L99.455 60.51C99.455 60.51 98.625 61.01 99.895 62.885L101.49 65.085C101.49 65.085 101.44 67.95 102.805 69.63L102.365 73.51L108.565 72.705Z" fill="#FFBE9D"/>
<path d="M97.905 65.3399C98.6784 65.8423 99.3557 66.479 99.905 67.2199C100.011 67.4303 100.063 67.6642 100.055 67.8999C100.061 68.0012 100.037 68.1021 99.9876 68.1906C99.938 68.2791 99.8643 68.3517 99.775 68.3999C99.7004 68.43 99.6196 68.4416 99.5395 68.4338C99.4594 68.4259 99.3824 68.3989 99.315 68.3549C99.1764 68.2714 99.0516 68.1668 98.945 68.0449L97.575 66.6299C97.3433 66.4224 97.1781 66.151 97.1 65.8499C97.0981 65.7565 97.1204 65.6641 97.1645 65.5817C97.2087 65.4994 97.2733 65.4297 97.3521 65.3795C97.4309 65.3293 97.5214 65.3002 97.6147 65.295C97.708 65.2898 97.8011 65.3088 97.885 65.3499" fill="#FFBE9D"/>
<path d="M97.895 67.175C98.6662 67.6802 99.3431 68.3165 99.895 69.055C100 69.2657 100.052 69.4994 100.045 69.735C100.051 69.8363 100.027 69.9371 99.9776 70.0256C99.928 70.1142 99.8543 70.1868 99.765 70.235C99.6889 70.2621 99.6078 70.2721 99.5275 70.2643C99.4471 70.2565 99.3694 70.2311 99.3 70.19C99.1629 70.1063 99.0397 70.0017 98.935 69.88L97.58 68.5C97.3513 68.2908 97.1881 68.0199 97.11 67.72C97.1095 67.627 97.1326 67.5355 97.1771 67.4539C97.2216 67.3723 97.2861 67.3033 97.3645 67.2533C97.4429 67.2034 97.5327 67.1742 97.6254 67.1683C97.7182 67.1625 97.8109 67.1803 97.895 67.22" fill="#FFBE9D"/>
<path d="M98.19 69.175C98.9634 69.6774 99.6407 70.3141 100.19 71.055C100.299 71.2646 100.351 71.4991 100.34 71.735C100.345 71.8357 100.323 71.9359 100.274 72.0243C100.225 72.1127 100.153 72.1857 100.065 72.235C99.9892 72.2635 99.9079 72.2743 99.8273 72.2665C99.7467 72.2587 99.6689 72.2325 99.6 72.19C99.4623 72.1051 99.3377 72.0007 99.23 71.88L97.86 70.465C97.6316 70.2547 97.467 69.9844 97.385 69.685C97.3832 69.5916 97.4054 69.4992 97.4495 69.4168C97.4937 69.3344 97.5583 69.2648 97.6371 69.2146C97.7159 69.1644 97.8064 69.1353 97.8997 69.1301C97.993 69.1249 98.0861 69.1438 98.17 69.185" fill="#FFBE9D"/>
<path d="M98.23 64.075C98.5432 64.2166 98.8253 64.4188 99.06 64.67C99.1799 64.8036 99.2595 64.9684 99.2896 65.1454C99.3197 65.3224 99.299 65.5043 99.23 65.67C99.2015 65.7344 99.1572 65.7906 99.1013 65.8334C99.0454 65.8762 98.9796 65.9043 98.91 65.915C98.8118 65.9197 98.7144 65.8953 98.63 65.845C98.4355 65.7557 98.2525 65.6432 98.085 65.51C97.9198 65.3562 97.7676 65.1889 97.63 65.01C97.5352 64.9366 97.4699 64.8316 97.4461 64.7141C97.4222 64.5967 97.4413 64.4745 97.5 64.37C97.605 64.13 97.71 63.99 98.23 64.05" fill="#FFBE9D"/>
<path d="M108.15 69.11L118.945 78.805L115.435 86.545L103.05 73.33L108.15 69.11Z" fill="#FFBE9D"/>
<path d="M107.72 68.69L117.325 76C117.325 76 126.26 60.76 127.05 59.815C127.84 58.87 129.845 57.855 129.845 57.855L128.735 77.39C128.735 77.39 123.905 89.725 117.27 89.055C112.19 88.555 103.415 75.145 103.415 75.145L107.72 68.69Z" fill="#5C40CC"/>
<g opacity="0.2">
<path opacity="0.2" d="M117.145 75.76C116.487 76.7872 116.059 77.945 115.892 79.1535C115.724 80.362 115.821 81.5925 116.175 82.76C116.225 83.0075 116.363 83.2281 116.565 83.38C116.736 83.455 116.929 83.4638 117.107 83.4046C117.284 83.3455 117.433 83.2227 117.525 83.06C117.697 82.7263 117.783 82.3552 117.775 81.98C117.933 82.3413 118.175 82.66 118.48 82.91C118.638 83.0282 118.832 83.0887 119.03 83.0814C119.227 83.0742 119.416 82.9996 119.565 82.87C119.885 82.52 119.705 81.965 119.515 81.53C118.695 79.6767 117.877 77.8233 117.06 75.97" fill="black"/>
</g>
<path d="M110.135 70.875C109.477 72.1467 108.742 73.3773 107.935 74.56C107.201 75.7887 106.395 76.9725 105.52 78.105C106.176 76.832 106.911 75.6013 107.72 74.42C108.453 73.1909 109.26 72.0071 110.135 70.875Z" fill="#263238"/>
<path d="M107.69 70.6099C107.69 70.5849 107.79 70.4599 108.01 70.5399C108.074 70.5649 108.131 70.6054 108.175 70.6578C108.22 70.7101 108.251 70.7727 108.265 70.8399C108.277 70.9291 108.261 71.0197 108.22 71.0995C108.178 71.1793 108.114 71.2446 108.034 71.2866C107.955 71.3285 107.864 71.3451 107.775 71.3341C107.686 71.323 107.602 71.285 107.535 71.2249C107.488 71.1748 107.455 71.1138 107.437 71.0475C107.42 70.9812 107.419 70.9116 107.435 70.8449C107.49 70.6149 107.665 70.5849 107.67 70.6199C107.675 70.6549 107.61 70.7249 107.62 70.8649C107.63 71.0049 107.74 71.1449 107.91 71.0549C107.943 71.0389 107.97 71.014 107.99 70.983C108.009 70.9521 108.019 70.9164 108.019 70.8799C108.019 70.8435 108.009 70.8078 107.99 70.7769C107.97 70.7459 107.943 70.721 107.91 70.7049C107.815 70.6199 107.71 70.6399 107.69 70.6099Z" fill="#263238"/>
<path d="M117.335 80.62C116.779 79.1343 116.754 77.5019 117.265 76C117.34 76 117.135 77.04 117.16 78.315C117.185 79.59 117.41 80.6 117.335 80.62Z" fill="#263238"/>
<path d="M119.195 80.555C118.215 79.2069 117.548 77.6579 117.24 76.02C117.6 76.7615 117.922 77.5208 118.205 78.295C118.74 79.54 119.26 80.5 119.195 80.555Z" fill="#263238"/>
<path d="M149.94 56L148.5 53.115H138L136.35 56.375L129.85 57.845L127.055 99.685C127.041 100.209 127.169 100.727 127.425 101.185L152.925 102.185L153.96 102.61C154.875 102.045 154.305 99.715 154.315 98.61L154.645 77.89L159.69 61.33L149.94 56Z" fill="#5C40CC"/>
<g opacity="0.2">
<path opacity="0.2" d="M139.055 57.435L140.91 55.58L143 60.61C145.4 59.1999 147.683 57.6015 149.83 55.83L142.765 58.095C142.165 56.515 141.568 54.9316 140.975 53.345C140.553 54.7844 139.955 56.1665 139.195 57.46" fill="black"/>
</g>
<path d="M168.655 108.45L161.78 108.805V89.075L154.67 77.895L159.715 61.335C160.755 61.745 168.59 81.415 170.585 86.76C170.874 87.5289 171 88.3496 170.955 89.17L168.655 108.45Z" fill="#5C40CC"/>
<path d="M129.845 66.4999C129.92 66.4999 129.575 70.5549 129.085 75.5349C128.595 80.5149 128.135 84.5349 128.085 84.5349C128.035 84.5349 128.355 80.4799 128.845 75.4949C129.335 70.5099 129.775 66.4699 129.845 66.4999Z" fill="#263238"/>
<path d="M140.965 53.355C140.629 54.505 140.211 55.6295 139.715 56.72L139.575 57.06C139.528 57.1921 139.449 57.3106 139.345 57.405C139.281 57.4551 139.203 57.4848 139.122 57.4901C139.041 57.4955 138.96 57.4762 138.89 57.435C138.77 57.375 138.685 57.31 138.595 57.255L137.65 56.615C137.348 56.4353 137.069 56.2186 136.82 55.97C137.149 56.0996 137.461 56.2674 137.75 56.47L138.725 57.06C138.91 57.18 139.1 57.315 139.185 57.215C139.313 57.0372 139.411 56.8396 139.475 56.63C139.89 55.503 140.388 54.4083 140.965 53.355Z" fill="#263238"/>
<path d="M149.315 55.92C148.798 56.1772 148.261 56.3929 147.71 56.565C146.71 56.935 145.32 57.425 143.78 57.95L142.94 58.235L142.825 58.275L142.78 58.165C142.24 56.855 141.78 55.695 141.445 54.855C141.248 54.4161 141.089 53.9611 140.97 53.495C141.214 53.9098 141.427 54.3427 141.605 54.79C141.97 55.61 142.465 56.76 143.02 58.065L142.855 57.995L143.695 57.705C145.235 57.205 146.635 56.705 147.65 56.39C148.193 56.1923 148.749 56.0352 149.315 55.92Z" fill="#263238"/>
<path d="M158.62 61.9299C158.62 62.0049 157.165 62.4299 155.45 63.1699C153.735 63.9099 152.45 64.7599 152.4 64.6699C152.634 64.427 152.904 64.2213 153.2 64.0599C154.572 63.1887 156.064 62.5249 157.63 62.0899C157.95 61.9857 158.284 61.9317 158.62 61.9299Z" fill="#263238"/>
<path d="M140.965 53.355C140.971 53.3964 140.971 53.4385 140.965 53.48C140.965 53.58 140.965 53.7 140.965 53.85C140.965 54.175 140.995 54.65 141 55.265C141 56.49 141 58.265 140.92 60.46C140.765 64.85 140.215 70.9 139.34 77.535C138.915 80.86 138.445 84.035 138.13 86.895C137.829 89.4436 137.688 92.0087 137.71 94.575C137.731 96.3039 137.868 98.0294 138.12 99.74C138.195 100.35 138.29 100.815 138.34 101.135C138.34 101.28 138.38 101.4 138.395 101.5C138.401 101.541 138.401 101.584 138.395 101.625C138.378 101.587 138.367 101.546 138.36 101.505C138.335 101.405 138.31 101.29 138.275 101.145C138.215 100.83 138.1 100.365 138.01 99.755C137.715 98.0431 137.548 96.3116 137.51 94.575C137.458 92.0015 137.578 89.4274 137.87 86.87C138.175 83.98 138.635 80.825 139.06 77.505C139.935 70.87 140.51 64.835 140.715 60.455C140.825 58.265 140.86 56.49 140.88 55.265C140.88 54.665 140.88 54.195 140.88 53.85C140.88 53.7 140.88 53.58 140.88 53.485C140.901 53.437 140.929 53.3931 140.965 53.355Z" fill="#263238"/>
<path d="M169.03 105.43C167.815 105.499 166.597 105.482 165.385 105.38C164.169 105.365 162.956 105.263 161.755 105.075C162.968 105.002 164.184 105.017 165.395 105.12C166.612 105.139 167.827 105.242 169.03 105.43Z" fill="#263238"/>
<path d="M162.93 106.2C162.93 106.2 162.93 106.295 162.93 106.385C162.93 106.475 163.04 106.53 163.13 106.455C163.22 106.38 163.19 106.305 163.105 106.245C163.02 106.185 162.95 106.21 162.925 106.185C162.9 106.16 162.97 106.04 163.16 106.07C163.215 106.078 163.267 106.101 163.31 106.135C163.354 106.169 163.388 106.214 163.41 106.265C163.434 106.335 163.435 106.41 163.415 106.481C163.394 106.551 163.353 106.614 163.296 106.66C163.238 106.707 163.168 106.734 163.095 106.74C163.022 106.745 162.948 106.728 162.885 106.69C162.84 106.656 162.804 106.612 162.78 106.562C162.755 106.512 162.743 106.456 162.745 106.4C162.78 106.21 162.915 106.165 162.93 106.2Z" fill="#263238"/>
<g opacity="0.2">
<path opacity="0.2" d="M154.755 77.8399C154.005 76.4899 153.258 75.1399 152.515 73.7899C151.63 80.935 152.14 88.1838 154.015 95.1349C154.248 89.3983 154.48 83.6632 154.71 77.9299" fill="black"/>
</g>
<g opacity="0.2">
<path opacity="0.2" d="M123.46 65.62C124.135 66.5827 125.109 67.2963 126.231 67.6506C127.352 68.0048 128.559 67.98 129.665 67.58C129.828 67.8303 130.05 68.0368 130.312 68.1815C130.573 68.3262 130.866 68.4046 131.165 68.41C131.757 68.4184 132.344 68.3043 132.89 68.075C134.985 67.2775 136.847 65.9693 138.308 64.2692C139.769 62.5691 140.782 60.531 141.255 58.34C138.02 59.475 135.84 62.61 132.665 63.91C131.416 64.4315 130.057 64.632 128.711 64.4932C127.365 64.3543 126.076 63.8805 124.96 63.115L123.46 65.62Z" fill="black"/>
</g>
<path d="M143.375 70.4049C143.509 70.3809 143.644 70.3709 143.78 70.3749L144.975 70.3449C146.015 70.3449 147.51 70.2999 149.315 70.2899H149.435V70.4099C149.315 71.9899 149.185 73.8199 149.04 75.7699V75.8399L148.975 75.8749L148.71 76.0149L145.805 77.5449L145.73 77.5799L145.665 77.5299L142.97 75.3249L142.93 75.2899V75.2349C143.06 73.7849 143.165 72.5799 143.24 71.6849C143.28 71.2999 143.31 70.9799 143.34 70.7249C143.343 70.6169 143.358 70.5096 143.385 70.4049C143.395 70.5264 143.395 70.6484 143.385 70.7699C143.385 71.0299 143.355 71.3599 143.34 71.7699C143.29 72.6499 143.225 73.8399 143.145 75.2699L143.105 75.1799L145.825 77.3549H145.69L148.585 75.8199L148.855 75.6799L148.785 75.7849L149.21 70.4299L149.325 70.5499C147.57 70.5499 146.1 70.5149 145.055 70.4949L143.835 70.4649C143.681 70.4551 143.527 70.4351 143.375 70.4049Z" fill="#263238"/>
<path d="M149.155 72.805C147.174 72.9417 145.185 72.9049 143.21 72.695C144.198 72.5819 145.193 72.5568 146.185 72.62C147.178 72.5957 148.172 72.6576 149.155 72.805Z" fill="#FAFAFA"/>
<path d="M149.11 73.835C148.114 73.9495 147.11 73.9746 146.11 73.91C145.115 73.9368 144.119 73.8749 143.135 73.725C144.131 73.6139 145.135 73.5888 146.135 73.65C147.13 73.626 148.126 73.6879 149.11 73.835Z" fill="#FAFAFA"/>
<path d="M130.76 101.41C130.76 101.48 130.225 101.41 129.88 100.865C129.535 100.32 129.64 99.82 129.71 99.865C129.78 99.91 129.8 100.315 130.095 100.74C130.39 101.165 130.785 101.34 130.76 101.41Z" fill="#263238"/>
<path d="M131.425 101.13C131.038 100.847 130.779 100.423 130.705 99.9499C130.625 99.7257 130.59 99.4877 130.603 99.2499C130.616 99.0121 130.676 98.7792 130.78 98.5649C130.855 98.5649 130.78 99.1799 130.96 99.8849C131.14 100.59 131.5 101.085 131.425 101.13Z" fill="#263238"/>
<path d="M150.68 98.255C150.729 98.9793 150.593 99.7043 150.284 100.361C149.975 101.018 149.504 101.586 148.915 102.01C149.336 101.452 149.715 100.864 150.05 100.25C150.309 99.6013 150.519 98.9345 150.68 98.255Z" fill="#263238"/>
<path d="M140.195 55.49H141.575L142.165 56.515L141.585 58.115L140.21 57.96L139.67 56.805L140.195 55.49Z" fill="#455A64"/>
<path d="M140.21 57.96C140.21 57.96 131.91 63.305 127.67 61.17C123.43 59.035 118.17 56.42 113.435 57.045C110.665 57.383 107.982 58.2306 105.52 59.545L104.02 63.15L107.855 64.53C107.855 64.53 113.445 61.83 117.51 62.555C120.35 63.055 125.805 65.955 129.48 65.68C133.155 65.405 138.23 62.79 141.57 58.095L140.21 57.96Z" fill="#455A64"/>
<path d="M141.215 58.555C141.022 58.505 140.84 58.4221 140.675 58.31C140.491 58.2252 140.322 58.1103 140.175 57.97C140.37 58.0199 140.555 58.1046 140.72 58.22C140.903 58.3016 141.071 58.415 141.215 58.555Z" fill="#263238"/>
<path d="M142.035 56.335C141.753 56.6391 141.445 56.9184 141.115 57.17C140.804 57.4495 140.469 57.7021 140.115 57.925C140.397 57.6209 140.705 57.3415 141.035 57.09C141.346 56.8104 141.681 56.5578 142.035 56.335Z" fill="#263238"/>
<path d="M141.45 56.86C140.905 56.5125 140.454 56.037 140.135 55.475C140.16 55.475 140.42 55.795 140.78 56.175C141.14 56.555 141.465 56.835 141.45 56.86Z" fill="#263238"/>
<path d="M134.595 64.0899C134.516 63.9548 134.454 63.8104 134.41 63.66C134.305 63.39 134.17 63.0149 134.03 62.5999C133.89 62.1849 133.765 61.8049 133.68 61.5299C133.629 61.3818 133.59 61.2296 133.565 61.075C133.643 61.2107 133.705 61.355 133.75 61.505C133.855 61.775 133.99 62.1499 134.13 62.5649C134.27 62.9799 134.395 63.3599 134.475 63.6349C134.529 63.7826 134.569 63.9349 134.595 64.0899Z" fill="#FAFAFA"/>
<path d="M136.67 62.845C136.387 62.4838 136.133 62.1009 135.91 61.7C135.658 61.3167 135.434 60.9157 135.24 60.5C135.776 61.2439 136.254 62.0279 136.67 62.845Z" fill="#FAFAFA"/>
<path d="M138.55 61.385C138.242 61.1583 137.958 60.9021 137.7 60.62C137.417 60.3639 137.159 60.0809 136.93 59.775C137.515 60.2639 138.058 60.8026 138.55 61.385Z" fill="#FAFAFA"/>
<path d="M140.105 59.855C139.874 59.7243 139.659 59.5665 139.465 59.385C139.252 59.2258 139.059 59.0411 138.89 58.835C139.125 58.96 139.34 59.1183 139.53 59.305C139.747 59.4593 139.941 59.6446 140.105 59.855Z" fill="#FAFAFA"/>
<path d="M131.64 65.375C131.558 64.7748 131.51 64.1705 131.495 63.565C131.444 62.9614 131.429 62.3554 131.45 61.75C131.535 62.3499 131.585 62.9543 131.6 63.56C131.648 64.1637 131.662 64.7697 131.64 65.375Z" fill="#FAFAFA"/>
<path d="M128.795 65.82C128.795 65.82 128.87 64.89 129.025 63.75C129.18 62.61 129.33 61.685 129.355 61.69C129.317 62.3835 129.242 63.0744 129.13 63.76C129.055 64.4521 128.943 65.1397 128.795 65.82Z" fill="#FAFAFA"/>
<path d="M127.115 60.845C127.14 60.845 126.875 61.845 126.515 63.075C126.155 64.305 125.85 65.28 125.82 65.275C125.79 65.27 126.06 64.275 126.415 63.045C126.77 61.815 127.085 60.84 127.115 60.845Z" fill="#FAFAFA"/>
<path d="M125.18 59.935C125.21 59.935 124.89 60.97 124.475 62.22C124.06 63.47 123.695 64.485 123.665 64.475C123.635 64.465 123.955 63.445 124.375 62.19C124.795 60.935 125.155 59.925 125.18 59.935Z" fill="#FAFAFA"/>
<path d="M122.385 58.625C122.385 58.625 122.13 59.745 121.76 61.125C121.39 62.505 121.065 63.585 121.04 63.58C121.015 63.575 121.29 62.46 121.66 61.08C122.03 59.7 122.355 58.62 122.385 58.625Z" fill="#FAFAFA"/>
<path d="M119.39 57.81C119.42 57.81 119.2 58.915 118.89 60.265C118.58 61.615 118.33 62.705 118.3 62.695C118.27 62.685 118.49 61.59 118.8 60.245C119.11 58.9 119.365 57.805 119.39 57.81Z" fill="#FAFAFA"/>
<path d="M116.37 57.2899C116.4 57.2899 116.435 58.4549 116.445 59.8949C116.455 61.3349 116.445 62.5099 116.415 62.5099C116.385 62.5099 116.355 61.3399 116.345 59.8999C116.335 58.4599 116.345 57.2899 116.37 57.2899Z" fill="#FAFAFA"/>
<path d="M113.945 62.61C113.92 62.5415 113.9 62.4713 113.885 62.4C113.845 62.205 113.805 62.01 113.76 61.81C113.66 61.31 113.54 60.625 113.43 59.86C113.32 59.095 113.235 58.4 113.19 57.895C113.19 57.695 113.155 57.5 113.14 57.3C113.127 57.2272 113.127 57.1527 113.14 57.08C113.16 57.1502 113.174 57.2222 113.18 57.295C113.18 57.49 113.235 57.69 113.26 57.89C113.35 58.515 113.435 59.15 113.53 59.845C113.625 60.54 113.735 61.175 113.835 61.8L113.925 62.39C113.943 62.4618 113.95 62.536 113.945 62.61Z" fill="#FAFAFA"/>
<path d="M111.26 63.165C111.235 63.165 110.825 62.01 110.345 60.575C109.865 59.14 109.505 57.96 109.53 57.95C109.555 57.94 109.97 59.1 110.445 60.54C110.92 61.98 111.29 63.155 111.26 63.165Z" fill="#FAFAFA"/>
<path d="M108.825 64.025C108.8 64.025 108.265 62.965 107.63 61.625C106.995 60.285 106.5 59.195 106.525 59.18C106.55 59.165 107.09 60.245 107.725 61.58C108.36 62.915 108.85 64 108.825 64.025Z" fill="#FAFAFA"/>
<path d="M105.665 63.745C105.419 63.4689 105.22 63.1549 105.075 62.815C104.896 62.4922 104.776 62.14 104.72 61.775C104.75 61.775 104.905 62.23 105.165 62.775C105.425 63.32 105.69 63.725 105.665 63.745Z" fill="#FAFAFA"/>
</svg>
